<?xml version="1.0" encoding="utf-8" standalone="no"?>
<!DOCTYPE svg PUBLIC "-//W3C//DTD SVG 1.1//EN"
  "http://www.w3.org/Graphics/SVG/1.1/DTD/svg11.dtd">
<svg xmlns:xlink="http://www.w3.org/1999/xlink" width="591.598125pt" height="294.028594pt" viewBox="0 0 591.598125 294.028594" xmlns="http://www.w3.org/2000/svg" version="1.1">
 <metadata>
  <rdf:RDF xmlns:dc="http://purl.org/dc/elements/1.1/" xmlns:cc="http://creativecommons.org/ns#" xmlns:rdf="http://www.w3.org/1999/02/22-rdf-syntax-ns#">
   <cc:Work>
    <dc:type rdf:resource="http://purl.org/dc/dcmitype/StillImage"/>
    <dc:date>2026-05-19T17:33:16.798131</dc:date>
    <dc:format>image/svg+xml</dc:format>
    <dc:creator>
     <cc:Agent>
      <dc:title>Matplotlib v3.10.0, https://matplotlib.org/</dc:title>
     </cc:Agent>
    </dc:creator>
   </cc:Work>
  </rdf:RDF>
 </metadata>
 <defs>
  <style type="text/css">*{stroke-linejoin: round; stroke-linecap: butt}</style>
 </defs>
 <g id="figure_1">
  <g id="patch_1">
   <path d="M 0 294.028594 
L 591.598125 294.028594 
L 591.598125 0 
L 0 0 
z
" style="fill: #ffffff"/>
  </g>
  <g id="axes_1">
   <g id="patch_2">
    <path d="M 42.567969 271.118281 
L 574.597969 271.118281 
L 574.597969 21.558281 
L 42.567969 21.558281 
z
" style="fill: #ffffff"/>
   </g>
   <g id="matplotlib.axis_1">
    <g id="xtick_1">
     <g id="line2d_1">
      <defs>
       <path id="mf18ccec37c" d="M 0 0 
L 0 3.5 
" style="stroke: #000000; stroke-width: 0.8"/>
      </defs>
      <g>
       <use xlink:href="#mf18ccec37c" x="42.567969" y="271.118281" style="stroke: #000000; stroke-width: 0.8"/>
      </g>
     </g>
     <g id="text_1">
      <!-- Jan -->
      <g transform="translate(35.630938 284.956875) scale(0.09 -0.09)">
       <defs>
        <path id="DejaVuSans-4a" d="M 628 4666 
L 1259 4666 
L 1259 325 
Q 1259 -519 939 -900 
Q 619 -1281 -91 -1281 
L -331 -1281 
L -331 -750 
L -134 -750 
Q 284 -750 456 -515 
Q 628 -281 628 325 
L 628 4666 
z
" transform="scale(0.015625)"/>
        <path id="DejaVuSans-61" d="M 2194 1759 
Q 1497 1759 1228 1600 
Q 959 1441 959 1056 
Q 959 750 1161 570 
Q 1363 391 1709 391 
Q 2188 391 2477 730 
Q 2766 1069 2766 1631 
L 2766 1759 
L 2194 1759 
z
M 3341 1997 
L 3341 0 
L 2766 0 
L 2766 531 
Q 2569 213 2275 61 
Q 1981 -91 1556 -91 
Q 1019 -91 701 211 
Q 384 513 384 1019 
Q 384 1609 779 1909 
Q 1175 2209 1959 2209 
L 2766 2209 
L 2766 2266 
Q 2766 2663 2505 2880 
Q 2244 3097 1772 3097 
Q 1472 3097 1187 3025 
Q 903 2953 641 2809 
L 641 3341 
Q 956 3463 1253 3523 
Q 1550 3584 1831 3584 
Q 2591 3584 2966 3190 
Q 3341 2797 3341 1997 
z
" transform="scale(0.015625)"/>
        <path id="DejaVuSans-6e" d="M 3513 2113 
L 3513 0 
L 2938 0 
L 2938 2094 
Q 2938 2591 2744 2837 
Q 2550 3084 2163 3084 
Q 1697 3084 1428 2787 
Q 1159 2491 1159 1978 
L 1159 0 
L 581 0 
L 581 3500 
L 1159 3500 
L 1159 2956 
Q 1366 3272 1645 3428 
Q 1925 3584 2291 3584 
Q 2894 3584 3203 3211 
Q 3513 2838 3513 2113 
z
" transform="scale(0.015625)"/>
       </defs>
       <use xlink:href="#DejaVuSans-4a"/>
       <use xlink:href="#DejaVuSans-61" transform="translate(29.492188 0)"/>
       <use xlink:href="#DejaVuSans-6e" transform="translate(90.771484 0)"/>
      </g>
     </g>
    </g>
    <g id="xtick_2">
     <g id="line2d_2">
      <g>
       <use xlink:href="#mf18ccec37c" x="151.792671" y="271.118281" style="stroke: #000000; stroke-width: 0.8"/>
      </g>
     </g>
     <g id="text_2">
      <!-- Feb -->
      <g transform="translate(143.826264 284.956875) scale(0.09 -0.09)">
       <defs>
        <path id="DejaVuSans-46" d="M 628 4666 
L 3309 4666 
L 3309 4134 
L 1259 4134 
L 1259 2759 
L 3109 2759 
L 3109 2228 
L 1259 2228 
L 1259 0 
L 628 0 
L 628 4666 
z
" transform="scale(0.015625)"/>
        <path id="DejaVuSans-65" d="M 3597 1894 
L 3597 1613 
L 953 1613 
Q 991 1019 1311 708 
Q 1631 397 2203 397 
Q 2534 397 2845 478 
Q 3156 559 3463 722 
L 3463 178 
Q 3153 47 2828 -22 
Q 2503 -91 2169 -91 
Q 1331 -91 842 396 
Q 353 884 353 1716 
Q 353 2575 817 3079 
Q 1281 3584 2069 3584 
Q 2775 3584 3186 3129 
Q 3597 2675 3597 1894 
z
M 3022 2063 
Q 3016 2534 2758 2815 
Q 2500 3097 2075 3097 
Q 1594 3097 1305 2825 
Q 1016 2553 972 2059 
L 3022 2063 
z
" transform="scale(0.015625)"/>
        <path id="DejaVuSans-62" d="M 3116 1747 
Q 3116 2381 2855 2742 
Q 2594 3103 2138 3103 
Q 1681 3103 1420 2742 
Q 1159 2381 1159 1747 
Q 1159 1113 1420 752 
Q 1681 391 2138 391 
Q 2594 391 2855 752 
Q 3116 1113 3116 1747 
z
M 1159 2969 
Q 1341 3281 1617 3432 
Q 1894 3584 2278 3584 
Q 2916 3584 3314 3078 
Q 3713 2572 3713 1747 
Q 3713 922 3314 415 
Q 2916 -91 2278 -91 
Q 1894 -91 1617 61 
Q 1341 213 1159 525 
L 1159 0 
L 581 0 
L 581 4863 
L 1159 4863 
L 1159 2969 
z
" transform="scale(0.015625)"/>
       </defs>
       <use xlink:href="#DejaVuSans-46"/>
       <use xlink:href="#DejaVuSans-65" transform="translate(52.019531 0)"/>
       <use xlink:href="#DejaVuSans-62" transform="translate(113.542969 0)"/>
      </g>
     </g>
    </g>
    <g id="xtick_3">
     <g id="line2d_3">
      <g>
       <use xlink:href="#mf18ccec37c" x="250.44724" y="271.118281" style="stroke: #000000; stroke-width: 0.8"/>
      </g>
     </g>
     <g id="text_3">
      <!-- Mar -->
      <g transform="translate(241.957006 284.956875) scale(0.09 -0.09)">
       <defs>
        <path id="DejaVuSans-4d" d="M 628 4666 
L 1569 4666 
L 2759 1491 
L 3956 4666 
L 4897 4666 
L 4897 0 
L 4281 0 
L 4281 4097 
L 3078 897 
L 2444 897 
L 1241 4097 
L 1241 0 
L 628 0 
L 628 4666 
z
" transform="scale(0.015625)"/>
        <path id="DejaVuSans-72" d="M 2631 2963 
Q 2534 3019 2420 3045 
Q 2306 3072 2169 3072 
Q 1681 3072 1420 2755 
Q 1159 2438 1159 1844 
L 1159 0 
L 581 0 
L 581 3500 
L 1159 3500 
L 1159 2956 
Q 1341 3275 1631 3429 
Q 1922 3584 2338 3584 
Q 2397 3584 2469 3576 
Q 2541 3569 2628 3553 
L 2631 2963 
z
" transform="scale(0.015625)"/>
       </defs>
       <use xlink:href="#DejaVuSans-4d"/>
       <use xlink:href="#DejaVuSans-61" transform="translate(86.279297 0)"/>
       <use xlink:href="#DejaVuSans-72" transform="translate(147.558594 0)"/>
      </g>
     </g>
    </g>
    <g id="xtick_4">
     <g id="line2d_4">
      <g>
       <use xlink:href="#mf18ccec37c" x="359.671942" y="271.118281" style="stroke: #000000; stroke-width: 0.8"/>
      </g>
     </g>
     <g id="text_4">
      <!-- Apr -->
      <g transform="translate(351.886942 284.956875) scale(0.09 -0.09)">
       <defs>
        <path id="DejaVuSans-41" d="M 2188 4044 
L 1331 1722 
L 3047 1722 
L 2188 4044 
z
M 1831 4666 
L 2547 4666 
L 4325 0 
L 3669 0 
L 3244 1197 
L 1141 1197 
L 716 0 
L 50 0 
L 1831 4666 
z
" transform="scale(0.015625)"/>
        <path id="DejaVuSans-70" d="M 1159 525 
L 1159 -1331 
L 581 -1331 
L 581 3500 
L 1159 3500 
L 1159 2969 
Q 1341 3281 1617 3432 
Q 1894 3584 2278 3584 
Q 2916 3584 3314 3078 
Q 3713 2572 3713 1747 
Q 3713 922 3314 415 
Q 2916 -91 2278 -91 
Q 1894 -91 1617 61 
Q 1341 213 1159 525 
z
M 3116 1747 
Q 3116 2381 2855 2742 
Q 2594 3103 2138 3103 
Q 1681 3103 1420 2742 
Q 1159 2381 1159 1747 
Q 1159 1113 1420 752 
Q 1681 391 2138 391 
Q 2594 391 2855 752 
Q 3116 1113 3116 1747 
z
" transform="scale(0.015625)"/>
       </defs>
       <use xlink:href="#DejaVuSans-41"/>
       <use xlink:href="#DejaVuSans-70" transform="translate(68.408203 0)"/>
       <use xlink:href="#DejaVuSans-72" transform="translate(131.884766 0)"/>
      </g>
     </g>
    </g>
    <g id="xtick_5">
     <g id="line2d_5">
      <g>
       <use xlink:href="#mf18ccec37c" x="465.373267" y="271.118281" style="stroke: #000000; stroke-width: 0.8"/>
      </g>
     </g>
     <g id="text_5">
      <!-- May -->
      <g transform="translate(456.069517 284.956875) scale(0.09 -0.09)">
       <defs>
        <path id="DejaVuSans-79" d="M 2059 -325 
Q 1816 -950 1584 -1140 
Q 1353 -1331 966 -1331 
L 506 -1331 
L 506 -850 
L 844 -850 
Q 1081 -850 1212 -737 
Q 1344 -625 1503 -206 
L 1606 56 
L 191 3500 
L 800 3500 
L 1894 763 
L 2988 3500 
L 3597 3500 
L 2059 -325 
z
" transform="scale(0.015625)"/>
       </defs>
       <use xlink:href="#DejaVuSans-4d"/>
       <use xlink:href="#DejaVuSans-61" transform="translate(86.279297 0)"/>
       <use xlink:href="#DejaVuSans-79" transform="translate(147.558594 0)"/>
      </g>
     </g>
    </g>
    <g id="xtick_6">
     <g id="line2d_6">
      <g>
       <use xlink:href="#mf18ccec37c" x="574.597969" y="271.118281" style="stroke: #000000; stroke-width: 0.8"/>
      </g>
     </g>
     <g id="text_6">
      <!-- June -->
      <g transform="translate(564.797813 284.956875) scale(0.09 -0.09)">
       <defs>
        <path id="DejaVuSans-75" d="M 544 1381 
L 544 3500 
L 1119 3500 
L 1119 1403 
Q 1119 906 1312 657 
Q 1506 409 1894 409 
Q 2359 409 2629 706 
Q 2900 1003 2900 1516 
L 2900 3500 
L 3475 3500 
L 3475 0 
L 2900 0 
L 2900 538 
Q 2691 219 2414 64 
Q 2138 -91 1772 -91 
Q 1169 -91 856 284 
Q 544 659 544 1381 
z
M 1991 3584 
L 1991 3584 
z
" transform="scale(0.015625)"/>
       </defs>
       <use xlink:href="#DejaVuSans-4a"/>
       <use xlink:href="#DejaVuSans-75" transform="translate(29.492188 0)"/>
       <use xlink:href="#DejaVuSans-6e" transform="translate(92.871094 0)"/>
       <use xlink:href="#DejaVuSans-65" transform="translate(156.25 0)"/>
      </g>
     </g>
    </g>
   </g>
   <g id="matplotlib.axis_2">
    <g id="ytick_1">
     <g id="line2d_7">
      <defs>
       <path id="mc271f7ea24" d="M 0 0 
L -3.5 0 
" style="stroke: #000000; stroke-width: 0.8"/>
      </defs>
      <g>
       <use xlink:href="#mc271f7ea24" x="42.567969" y="246.162281" style="stroke: #000000; stroke-width: 0.8"/>
      </g>
     </g>
     <g id="text_7">
      <!-- −2 -->
      <g transform="translate(22.3 249.581578) scale(0.09 -0.09)">
       <defs>
        <path id="DejaVuSans-2212" d="M 678 2272 
L 4684 2272 
L 4684 1741 
L 678 1741 
L 678 2272 
z
" transform="scale(0.015625)"/>
        <path id="DejaVuSans-32" d="M 1228 531 
L 3431 531 
L 3431 0 
L 469 0 
L 469 531 
Q 828 903 1448 1529 
Q 2069 2156 2228 2338 
Q 2531 2678 2651 2914 
Q 2772 3150 2772 3378 
Q 2772 3750 2511 3984 
Q 2250 4219 1831 4219 
Q 1534 4219 1204 4116 
Q 875 4013 500 3803 
L 500 4441 
Q 881 4594 1212 4672 
Q 1544 4750 1819 4750 
Q 2544 4750 2975 4387 
Q 3406 4025 3406 3419 
Q 3406 3131 3298 2873 
Q 3191 2616 2906 2266 
Q 2828 2175 2409 1742 
Q 1991 1309 1228 531 
z
" transform="scale(0.015625)"/>
       </defs>
       <use xlink:href="#DejaVuSans-2212"/>
       <use xlink:href="#DejaVuSans-32" transform="translate(83.789062 0)"/>
      </g>
     </g>
    </g>
    <g id="ytick_2">
     <g id="line2d_8">
      <g>
       <use xlink:href="#mc271f7ea24" x="42.567969" y="196.250281" style="stroke: #000000; stroke-width: 0.8"/>
      </g>
     </g>
     <g id="text_8">
      <!-- −1 -->
      <g transform="translate(22.3 199.669578) scale(0.09 -0.09)">
       <defs>
        <path id="DejaVuSans-31" d="M 794 531 
L 1825 531 
L 1825 4091 
L 703 3866 
L 703 4441 
L 1819 4666 
L 2450 4666 
L 2450 531 
L 3481 531 
L 3481 0 
L 794 0 
L 794 531 
z
" transform="scale(0.015625)"/>
       </defs>
       <use xlink:href="#DejaVuSans-2212"/>
       <use xlink:href="#DejaVuSans-31" transform="translate(83.789062 0)"/>
      </g>
     </g>
    </g>
    <g id="ytick_3">
     <g id="line2d_9">
      <g>
       <use xlink:href="#mc271f7ea24" x="42.567969" y="146.338281" style="stroke: #000000; stroke-width: 0.8"/>
      </g>
     </g>
     <g id="text_9">
      <!-- 0 -->
      <g transform="translate(29.841719 149.757578) scale(0.09 -0.09)">
       <defs>
        <path id="DejaVuSans-30" d="M 2034 4250 
Q 1547 4250 1301 3770 
Q 1056 3291 1056 2328 
Q 1056 1369 1301 889 
Q 1547 409 2034 409 
Q 2525 409 2770 889 
Q 3016 1369 3016 2328 
Q 3016 3291 2770 3770 
Q 2525 4250 2034 4250 
z
M 2034 4750 
Q 2819 4750 3233 4129 
Q 3647 3509 3647 2328 
Q 3647 1150 3233 529 
Q 2819 -91 2034 -91 
Q 1250 -91 836 529 
Q 422 1150 422 2328 
Q 422 3509 836 4129 
Q 1250 4750 2034 4750 
z
" transform="scale(0.015625)"/>
       </defs>
       <use xlink:href="#DejaVuSans-30"/>
      </g>
     </g>
    </g>
    <g id="ytick_4">
     <g id="line2d_10">
      <g>
       <use xlink:href="#mc271f7ea24" x="42.567969" y="96.426281" style="stroke: #000000; stroke-width: 0.8"/>
      </g>
     </g>
     <g id="text_10">
      <!-- 1 -->
      <g transform="translate(29.841719 99.845578) scale(0.09 -0.09)">
       <use xlink:href="#DejaVuSans-31"/>
      </g>
     </g>
    </g>
    <g id="ytick_5">
     <g id="line2d_11">
      <g>
       <use xlink:href="#mc271f7ea24" x="42.567969" y="46.514281" style="stroke: #000000; stroke-width: 0.8"/>
      </g>
     </g>
     <g id="text_11">
      <!-- 2 -->
      <g transform="translate(29.841719 49.933578) scale(0.09 -0.09)">
       <use xlink:href="#DejaVuSans-32"/>
      </g>
     </g>
    </g>
    <g id="text_12">
     <!-- Eddy heat flux anomaly v'T' (K m s$^{-1}$) -->
     <g transform="translate(16.2 240.838281) rotate(-90) scale(0.1 -0.1)">
      <defs>
       <path id="DejaVuSans-45" d="M 628 4666 
L 3578 4666 
L 3578 4134 
L 1259 4134 
L 1259 2753 
L 3481 2753 
L 3481 2222 
L 1259 2222 
L 1259 531 
L 3634 531 
L 3634 0 
L 628 0 
L 628 4666 
z
" transform="scale(0.015625)"/>
       <path id="DejaVuSans-64" d="M 2906 2969 
L 2906 4863 
L 3481 4863 
L 3481 0 
L 2906 0 
L 2906 525 
Q 2725 213 2448 61 
Q 2172 -91 1784 -91 
Q 1150 -91 751 415 
Q 353 922 353 1747 
Q 353 2572 751 3078 
Q 1150 3584 1784 3584 
Q 2172 3584 2448 3432 
Q 2725 3281 2906 2969 
z
M 947 1747 
Q 947 1113 1208 752 
Q 1469 391 1925 391 
Q 2381 391 2643 752 
Q 2906 1113 2906 1747 
Q 2906 2381 2643 2742 
Q 2381 3103 1925 3103 
Q 1469 3103 1208 2742 
Q 947 2381 947 1747 
z
" transform="scale(0.015625)"/>
       <path id="DejaVuSans-20" transform="scale(0.015625)"/>
       <path id="DejaVuSans-68" d="M 3513 2113 
L 3513 0 
L 2938 0 
L 2938 2094 
Q 2938 2591 2744 2837 
Q 2550 3084 2163 3084 
Q 1697 3084 1428 2787 
Q 1159 2491 1159 1978 
L 1159 0 
L 581 0 
L 581 4863 
L 1159 4863 
L 1159 2956 
Q 1366 3272 1645 3428 
Q 1925 3584 2291 3584 
Q 2894 3584 3203 3211 
Q 3513 2838 3513 2113 
z
" transform="scale(0.015625)"/>
       <path id="DejaVuSans-74" d="M 1172 4494 
L 1172 3500 
L 2356 3500 
L 2356 3053 
L 1172 3053 
L 1172 1153 
Q 1172 725 1289 603 
Q 1406 481 1766 481 
L 2356 481 
L 2356 0 
L 1766 0 
Q 1100 0 847 248 
Q 594 497 594 1153 
L 594 3053 
L 172 3053 
L 172 3500 
L 594 3500 
L 594 4494 
L 1172 4494 
z
" transform="scale(0.015625)"/>
       <path id="DejaVuSans-66" d="M 2375 4863 
L 2375 4384 
L 1825 4384 
Q 1516 4384 1395 4259 
Q 1275 4134 1275 3809 
L 1275 3500 
L 2222 3500 
L 2222 3053 
L 1275 3053 
L 1275 0 
L 697 0 
L 697 3053 
L 147 3053 
L 147 3500 
L 697 3500 
L 697 3744 
Q 697 4328 969 4595 
Q 1241 4863 1831 4863 
L 2375 4863 
z
" transform="scale(0.015625)"/>
       <path id="DejaVuSans-6c" d="M 603 4863 
L 1178 4863 
L 1178 0 
L 603 0 
L 603 4863 
z
" transform="scale(0.015625)"/>
       <path id="DejaVuSans-78" d="M 3513 3500 
L 2247 1797 
L 3578 0 
L 2900 0 
L 1881 1375 
L 863 0 
L 184 0 
L 1544 1831 
L 300 3500 
L 978 3500 
L 1906 2253 
L 2834 3500 
L 3513 3500 
z
" transform="scale(0.015625)"/>
       <path id="DejaVuSans-6f" d="M 1959 3097 
Q 1497 3097 1228 2736 
Q 959 2375 959 1747 
Q 959 1119 1226 758 
Q 1494 397 1959 397 
Q 2419 397 2687 759 
Q 2956 1122 2956 1747 
Q 2956 2369 2687 2733 
Q 2419 3097 1959 3097 
z
M 1959 3584 
Q 2709 3584 3137 3096 
Q 3566 2609 3566 1747 
Q 3566 888 3137 398 
Q 2709 -91 1959 -91 
Q 1206 -91 779 398 
Q 353 888 353 1747 
Q 353 2609 779 3096 
Q 1206 3584 1959 3584 
z
" transform="scale(0.015625)"/>
       <path id="DejaVuSans-6d" d="M 3328 2828 
Q 3544 3216 3844 3400 
Q 4144 3584 4550 3584 
Q 5097 3584 5394 3201 
Q 5691 2819 5691 2113 
L 5691 0 
L 5113 0 
L 5113 2094 
Q 5113 2597 4934 2840 
Q 4756 3084 4391 3084 
Q 3944 3084 3684 2787 
Q 3425 2491 3425 1978 
L 3425 0 
L 2847 0 
L 2847 2094 
Q 2847 2600 2669 2842 
Q 2491 3084 2119 3084 
Q 1678 3084 1418 2786 
Q 1159 2488 1159 1978 
L 1159 0 
L 581 0 
L 581 3500 
L 1159 3500 
L 1159 2956 
Q 1356 3278 1631 3431 
Q 1906 3584 2284 3584 
Q 2666 3584 2933 3390 
Q 3200 3197 3328 2828 
z
" transform="scale(0.015625)"/>
       <path id="DejaVuSans-76" d="M 191 3500 
L 800 3500 
L 1894 563 
L 2988 3500 
L 3597 3500 
L 2284 0 
L 1503 0 
L 191 3500 
z
" transform="scale(0.015625)"/>
       <path id="DejaVuSans-27" d="M 1147 4666 
L 1147 2931 
L 616 2931 
L 616 4666 
L 1147 4666 
z
" transform="scale(0.015625)"/>
       <path id="DejaVuSans-54" d="M -19 4666 
L 3928 4666 
L 3928 4134 
L 2272 4134 
L 2272 0 
L 1638 0 
L 1638 4134 
L -19 4134 
L -19 4666 
z
" transform="scale(0.015625)"/>
       <path id="DejaVuSans-28" d="M 1984 4856 
Q 1566 4138 1362 3434 
Q 1159 2731 1159 2009 
Q 1159 1288 1364 580 
Q 1569 -128 1984 -844 
L 1484 -844 
Q 1016 -109 783 600 
Q 550 1309 550 2009 
Q 550 2706 781 3412 
Q 1013 4119 1484 4856 
L 1984 4856 
z
" transform="scale(0.015625)"/>
       <path id="DejaVuSans-4b" d="M 628 4666 
L 1259 4666 
L 1259 2694 
L 3353 4666 
L 4166 4666 
L 1850 2491 
L 4331 0 
L 3500 0 
L 1259 2247 
L 1259 0 
L 628 0 
L 628 4666 
z
" transform="scale(0.015625)"/>
       <path id="DejaVuSans-73" d="M 2834 3397 
L 2834 2853 
Q 2591 2978 2328 3040 
Q 2066 3103 1784 3103 
Q 1356 3103 1142 2972 
Q 928 2841 928 2578 
Q 928 2378 1081 2264 
Q 1234 2150 1697 2047 
L 1894 2003 
Q 2506 1872 2764 1633 
Q 3022 1394 3022 966 
Q 3022 478 2636 193 
Q 2250 -91 1575 -91 
Q 1294 -91 989 -36 
Q 684 19 347 128 
L 347 722 
Q 666 556 975 473 
Q 1284 391 1588 391 
Q 1994 391 2212 530 
Q 2431 669 2431 922 
Q 2431 1156 2273 1281 
Q 2116 1406 1581 1522 
L 1381 1569 
Q 847 1681 609 1914 
Q 372 2147 372 2553 
Q 372 3047 722 3315 
Q 1072 3584 1716 3584 
Q 2034 3584 2315 3537 
Q 2597 3491 2834 3397 
z
" transform="scale(0.015625)"/>
       <path id="DejaVuSans-29" d="M 513 4856 
L 1013 4856 
Q 1481 4119 1714 3412 
Q 1947 2706 1947 2009 
Q 1947 1309 1714 600 
Q 1481 -109 1013 -844 
L 513 -844 
Q 928 -128 1133 580 
Q 1338 1288 1338 2009 
Q 1338 2731 1133 3434 
Q 928 4138 513 4856 
z
" transform="scale(0.015625)"/>
      </defs>
      <use xlink:href="#DejaVuSans-45" transform="translate(0 0.684375)"/>
      <use xlink:href="#DejaVuSans-64" transform="translate(63.183594 0.684375)"/>
      <use xlink:href="#DejaVuSans-64" transform="translate(126.660156 0.684375)"/>
      <use xlink:href="#DejaVuSans-79" transform="translate(190.136719 0.684375)"/>
      <use xlink:href="#DejaVuSans-20" transform="translate(249.316406 0.684375)"/>
      <use xlink:href="#DejaVuSans-68" transform="translate(281.103516 0.684375)"/>
      <use xlink:href="#DejaVuSans-65" transform="translate(344.482422 0.684375)"/>
      <use xlink:href="#DejaVuSans-61" transform="translate(406.005859 0.684375)"/>
      <use xlink:href="#DejaVuSans-74" transform="translate(467.285156 0.684375)"/>
      <use xlink:href="#DejaVuSans-20" transform="translate(506.494141 0.684375)"/>
      <use xlink:href="#DejaVuSans-66" transform="translate(538.28125 0.684375)"/>
      <use xlink:href="#DejaVuSans-6c" transform="translate(573.486328 0.684375)"/>
      <use xlink:href="#DejaVuSans-75" transform="translate(601.269531 0.684375)"/>
      <use xlink:href="#DejaVuSans-78" transform="translate(664.648438 0.684375)"/>
      <use xlink:href="#DejaVuSans-20" transform="translate(723.828125 0.684375)"/>
      <use xlink:href="#DejaVuSans-61" transform="translate(755.615234 0.684375)"/>
      <use xlink:href="#DejaVuSans-6e" transform="translate(816.894531 0.684375)"/>
      <use xlink:href="#DejaVuSans-6f" transform="translate(880.273438 0.684375)"/>
      <use xlink:href="#DejaVuSans-6d" transform="translate(941.455078 0.684375)"/>
      <use xlink:href="#DejaVuSans-61" transform="translate(1038.867188 0.684375)"/>
      <use xlink:href="#DejaVuSans-6c" transform="translate(1100.146484 0.684375)"/>
      <use xlink:href="#DejaVuSans-79" transform="translate(1127.929688 0.684375)"/>
      <use xlink:href="#DejaVuSans-20" transform="translate(1187.109375 0.684375)"/>
      <use xlink:href="#DejaVuSans-76" transform="translate(1218.896484 0.684375)"/>
      <use xlink:href="#DejaVuSans-27" transform="translate(1278.076172 0.684375)"/>
      <use xlink:href="#DejaVuSans-54" transform="translate(1305.566406 0.684375)"/>
      <use xlink:href="#DejaVuSans-27" transform="translate(1366.650391 0.684375)"/>
      <use xlink:href="#DejaVuSans-20" transform="translate(1394.140625 0.684375)"/>
      <use xlink:href="#DejaVuSans-28" transform="translate(1425.927734 0.684375)"/>
      <use xlink:href="#DejaVuSans-4b" transform="translate(1464.941406 0.684375)"/>
      <use xlink:href="#DejaVuSans-20" transform="translate(1530.517578 0.684375)"/>
      <use xlink:href="#DejaVuSans-6d" transform="translate(1562.304688 0.684375)"/>
      <use xlink:href="#DejaVuSans-20" transform="translate(1659.716797 0.684375)"/>
      <use xlink:href="#DejaVuSans-73" transform="translate(1691.503906 0.684375)"/>
      <use xlink:href="#DejaVuSans-2212" transform="translate(1744.560547 38.965625) scale(0.7)"/>
      <use xlink:href="#DejaVuSans-31" transform="translate(1803.212891 38.965625) scale(0.7)"/>
      <use xlink:href="#DejaVuSans-29" transform="translate(1850.483398 0.684375)"/>
     </g>
    </g>
   </g>
   <g id="line2d_12">
    <path d="M 42.567969 243.396318 
L 46.091346 242.944766 
L 49.614724 242.146046 
L 53.138101 240.34658 
L 56.661479 239.368782 
L 63.708234 238.789058 
L 67.231611 237.841471 
L 70.754989 235.408892 
L 74.278366 233.640873 
L 81.325121 230.980529 
L 84.848499 230.98419 
L 88.371876 230.400865 
L 95.418631 227.443502 
L 98.942008 226.082569 
L 102.465386 225.595412 
L 105.988763 226.32053 
L 109.512141 227.482306 
L 113.035518 226.118987 
L 120.082273 219.597894 
L 123.605651 217.334094 
L 127.129028 214.573318 
L 130.652406 211.993625 
L 134.175783 211.865476 
L 137.699161 214.174801 
L 141.222538 216.300829 
L 144.745916 217.530427 
L 148.269293 217.832234 
L 151.792671 219.055647 
L 155.316048 218.976951 
L 158.839426 217.774984 
L 162.362803 216.03665 
L 165.886181 213.896901 
L 169.409558 212.048157 
L 172.932936 210.421799 
L 176.456313 208.588555 
L 179.979691 206.218828 
L 190.549823 195.522542 
L 194.073201 193.409722 
L 197.596578 191.765345 
L 201.119956 189.544066 
L 204.643333 188.847303 
L 208.16671 189.212678 
L 211.690088 188.488872 
L 215.213465 186.864676 
L 222.26022 185.19944 
L 225.783598 183.757095 
L 229.306975 182.075998 
L 232.830353 181.211281 
L 236.35373 181.787182 
L 239.877108 183.323077 
L 243.400485 183.015765 
L 246.923863 180.014559 
L 250.44724 177.563186 
L 253.970618 175.900695 
L 257.493995 173.026826 
L 261.017373 172.308741 
L 264.54075 173.650326 
L 268.064128 175.728065 
L 271.587505 177.242921 
L 275.110883 178.114406 
L 278.63426 178.473173 
L 282.157638 179.031436 
L 285.681015 179.704308 
L 289.204393 180.899787 
L 296.251148 182.043294 
L 299.774525 182.655288 
L 303.297903 182.547531 
L 306.82128 180.986714 
L 310.344657 177.655487 
L 313.868035 174.150584 
L 317.391412 170.898644 
L 320.91479 167.23503 
L 324.438167 163.753383 
L 327.961545 160.723089 
L 331.484922 158.160961 
L 335.0083 155.998713 
L 338.531677 152.691211 
L 342.055055 148.708314 
L 345.578432 144.315662 
L 349.10181 141.050569 
L 352.625187 140.215796 
L 356.148565 139.887899 
L 359.671942 138.07045 
L 363.19532 135.287125 
L 366.718697 130.649326 
L 370.242075 123.598806 
L 373.765452 115.123126 
L 377.28883 106.997218 
L 380.812207 99.944219 
L 384.335585 94.10033 
L 387.858962 89.216392 
L 391.38234 84.532179 
L 394.905717 80.238091 
L 398.429095 76.152099 
L 405.47585 67.432976 
L 408.999227 64.619529 
L 412.522605 63.945307 
L 416.045982 64.657207 
L 419.569359 65.86997 
L 426.616114 68.55943 
L 430.139492 69.343357 
L 433.662869 69.841138 
L 437.186247 70.647824 
L 440.709624 71.230455 
L 444.233002 72.14102 
L 447.756379 72.888965 
L 451.279757 72.674631 
L 454.803134 71.489842 
L 458.326512 69.840498 
L 461.849889 67.994613 
L 465.373267 67.500248 
L 468.896644 67.897139 
L 472.420022 69.267466 
L 475.943399 72.650465 
L 479.466777 77.170029 
L 482.990154 81.23421 
L 490.036909 88.584067 
L 493.560287 91.471297 
L 497.083664 94.105539 
L 500.607042 97.470637 
L 504.130419 100.447452 
L 507.653797 102.389172 
L 511.177174 103.85947 
L 514.700552 104.744502 
L 518.223929 104.734413 
L 521.747306 103.942463 
L 525.270684 102.892928 
L 528.794061 102.155409 
L 532.317439 101.742843 
L 535.840816 101.737896 
L 539.364194 102.441273 
L 542.887571 103.712851 
L 546.410949 104.816284 
L 549.934326 105.116836 
L 553.457704 104.719123 
L 556.981081 104.201817 
L 560.504459 104.072205 
L 567.551214 104.741284 
L 571.074591 104.740073 
L 571.074591 104.740073 
" clip-path="url(#peae4717201)" style="fill: none; stroke: #000080; stroke-width: 1.7; stroke-linecap: square"/>
   </g>
   <g id="line2d_13">
    <path d="M 42.567969 93.988808 
L 46.091346 92.588474 
L 49.614724 90.307229 
L 53.138101 88.17481 
L 56.661479 84.084802 
L 60.184856 77.592069 
L 63.708234 70.045342 
L 67.231611 64.251069 
L 70.754989 61.078313 
L 74.278366 61.742864 
L 77.801744 64.554685 
L 81.325121 68.384453 
L 84.848499 72.706236 
L 88.371876 76.213676 
L 91.895254 77.19962 
L 95.418631 75.070279 
L 98.942008 71.240008 
L 102.465386 68.865661 
L 109.512141 68.596392 
L 113.035518 68.665198 
L 116.558896 69.905855 
L 120.082273 73.663128 
L 123.605651 80.841991 
L 127.129028 89.231724 
L 130.652406 95.71588 
L 134.175783 99.043963 
L 137.699161 99.060485 
L 141.222538 98.258605 
L 144.745916 98.256552 
L 148.269293 98.851343 
L 151.792671 100.760142 
L 158.839426 107.6047 
L 162.362803 111.510858 
L 169.409558 120.580745 
L 176.456313 130.242918 
L 179.979691 132.826752 
L 183.503068 133.810724 
L 187.026446 133.456794 
L 190.549823 132.304051 
L 194.073201 129.904092 
L 197.596578 128.082698 
L 201.119956 129.206463 
L 204.643333 131.030354 
L 208.16671 130.305073 
L 211.690088 127.637688 
L 215.213465 125.641958 
L 218.736843 125.300241 
L 222.26022 125.163725 
L 225.783598 123.562506 
L 229.306975 119.519841 
L 232.830353 115.014051 
L 236.35373 111.824629 
L 239.877108 110.809475 
L 243.400485 112.714459 
L 250.44724 121.155574 
L 253.970618 124.007422 
L 257.493995 125.919771 
L 261.017373 126.585881 
L 264.54075 125.669469 
L 268.064128 122.385295 
L 271.587505 118.695525 
L 278.63426 113.805271 
L 282.157638 110.620739 
L 285.681015 107.723858 
L 289.204393 106.184493 
L 292.72777 106.089263 
L 296.251148 106.84682 
L 299.774525 109.648773 
L 303.297903 112.882649 
L 306.82128 115.117346 
L 310.344657 118.496268 
L 313.868035 123.166749 
L 320.91479 132.991739 
L 324.438167 137.302459 
L 327.961545 141.321902 
L 331.484922 144.875062 
L 335.0083 148.207439 
L 338.531677 152.293535 
L 345.578432 161.800103 
L 349.10181 165.627175 
L 352.625187 167.825714 
L 356.148565 169.728354 
L 359.671942 173.599994 
L 363.19532 179.438173 
L 366.718697 186.197984 
L 370.242075 194.03794 
L 373.765452 202.649492 
L 377.28883 210.371393 
L 380.812207 217.066756 
L 384.335585 222.744538 
L 387.858962 227.051845 
L 391.38234 230.607131 
L 394.905717 232.804996 
L 401.952472 235.785476 
L 405.47585 236.591871 
L 408.999227 237.543989 
L 416.045982 239.770603 
L 419.569359 241.427222 
L 423.092737 242.685753 
L 426.616114 242.611772 
L 430.139492 241.702878 
L 433.662869 239.890812 
L 437.186247 237.614692 
L 440.709624 234.911095 
L 444.233002 231.532251 
L 447.756379 227.666161 
L 451.279757 223.323998 
L 454.803134 219.363001 
L 458.326512 216.006958 
L 461.849889 213.122609 
L 465.373267 209.649607 
L 472.420022 201.8015 
L 475.943399 197.917883 
L 479.466777 194.369197 
L 482.990154 191.395806 
L 486.513532 188.075485 
L 490.036909 184.429949 
L 493.560287 181.741445 
L 497.083664 179.456867 
L 504.130419 174.610489 
L 507.653797 172.653391 
L 511.177174 170.85282 
L 514.700552 169.239154 
L 518.223929 167.441104 
L 521.747306 165.159477 
L 525.270684 162.658164 
L 528.794061 160.881513 
L 532.317439 160.27066 
L 539.364194 160.133978 
L 542.887571 159.987992 
L 549.934326 160.751264 
L 553.457704 161.145199 
L 556.981081 161.700799 
L 564.027836 163.13002 
L 567.551214 163.493352 
L 571.074591 163.533648 
L 571.074591 163.533648 
" clip-path="url(#peae4717201)" style="fill: none; stroke: #b22222; stroke-width: 1.7; stroke-linecap: square"/>
   </g>
   <g id="line2d_14">
    <path d="M 42.567969 215.849561 
L 46.091346 216.777802 
L 49.614724 218.634432 
L 53.138101 220.821994 
L 56.661479 221.535018 
L 60.184856 221.042007 
L 63.708234 221.413062 
L 67.231611 224.40438 
L 70.754989 228.649397 
L 74.278366 234.236167 
L 77.801744 240.906542 
L 81.325121 246.978738 
L 84.848499 251.118495 
L 88.371876 252.851853 
L 91.895254 254.339697 
L 95.418631 257.758944 
L 98.942008 259.712531 
L 102.465386 259.9968 
L 109.512141 261.522633 
L 113.035518 261.327381 
L 116.558896 260.30078 
L 123.605651 259.231676 
L 127.129028 261.126346 
L 130.652406 265.061526 
L 134.175783 269.594786 
L 137.699161 274.324711 
L 141.222538 277.141604 
L 144.745916 276.517337 
L 148.269293 271.312192 
L 151.792671 263.741901 
L 155.316048 257.120591 
L 158.839426 252.508286 
L 162.362803 251.525129 
L 165.886181 252.213905 
L 169.409558 251.182342 
L 172.932936 248.15184 
L 176.456313 245.589081 
L 179.979691 243.664245 
L 183.503068 242.656263 
L 187.026446 242.507919 
L 190.549823 243.324771 
L 194.073201 246.0631 
L 197.596578 248.173274 
L 201.119956 246.649105 
L 204.643333 242.824769 
L 208.16671 238.395533 
L 211.690088 233.384678 
L 215.213465 228.73406 
L 218.736843 225.63536 
L 222.26022 223.050942 
L 225.783598 221.69606 
L 229.306975 222.696937 
L 232.830353 222.800981 
L 236.35373 221.984368 
L 239.877108 220.606518 
L 243.400485 219.970955 
L 246.923863 220.313192 
L 250.44724 222.961019 
L 253.970618 228.577639 
L 257.493995 234.591401 
L 261.017373 238.465 
L 264.54075 237.801695 
L 268.064128 233.060644 
L 271.587505 227.958355 
L 275.110883 224.347924 
L 278.63426 220.172089 
L 285.681015 208.031709 
L 289.204393 204.065136 
L 292.72777 200.910725 
L 296.251148 198.561526 
L 299.774525 195.962417 
L 303.297903 192.783028 
L 306.82128 191.137531 
L 310.344657 190.854771 
L 313.868035 190.750192 
L 317.391412 189.712673 
L 320.91479 187.201833 
L 324.438167 184.356237 
L 327.961545 183.388063 
L 331.484922 182.879787 
L 335.0083 180.800457 
L 338.531677 176.782413 
L 345.578432 165.351169 
L 349.10181 160.873696 
L 352.625187 157.419953 
L 356.148565 154.287523 
L 363.19532 148.446696 
L 366.718697 145.341434 
L 370.242075 143.562937 
L 373.765452 142.521029 
L 377.28883 141.59832 
L 380.812207 141.928232 
L 384.335585 144.171034 
L 387.858962 147.182002 
L 391.38234 148.714051 
L 394.905717 147.020569 
L 398.429095 143.602963 
L 401.952472 140.727855 
L 405.47585 139.4806 
L 408.999227 138.9855 
L 412.522605 136.906464 
L 416.045982 133.739781 
L 419.569359 130.335963 
L 423.092737 127.377621 
L 426.616114 124.819677 
L 430.139492 120.380183 
L 433.662869 113.744882 
L 437.186247 107.512365 
L 440.709624 102.950075 
L 444.233002 100.563559 
L 447.756379 100.53548 
L 451.279757 101.50125 
L 454.803134 102.023381 
L 458.326512 101.488108 
L 461.849889 99.639996 
L 465.373267 96.693944 
L 468.896644 94.448385 
L 472.420022 93.22427 
L 475.943399 92.721352 
L 482.990154 92.238512 
L 486.513532 91.58155 
L 490.036909 90.672733 
L 493.560287 90.122119 
L 497.083664 90.594174 
L 500.607042 92.589613 
L 504.130419 95.808493 
L 507.653797 98.21012 
L 511.177174 98.922646 
L 514.700552 99.406268 
L 518.223929 100.96605 
L 521.747306 103.543676 
L 525.270684 106.989707 
L 528.794061 110.816493 
L 532.317439 115.266791 
L 535.840816 120.612145 
L 539.364194 126.5352 
L 542.887571 131.712906 
L 546.410949 135.40524 
L 549.934326 137.764711 
L 553.457704 139.054765 
L 556.981081 139.601357 
L 560.504459 139.748934 
L 564.027836 140.052439 
L 567.551214 140.785645 
L 571.074591 141.872561 
L 571.074591 141.872561 
" clip-path="url(#peae4717201)" style="fill: none; stroke-dasharray: 1.6,2.64; stroke-dashoffset: 0; stroke: #000080; stroke-width: 1.6"/>
   </g>
   <g id="line2d_15">
    <path d="M 42.567969 61.602922 
L 46.091346 60.056736 
L 49.614724 57.167201 
L 53.138101 55.155616 
L 56.661479 52.260391 
L 60.184856 47.349949 
L 63.708234 41.843058 
L 67.231611 38.330703 
L 70.754989 37.774494 
L 74.278366 37.638658 
L 77.801744 36.194774 
L 81.325121 35.458648 
L 84.848499 36.770208 
L 88.371876 38.825437 
L 91.895254 41.431451 
L 98.942008 46.949302 
L 102.465386 51.264011 
L 105.988763 56.463953 
L 109.512141 60.242754 
L 113.035518 60.422625 
L 116.558896 58.645008 
L 120.082273 57.869033 
L 123.605651 60.325667 
L 130.652406 71.964911 
L 134.175783 76.714117 
L 137.699161 80.190816 
L 141.222538 82.580555 
L 144.745916 84.579829 
L 151.792671 89.965198 
L 155.316048 91.172644 
L 158.839426 90.829701 
L 162.362803 91.083619 
L 165.886181 94.236686 
L 169.409558 99.366815 
L 172.932936 103.131708 
L 176.456313 104.200147 
L 179.979691 103.971545 
L 187.026446 104.452992 
L 190.549823 103.152008 
L 194.073201 100.528806 
L 197.596578 97.745992 
L 201.119956 95.992906 
L 204.643333 96.324435 
L 208.16671 98.362142 
L 211.690088 101.019491 
L 215.213465 102.296111 
L 218.736843 104.23854 
L 222.26022 106.685613 
L 225.783598 108.115101 
L 229.306975 109.043377 
L 236.35373 107.909283 
L 239.877108 108.526246 
L 243.400485 109.451738 
L 246.923863 111.003928 
L 253.970618 113.328771 
L 257.493995 116.219593 
L 261.017373 121.211994 
L 264.54075 127.574059 
L 268.064128 133.479105 
L 271.587505 138.099826 
L 278.63426 144.258836 
L 282.157638 148.08966 
L 285.681015 151.561341 
L 289.204393 155.306505 
L 296.251148 165.611405 
L 303.297903 176.703252 
L 306.82128 180.388808 
L 310.344657 182.046239 
L 313.868035 182.683963 
L 317.391412 183.206476 
L 320.91479 185.356772 
L 324.438167 187.920309 
L 327.961545 190.268835 
L 331.484922 192.413028 
L 335.0083 193.060695 
L 338.531677 193.387569 
L 342.055055 194.21006 
L 345.578432 194.363158 
L 349.10181 193.605422 
L 352.625187 193.064455 
L 356.148565 193.573357 
L 359.671942 193.916326 
L 366.718697 193.793278 
L 370.242075 193.105975 
L 373.765452 193.190006 
L 377.28883 193.517451 
L 380.812207 193.228528 
L 384.335585 191.039767 
L 387.858962 187.35416 
L 394.905717 180.903747 
L 398.429095 176.965206 
L 401.952472 173.276461 
L 405.47585 169.235019 
L 408.999227 165.016485 
L 412.522605 161.814483 
L 416.045982 159.793075 
L 419.569359 157.214814 
L 423.092737 153.728584 
L 426.616114 149.298303 
L 430.139492 145.237885 
L 433.662869 142.442722 
L 437.186247 140.258731 
L 440.709624 138.643096 
L 444.233002 137.329675 
L 447.756379 135.662961 
L 451.279757 134.131344 
L 454.803134 133.633177 
L 461.849889 134.085907 
L 465.373267 133.943676 
L 468.896644 132.811524 
L 472.420022 130.727348 
L 479.466777 126.061316 
L 482.990154 124.581953 
L 486.513532 123.887099 
L 490.036909 124.145419 
L 497.083664 126.634557 
L 500.607042 127.571207 
L 504.130419 128.02425 
L 507.653797 128.339734 
L 511.177174 129.046199 
L 518.223929 131.426068 
L 521.747306 132.255759 
L 525.270684 132.516969 
L 532.317439 132.132062 
L 535.840816 131.447865 
L 539.364194 130.308731 
L 542.887571 129.553672 
L 546.410949 129.316699 
L 549.934326 129.503936 
L 553.457704 129.957427 
L 560.504459 131.586348 
L 567.551214 133.426165 
L 571.074591 134.43274 
L 571.074591 134.43274 
" clip-path="url(#peae4717201)" style="fill: none; stroke-dasharray: 1.6,2.64; stroke-dashoffset: 0; stroke: #b22222; stroke-width: 1.6"/>
   </g>
   <g id="line2d_16">
    <path d="M 42.567969 215.305593 
L 46.091346 221.816562 
L 49.614724 227.970943 
L 53.138101 232.647476 
L 56.661479 236.279187 
L 63.708234 243.907161 
L 67.231611 245.820636 
L 70.754989 246.076611 
L 74.278366 245.965032 
L 77.801744 246.342048 
L 81.325121 244.51282 
L 84.848499 241.980973 
L 88.371876 241.10094 
L 91.895254 240.781394 
L 95.418631 240.809659 
L 98.942008 240.385231 
L 102.465386 238.750443 
L 105.988763 238.043838 
L 109.512141 239.31646 
L 116.558896 246.185537 
L 120.082273 247.552689 
L 127.129028 245.668957 
L 130.652406 243.96542 
L 134.175783 239.921875 
L 137.699161 233.423726 
L 141.222538 226.633686 
L 148.269293 214.53129 
L 151.792671 207.609448 
L 155.316048 201.014522 
L 158.839426 195.969517 
L 162.362803 191.992985 
L 165.886181 186.406966 
L 169.409558 181.236435 
L 172.932936 176.809335 
L 176.456313 172.202167 
L 179.979691 168.422953 
L 183.503068 165.164516 
L 187.026446 162.373589 
L 190.549823 160.845349 
L 194.073201 160.738096 
L 197.596578 161.641828 
L 201.119956 163.450363 
L 204.643333 167.269023 
L 208.16671 171.504529 
L 211.690088 174.015877 
L 215.213465 175.304588 
L 218.736843 175.694795 
L 222.26022 174.495846 
L 225.783598 172.852731 
L 229.306975 170.723068 
L 232.830353 167.492808 
L 236.35373 165.555892 
L 239.877108 165.125437 
L 243.400485 166.504515 
L 246.923863 167.037221 
L 253.970618 165.107721 
L 257.493995 166.653029 
L 261.017373 169.132808 
L 264.54075 171.222919 
L 268.064128 172.328809 
L 271.587505 175.475288 
L 275.110883 180.632875 
L 278.63426 188.625506 
L 282.157638 198.307301 
L 285.681015 205.867556 
L 289.204393 209.793191 
L 292.72777 212.158715 
L 296.251148 213.81393 
L 299.774525 214.649721 
L 303.297903 214.316214 
L 310.344657 212.975341 
L 313.868035 212.826491 
L 317.391412 213.993302 
L 320.91479 215.02221 
L 324.438167 213.11743 
L 327.961545 209.762577 
L 331.484922 206.609128 
L 335.0083 204.926975 
L 338.531677 206.119944 
L 342.055055 207.726152 
L 345.578432 208.516354 
L 349.10181 207.499443 
L 352.625187 205.184246 
L 356.148565 203.471687 
L 359.671942 201.241411 
L 363.19532 196.171099 
L 366.718697 189.702403 
L 377.28883 169.223078 
L 380.812207 161.356794 
L 384.335585 152.116085 
L 387.858962 142.489485 
L 391.38234 134.282571 
L 394.905717 128.880269 
L 398.429095 125.690023 
L 401.952472 122.911968 
L 405.47585 120.45676 
L 408.999227 119.426206 
L 416.045982 119.127259 
L 419.569359 118.572194 
L 423.092737 116.038536 
L 426.616114 113.318348 
L 430.139492 112.472373 
L 433.662869 112.722353 
L 437.186247 113.152686 
L 440.709624 113.215962 
L 447.756379 111.10786 
L 451.279757 110.521933 
L 454.803134 110.437547 
L 458.326512 111.468065 
L 461.849889 112.648605 
L 465.373267 114.542522 
L 468.896644 118.288886 
L 472.420022 122.684129 
L 475.943399 126.712358 
L 479.466777 130.465774 
L 482.990154 133.649868 
L 486.513532 137.083962 
L 490.036909 140.877925 
L 493.560287 144.167026 
L 497.083664 146.200392 
L 500.607042 146.804317 
L 504.130419 146.531021 
L 507.653797 146.106472 
L 511.177174 145.917176 
L 514.700552 145.565674 
L 518.223929 144.811899 
L 521.747306 143.684799 
L 525.270684 142.789244 
L 528.794061 142.590541 
L 532.317439 142.757694 
L 535.840816 143.341686 
L 542.887571 145.072103 
L 546.410949 145.691365 
L 549.934326 146.048651 
L 553.457704 146.129291 
L 556.981081 146.608825 
L 560.504459 147.324274 
L 564.027836 147.741364 
L 567.551214 147.75311 
L 571.074591 147.173653 
L 571.074591 147.173653 
" clip-path="url(#peae4717201)" style="fill: none; stroke-dasharray: 5.92,2.56; stroke-dashoffset: 0; stroke: #000080; stroke-width: 1.6"/>
   </g>
   <g id="line2d_17">
    <path d="M 42.567969 84.228778 
L 46.091346 90.646611 
L 49.614724 98.115962 
L 53.138101 104.352135 
L 56.661479 109.812532 
L 63.708234 119.839154 
L 67.231611 125.567123 
L 74.278366 137.558732 
L 77.801744 144.005624 
L 81.325121 151.251543 
L 84.848499 157.210877 
L 88.371876 162.726627 
L 91.895254 167.551465 
L 95.418631 169.778317 
L 98.942008 168.763229 
L 102.465386 165.466221 
L 105.988763 161.198299 
L 109.512141 156.66148 
L 113.035518 153.188397 
L 116.558896 150.534724 
L 123.605651 147.229427 
L 127.129028 143.465287 
L 130.652406 138.959764 
L 134.175783 135.978641 
L 137.699161 134.405421 
L 141.222538 131.730006 
L 144.745916 129.524411 
L 148.269293 126.924771 
L 151.792671 123.0575 
L 155.316048 120.761532 
L 158.839426 119.031796 
L 162.362803 116.567452 
L 165.886181 113.721202 
L 169.409558 111.298488 
L 172.932936 109.215606 
L 187.026446 101.774823 
L 190.549823 101.079832 
L 194.073201 100.579816 
L 197.596578 98.44798 
L 201.119956 95.436227 
L 204.643333 92.689399 
L 208.16671 89.606454 
L 211.690088 87.104403 
L 215.213465 86.543574 
L 218.736843 86.820985 
L 222.26022 88.660281 
L 225.783598 91.524317 
L 229.306975 94.057972 
L 232.830353 97.414851 
L 236.35373 101.544019 
L 239.877108 104.799263 
L 243.400485 106.463866 
L 246.923863 107.937299 
L 250.44724 109.043236 
L 253.970618 110.560874 
L 257.493995 112.570947 
L 261.017373 113.892764 
L 264.54075 114.539035 
L 268.064128 115.360511 
L 271.587505 115.887127 
L 275.110883 115.277616 
L 278.63426 113.931298 
L 282.157638 113.328953 
L 285.681015 113.845401 
L 289.204393 114.633623 
L 292.72777 115.608454 
L 296.251148 115.99778 
L 299.774525 116.93291 
L 303.297903 119.97851 
L 306.82128 124.398833 
L 310.344657 128.608956 
L 313.868035 132.464811 
L 317.391412 135.539439 
L 320.91479 137.077854 
L 324.438167 138.229473 
L 327.961545 137.621197 
L 331.484922 134.800239 
L 335.0083 132.202727 
L 338.531677 130.933719 
L 342.055055 130.541682 
L 345.578432 130.839303 
L 349.10181 131.675237 
L 352.625187 132.822872 
L 359.671942 134.319449 
L 363.19532 135.664168 
L 366.718697 137.425045 
L 370.242075 140.347896 
L 373.765452 144.291092 
L 377.28883 149.021901 
L 380.812207 153.948932 
L 384.335585 158.036043 
L 387.858962 160.845519 
L 391.38234 162.413257 
L 394.905717 163.161462 
L 398.429095 163.541831 
L 401.952472 164.320049 
L 405.47585 164.669861 
L 408.999227 164.331797 
L 412.522605 164.533971 
L 416.045982 165.285924 
L 419.569359 166.477046 
L 430.139492 170.566904 
L 433.662869 172.55434 
L 437.186247 175.243069 
L 440.709624 177.59913 
L 444.233002 178.431409 
L 447.756379 177.423831 
L 458.326512 174.052323 
L 465.373267 172.093639 
L 475.943399 166.794818 
L 479.466777 164.351241 
L 482.990154 161.077217 
L 486.513532 158.11205 
L 490.036909 156.255961 
L 493.560287 154.73477 
L 497.083664 153.400579 
L 500.607042 152.779476 
L 504.130419 152.695922 
L 507.653797 152.48601 
L 511.177174 151.945258 
L 514.700552 150.722275 
L 518.223929 148.960187 
L 525.270684 145.890837 
L 532.317439 141.835479 
L 535.840816 140.401223 
L 539.364194 139.617516 
L 546.410949 138.666173 
L 549.934326 138.517954 
L 553.457704 138.998779 
L 556.981081 139.144324 
L 564.027836 138.687064 
L 567.551214 138.729784 
L 571.074591 138.947246 
L 571.074591 138.947246 
" clip-path="url(#peae4717201)" style="fill: none; stroke-dasharray: 5.92,2.56; stroke-dashoffset: 0; stroke: #b22222; stroke-width: 1.6"/>
   </g>
   <g id="line2d_18">
    <path d="M 42.567969 146.338281 
L 574.597969 146.338281 
" clip-path="url(#peae4717201)" style="fill: none; stroke: #404040; stroke-width: 0.8; stroke-linecap: square"/>
   </g>
   <g id="patch_3">
    <path d="M 42.567969 271.118281 
L 42.567969 21.558281 
" style="fill: none; stroke: #000000; stroke-linejoin: miter; stroke-linecap: square"/>
   </g>
   <g id="patch_4">
    <path d="M 574.597969 271.118281 
L 574.597969 21.558281 
" style="fill: none; stroke: #000000; stroke-linejoin: miter; stroke-linecap: square"/>
   </g>
   <g id="patch_5">
    <path d="M 42.567969 271.118281 
L 574.597969 271.118281 
" style="fill: none; stroke: #000000; stroke-linejoin: miter; stroke-linecap: square"/>
   </g>
   <g id="patch_6">
    <path d="M 42.567969 21.558281 
L 574.597969 21.558281 
" style="fill: none; stroke: #000000; stroke-linejoin: miter; stroke-linecap: square"/>
   </g>
   <g id="text_13">
    <!-- Figure A5-style 100 hPa v'T' anomalies: INT-3D, CLIM-3D, CLIM-2D -->
    <g transform="translate(127.412109 15.558281) scale(0.11 -0.11)">
     <defs>
      <path id="DejaVuSans-69" d="M 603 3500 
L 1178 3500 
L 1178 0 
L 603 0 
L 603 3500 
z
M 603 4863 
L 1178 4863 
L 1178 4134 
L 603 4134 
L 603 4863 
z
" transform="scale(0.015625)"/>
      <path id="DejaVuSans-67" d="M 2906 1791 
Q 2906 2416 2648 2759 
Q 2391 3103 1925 3103 
Q 1463 3103 1205 2759 
Q 947 2416 947 1791 
Q 947 1169 1205 825 
Q 1463 481 1925 481 
Q 2391 481 2648 825 
Q 2906 1169 2906 1791 
z
M 3481 434 
Q 3481 -459 3084 -895 
Q 2688 -1331 1869 -1331 
Q 1566 -1331 1297 -1286 
Q 1028 -1241 775 -1147 
L 775 -588 
Q 1028 -725 1275 -790 
Q 1522 -856 1778 -856 
Q 2344 -856 2625 -561 
Q 2906 -266 2906 331 
L 2906 616 
Q 2728 306 2450 153 
Q 2172 0 1784 0 
Q 1141 0 747 490 
Q 353 981 353 1791 
Q 353 2603 747 3093 
Q 1141 3584 1784 3584 
Q 2172 3584 2450 3431 
Q 2728 3278 2906 2969 
L 2906 3500 
L 3481 3500 
L 3481 434 
z
" transform="scale(0.015625)"/>
      <path id="DejaVuSans-35" d="M 691 4666 
L 3169 4666 
L 3169 4134 
L 1269 4134 
L 1269 2991 
Q 1406 3038 1543 3061 
Q 1681 3084 1819 3084 
Q 2600 3084 3056 2656 
Q 3513 2228 3513 1497 
Q 3513 744 3044 326 
Q 2575 -91 1722 -91 
Q 1428 -91 1123 -41 
Q 819 9 494 109 
L 494 744 
Q 775 591 1075 516 
Q 1375 441 1709 441 
Q 2250 441 2565 725 
Q 2881 1009 2881 1497 
Q 2881 1984 2565 2268 
Q 2250 2553 1709 2553 
Q 1456 2553 1204 2497 
Q 953 2441 691 2322 
L 691 4666 
z
" transform="scale(0.015625)"/>
      <path id="DejaVuSans-2d" d="M 313 2009 
L 1997 2009 
L 1997 1497 
L 313 1497 
L 313 2009 
z
" transform="scale(0.015625)"/>
      <path id="DejaVuSans-50" d="M 1259 4147 
L 1259 2394 
L 2053 2394 
Q 2494 2394 2734 2622 
Q 2975 2850 2975 3272 
Q 2975 3691 2734 3919 
Q 2494 4147 2053 4147 
L 1259 4147 
z
M 628 4666 
L 2053 4666 
Q 2838 4666 3239 4311 
Q 3641 3956 3641 3272 
Q 3641 2581 3239 2228 
Q 2838 1875 2053 1875 
L 1259 1875 
L 1259 0 
L 628 0 
L 628 4666 
z
" transform="scale(0.015625)"/>
      <path id="DejaVuSans-3a" d="M 750 794 
L 1409 794 
L 1409 0 
L 750 0 
L 750 794 
z
M 750 3309 
L 1409 3309 
L 1409 2516 
L 750 2516 
L 750 3309 
z
" transform="scale(0.015625)"/>
      <path id="DejaVuSans-49" d="M 628 4666 
L 1259 4666 
L 1259 0 
L 628 0 
L 628 4666 
z
" transform="scale(0.015625)"/>
      <path id="DejaVuSans-4e" d="M 628 4666 
L 1478 4666 
L 3547 763 
L 3547 4666 
L 4159 4666 
L 4159 0 
L 3309 0 
L 1241 3903 
L 1241 0 
L 628 0 
L 628 4666 
z
" transform="scale(0.015625)"/>
      <path id="DejaVuSans-33" d="M 2597 2516 
Q 3050 2419 3304 2112 
Q 3559 1806 3559 1356 
Q 3559 666 3084 287 
Q 2609 -91 1734 -91 
Q 1441 -91 1130 -33 
Q 819 25 488 141 
L 488 750 
Q 750 597 1062 519 
Q 1375 441 1716 441 
Q 2309 441 2620 675 
Q 2931 909 2931 1356 
Q 2931 1769 2642 2001 
Q 2353 2234 1838 2234 
L 1294 2234 
L 1294 2753 
L 1863 2753 
Q 2328 2753 2575 2939 
Q 2822 3125 2822 3475 
Q 2822 3834 2567 4026 
Q 2313 4219 1838 4219 
Q 1578 4219 1281 4162 
Q 984 4106 628 3988 
L 628 4550 
Q 988 4650 1302 4700 
Q 1616 4750 1894 4750 
Q 2613 4750 3031 4423 
Q 3450 4097 3450 3541 
Q 3450 3153 3228 2886 
Q 3006 2619 2597 2516 
z
" transform="scale(0.015625)"/>
      <path id="DejaVuSans-44" d="M 1259 4147 
L 1259 519 
L 2022 519 
Q 2988 519 3436 956 
Q 3884 1394 3884 2338 
Q 3884 3275 3436 3711 
Q 2988 4147 2022 4147 
L 1259 4147 
z
M 628 4666 
L 1925 4666 
Q 3281 4666 3915 4102 
Q 4550 3538 4550 2338 
Q 4550 1131 3912 565 
Q 3275 0 1925 0 
L 628 0 
L 628 4666 
z
" transform="scale(0.015625)"/>
      <path id="DejaVuSans-2c" d="M 750 794 
L 1409 794 
L 1409 256 
L 897 -744 
L 494 -744 
L 750 256 
L 750 794 
z
" transform="scale(0.015625)"/>
      <path id="DejaVuSans-43" d="M 4122 4306 
L 4122 3641 
Q 3803 3938 3442 4084 
Q 3081 4231 2675 4231 
Q 1875 4231 1450 3742 
Q 1025 3253 1025 2328 
Q 1025 1406 1450 917 
Q 1875 428 2675 428 
Q 3081 428 3442 575 
Q 3803 722 4122 1019 
L 4122 359 
Q 3791 134 3420 21 
Q 3050 -91 2638 -91 
Q 1578 -91 968 557 
Q 359 1206 359 2328 
Q 359 3453 968 4101 
Q 1578 4750 2638 4750 
Q 3056 4750 3426 4639 
Q 3797 4528 4122 4306 
z
" transform="scale(0.015625)"/>
      <path id="DejaVuSans-4c" d="M 628 4666 
L 1259 4666 
L 1259 531 
L 3531 531 
L 3531 0 
L 628 0 
L 628 4666 
z
" transform="scale(0.015625)"/>
     </defs>
     <use xlink:href="#DejaVuSans-46"/>
     <use xlink:href="#DejaVuSans-69" transform="translate(50.269531 0)"/>
     <use xlink:href="#DejaVuSans-67" transform="translate(78.052734 0)"/>
     <use xlink:href="#DejaVuSans-75" transform="translate(141.529297 0)"/>
     <use xlink:href="#DejaVuSans-72" transform="translate(204.908203 0)"/>
     <use xlink:href="#DejaVuSans-65" transform="translate(243.771484 0)"/>
     <use xlink:href="#DejaVuSans-20" transform="translate(305.294922 0)"/>
     <use xlink:href="#DejaVuSans-41" transform="translate(337.082031 0)"/>
     <use xlink:href="#DejaVuSans-35" transform="translate(405.490234 0)"/>
     <use xlink:href="#DejaVuSans-2d" transform="translate(469.113281 0)"/>
     <use xlink:href="#DejaVuSans-73" transform="translate(505.197266 0)"/>
     <use xlink:href="#DejaVuSans-74" transform="translate(557.296875 0)"/>
     <use xlink:href="#DejaVuSans-79" transform="translate(596.505859 0)"/>
     <use xlink:href="#DejaVuSans-6c" transform="translate(655.685547 0)"/>
     <use xlink:href="#DejaVuSans-65" transform="translate(683.46875 0)"/>
     <use xlink:href="#DejaVuSans-20" transform="translate(744.992188 0)"/>
     <use xlink:href="#DejaVuSans-31" transform="translate(776.779297 0)"/>
     <use xlink:href="#DejaVuSans-30" transform="translate(840.402344 0)"/>
     <use xlink:href="#DejaVuSans-30" transform="translate(904.025391 0)"/>
     <use xlink:href="#DejaVuSans-20" transform="translate(967.648438 0)"/>
     <use xlink:href="#DejaVuSans-68" transform="translate(999.435547 0)"/>
     <use xlink:href="#DejaVuSans-50" transform="translate(1062.814453 0)"/>
     <use xlink:href="#DejaVuSans-61" transform="translate(1118.617188 0)"/>
     <use xlink:href="#DejaVuSans-20" transform="translate(1179.896484 0)"/>
     <use xlink:href="#DejaVuSans-76" transform="translate(1211.683594 0)"/>
     <use xlink:href="#DejaVuSans-27" transform="translate(1270.863281 0)"/>
     <use xlink:href="#DejaVuSans-54" transform="translate(1298.353516 0)"/>
     <use xlink:href="#DejaVuSans-27" transform="translate(1359.4375 0)"/>
     <use xlink:href="#DejaVuSans-20" transform="translate(1386.927734 0)"/>
     <use xlink:href="#DejaVuSans-61" transform="translate(1418.714844 0)"/>
     <use xlink:href="#DejaVuSans-6e" transform="translate(1479.994141 0)"/>
     <use xlink:href="#DejaVuSans-6f" transform="translate(1543.373047 0)"/>
     <use xlink:href="#DejaVuSans-6d" transform="translate(1604.554688 0)"/>
     <use xlink:href="#DejaVuSans-61" transform="translate(1701.966797 0)"/>
     <use xlink:href="#DejaVuSans-6c" transform="translate(1763.246094 0)"/>
     <use xlink:href="#DejaVuSans-69" transform="translate(1791.029297 0)"/>
     <use xlink:href="#DejaVuSans-65" transform="translate(1818.8125 0)"/>
     <use xlink:href="#DejaVuSans-73" transform="translate(1880.335938 0)"/>
     <use xlink:href="#DejaVuSans-3a" transform="translate(1932.435547 0)"/>
     <use xlink:href="#DejaVuSans-20" transform="translate(1966.126953 0)"/>
     <use xlink:href="#DejaVuSans-49" transform="translate(1997.914062 0)"/>
     <use xlink:href="#DejaVuSans-4e" transform="translate(2027.40625 0)"/>
     <use xlink:href="#DejaVuSans-54" transform="translate(2102.210938 0)"/>
     <use xlink:href="#DejaVuSans-2d" transform="translate(2154.169922 0)"/>
     <use xlink:href="#DejaVuSans-33" transform="translate(2190.253906 0)"/>
     <use xlink:href="#DejaVuSans-44" transform="translate(2253.876953 0)"/>
     <use xlink:href="#DejaVuSans-2c" transform="translate(2330.878906 0)"/>
     <use xlink:href="#DejaVuSans-20" transform="translate(2362.666016 0)"/>
     <use xlink:href="#DejaVuSans-43" transform="translate(2394.453125 0)"/>
     <use xlink:href="#DejaVuSans-4c" transform="translate(2464.277344 0)"/>
     <use xlink:href="#DejaVuSans-49" transform="translate(2519.990234 0)"/>
     <use xlink:href="#DejaVuSans-4d" transform="translate(2549.482422 0)"/>
     <use xlink:href="#DejaVuSans-2d" transform="translate(2635.761719 0)"/>
     <use xlink:href="#DejaVuSans-33" transform="translate(2671.845703 0)"/>
     <use xlink:href="#DejaVuSans-44" transform="translate(2735.46875 0)"/>
     <use xlink:href="#DejaVuSans-2c" transform="translate(2812.470703 0)"/>
     <use xlink:href="#DejaVuSans-20" transform="translate(2844.257812 0)"/>
     <use xlink:href="#DejaVuSans-43" transform="translate(2876.044922 0)"/>
     <use xlink:href="#DejaVuSans-4c" transform="translate(2945.869141 0)"/>
     <use xlink:href="#DejaVuSans-49" transform="translate(3001.582031 0)"/>
     <use xlink:href="#DejaVuSans-4d" transform="translate(3031.074219 0)"/>
     <use xlink:href="#DejaVuSans-2d" transform="translate(3117.353516 0)"/>
     <use xlink:href="#DejaVuSans-32" transform="translate(3153.4375 0)"/>
     <use xlink:href="#DejaVuSans-44" transform="translate(3217.060547 0)"/>
    </g>
   </g>
   <g id="legend_1">
    <g id="line2d_19">
     <path d="M 375.666719 32.037031 
L 383.666719 32.037031 
L 391.666719 32.037031 
" style="fill: none; stroke: #000080; stroke-width: 1.7; stroke-linecap: square"/>
    </g>
    <g id="text_14">
     <!-- INT-3D low O3 -->
     <g transform="translate(398.066719 34.837031) scale(0.08 -0.08)">
      <defs>
       <path id="DejaVuSans-77" d="M 269 3500 
L 844 3500 
L 1563 769 
L 2278 3500 
L 2956 3500 
L 3675 769 
L 4391 3500 
L 4966 3500 
L 4050 0 
L 3372 0 
L 2619 2869 
L 1863 0 
L 1184 0 
L 269 3500 
z
" transform="scale(0.015625)"/>
       <path id="DejaVuSans-4f" d="M 2522 4238 
Q 1834 4238 1429 3725 
Q 1025 3213 1025 2328 
Q 1025 1447 1429 934 
Q 1834 422 2522 422 
Q 3209 422 3611 934 
Q 4013 1447 4013 2328 
Q 4013 3213 3611 3725 
Q 3209 4238 2522 4238 
z
M 2522 4750 
Q 3503 4750 4090 4092 
Q 4678 3434 4678 2328 
Q 4678 1225 4090 567 
Q 3503 -91 2522 -91 
Q 1538 -91 948 565 
Q 359 1222 359 2328 
Q 359 3434 948 4092 
Q 1538 4750 2522 4750 
z
" transform="scale(0.015625)"/>
      </defs>
      <use xlink:href="#DejaVuSans-49"/>
      <use xlink:href="#DejaVuSans-4e" transform="translate(29.492188 0)"/>
      <use xlink:href="#DejaVuSans-54" transform="translate(104.296875 0)"/>
      <use xlink:href="#DejaVuSans-2d" transform="translate(156.255859 0)"/>
      <use xlink:href="#DejaVuSans-33" transform="translate(192.339844 0)"/>
      <use xlink:href="#DejaVuSans-44" transform="translate(255.962891 0)"/>
      <use xlink:href="#DejaVuSans-20" transform="translate(332.964844 0)"/>
      <use xlink:href="#DejaVuSans-6c" transform="translate(364.751953 0)"/>
      <use xlink:href="#DejaVuSans-6f" transform="translate(392.535156 0)"/>
      <use xlink:href="#DejaVuSans-77" transform="translate(453.716797 0)"/>
      <use xlink:href="#DejaVuSans-20" transform="translate(535.503906 0)"/>
      <use xlink:href="#DejaVuSans-4f" transform="translate(567.291016 0)"/>
      <use xlink:href="#DejaVuSans-33" transform="translate(646.001953 0)"/>
     </g>
    </g>
    <g id="line2d_20">
     <path d="M 375.666719 43.779531 
L 383.666719 43.779531 
L 391.666719 43.779531 
" style="fill: none; stroke: #b22222; stroke-width: 1.7; stroke-linecap: square"/>
    </g>
    <g id="text_15">
     <!-- INT-3D high O3 -->
     <g transform="translate(398.066719 46.579531) scale(0.08 -0.08)">
      <use xlink:href="#DejaVuSans-49"/>
      <use xlink:href="#DejaVuSans-4e" transform="translate(29.492188 0)"/>
      <use xlink:href="#DejaVuSans-54" transform="translate(104.296875 0)"/>
      <use xlink:href="#DejaVuSans-2d" transform="translate(156.255859 0)"/>
      <use xlink:href="#DejaVuSans-33" transform="translate(192.339844 0)"/>
      <use xlink:href="#DejaVuSans-44" transform="translate(255.962891 0)"/>
      <use xlink:href="#DejaVuSans-20" transform="translate(332.964844 0)"/>
      <use xlink:href="#DejaVuSans-68" transform="translate(364.751953 0)"/>
      <use xlink:href="#DejaVuSans-69" transform="translate(428.130859 0)"/>
      <use xlink:href="#DejaVuSans-67" transform="translate(455.914062 0)"/>
      <use xlink:href="#DejaVuSans-68" transform="translate(519.390625 0)"/>
      <use xlink:href="#DejaVuSans-20" transform="translate(582.769531 0)"/>
      <use xlink:href="#DejaVuSans-4f" transform="translate(614.556641 0)"/>
      <use xlink:href="#DejaVuSans-33" transform="translate(693.267578 0)"/>
     </g>
    </g>
    <g id="line2d_21">
     <path d="M 375.666719 55.522031 
L 383.666719 55.522031 
L 391.666719 55.522031 
" style="fill: none; stroke-dasharray: 1.6,2.64; stroke-dashoffset: 0; stroke: #000080; stroke-width: 1.6"/>
    </g>
    <g id="text_16">
     <!-- CLIM-3D low O3 -->
     <g transform="translate(398.066719 58.322031) scale(0.08 -0.08)">
      <use xlink:href="#DejaVuSans-43"/>
      <use xlink:href="#DejaVuSans-4c" transform="translate(69.824219 0)"/>
      <use xlink:href="#DejaVuSans-49" transform="translate(125.537109 0)"/>
      <use xlink:href="#DejaVuSans-4d" transform="translate(155.029297 0)"/>
      <use xlink:href="#DejaVuSans-2d" transform="translate(241.308594 0)"/>
      <use xlink:href="#DejaVuSans-33" transform="translate(277.392578 0)"/>
      <use xlink:href="#DejaVuSans-44" transform="translate(341.015625 0)"/>
      <use xlink:href="#DejaVuSans-20" transform="translate(418.017578 0)"/>
      <use xlink:href="#DejaVuSans-6c" transform="translate(449.804688 0)"/>
      <use xlink:href="#DejaVuSans-6f" transform="translate(477.587891 0)"/>
      <use xlink:href="#DejaVuSans-77" transform="translate(538.769531 0)"/>
      <use xlink:href="#DejaVuSans-20" transform="translate(620.556641 0)"/>
      <use xlink:href="#DejaVuSans-4f" transform="translate(652.34375 0)"/>
      <use xlink:href="#DejaVuSans-33" transform="translate(731.054688 0)"/>
     </g>
    </g>
    <g id="line2d_22">
     <path d="M 477.641719 32.037031 
L 485.641719 32.037031 
L 493.641719 32.037031 
" style="fill: none; stroke-dasharray: 1.6,2.64; stroke-dashoffset: 0; stroke: #b22222; stroke-width: 1.6"/>
    </g>
    <g id="text_17">
     <!-- CLIM-3D high O3 -->
     <g transform="translate(500.041719 34.837031) scale(0.08 -0.08)">
      <use xlink:href="#DejaVuSans-43"/>
      <use xlink:href="#DejaVuSans-4c" transform="translate(69.824219 0)"/>
      <use xlink:href="#DejaVuSans-49" transform="translate(125.537109 0)"/>
      <use xlink:href="#DejaVuSans-4d" transform="translate(155.029297 0)"/>
      <use xlink:href="#DejaVuSans-2d" transform="translate(241.308594 0)"/>
      <use xlink:href="#DejaVuSans-33" transform="translate(277.392578 0)"/>
      <use xlink:href="#DejaVuSans-44" transform="translate(341.015625 0)"/>
      <use xlink:href="#DejaVuSans-20" transform="translate(418.017578 0)"/>
      <use xlink:href="#DejaVuSans-68" transform="translate(449.804688 0)"/>
      <use xlink:href="#DejaVuSans-69" transform="translate(513.183594 0)"/>
      <use xlink:href="#DejaVuSans-67" transform="translate(540.966797 0)"/>
      <use xlink:href="#DejaVuSans-68" transform="translate(604.443359 0)"/>
      <use xlink:href="#DejaVuSans-20" transform="translate(667.822266 0)"/>
      <use xlink:href="#DejaVuSans-4f" transform="translate(699.609375 0)"/>
      <use xlink:href="#DejaVuSans-33" transform="translate(778.320312 0)"/>
     </g>
    </g>
    <g id="line2d_23">
     <path d="M 477.641719 43.779531 
L 485.641719 43.779531 
L 493.641719 43.779531 
" style="fill: none; stroke-dasharray: 5.92,2.56; stroke-dashoffset: 0; stroke: #000080; stroke-width: 1.6"/>
    </g>
    <g id="text_18">
     <!-- CLIM-2D low O3 -->
     <g transform="translate(500.041719 46.579531) scale(0.08 -0.08)">
      <use xlink:href="#DejaVuSans-43"/>
      <use xlink:href="#DejaVuSans-4c" transform="translate(69.824219 0)"/>
      <use xlink:href="#DejaVuSans-49" transform="translate(125.537109 0)"/>
      <use xlink:href="#DejaVuSans-4d" transform="translate(155.029297 0)"/>
      <use xlink:href="#DejaVuSans-2d" transform="translate(241.308594 0)"/>
      <use xlink:href="#DejaVuSans-32" transform="translate(277.392578 0)"/>
      <use xlink:href="#DejaVuSans-44" transform="translate(341.015625 0)"/>
      <use xlink:href="#DejaVuSans-20" transform="translate(418.017578 0)"/>
      <use xlink:href="#DejaVuSans-6c" transform="translate(449.804688 0)"/>
      <use xlink:href="#DejaVuSans-6f" transform="translate(477.587891 0)"/>
      <use xlink:href="#DejaVuSans-77" transform="translate(538.769531 0)"/>
      <use xlink:href="#DejaVuSans-20" transform="translate(620.556641 0)"/>
      <use xlink:href="#DejaVuSans-4f" transform="translate(652.34375 0)"/>
      <use xlink:href="#DejaVuSans-33" transform="translate(731.054688 0)"/>
     </g>
    </g>
    <g id="line2d_24">
     <path d="M 477.641719 55.522031 
L 485.641719 55.522031 
L 493.641719 55.522031 
" style="fill: none; stroke-dasharray: 5.92,2.56; stroke-dashoffset: 0; stroke: #b22222; stroke-width: 1.6"/>
    </g>
    <g id="text_19">
     <!-- CLIM-2D high O3 -->
     <g transform="translate(500.041719 58.322031) scale(0.08 -0.08)">
      <use xlink:href="#DejaVuSans-43"/>
      <use xlink:href="#DejaVuSans-4c" transform="translate(69.824219 0)"/>
      <use xlink:href="#DejaVuSans-49" transform="translate(125.537109 0)"/>
      <use xlink:href="#DejaVuSans-4d" transform="translate(155.029297 0)"/>
      <use xlink:href="#DejaVuSans-2d" transform="translate(241.308594 0)"/>
      <use xlink:href="#DejaVuSans-32" transform="translate(277.392578 0)"/>
      <use xlink:href="#DejaVuSans-44" transform="translate(341.015625 0)"/>
      <use xlink:href="#DejaVuSans-20" transform="translate(418.017578 0)"/>
      <use xlink:href="#DejaVuSans-68" transform="translate(449.804688 0)"/>
      <use xlink:href="#DejaVuSans-69" transform="translate(513.183594 0)"/>
      <use xlink:href="#DejaVuSans-67" transform="translate(540.966797 0)"/>
      <use xlink:href="#DejaVuSans-68" transform="translate(604.443359 0)"/>
      <use xlink:href="#DejaVuSans-20" transform="translate(667.822266 0)"/>
      <use xlink:href="#DejaVuSans-4f" transform="translate(699.609375 0)"/>
      <use xlink:href="#DejaVuSans-33" transform="translate(778.320312 0)"/>
     </g>
    </g>
   </g>
  </g>
 </g>
 <defs>
  <clipPath id="peae4717201">
   <rect x="42.567969" y="21.558281" width="532.03" height="249.56"/>
  </clipPath>
 </defs>
</svg>
