<?xml version="1.0" encoding="utf-8" standalone="no"?>
<!DOCTYPE svg PUBLIC "-//W3C//DTD SVG 1.1//EN"
  "http://www.w3.org/Graphics/SVG/1.1/DTD/svg11.dtd">
<svg xmlns:xlink="http://www.w3.org/1999/xlink" width="556.5325pt" height="315.628594pt" viewBox="0 0 556.5325 315.628594" xmlns="http://www.w3.org/2000/svg" version="1.1">
 <metadata>
  <rdf:RDF xmlns:dc="http://purl.org/dc/elements/1.1/" xmlns:cc="http://creativecommons.org/ns#" xmlns:rdf="http://www.w3.org/1999/02/22-rdf-syntax-ns#">
   <cc:Work>
    <dc:type rdf:resource="http://purl.org/dc/dcmitype/StillImage"/>
    <dc:date>2026-05-19T17:33:09.269338</dc:date>
    <dc:format>image/svg+xml</dc:format>
    <dc:creator>
     <cc:Agent>
      <dc:title>Matplotlib v3.10.0, https://matplotlib.org/</dc:title>
     </cc:Agent>
    </dc:creator>
   </cc:Work>
  </rdf:RDF>
 </metadata>
 <defs>
  <style type="text/css">*{stroke-linejoin: round; stroke-linecap: butt}</style>
 </defs>
 <g id="figure_1">
  <g id="patch_1">
   <path d="M 0 315.628594 
L 556.5325 315.628594 
L 556.5325 0 
L 0 0 
z
" style="fill: #ffffff"/>
  </g>
  <g id="axes_1">
   <g id="patch_2">
    <path d="M 40.0525 292.718281 
L 549.3325 292.718281 
L 549.3325 21.558281 
L 40.0525 21.558281 
z
" style="fill: #ffffff"/>
   </g>
   <g id="matplotlib.axis_1">
    <g id="xtick_1">
     <g id="line2d_1">
      <defs>
       <path id="ma810094f68" d="M 0 0 
L 0 3.5 
" style="stroke: #000000; stroke-width: 0.8"/>
      </defs>
      <g>
       <use xlink:href="#ma810094f68" x="63.201591" y="292.718281" style="stroke: #000000; stroke-width: 0.8"/>
      </g>
     </g>
     <g id="text_1">
      <!-- Mar -->
      <g transform="translate(54.711357 306.556875) scale(0.09 -0.09)">
       <defs>
        <path id="DejaVuSans-4d" d="M 628 4666 
L 1569 4666 
L 2759 1491 
L 3956 4666 
L 4897 4666 
L 4897 0 
L 4281 0 
L 4281 4097 
L 3078 897 
L 2444 897 
L 1241 4097 
L 1241 0 
L 628 0 
L 628 4666 
z
" transform="scale(0.015625)"/>
        <path id="DejaVuSans-61" d="M 2194 1759 
Q 1497 1759 1228 1600 
Q 959 1441 959 1056 
Q 959 750 1161 570 
Q 1363 391 1709 391 
Q 2188 391 2477 730 
Q 2766 1069 2766 1631 
L 2766 1759 
L 2194 1759 
z
M 3341 1997 
L 3341 0 
L 2766 0 
L 2766 531 
Q 2569 213 2275 61 
Q 1981 -91 1556 -91 
Q 1019 -91 701 211 
Q 384 513 384 1019 
Q 384 1609 779 1909 
Q 1175 2209 1959 2209 
L 2766 2209 
L 2766 2266 
Q 2766 2663 2505 2880 
Q 2244 3097 1772 3097 
Q 1472 3097 1187 3025 
Q 903 2953 641 2809 
L 641 3341 
Q 956 3463 1253 3523 
Q 1550 3584 1831 3584 
Q 2591 3584 2966 3190 
Q 3341 2797 3341 1997 
z
" transform="scale(0.015625)"/>
        <path id="DejaVuSans-72" d="M 2631 2963 
Q 2534 3019 2420 3045 
Q 2306 3072 2169 3072 
Q 1681 3072 1420 2755 
Q 1159 2438 1159 1844 
L 1159 0 
L 581 0 
L 581 3500 
L 1159 3500 
L 1159 2956 
Q 1341 3275 1631 3429 
Q 1922 3584 2338 3584 
Q 2397 3584 2469 3576 
Q 2541 3569 2628 3553 
L 2631 2963 
z
" transform="scale(0.015625)"/>
       </defs>
       <use xlink:href="#DejaVuSans-4d"/>
       <use xlink:href="#DejaVuSans-61" transform="translate(86.279297 0)"/>
       <use xlink:href="#DejaVuSans-72" transform="translate(147.558594 0)"/>
      </g>
     </g>
    </g>
    <g id="xtick_2">
     <g id="line2d_2">
      <g>
       <use xlink:href="#ma810094f68" x="220.920672" y="292.718281" style="stroke: #000000; stroke-width: 0.8"/>
      </g>
     </g>
     <g id="text_2">
      <!-- Apr -->
      <g transform="translate(213.135672 306.556875) scale(0.09 -0.09)">
       <defs>
        <path id="DejaVuSans-41" d="M 2188 4044 
L 1331 1722 
L 3047 1722 
L 2188 4044 
z
M 1831 4666 
L 2547 4666 
L 4325 0 
L 3669 0 
L 3244 1197 
L 1141 1197 
L 716 0 
L 50 0 
L 1831 4666 
z
" transform="scale(0.015625)"/>
        <path id="DejaVuSans-70" d="M 1159 525 
L 1159 -1331 
L 581 -1331 
L 581 3500 
L 1159 3500 
L 1159 2969 
Q 1341 3281 1617 3432 
Q 1894 3584 2278 3584 
Q 2916 3584 3314 3078 
Q 3713 2572 3713 1747 
Q 3713 922 3314 415 
Q 2916 -91 2278 -91 
Q 1894 -91 1617 61 
Q 1341 213 1159 525 
z
M 3116 1747 
Q 3116 2381 2855 2742 
Q 2594 3103 2138 3103 
Q 1681 3103 1420 2742 
Q 1159 2381 1159 1747 
Q 1159 1113 1420 752 
Q 1681 391 2138 391 
Q 2594 391 2855 752 
Q 3116 1113 3116 1747 
z
" transform="scale(0.015625)"/>
       </defs>
       <use xlink:href="#DejaVuSans-41"/>
       <use xlink:href="#DejaVuSans-70" transform="translate(68.408203 0)"/>
       <use xlink:href="#DejaVuSans-72" transform="translate(131.884766 0)"/>
      </g>
     </g>
    </g>
    <g id="xtick_3">
     <g id="line2d_3">
      <g>
       <use xlink:href="#ma810094f68" x="373.55204" y="292.718281" style="stroke: #000000; stroke-width: 0.8"/>
      </g>
     </g>
     <g id="text_3">
      <!-- May -->
      <g transform="translate(364.24829 306.556875) scale(0.09 -0.09)">
       <defs>
        <path id="DejaVuSans-79" d="M 2059 -325 
Q 1816 -950 1584 -1140 
Q 1353 -1331 966 -1331 
L 506 -1331 
L 506 -850 
L 844 -850 
Q 1081 -850 1212 -737 
Q 1344 -625 1503 -206 
L 1606 56 
L 191 3500 
L 800 3500 
L 1894 763 
L 2988 3500 
L 3597 3500 
L 2059 -325 
z
" transform="scale(0.015625)"/>
       </defs>
       <use xlink:href="#DejaVuSans-4d"/>
       <use xlink:href="#DejaVuSans-61" transform="translate(86.279297 0)"/>
       <use xlink:href="#DejaVuSans-79" transform="translate(147.558594 0)"/>
      </g>
     </g>
    </g>
    <g id="xtick_4">
     <g id="line2d_4">
      <g>
       <use xlink:href="#ma810094f68" x="526.183409" y="292.718281" style="stroke: #000000; stroke-width: 0.8"/>
      </g>
     </g>
     <g id="text_4">
      <!-- June -->
      <g transform="translate(516.383253 306.556875) scale(0.09 -0.09)">
       <defs>
        <path id="DejaVuSans-4a" d="M 628 4666 
L 1259 4666 
L 1259 325 
Q 1259 -519 939 -900 
Q 619 -1281 -91 -1281 
L -331 -1281 
L -331 -750 
L -134 -750 
Q 284 -750 456 -515 
Q 628 -281 628 325 
L 628 4666 
z
" transform="scale(0.015625)"/>
        <path id="DejaVuSans-75" d="M 544 1381 
L 544 3500 
L 1119 3500 
L 1119 1403 
Q 1119 906 1312 657 
Q 1506 409 1894 409 
Q 2359 409 2629 706 
Q 2900 1003 2900 1516 
L 2900 3500 
L 3475 3500 
L 3475 0 
L 2900 0 
L 2900 538 
Q 2691 219 2414 64 
Q 2138 -91 1772 -91 
Q 1169 -91 856 284 
Q 544 659 544 1381 
z
M 1991 3584 
L 1991 3584 
z
" transform="scale(0.015625)"/>
        <path id="DejaVuSans-6e" d="M 3513 2113 
L 3513 0 
L 2938 0 
L 2938 2094 
Q 2938 2591 2744 2837 
Q 2550 3084 2163 3084 
Q 1697 3084 1428 2787 
Q 1159 2491 1159 1978 
L 1159 0 
L 581 0 
L 581 3500 
L 1159 3500 
L 1159 2956 
Q 1366 3272 1645 3428 
Q 1925 3584 2291 3584 
Q 2894 3584 3203 3211 
Q 3513 2838 3513 2113 
z
" transform="scale(0.015625)"/>
        <path id="DejaVuSans-65" d="M 3597 1894 
L 3597 1613 
L 953 1613 
Q 991 1019 1311 708 
Q 1631 397 2203 397 
Q 2534 397 2845 478 
Q 3156 559 3463 722 
L 3463 178 
Q 3153 47 2828 -22 
Q 2503 -91 2169 -91 
Q 1331 -91 842 396 
Q 353 884 353 1716 
Q 353 2575 817 3079 
Q 1281 3584 2069 3584 
Q 2775 3584 3186 3129 
Q 3597 2675 3597 1894 
z
M 3022 2063 
Q 3016 2534 2758 2815 
Q 2500 3097 2075 3097 
Q 1594 3097 1305 2825 
Q 1016 2553 972 2059 
L 3022 2063 
z
" transform="scale(0.015625)"/>
       </defs>
       <use xlink:href="#DejaVuSans-4a"/>
       <use xlink:href="#DejaVuSans-75" transform="translate(29.492188 0)"/>
       <use xlink:href="#DejaVuSans-6e" transform="translate(92.871094 0)"/>
       <use xlink:href="#DejaVuSans-65" transform="translate(156.25 0)"/>
      </g>
     </g>
    </g>
   </g>
   <g id="matplotlib.axis_2">
    <g id="ytick_1">
     <g id="line2d_5">
      <defs>
       <path id="m18f227ea3a" d="M 0 0 
L -3.5 0 
" style="stroke: #000000; stroke-width: 0.8"/>
      </defs>
      <g>
       <use xlink:href="#m18f227ea3a" x="40.0525" y="274.942458" style="stroke: #000000; stroke-width: 0.8"/>
      </g>
     </g>
     <g id="text_5">
      <!-- 0 -->
      <g transform="translate(27.32625 278.361755) scale(0.09 -0.09)">
       <defs>
        <path id="DejaVuSans-30" d="M 2034 4250 
Q 1547 4250 1301 3770 
Q 1056 3291 1056 2328 
Q 1056 1369 1301 889 
Q 1547 409 2034 409 
Q 2525 409 2770 889 
Q 3016 1369 3016 2328 
Q 3016 3291 2770 3770 
Q 2525 4250 2034 4250 
z
M 2034 4750 
Q 2819 4750 3233 4129 
Q 3647 3509 3647 2328 
Q 3647 1150 3233 529 
Q 2819 -91 2034 -91 
Q 1250 -91 836 529 
Q 422 1150 422 2328 
Q 422 3509 836 4129 
Q 1250 4750 2034 4750 
z
" transform="scale(0.015625)"/>
       </defs>
       <use xlink:href="#DejaVuSans-30"/>
      </g>
     </g>
    </g>
    <g id="ytick_2">
     <g id="line2d_6">
      <g>
       <use xlink:href="#m18f227ea3a" x="40.0525" y="226.62889" style="stroke: #000000; stroke-width: 0.8"/>
      </g>
     </g>
     <g id="text_6">
      <!-- 5 -->
      <g transform="translate(27.32625 230.048187) scale(0.09 -0.09)">
       <defs>
        <path id="DejaVuSans-35" d="M 691 4666 
L 3169 4666 
L 3169 4134 
L 1269 4134 
L 1269 2991 
Q 1406 3038 1543 3061 
Q 1681 3084 1819 3084 
Q 2600 3084 3056 2656 
Q 3513 2228 3513 1497 
Q 3513 744 3044 326 
Q 2575 -91 1722 -91 
Q 1428 -91 1123 -41 
Q 819 9 494 109 
L 494 744 
Q 775 591 1075 516 
Q 1375 441 1709 441 
Q 2250 441 2565 725 
Q 2881 1009 2881 1497 
Q 2881 1984 2565 2268 
Q 2250 2553 1709 2553 
Q 1456 2553 1204 2497 
Q 953 2441 691 2322 
L 691 4666 
z
" transform="scale(0.015625)"/>
       </defs>
       <use xlink:href="#DejaVuSans-35"/>
      </g>
     </g>
    </g>
    <g id="ytick_3">
     <g id="line2d_7">
      <g>
       <use xlink:href="#m18f227ea3a" x="40.0525" y="178.315322" style="stroke: #000000; stroke-width: 0.8"/>
      </g>
     </g>
     <g id="text_7">
      <!-- 10 -->
      <g transform="translate(21.6 181.734618) scale(0.09 -0.09)">
       <defs>
        <path id="DejaVuSans-31" d="M 794 531 
L 1825 531 
L 1825 4091 
L 703 3866 
L 703 4441 
L 1819 4666 
L 2450 4666 
L 2450 531 
L 3481 531 
L 3481 0 
L 794 0 
L 794 531 
z
" transform="scale(0.015625)"/>
       </defs>
       <use xlink:href="#DejaVuSans-31"/>
       <use xlink:href="#DejaVuSans-30" transform="translate(63.623047 0)"/>
      </g>
     </g>
    </g>
    <g id="ytick_4">
     <g id="line2d_8">
      <g>
       <use xlink:href="#m18f227ea3a" x="40.0525" y="130.001753" style="stroke: #000000; stroke-width: 0.8"/>
      </g>
     </g>
     <g id="text_8">
      <!-- 15 -->
      <g transform="translate(21.6 133.42105) scale(0.09 -0.09)">
       <use xlink:href="#DejaVuSans-31"/>
       <use xlink:href="#DejaVuSans-35" transform="translate(63.623047 0)"/>
      </g>
     </g>
    </g>
    <g id="ytick_5">
     <g id="line2d_9">
      <g>
       <use xlink:href="#m18f227ea3a" x="40.0525" y="81.688185" style="stroke: #000000; stroke-width: 0.8"/>
      </g>
     </g>
     <g id="text_9">
      <!-- 20 -->
      <g transform="translate(21.6 85.107482) scale(0.09 -0.09)">
       <defs>
        <path id="DejaVuSans-32" d="M 1228 531 
L 3431 531 
L 3431 0 
L 469 0 
L 469 531 
Q 828 903 1448 1529 
Q 2069 2156 2228 2338 
Q 2531 2678 2651 2914 
Q 2772 3150 2772 3378 
Q 2772 3750 2511 3984 
Q 2250 4219 1831 4219 
Q 1534 4219 1204 4116 
Q 875 4013 500 3803 
L 500 4441 
Q 881 4594 1212 4672 
Q 1544 4750 1819 4750 
Q 2544 4750 2975 4387 
Q 3406 4025 3406 3419 
Q 3406 3131 3298 2873 
Q 3191 2616 2906 2266 
Q 2828 2175 2409 1742 
Q 1991 1309 1228 531 
z
" transform="scale(0.015625)"/>
       </defs>
       <use xlink:href="#DejaVuSans-32"/>
       <use xlink:href="#DejaVuSans-30" transform="translate(63.623047 0)"/>
      </g>
     </g>
    </g>
    <g id="ytick_6">
     <g id="line2d_10">
      <g>
       <use xlink:href="#m18f227ea3a" x="40.0525" y="33.374617" style="stroke: #000000; stroke-width: 0.8"/>
      </g>
     </g>
     <g id="text_10">
      <!-- 25 -->
      <g transform="translate(21.6 36.793914) scale(0.09 -0.09)">
       <use xlink:href="#DejaVuSans-32"/>
       <use xlink:href="#DejaVuSans-35" transform="translate(63.623047 0)"/>
      </g>
     </g>
    </g>
    <g id="text_11">
     <!-- U at 50 hPa, 55-75N (m s$^{-1}$) -->
     <g transform="translate(15.520313 227.588281) rotate(-90) scale(0.1 -0.1)">
      <defs>
       <path id="DejaVuSans-55" d="M 556 4666 
L 1191 4666 
L 1191 1831 
Q 1191 1081 1462 751 
Q 1734 422 2344 422 
Q 2950 422 3222 751 
Q 3494 1081 3494 1831 
L 3494 4666 
L 4128 4666 
L 4128 1753 
Q 4128 841 3676 375 
Q 3225 -91 2344 -91 
Q 1459 -91 1007 375 
Q 556 841 556 1753 
L 556 4666 
z
" transform="scale(0.015625)"/>
       <path id="DejaVuSans-20" transform="scale(0.015625)"/>
       <path id="DejaVuSans-74" d="M 1172 4494 
L 1172 3500 
L 2356 3500 
L 2356 3053 
L 1172 3053 
L 1172 1153 
Q 1172 725 1289 603 
Q 1406 481 1766 481 
L 2356 481 
L 2356 0 
L 1766 0 
Q 1100 0 847 248 
Q 594 497 594 1153 
L 594 3053 
L 172 3053 
L 172 3500 
L 594 3500 
L 594 4494 
L 1172 4494 
z
" transform="scale(0.015625)"/>
       <path id="DejaVuSans-68" d="M 3513 2113 
L 3513 0 
L 2938 0 
L 2938 2094 
Q 2938 2591 2744 2837 
Q 2550 3084 2163 3084 
Q 1697 3084 1428 2787 
Q 1159 2491 1159 1978 
L 1159 0 
L 581 0 
L 581 4863 
L 1159 4863 
L 1159 2956 
Q 1366 3272 1645 3428 
Q 1925 3584 2291 3584 
Q 2894 3584 3203 3211 
Q 3513 2838 3513 2113 
z
" transform="scale(0.015625)"/>
       <path id="DejaVuSans-50" d="M 1259 4147 
L 1259 2394 
L 2053 2394 
Q 2494 2394 2734 2622 
Q 2975 2850 2975 3272 
Q 2975 3691 2734 3919 
Q 2494 4147 2053 4147 
L 1259 4147 
z
M 628 4666 
L 2053 4666 
Q 2838 4666 3239 4311 
Q 3641 3956 3641 3272 
Q 3641 2581 3239 2228 
Q 2838 1875 2053 1875 
L 1259 1875 
L 1259 0 
L 628 0 
L 628 4666 
z
" transform="scale(0.015625)"/>
       <path id="DejaVuSans-2c" d="M 750 794 
L 1409 794 
L 1409 256 
L 897 -744 
L 494 -744 
L 750 256 
L 750 794 
z
" transform="scale(0.015625)"/>
       <path id="DejaVuSans-2d" d="M 313 2009 
L 1997 2009 
L 1997 1497 
L 313 1497 
L 313 2009 
z
" transform="scale(0.015625)"/>
       <path id="DejaVuSans-37" d="M 525 4666 
L 3525 4666 
L 3525 4397 
L 1831 0 
L 1172 0 
L 2766 4134 
L 525 4134 
L 525 4666 
z
" transform="scale(0.015625)"/>
       <path id="DejaVuSans-4e" d="M 628 4666 
L 1478 4666 
L 3547 763 
L 3547 4666 
L 4159 4666 
L 4159 0 
L 3309 0 
L 1241 3903 
L 1241 0 
L 628 0 
L 628 4666 
z
" transform="scale(0.015625)"/>
       <path id="DejaVuSans-28" d="M 1984 4856 
Q 1566 4138 1362 3434 
Q 1159 2731 1159 2009 
Q 1159 1288 1364 580 
Q 1569 -128 1984 -844 
L 1484 -844 
Q 1016 -109 783 600 
Q 550 1309 550 2009 
Q 550 2706 781 3412 
Q 1013 4119 1484 4856 
L 1984 4856 
z
" transform="scale(0.015625)"/>
       <path id="DejaVuSans-6d" d="M 3328 2828 
Q 3544 3216 3844 3400 
Q 4144 3584 4550 3584 
Q 5097 3584 5394 3201 
Q 5691 2819 5691 2113 
L 5691 0 
L 5113 0 
L 5113 2094 
Q 5113 2597 4934 2840 
Q 4756 3084 4391 3084 
Q 3944 3084 3684 2787 
Q 3425 2491 3425 1978 
L 3425 0 
L 2847 0 
L 2847 2094 
Q 2847 2600 2669 2842 
Q 2491 3084 2119 3084 
Q 1678 3084 1418 2786 
Q 1159 2488 1159 1978 
L 1159 0 
L 581 0 
L 581 3500 
L 1159 3500 
L 1159 2956 
Q 1356 3278 1631 3431 
Q 1906 3584 2284 3584 
Q 2666 3584 2933 3390 
Q 3200 3197 3328 2828 
z
" transform="scale(0.015625)"/>
       <path id="DejaVuSans-73" d="M 2834 3397 
L 2834 2853 
Q 2591 2978 2328 3040 
Q 2066 3103 1784 3103 
Q 1356 3103 1142 2972 
Q 928 2841 928 2578 
Q 928 2378 1081 2264 
Q 1234 2150 1697 2047 
L 1894 2003 
Q 2506 1872 2764 1633 
Q 3022 1394 3022 966 
Q 3022 478 2636 193 
Q 2250 -91 1575 -91 
Q 1294 -91 989 -36 
Q 684 19 347 128 
L 347 722 
Q 666 556 975 473 
Q 1284 391 1588 391 
Q 1994 391 2212 530 
Q 2431 669 2431 922 
Q 2431 1156 2273 1281 
Q 2116 1406 1581 1522 
L 1381 1569 
Q 847 1681 609 1914 
Q 372 2147 372 2553 
Q 372 3047 722 3315 
Q 1072 3584 1716 3584 
Q 2034 3584 2315 3537 
Q 2597 3491 2834 3397 
z
" transform="scale(0.015625)"/>
       <path id="DejaVuSans-2212" d="M 678 2272 
L 4684 2272 
L 4684 1741 
L 678 1741 
L 678 2272 
z
" transform="scale(0.015625)"/>
       <path id="DejaVuSans-29" d="M 513 4856 
L 1013 4856 
Q 1481 4119 1714 3412 
Q 1947 2706 1947 2009 
Q 1947 1309 1714 600 
Q 1481 -109 1013 -844 
L 513 -844 
Q 928 -128 1133 580 
Q 1338 1288 1338 2009 
Q 1338 2731 1133 3434 
Q 928 4138 513 4856 
z
" transform="scale(0.015625)"/>
      </defs>
      <use xlink:href="#DejaVuSans-55" transform="translate(0 0.684375)"/>
      <use xlink:href="#DejaVuSans-20" transform="translate(73.193359 0.684375)"/>
      <use xlink:href="#DejaVuSans-61" transform="translate(104.980469 0.684375)"/>
      <use xlink:href="#DejaVuSans-74" transform="translate(166.259766 0.684375)"/>
      <use xlink:href="#DejaVuSans-20" transform="translate(205.46875 0.684375)"/>
      <use xlink:href="#DejaVuSans-35" transform="translate(237.255859 0.684375)"/>
      <use xlink:href="#DejaVuSans-30" transform="translate(300.878906 0.684375)"/>
      <use xlink:href="#DejaVuSans-20" transform="translate(364.501953 0.684375)"/>
      <use xlink:href="#DejaVuSans-68" transform="translate(396.289062 0.684375)"/>
      <use xlink:href="#DejaVuSans-50" transform="translate(459.667969 0.684375)"/>
      <use xlink:href="#DejaVuSans-61" transform="translate(519.970703 0.684375)"/>
      <use xlink:href="#DejaVuSans-2c" transform="translate(581.25 0.684375)"/>
      <use xlink:href="#DejaVuSans-20" transform="translate(613.037109 0.684375)"/>
      <use xlink:href="#DejaVuSans-35" transform="translate(644.824219 0.684375)"/>
      <use xlink:href="#DejaVuSans-35" transform="translate(708.447266 0.684375)"/>
      <use xlink:href="#DejaVuSans-2d" transform="translate(772.070312 0.684375)"/>
      <use xlink:href="#DejaVuSans-37" transform="translate(808.154297 0.684375)"/>
      <use xlink:href="#DejaVuSans-35" transform="translate(871.777344 0.684375)"/>
      <use xlink:href="#DejaVuSans-4e" transform="translate(935.400391 0.684375)"/>
      <use xlink:href="#DejaVuSans-20" transform="translate(1010.205078 0.684375)"/>
      <use xlink:href="#DejaVuSans-28" transform="translate(1041.992188 0.684375)"/>
      <use xlink:href="#DejaVuSans-6d" transform="translate(1081.005859 0.684375)"/>
      <use xlink:href="#DejaVuSans-20" transform="translate(1178.417969 0.684375)"/>
      <use xlink:href="#DejaVuSans-73" transform="translate(1210.205078 0.684375)"/>
      <use xlink:href="#DejaVuSans-2212" transform="translate(1263.261719 38.965625) scale(0.7)"/>
      <use xlink:href="#DejaVuSans-31" transform="translate(1321.914062 38.965625) scale(0.7)"/>
      <use xlink:href="#DejaVuSans-29" transform="translate(1369.18457 0.684375)"/>
     </g>
    </g>
   </g>
   <g id="line2d_11">
    <path d="M 63.201591 85.200506 
L 68.289303 87.494041 
L 73.377015 89.528291 
L 78.464728 89.940957 
L 83.55244 89.258626 
L 88.640152 88.385674 
L 93.727865 88.435499 
L 98.815577 89.978881 
L 103.903289 91.974971 
L 108.991001 93.84328 
L 114.078714 95.104244 
L 119.166426 95.387746 
L 124.254138 95.016199 
L 129.341851 94.289024 
L 134.429563 93.724778 
L 139.517275 94.162828 
L 144.604988 94.954748 
L 149.6927 95.823619 
L 154.780412 96.449489 
L 159.868124 97.69604 
L 164.955837 99.557821 
L 170.043549 101.590684 
L 175.131261 103.59471 
L 180.218974 106.182172 
L 185.306686 109.2464 
L 190.394398 112.587692 
L 195.48211 115.612287 
L 200.569823 117.899764 
L 205.657535 119.749221 
L 210.745247 121.274159 
L 215.83296 122.284603 
L 220.920672 123.524355 
L 226.008384 125.127081 
L 231.096096 127.00213 
L 236.183809 129.377065 
L 241.271521 132.135051 
L 246.359233 135.546678 
L 251.446946 139.26965 
L 256.534658 142.713321 
L 261.62237 146.51923 
L 266.710082 150.821888 
L 271.797795 155.600532 
L 276.885507 160.115932 
L 281.973219 163.828878 
L 287.060932 166.893337 
L 292.148644 169.991412 
L 297.236356 173.497156 
L 302.324068 176.921616 
L 307.411781 180.382429 
L 312.499493 183.966282 
L 317.587205 187.596122 
L 322.674918 191.453714 
L 327.76263 195.515225 
L 332.850342 199.262423 
L 337.938054 202.464048 
L 343.025767 205.37189 
L 348.113479 208.211918 
L 353.201191 211.359984 
L 358.288904 214.272031 
L 363.376616 217.180628 
L 368.464328 220.650361 
L 373.55204 223.798612 
L 378.639753 226.677716 
L 383.727465 229.972824 
L 388.815177 233.408643 
L 393.90289 236.387179 
L 398.990602 238.711174 
L 404.078314 240.803905 
L 409.166026 242.984153 
L 414.253739 245.362515 
L 419.341451 247.572199 
L 424.429163 249.546678 
L 429.516876 251.712362 
L 434.604588 254.219005 
L 439.6923 256.750429 
L 444.780012 258.836711 
L 449.867725 260.772894 
L 454.955437 262.397632 
L 460.043149 263.705165 
L 465.130862 264.775706 
L 470.218574 265.755144 
L 475.306286 266.739647 
L 480.393999 267.716065 
L 485.481711 268.673123 
L 490.569423 269.673991 
L 495.657135 270.748096 
L 500.744848 271.990721 
L 505.83256 273.066582 
L 510.920272 273.92094 
L 516.007985 274.993567 
L 521.095697 276.354295 
L 526.183409 277.755195 
" clip-path="url(#p5802eacae9)" style="fill: none; stroke: #000000; stroke-width: 1.8; stroke-linecap: square"/>
   </g>
   <g id="line2d_12">
    <path d="M 63.201591 33.893581 
L 68.289303 35.839631 
L 73.377015 38.144602 
L 78.464728 38.104139 
L 83.55244 36.655046 
L 88.640152 34.365238 
L 93.727865 33.883736 
L 98.815577 36.170236 
L 103.903289 39.424103 
L 108.991001 41.253216 
L 114.078714 41.099219 
L 119.166426 39.637615 
L 124.254138 37.577872 
L 129.341851 36.630814 
L 134.429563 36.408671 
L 139.517275 36.657372 
L 144.604988 37.434929 
L 149.6927 37.809192 
L 154.780412 37.122082 
L 159.868124 36.581371 
L 164.955837 37.103645 
L 170.043549 39.32813 
L 175.131261 42.360261 
L 180.218974 45.701157 
L 185.306686 49.855699 
L 190.394398 54.983017 
L 195.48211 58.768247 
L 200.569823 60.182495 
L 205.657535 61.168879 
L 210.745247 62.297908 
L 215.83296 63.782019 
L 220.920672 65.707766 
L 226.008384 67.299517 
L 231.096096 69.746959 
L 236.183809 73.199862 
L 241.271521 76.394997 
L 246.359233 80.194913 
L 251.446946 84.63139 
L 256.534658 88.783883 
L 261.62237 92.850324 
L 266.710082 96.983893 
L 271.797795 101.918848 
L 276.885507 106.634371 
L 281.973219 110.468605 
L 287.060932 113.881528 
L 292.148644 117.516168 
L 297.236356 121.818639 
L 302.324068 125.7278 
L 307.411781 129.611045 
L 312.499493 135.096471 
L 317.587205 140.85007 
L 322.674918 146.343602 
L 327.76263 152.313538 
L 332.850342 158.223548 
L 337.938054 163.738655 
L 343.025767 169.37168 
L 348.113479 174.888884 
L 353.201191 180.205066 
L 358.288904 185.013135 
L 363.376616 188.612308 
L 368.464328 192.413992 
L 373.55204 195.494348 
L 378.639753 197.692871 
L 383.727465 200.167043 
L 388.815177 203.058858 
L 393.90289 205.740839 
L 398.990602 208.309381 
L 404.078314 211.620223 
L 409.166026 215.362691 
L 414.253739 218.989125 
L 419.341451 221.772736 
L 424.429163 224.446515 
L 429.516876 227.620055 
L 434.604588 231.45575 
L 439.6923 236.083815 
L 444.780012 240.422783 
L 449.867725 244.230828 
L 454.955437 247.226936 
L 460.043149 249.464447 
L 465.130862 251.298552 
L 470.218574 252.868067 
L 475.306286 254.112225 
L 480.393999 254.806689 
L 485.481711 255.866178 
L 490.569423 257.541597 
L 495.657135 259.270874 
L 500.744848 261.44684 
L 505.83256 263.712821 
L 510.920272 265.75771 
L 516.007985 267.704932 
L 521.095697 269.762823 
L 526.183409 271.590703 
" clip-path="url(#p5802eacae9)" style="fill: none; stroke: #000080; stroke-width: 2.1; stroke-linecap: square"/>
   </g>
   <g id="line2d_13">
    <path d="M 63.201591 123.591689 
L 68.289303 127.826678 
L 73.377015 132.313209 
L 78.464728 135.040697 
L 83.55244 135.751113 
L 88.640152 134.921133 
L 93.727865 133.873361 
L 98.815577 133.153166 
L 103.903289 132.847674 
L 108.991001 133.218925 
L 114.078714 134.306983 
L 119.166426 134.676889 
L 124.254138 133.401351 
L 129.341851 132.336568 
L 134.429563 131.628737 
L 139.517275 132.459364 
L 144.604988 135.1682 
L 149.6927 138.376182 
L 154.780412 141.607203 
L 159.868124 145.799148 
L 164.955837 149.601682 
L 170.043549 151.337536 
L 175.131261 151.990356 
L 180.218974 153.738327 
L 185.306686 155.981128 
L 190.394398 157.960481 
L 195.48211 159.777492 
L 200.569823 161.459423 
L 205.657535 163.036358 
L 210.745247 164.706629 
L 215.83296 165.760257 
L 220.920672 167.186229 
L 226.008384 169.933375 
L 231.096096 172.333916 
L 236.183809 173.418581 
L 241.271521 174.073472 
L 246.359233 175.323271 
L 251.446946 177.802439 
L 256.534658 179.993508 
L 261.62237 182.123012 
L 266.710082 184.81494 
L 271.797795 187.765721 
L 276.885507 190.869353 
L 281.973219 193.879935 
L 287.060932 196.041979 
L 292.148644 197.646152 
L 297.236356 198.90349 
L 302.324068 200.142189 
L 307.411781 202.139846 
L 312.499493 203.884118 
L 317.587205 205.782545 
L 322.674918 208.064711 
L 327.76263 210.605015 
L 332.850342 213.354234 
L 337.938054 216.211901 
L 343.025767 218.795051 
L 348.113479 221.050416 
L 353.201191 223.649288 
L 358.288904 225.910783 
L 363.376616 228.157067 
L 368.464328 230.454372 
L 373.55204 232.554118 
L 378.639753 234.59222 
L 383.727465 236.881712 
L 388.815177 239.236565 
L 393.90289 241.23976 
L 398.990602 242.966105 
L 404.078314 244.874271 
L 409.166026 247.400043 
L 414.253739 249.830782 
L 419.341451 251.603494 
L 424.429163 253.413419 
L 429.516876 255.62581 
L 434.604588 257.816404 
L 439.6923 259.46324 
L 444.780012 260.581165 
L 449.867725 261.7147 
L 454.955437 262.626185 
L 460.043149 263.736336 
L 465.130862 264.726708 
L 470.218574 265.813232 
L 475.306286 267.345325 
L 480.393999 269.24987 
L 485.481711 271.044106 
L 490.569423 272.238929 
L 495.657135 273.016969 
L 500.744848 273.53043 
L 505.83256 274.004788 
L 510.920272 274.671172 
L 516.007985 275.842923 
L 521.095697 277.416877 
L 526.183409 278.927957 
" clip-path="url(#p5802eacae9)" style="fill: none; stroke: #b22222; stroke-width: 2.1; stroke-linecap: square"/>
   </g>
   <g id="line2d_14">
    <path d="M 63.201591 94.676847 
L 68.289303 97.156363 
L 73.377015 98.392466 
L 78.464728 98.396401 
L 83.55244 98.41735 
L 88.640152 98.881345 
L 93.727865 99.841126 
L 98.815577 101.271089 
L 103.903289 102.685 
L 108.991001 103.641361 
L 114.078714 104.072818 
L 119.166426 104.148123 
L 124.254138 104.318848 
L 129.341851 105.189705 
L 134.429563 106.867707 
L 139.517275 109.026644 
L 144.604988 111.069354 
L 149.6927 112.549465 
L 154.780412 113.826972 
L 159.868124 114.730102 
L 164.955837 115.883847 
L 170.043549 117.591079 
L 175.131261 119.705977 
L 180.218974 121.810736 
L 185.306686 123.968917 
L 190.394398 126.296793 
L 195.48211 128.942114 
L 200.569823 131.457265 
L 205.657535 133.275315 
L 210.745247 134.602021 
L 215.83296 135.750561 
L 220.920672 137.276348 
L 226.008384 139.441493 
L 231.096096 142.15173 
L 236.183809 144.610744 
L 241.271521 147.093665 
L 246.359233 149.807082 
L 251.446946 152.491855 
L 256.534658 155.38798 
L 261.62237 158.640855 
L 266.710082 162.224755 
L 271.797795 166.048271 
L 276.885507 169.969362 
L 281.973219 173.449249 
L 287.060932 176.452717 
L 292.148644 179.656333 
L 297.236356 183.642604 
L 302.324068 187.9136 
L 307.411781 191.724825 
L 312.499493 195.305826 
L 317.587205 198.758365 
L 322.674918 202.047102 
L 327.76263 205.600647 
L 332.850342 209.167749 
L 337.938054 212.496821 
L 343.025767 215.719386 
L 348.113479 218.857121 
L 353.201191 222.266222 
L 358.288904 225.659276 
L 363.376616 228.450161 
L 368.464328 230.864868 
L 373.55204 233.746245 
L 378.639753 236.810518 
L 383.727465 239.907446 
L 388.815177 242.979335 
L 393.90289 245.401364 
L 398.990602 247.423951 
L 404.078314 249.570316 
L 409.166026 251.691762 
L 414.253739 253.742079 
L 419.341451 255.962852 
L 424.429163 258.164111 
L 429.516876 260.321111 
L 434.604588 262.204161 
L 439.6923 263.947887 
L 444.780012 265.336063 
L 449.867725 266.441355 
L 454.955437 267.474049 
L 460.043149 268.698492 
L 465.130862 270.068531 
L 470.218574 271.338436 
L 475.306286 272.42499 
L 480.393999 273.382583 
L 485.481711 273.998499 
L 490.569423 274.415277 
L 495.657135 274.891989 
L 500.744848 275.582167 
L 505.83256 276.488898 
L 510.920272 277.444002 
L 516.007985 278.536598 
L 521.095697 279.568343 
L 526.183409 280.27822 
" clip-path="url(#p5802eacae9)" style="fill: none; stroke-dasharray: 1.5,2.475; stroke-dashoffset: 0; stroke: #404040; stroke-width: 1.5"/>
   </g>
   <g id="line2d_15">
    <path d="M 63.201591 47.404914 
L 68.289303 48.899472 
L 73.377015 49.316142 
L 78.464728 49.935703 
L 83.55244 51.942166 
L 88.640152 54.075701 
L 93.727865 56.733322 
L 98.815577 59.721419 
L 103.903289 61.705926 
L 108.991001 64.190059 
L 114.078714 67.800746 
L 119.166426 69.873265 
L 124.254138 70.816987 
L 129.341851 71.779082 
L 134.429563 74.113517 
L 139.517275 77.368844 
L 144.604988 79.498458 
L 149.6927 79.285197 
L 154.780412 79.452279 
L 159.868124 79.747882 
L 164.955837 80.26058 
L 170.043549 81.019094 
L 175.131261 81.474425 
L 180.218974 79.853435 
L 185.306686 78.600722 
L 190.394398 79.130197 
L 195.48211 81.615696 
L 200.569823 84.541317 
L 205.657535 86.497472 
L 210.745247 88.418624 
L 215.83296 90.338153 
L 220.920672 92.401304 
L 226.008384 94.830366 
L 231.096096 97.202544 
L 236.183809 99.121659 
L 241.271521 102.007284 
L 246.359233 106.36944 
L 251.446946 110.931659 
L 256.534658 115.20696 
L 261.62237 119.200036 
L 266.710082 123.390361 
L 271.797795 126.75495 
L 276.885507 130.6966 
L 281.973219 135.928992 
L 287.060932 140.953012 
L 292.148644 145.739541 
L 297.236356 151.280723 
L 302.324068 157.411371 
L 307.411781 162.768892 
L 312.499493 167.699604 
L 317.587205 172.79401 
L 322.674918 178.163103 
L 327.76263 183.853914 
L 332.850342 189.297989 
L 337.938054 194.141378 
L 343.025767 198.687317 
L 348.113479 203.382527 
L 353.201191 208.430392 
L 358.288904 212.808439 
L 363.376616 215.592669 
L 368.464328 218.046423 
L 373.55204 222.244353 
L 378.639753 226.745768 
L 383.727465 229.940982 
L 388.815177 233.53436 
L 393.90289 236.864578 
L 398.990602 239.880556 
L 404.078314 243.500214 
L 409.166026 247.166224 
L 414.253739 250.112996 
L 419.341451 252.211524 
L 424.429163 253.8793 
L 429.516876 255.724111 
L 434.604588 257.308223 
L 439.6923 258.641829 
L 444.780012 260.165399 
L 449.867725 261.935482 
L 454.955437 263.443659 
L 460.043149 264.123989 
L 465.130862 264.439617 
L 470.218574 265.054015 
L 475.306286 265.992645 
L 480.393999 267.057314 
L 485.481711 268.243611 
L 490.569423 269.461788 
L 495.657135 270.580614 
L 500.744848 271.85738 
L 505.83256 272.986077 
L 510.920272 273.806406 
L 516.007985 274.756225 
L 521.095697 276.131726 
L 526.183409 277.22563 
" clip-path="url(#p5802eacae9)" style="fill: none; stroke-dasharray: 2,3.3; stroke-dashoffset: 0; stroke: #000080; stroke-width: 2"/>
   </g>
   <g id="line2d_16">
    <path d="M 63.201591 125.866233 
L 68.289303 128.67363 
L 73.377015 129.323257 
L 78.464728 127.732911 
L 83.55244 125.091745 
L 88.640152 123.318677 
L 93.727865 122.086003 
L 98.815577 121.249749 
L 103.903289 121.096072 
L 108.991001 121.450933 
L 114.078714 122.050496 
L 119.166426 122.426799 
L 124.254138 122.871939 
L 129.341851 124.342243 
L 134.429563 125.967307 
L 139.517275 127.400487 
L 144.604988 128.914595 
L 149.6927 130.151781 
L 154.780412 131.281232 
L 159.868124 132.108437 
L 164.955837 133.601681 
L 170.043549 136.620955 
L 175.131261 141.352161 
L 180.218974 146.243356 
L 185.306686 149.890821 
L 190.394398 152.778099 
L 195.48211 155.809243 
L 200.569823 158.470332 
L 205.657535 160.116626 
L 210.745247 160.254256 
L 215.83296 159.783997 
L 220.920672 159.872548 
L 226.008384 160.167514 
L 231.096096 160.932737 
L 236.183809 162.555025 
L 241.271521 165.371263 
L 246.359233 169.3723 
L 251.446946 173.820063 
L 256.534658 177.991586 
L 261.62237 181.14083 
L 266.710082 183.086001 
L 271.797795 185.012488 
L 276.885507 186.7606 
L 281.973219 188.129547 
L 287.060932 190.259348 
L 292.148644 192.648486 
L 297.236356 196.014005 
L 302.324068 199.737253 
L 307.411781 203.302322 
L 312.499493 206.396583 
L 317.587205 209.408686 
L 322.674918 212.456964 
L 327.76263 215.797459 
L 332.850342 219.68927 
L 337.938054 223.713615 
L 343.025767 227.158448 
L 348.113479 230.044777 
L 353.201191 233.244184 
L 358.288904 236.066974 
L 363.376616 237.112759 
L 368.464328 237.37918 
L 373.55204 238.203692 
L 378.639753 239.622312 
L 383.727465 241.885648 
L 388.815177 244.338916 
L 393.90289 246.23944 
L 398.990602 248.204776 
L 404.078314 249.920983 
L 409.166026 251.332565 
L 414.253739 252.989962 
L 419.341451 255.175127 
L 424.429163 257.285553 
L 429.516876 259.633054 
L 434.604588 262.369023 
L 439.6923 264.771005 
L 444.780012 266.016841 
L 449.867725 266.160056 
L 454.955437 266.488994 
L 460.043149 267.54668 
L 465.130862 268.729665 
L 470.218574 269.652734 
L 475.306286 270.785547 
L 480.393999 272.334207 
L 485.481711 273.799411 
L 490.569423 275.05545 
L 495.657135 276.049295 
L 500.744848 276.806159 
L 505.83256 277.659111 
L 510.920272 278.690135 
L 516.007985 279.516084 
L 521.095697 279.929044 
L 526.183409 280.392827 
" clip-path="url(#p5802eacae9)" style="fill: none; stroke-dasharray: 2,3.3; stroke-dashoffset: 0; stroke: #b22222; stroke-width: 2"/>
   </g>
   <g id="line2d_17">
    <path d="M 40.0525 207.303462 
L 549.3325 207.303462 
" clip-path="url(#p5802eacae9)" style="fill: none; stroke: #8c8c8c; stroke-linecap: square"/>
   </g>
   <g id="patch_3">
    <path d="M 40.0525 292.718281 
L 40.0525 21.558281 
" style="fill: none; stroke: #000000; stroke-linejoin: miter; stroke-linecap: square"/>
   </g>
   <g id="patch_4">
    <path d="M 549.3325 292.718281 
L 549.3325 21.558281 
" style="fill: none; stroke: #000000; stroke-linejoin: miter; stroke-linecap: square"/>
   </g>
   <g id="patch_5">
    <path d="M 40.0525 292.718281 
L 549.3325 292.718281 
" style="fill: none; stroke: #000000; stroke-linejoin: miter; stroke-linecap: square"/>
   </g>
   <g id="patch_6">
    <path d="M 40.0525 21.558281 
L 549.3325 21.558281 
" style="fill: none; stroke: #000000; stroke-linejoin: miter; stroke-linecap: square"/>
   </g>
   <g id="text_12">
    <!-- Figure A1-style WACCM zonal wind evolution: INT-3D vs CLIM-2D -->
    <g transform="translate(117.783281 15.558281) scale(0.11 -0.11)">
     <defs>
      <path id="DejaVuSans-46" d="M 628 4666 
L 3309 4666 
L 3309 4134 
L 1259 4134 
L 1259 2759 
L 3109 2759 
L 3109 2228 
L 1259 2228 
L 1259 0 
L 628 0 
L 628 4666 
z
" transform="scale(0.015625)"/>
      <path id="DejaVuSans-69" d="M 603 3500 
L 1178 3500 
L 1178 0 
L 603 0 
L 603 3500 
z
M 603 4863 
L 1178 4863 
L 1178 4134 
L 603 4134 
L 603 4863 
z
" transform="scale(0.015625)"/>
      <path id="DejaVuSans-67" d="M 2906 1791 
Q 2906 2416 2648 2759 
Q 2391 3103 1925 3103 
Q 1463 3103 1205 2759 
Q 947 2416 947 1791 
Q 947 1169 1205 825 
Q 1463 481 1925 481 
Q 2391 481 2648 825 
Q 2906 1169 2906 1791 
z
M 3481 434 
Q 3481 -459 3084 -895 
Q 2688 -1331 1869 -1331 
Q 1566 -1331 1297 -1286 
Q 1028 -1241 775 -1147 
L 775 -588 
Q 1028 -725 1275 -790 
Q 1522 -856 1778 -856 
Q 2344 -856 2625 -561 
Q 2906 -266 2906 331 
L 2906 616 
Q 2728 306 2450 153 
Q 2172 0 1784 0 
Q 1141 0 747 490 
Q 353 981 353 1791 
Q 353 2603 747 3093 
Q 1141 3584 1784 3584 
Q 2172 3584 2450 3431 
Q 2728 3278 2906 2969 
L 2906 3500 
L 3481 3500 
L 3481 434 
z
" transform="scale(0.015625)"/>
      <path id="DejaVuSans-6c" d="M 603 4863 
L 1178 4863 
L 1178 0 
L 603 0 
L 603 4863 
z
" transform="scale(0.015625)"/>
      <path id="DejaVuSans-57" d="M 213 4666 
L 850 4666 
L 1831 722 
L 2809 4666 
L 3519 4666 
L 4500 722 
L 5478 4666 
L 6119 4666 
L 4947 0 
L 4153 0 
L 3169 4050 
L 2175 0 
L 1381 0 
L 213 4666 
z
" transform="scale(0.015625)"/>
      <path id="DejaVuSans-43" d="M 4122 4306 
L 4122 3641 
Q 3803 3938 3442 4084 
Q 3081 4231 2675 4231 
Q 1875 4231 1450 3742 
Q 1025 3253 1025 2328 
Q 1025 1406 1450 917 
Q 1875 428 2675 428 
Q 3081 428 3442 575 
Q 3803 722 4122 1019 
L 4122 359 
Q 3791 134 3420 21 
Q 3050 -91 2638 -91 
Q 1578 -91 968 557 
Q 359 1206 359 2328 
Q 359 3453 968 4101 
Q 1578 4750 2638 4750 
Q 3056 4750 3426 4639 
Q 3797 4528 4122 4306 
z
" transform="scale(0.015625)"/>
      <path id="DejaVuSans-7a" d="M 353 3500 
L 3084 3500 
L 3084 2975 
L 922 459 
L 3084 459 
L 3084 0 
L 275 0 
L 275 525 
L 2438 3041 
L 353 3041 
L 353 3500 
z
" transform="scale(0.015625)"/>
      <path id="DejaVuSans-6f" d="M 1959 3097 
Q 1497 3097 1228 2736 
Q 959 2375 959 1747 
Q 959 1119 1226 758 
Q 1494 397 1959 397 
Q 2419 397 2687 759 
Q 2956 1122 2956 1747 
Q 2956 2369 2687 2733 
Q 2419 3097 1959 3097 
z
M 1959 3584 
Q 2709 3584 3137 3096 
Q 3566 2609 3566 1747 
Q 3566 888 3137 398 
Q 2709 -91 1959 -91 
Q 1206 -91 779 398 
Q 353 888 353 1747 
Q 353 2609 779 3096 
Q 1206 3584 1959 3584 
z
" transform="scale(0.015625)"/>
      <path id="DejaVuSans-77" d="M 269 3500 
L 844 3500 
L 1563 769 
L 2278 3500 
L 2956 3500 
L 3675 769 
L 4391 3500 
L 4966 3500 
L 4050 0 
L 3372 0 
L 2619 2869 
L 1863 0 
L 1184 0 
L 269 3500 
z
" transform="scale(0.015625)"/>
      <path id="DejaVuSans-64" d="M 2906 2969 
L 2906 4863 
L 3481 4863 
L 3481 0 
L 2906 0 
L 2906 525 
Q 2725 213 2448 61 
Q 2172 -91 1784 -91 
Q 1150 -91 751 415 
Q 353 922 353 1747 
Q 353 2572 751 3078 
Q 1150 3584 1784 3584 
Q 2172 3584 2448 3432 
Q 2725 3281 2906 2969 
z
M 947 1747 
Q 947 1113 1208 752 
Q 1469 391 1925 391 
Q 2381 391 2643 752 
Q 2906 1113 2906 1747 
Q 2906 2381 2643 2742 
Q 2381 3103 1925 3103 
Q 1469 3103 1208 2742 
Q 947 2381 947 1747 
z
" transform="scale(0.015625)"/>
      <path id="DejaVuSans-76" d="M 191 3500 
L 800 3500 
L 1894 563 
L 2988 3500 
L 3597 3500 
L 2284 0 
L 1503 0 
L 191 3500 
z
" transform="scale(0.015625)"/>
      <path id="DejaVuSans-3a" d="M 750 794 
L 1409 794 
L 1409 0 
L 750 0 
L 750 794 
z
M 750 3309 
L 1409 3309 
L 1409 2516 
L 750 2516 
L 750 3309 
z
" transform="scale(0.015625)"/>
      <path id="DejaVuSans-49" d="M 628 4666 
L 1259 4666 
L 1259 0 
L 628 0 
L 628 4666 
z
" transform="scale(0.015625)"/>
      <path id="DejaVuSans-54" d="M -19 4666 
L 3928 4666 
L 3928 4134 
L 2272 4134 
L 2272 0 
L 1638 0 
L 1638 4134 
L -19 4134 
L -19 4666 
z
" transform="scale(0.015625)"/>
      <path id="DejaVuSans-33" d="M 2597 2516 
Q 3050 2419 3304 2112 
Q 3559 1806 3559 1356 
Q 3559 666 3084 287 
Q 2609 -91 1734 -91 
Q 1441 -91 1130 -33 
Q 819 25 488 141 
L 488 750 
Q 750 597 1062 519 
Q 1375 441 1716 441 
Q 2309 441 2620 675 
Q 2931 909 2931 1356 
Q 2931 1769 2642 2001 
Q 2353 2234 1838 2234 
L 1294 2234 
L 1294 2753 
L 1863 2753 
Q 2328 2753 2575 2939 
Q 2822 3125 2822 3475 
Q 2822 3834 2567 4026 
Q 2313 4219 1838 4219 
Q 1578 4219 1281 4162 
Q 984 4106 628 3988 
L 628 4550 
Q 988 4650 1302 4700 
Q 1616 4750 1894 4750 
Q 2613 4750 3031 4423 
Q 3450 4097 3450 3541 
Q 3450 3153 3228 2886 
Q 3006 2619 2597 2516 
z
" transform="scale(0.015625)"/>
      <path id="DejaVuSans-44" d="M 1259 4147 
L 1259 519 
L 2022 519 
Q 2988 519 3436 956 
Q 3884 1394 3884 2338 
Q 3884 3275 3436 3711 
Q 2988 4147 2022 4147 
L 1259 4147 
z
M 628 4666 
L 1925 4666 
Q 3281 4666 3915 4102 
Q 4550 3538 4550 2338 
Q 4550 1131 3912 565 
Q 3275 0 1925 0 
L 628 0 
L 628 4666 
z
" transform="scale(0.015625)"/>
      <path id="DejaVuSans-4c" d="M 628 4666 
L 1259 4666 
L 1259 531 
L 3531 531 
L 3531 0 
L 628 0 
L 628 4666 
z
" transform="scale(0.015625)"/>
     </defs>
     <use xlink:href="#DejaVuSans-46"/>
     <use xlink:href="#DejaVuSans-69" transform="translate(50.269531 0)"/>
     <use xlink:href="#DejaVuSans-67" transform="translate(78.052734 0)"/>
     <use xlink:href="#DejaVuSans-75" transform="translate(141.529297 0)"/>
     <use xlink:href="#DejaVuSans-72" transform="translate(204.908203 0)"/>
     <use xlink:href="#DejaVuSans-65" transform="translate(243.771484 0)"/>
     <use xlink:href="#DejaVuSans-20" transform="translate(305.294922 0)"/>
     <use xlink:href="#DejaVuSans-41" transform="translate(337.082031 0)"/>
     <use xlink:href="#DejaVuSans-31" transform="translate(405.490234 0)"/>
     <use xlink:href="#DejaVuSans-2d" transform="translate(469.113281 0)"/>
     <use xlink:href="#DejaVuSans-73" transform="translate(505.197266 0)"/>
     <use xlink:href="#DejaVuSans-74" transform="translate(557.296875 0)"/>
     <use xlink:href="#DejaVuSans-79" transform="translate(596.505859 0)"/>
     <use xlink:href="#DejaVuSans-6c" transform="translate(655.685547 0)"/>
     <use xlink:href="#DejaVuSans-65" transform="translate(683.46875 0)"/>
     <use xlink:href="#DejaVuSans-20" transform="translate(744.992188 0)"/>
     <use xlink:href="#DejaVuSans-57" transform="translate(776.779297 0)"/>
     <use xlink:href="#DejaVuSans-41" transform="translate(870.15625 0)"/>
     <use xlink:href="#DejaVuSans-43" transform="translate(936.814453 0)"/>
     <use xlink:href="#DejaVuSans-43" transform="translate(1006.638672 0)"/>
     <use xlink:href="#DejaVuSans-4d" transform="translate(1076.462891 0)"/>
     <use xlink:href="#DejaVuSans-20" transform="translate(1162.742188 0)"/>
     <use xlink:href="#DejaVuSans-7a" transform="translate(1194.529297 0)"/>
     <use xlink:href="#DejaVuSans-6f" transform="translate(1247.019531 0)"/>
     <use xlink:href="#DejaVuSans-6e" transform="translate(1308.201172 0)"/>
     <use xlink:href="#DejaVuSans-61" transform="translate(1371.580078 0)"/>
     <use xlink:href="#DejaVuSans-6c" transform="translate(1432.859375 0)"/>
     <use xlink:href="#DejaVuSans-20" transform="translate(1460.642578 0)"/>
     <use xlink:href="#DejaVuSans-77" transform="translate(1492.429688 0)"/>
     <use xlink:href="#DejaVuSans-69" transform="translate(1574.216797 0)"/>
     <use xlink:href="#DejaVuSans-6e" transform="translate(1602 0)"/>
     <use xlink:href="#DejaVuSans-64" transform="translate(1665.378906 0)"/>
     <use xlink:href="#DejaVuSans-20" transform="translate(1728.855469 0)"/>
     <use xlink:href="#DejaVuSans-65" transform="translate(1760.642578 0)"/>
     <use xlink:href="#DejaVuSans-76" transform="translate(1822.166016 0)"/>
     <use xlink:href="#DejaVuSans-6f" transform="translate(1881.345703 0)"/>
     <use xlink:href="#DejaVuSans-6c" transform="translate(1942.527344 0)"/>
     <use xlink:href="#DejaVuSans-75" transform="translate(1970.310547 0)"/>
     <use xlink:href="#DejaVuSans-74" transform="translate(2033.689453 0)"/>
     <use xlink:href="#DejaVuSans-69" transform="translate(2072.898438 0)"/>
     <use xlink:href="#DejaVuSans-6f" transform="translate(2100.681641 0)"/>
     <use xlink:href="#DejaVuSans-6e" transform="translate(2161.863281 0)"/>
     <use xlink:href="#DejaVuSans-3a" transform="translate(2225.242188 0)"/>
     <use xlink:href="#DejaVuSans-20" transform="translate(2258.933594 0)"/>
     <use xlink:href="#DejaVuSans-49" transform="translate(2290.720703 0)"/>
     <use xlink:href="#DejaVuSans-4e" transform="translate(2320.212891 0)"/>
     <use xlink:href="#DejaVuSans-54" transform="translate(2395.017578 0)"/>
     <use xlink:href="#DejaVuSans-2d" transform="translate(2446.976562 0)"/>
     <use xlink:href="#DejaVuSans-33" transform="translate(2483.060547 0)"/>
     <use xlink:href="#DejaVuSans-44" transform="translate(2546.683594 0)"/>
     <use xlink:href="#DejaVuSans-20" transform="translate(2623.685547 0)"/>
     <use xlink:href="#DejaVuSans-76" transform="translate(2655.472656 0)"/>
     <use xlink:href="#DejaVuSans-73" transform="translate(2714.652344 0)"/>
     <use xlink:href="#DejaVuSans-20" transform="translate(2766.751953 0)"/>
     <use xlink:href="#DejaVuSans-43" transform="translate(2798.539062 0)"/>
     <use xlink:href="#DejaVuSans-4c" transform="translate(2868.363281 0)"/>
     <use xlink:href="#DejaVuSans-49" transform="translate(2924.076172 0)"/>
     <use xlink:href="#DejaVuSans-4d" transform="translate(2953.568359 0)"/>
     <use xlink:href="#DejaVuSans-2d" transform="translate(3039.847656 0)"/>
     <use xlink:href="#DejaVuSans-32" transform="translate(3075.931641 0)"/>
     <use xlink:href="#DejaVuSans-44" transform="translate(3139.554688 0)"/>
    </g>
   </g>
   <g id="legend_1">
    <g id="line2d_18">
     <path d="M 353.425 32.037031 
L 361.425 32.037031 
L 369.425 32.037031 
" style="fill: none; stroke: #000000; stroke-width: 1.8; stroke-linecap: square"/>
    </g>
    <g id="text_13">
     <!-- INT-3D all -->
     <g transform="translate(375.825 34.837031) scale(0.08 -0.08)">
      <use xlink:href="#DejaVuSans-49"/>
      <use xlink:href="#DejaVuSans-4e" transform="translate(29.492188 0)"/>
      <use xlink:href="#DejaVuSans-54" transform="translate(104.296875 0)"/>
      <use xlink:href="#DejaVuSans-2d" transform="translate(156.255859 0)"/>
      <use xlink:href="#DejaVuSans-33" transform="translate(192.339844 0)"/>
      <use xlink:href="#DejaVuSans-44" transform="translate(255.962891 0)"/>
      <use xlink:href="#DejaVuSans-20" transform="translate(332.964844 0)"/>
      <use xlink:href="#DejaVuSans-61" transform="translate(364.751953 0)"/>
      <use xlink:href="#DejaVuSans-6c" transform="translate(426.03125 0)"/>
      <use xlink:href="#DejaVuSans-6c" transform="translate(453.814453 0)"/>
     </g>
    </g>
    <g id="line2d_19">
     <path d="M 353.425 43.779531 
L 361.425 43.779531 
L 369.425 43.779531 
" style="fill: none; stroke: #000080; stroke-width: 2.1; stroke-linecap: square"/>
    </g>
    <g id="text_14">
     <!-- INT-3D low O3 -->
     <g transform="translate(375.825 46.579531) scale(0.08 -0.08)">
      <defs>
       <path id="DejaVuSans-4f" d="M 2522 4238 
Q 1834 4238 1429 3725 
Q 1025 3213 1025 2328 
Q 1025 1447 1429 934 
Q 1834 422 2522 422 
Q 3209 422 3611 934 
Q 4013 1447 4013 2328 
Q 4013 3213 3611 3725 
Q 3209 4238 2522 4238 
z
M 2522 4750 
Q 3503 4750 4090 4092 
Q 4678 3434 4678 2328 
Q 4678 1225 4090 567 
Q 3503 -91 2522 -91 
Q 1538 -91 948 565 
Q 359 1222 359 2328 
Q 359 3434 948 4092 
Q 1538 4750 2522 4750 
z
" transform="scale(0.015625)"/>
      </defs>
      <use xlink:href="#DejaVuSans-49"/>
      <use xlink:href="#DejaVuSans-4e" transform="translate(29.492188 0)"/>
      <use xlink:href="#DejaVuSans-54" transform="translate(104.296875 0)"/>
      <use xlink:href="#DejaVuSans-2d" transform="translate(156.255859 0)"/>
      <use xlink:href="#DejaVuSans-33" transform="translate(192.339844 0)"/>
      <use xlink:href="#DejaVuSans-44" transform="translate(255.962891 0)"/>
      <use xlink:href="#DejaVuSans-20" transform="translate(332.964844 0)"/>
      <use xlink:href="#DejaVuSans-6c" transform="translate(364.751953 0)"/>
      <use xlink:href="#DejaVuSans-6f" transform="translate(392.535156 0)"/>
      <use xlink:href="#DejaVuSans-77" transform="translate(453.716797 0)"/>
      <use xlink:href="#DejaVuSans-20" transform="translate(535.503906 0)"/>
      <use xlink:href="#DejaVuSans-4f" transform="translate(567.291016 0)"/>
      <use xlink:href="#DejaVuSans-33" transform="translate(646.001953 0)"/>
     </g>
    </g>
    <g id="line2d_20">
     <path d="M 353.425 55.522031 
L 361.425 55.522031 
L 369.425 55.522031 
" style="fill: none; stroke: #b22222; stroke-width: 2.1; stroke-linecap: square"/>
    </g>
    <g id="text_15">
     <!-- INT-3D high O3 -->
     <g transform="translate(375.825 58.322031) scale(0.08 -0.08)">
      <use xlink:href="#DejaVuSans-49"/>
      <use xlink:href="#DejaVuSans-4e" transform="translate(29.492188 0)"/>
      <use xlink:href="#DejaVuSans-54" transform="translate(104.296875 0)"/>
      <use xlink:href="#DejaVuSans-2d" transform="translate(156.255859 0)"/>
      <use xlink:href="#DejaVuSans-33" transform="translate(192.339844 0)"/>
      <use xlink:href="#DejaVuSans-44" transform="translate(255.962891 0)"/>
      <use xlink:href="#DejaVuSans-20" transform="translate(332.964844 0)"/>
      <use xlink:href="#DejaVuSans-68" transform="translate(364.751953 0)"/>
      <use xlink:href="#DejaVuSans-69" transform="translate(428.130859 0)"/>
      <use xlink:href="#DejaVuSans-67" transform="translate(455.914062 0)"/>
      <use xlink:href="#DejaVuSans-68" transform="translate(519.390625 0)"/>
      <use xlink:href="#DejaVuSans-20" transform="translate(582.769531 0)"/>
      <use xlink:href="#DejaVuSans-4f" transform="translate(614.556641 0)"/>
      <use xlink:href="#DejaVuSans-33" transform="translate(693.267578 0)"/>
     </g>
    </g>
    <g id="line2d_21">
     <path d="M 452.37625 32.037031 
L 460.37625 32.037031 
L 468.37625 32.037031 
" style="fill: none; stroke-dasharray: 1.5,2.475; stroke-dashoffset: 0; stroke: #404040; stroke-width: 1.5"/>
    </g>
    <g id="text_16">
     <!-- CLIM-2D all -->
     <g transform="translate(474.77625 34.837031) scale(0.08 -0.08)">
      <use xlink:href="#DejaVuSans-43"/>
      <use xlink:href="#DejaVuSans-4c" transform="translate(69.824219 0)"/>
      <use xlink:href="#DejaVuSans-49" transform="translate(125.537109 0)"/>
      <use xlink:href="#DejaVuSans-4d" transform="translate(155.029297 0)"/>
      <use xlink:href="#DejaVuSans-2d" transform="translate(241.308594 0)"/>
      <use xlink:href="#DejaVuSans-32" transform="translate(277.392578 0)"/>
      <use xlink:href="#DejaVuSans-44" transform="translate(341.015625 0)"/>
      <use xlink:href="#DejaVuSans-20" transform="translate(418.017578 0)"/>
      <use xlink:href="#DejaVuSans-61" transform="translate(449.804688 0)"/>
      <use xlink:href="#DejaVuSans-6c" transform="translate(511.083984 0)"/>
      <use xlink:href="#DejaVuSans-6c" transform="translate(538.867188 0)"/>
     </g>
    </g>
    <g id="line2d_22">
     <path d="M 452.37625 43.779531 
L 460.37625 43.779531 
L 468.37625 43.779531 
" style="fill: none; stroke-dasharray: 2,3.3; stroke-dashoffset: 0; stroke: #000080; stroke-width: 2"/>
    </g>
    <g id="text_17">
     <!-- CLIM-2D low O3 -->
     <g transform="translate(474.77625 46.579531) scale(0.08 -0.08)">
      <use xlink:href="#DejaVuSans-43"/>
      <use xlink:href="#DejaVuSans-4c" transform="translate(69.824219 0)"/>
      <use xlink:href="#DejaVuSans-49" transform="translate(125.537109 0)"/>
      <use xlink:href="#DejaVuSans-4d" transform="translate(155.029297 0)"/>
      <use xlink:href="#DejaVuSans-2d" transform="translate(241.308594 0)"/>
      <use xlink:href="#DejaVuSans-32" transform="translate(277.392578 0)"/>
      <use xlink:href="#DejaVuSans-44" transform="translate(341.015625 0)"/>
      <use xlink:href="#DejaVuSans-20" transform="translate(418.017578 0)"/>
      <use xlink:href="#DejaVuSans-6c" transform="translate(449.804688 0)"/>
      <use xlink:href="#DejaVuSans-6f" transform="translate(477.587891 0)"/>
      <use xlink:href="#DejaVuSans-77" transform="translate(538.769531 0)"/>
      <use xlink:href="#DejaVuSans-20" transform="translate(620.556641 0)"/>
      <use xlink:href="#DejaVuSans-4f" transform="translate(652.34375 0)"/>
      <use xlink:href="#DejaVuSans-33" transform="translate(731.054688 0)"/>
     </g>
    </g>
    <g id="line2d_23">
     <path d="M 452.37625 55.522031 
L 460.37625 55.522031 
L 468.37625 55.522031 
" style="fill: none; stroke-dasharray: 2,3.3; stroke-dashoffset: 0; stroke: #b22222; stroke-width: 2"/>
    </g>
    <g id="text_18">
     <!-- CLIM-2D high O3 -->
     <g transform="translate(474.77625 58.322031) scale(0.08 -0.08)">
      <use xlink:href="#DejaVuSans-43"/>
      <use xlink:href="#DejaVuSans-4c" transform="translate(69.824219 0)"/>
      <use xlink:href="#DejaVuSans-49" transform="translate(125.537109 0)"/>
      <use xlink:href="#DejaVuSans-4d" transform="translate(155.029297 0)"/>
      <use xlink:href="#DejaVuSans-2d" transform="translate(241.308594 0)"/>
      <use xlink:href="#DejaVuSans-32" transform="translate(277.392578 0)"/>
      <use xlink:href="#DejaVuSans-44" transform="translate(341.015625 0)"/>
      <use xlink:href="#DejaVuSans-20" transform="translate(418.017578 0)"/>
      <use xlink:href="#DejaVuSans-68" transform="translate(449.804688 0)"/>
      <use xlink:href="#DejaVuSans-69" transform="translate(513.183594 0)"/>
      <use xlink:href="#DejaVuSans-67" transform="translate(540.966797 0)"/>
      <use xlink:href="#DejaVuSans-68" transform="translate(604.443359 0)"/>
      <use xlink:href="#DejaVuSans-20" transform="translate(667.822266 0)"/>
      <use xlink:href="#DejaVuSans-4f" transform="translate(699.609375 0)"/>
      <use xlink:href="#DejaVuSans-33" transform="translate(778.320312 0)"/>
     </g>
    </g>
   </g>
  </g>
 </g>
 <defs>
  <clipPath id="p5802eacae9">
   <rect x="40.0525" y="21.558281" width="509.28" height="271.16"/>
  </clipPath>
 </defs>
</svg>
