<?xml version="1.0" encoding="utf-8" standalone="no"?>
<!DOCTYPE svg PUBLIC "-//W3C//DTD SVG 1.1//EN"
  "http://www.w3.org/Graphics/SVG/1.1/DTD/svg11.dtd">
<svg xmlns:xlink="http://www.w3.org/1999/xlink" width="591.634531pt" height="308.428594pt" viewBox="0 0 591.634531 308.428594" xmlns="http://www.w3.org/2000/svg" version="1.1">
 <metadata>
  <rdf:RDF xmlns:dc="http://purl.org/dc/elements/1.1/" xmlns:cc="http://creativecommons.org/ns#" xmlns:rdf="http://www.w3.org/1999/02/22-rdf-syntax-ns#">
   <cc:Work>
    <dc:type rdf:resource="http://purl.org/dc/dcmitype/StillImage"/>
    <dc:date>2026-05-19T14:41:46.318229</dc:date>
    <dc:format>image/svg+xml</dc:format>
    <dc:creator>
     <cc:Agent>
      <dc:title>Matplotlib v3.10.0, https://matplotlib.org/</dc:title>
     </cc:Agent>
    </dc:creator>
   </cc:Work>
  </rdf:RDF>
 </metadata>
 <defs>
  <style type="text/css">*{stroke-linejoin: round; stroke-linecap: butt}</style>
 </defs>
 <g id="figure_1">
  <g id="patch_1">
   <path d="M 0 308.428594 
L 591.634531 308.428594 
L 591.634531 0 
L 0 0 
z
" style="fill: #ffffff"/>
  </g>
  <g id="axes_1">
   <g id="patch_2">
    <path d="M 51.154531 285.518281 
L 584.434531 285.518281 
L 584.434531 21.558281 
L 51.154531 21.558281 
z
" style="fill: #ffffff"/>
   </g>
   <g id="matplotlib.axis_1">
    <g id="xtick_1">
     <g id="line2d_1">
      <defs>
       <path id="mc3fe70d77a" d="M 0 0 
L 0 3.5 
" style="stroke: #000000; stroke-width: 0.8"/>
      </defs>
      <g>
       <use xlink:href="#mc3fe70d77a" x="75.394531" y="285.518281" style="stroke: #000000; stroke-width: 0.8"/>
      </g>
     </g>
     <g id="text_1">
      <!-- Mar -->
      <g transform="translate(66.904297 299.356875) scale(0.09 -0.09)">
       <defs>
        <path id="DejaVuSans-4d" d="M 628 4666 
L 1569 4666 
L 2759 1491 
L 3956 4666 
L 4897 4666 
L 4897 0 
L 4281 0 
L 4281 4097 
L 3078 897 
L 2444 897 
L 1241 4097 
L 1241 0 
L 628 0 
L 628 4666 
z
" transform="scale(0.015625)"/>
        <path id="DejaVuSans-61" d="M 2194 1759 
Q 1497 1759 1228 1600 
Q 959 1441 959 1056 
Q 959 750 1161 570 
Q 1363 391 1709 391 
Q 2188 391 2477 730 
Q 2766 1069 2766 1631 
L 2766 1759 
L 2194 1759 
z
M 3341 1997 
L 3341 0 
L 2766 0 
L 2766 531 
Q 2569 213 2275 61 
Q 1981 -91 1556 -91 
Q 1019 -91 701 211 
Q 384 513 384 1019 
Q 384 1609 779 1909 
Q 1175 2209 1959 2209 
L 2766 2209 
L 2766 2266 
Q 2766 2663 2505 2880 
Q 2244 3097 1772 3097 
Q 1472 3097 1187 3025 
Q 903 2953 641 2809 
L 641 3341 
Q 956 3463 1253 3523 
Q 1550 3584 1831 3584 
Q 2591 3584 2966 3190 
Q 3341 2797 3341 1997 
z
" transform="scale(0.015625)"/>
        <path id="DejaVuSans-72" d="M 2631 2963 
Q 2534 3019 2420 3045 
Q 2306 3072 2169 3072 
Q 1681 3072 1420 2755 
Q 1159 2438 1159 1844 
L 1159 0 
L 581 0 
L 581 3500 
L 1159 3500 
L 1159 2956 
Q 1341 3275 1631 3429 
Q 1922 3584 2338 3584 
Q 2397 3584 2469 3576 
Q 2541 3569 2628 3553 
L 2631 2963 
z
" transform="scale(0.015625)"/>
       </defs>
       <use xlink:href="#DejaVuSans-4d"/>
       <use xlink:href="#DejaVuSans-61" transform="translate(86.279297 0)"/>
       <use xlink:href="#DejaVuSans-72" transform="translate(147.558594 0)"/>
      </g>
     </g>
    </g>
    <g id="xtick_2">
     <g id="line2d_2">
      <g>
       <use xlink:href="#mc3fe70d77a" x="240.54618" y="285.518281" style="stroke: #000000; stroke-width: 0.8"/>
      </g>
     </g>
     <g id="text_2">
      <!-- Apr -->
      <g transform="translate(232.76118 299.356875) scale(0.09 -0.09)">
       <defs>
        <path id="DejaVuSans-41" d="M 2188 4044 
L 1331 1722 
L 3047 1722 
L 2188 4044 
z
M 1831 4666 
L 2547 4666 
L 4325 0 
L 3669 0 
L 3244 1197 
L 1141 1197 
L 716 0 
L 50 0 
L 1831 4666 
z
" transform="scale(0.015625)"/>
        <path id="DejaVuSans-70" d="M 1159 525 
L 1159 -1331 
L 581 -1331 
L 581 3500 
L 1159 3500 
L 1159 2969 
Q 1341 3281 1617 3432 
Q 1894 3584 2278 3584 
Q 2916 3584 3314 3078 
Q 3713 2572 3713 1747 
Q 3713 922 3314 415 
Q 2916 -91 2278 -91 
Q 1894 -91 1617 61 
Q 1341 213 1159 525 
z
M 3116 1747 
Q 3116 2381 2855 2742 
Q 2594 3103 2138 3103 
Q 1681 3103 1420 2742 
Q 1159 2381 1159 1747 
Q 1159 1113 1420 752 
Q 1681 391 2138 391 
Q 2594 391 2855 752 
Q 3116 1113 3116 1747 
z
" transform="scale(0.015625)"/>
       </defs>
       <use xlink:href="#DejaVuSans-41"/>
       <use xlink:href="#DejaVuSans-70" transform="translate(68.408203 0)"/>
       <use xlink:href="#DejaVuSans-72" transform="translate(131.884766 0)"/>
      </g>
     </g>
    </g>
    <g id="xtick_3">
     <g id="line2d_3">
      <g>
       <use xlink:href="#mc3fe70d77a" x="400.370355" y="285.518281" style="stroke: #000000; stroke-width: 0.8"/>
      </g>
     </g>
     <g id="text_3">
      <!-- May -->
      <g transform="translate(391.066605 299.356875) scale(0.09 -0.09)">
       <defs>
        <path id="DejaVuSans-79" d="M 2059 -325 
Q 1816 -950 1584 -1140 
Q 1353 -1331 966 -1331 
L 506 -1331 
L 506 -850 
L 844 -850 
Q 1081 -850 1212 -737 
Q 1344 -625 1503 -206 
L 1606 56 
L 191 3500 
L 800 3500 
L 1894 763 
L 2988 3500 
L 3597 3500 
L 2059 -325 
z
" transform="scale(0.015625)"/>
       </defs>
       <use xlink:href="#DejaVuSans-4d"/>
       <use xlink:href="#DejaVuSans-61" transform="translate(86.279297 0)"/>
       <use xlink:href="#DejaVuSans-79" transform="translate(147.558594 0)"/>
      </g>
     </g>
    </g>
    <g id="xtick_4">
     <g id="line2d_4">
      <g>
       <use xlink:href="#mc3fe70d77a" x="560.194531" y="285.518281" style="stroke: #000000; stroke-width: 0.8"/>
      </g>
     </g>
     <g id="text_4">
      <!-- June -->
      <g transform="translate(550.394375 299.356875) scale(0.09 -0.09)">
       <defs>
        <path id="DejaVuSans-4a" d="M 628 4666 
L 1259 4666 
L 1259 325 
Q 1259 -519 939 -900 
Q 619 -1281 -91 -1281 
L -331 -1281 
L -331 -750 
L -134 -750 
Q 284 -750 456 -515 
Q 628 -281 628 325 
L 628 4666 
z
" transform="scale(0.015625)"/>
        <path id="DejaVuSans-75" d="M 544 1381 
L 544 3500 
L 1119 3500 
L 1119 1403 
Q 1119 906 1312 657 
Q 1506 409 1894 409 
Q 2359 409 2629 706 
Q 2900 1003 2900 1516 
L 2900 3500 
L 3475 3500 
L 3475 0 
L 2900 0 
L 2900 538 
Q 2691 219 2414 64 
Q 2138 -91 1772 -91 
Q 1169 -91 856 284 
Q 544 659 544 1381 
z
M 1991 3584 
L 1991 3584 
z
" transform="scale(0.015625)"/>
        <path id="DejaVuSans-6e" d="M 3513 2113 
L 3513 0 
L 2938 0 
L 2938 2094 
Q 2938 2591 2744 2837 
Q 2550 3084 2163 3084 
Q 1697 3084 1428 2787 
Q 1159 2491 1159 1978 
L 1159 0 
L 581 0 
L 581 3500 
L 1159 3500 
L 1159 2956 
Q 1366 3272 1645 3428 
Q 1925 3584 2291 3584 
Q 2894 3584 3203 3211 
Q 3513 2838 3513 2113 
z
" transform="scale(0.015625)"/>
        <path id="DejaVuSans-65" d="M 3597 1894 
L 3597 1613 
L 953 1613 
Q 991 1019 1311 708 
Q 1631 397 2203 397 
Q 2534 397 2845 478 
Q 3156 559 3463 722 
L 3463 178 
Q 3153 47 2828 -22 
Q 2503 -91 2169 -91 
Q 1331 -91 842 396 
Q 353 884 353 1716 
Q 353 2575 817 3079 
Q 1281 3584 2069 3584 
Q 2775 3584 3186 3129 
Q 3597 2675 3597 1894 
z
M 3022 2063 
Q 3016 2534 2758 2815 
Q 2500 3097 2075 3097 
Q 1594 3097 1305 2825 
Q 1016 2553 972 2059 
L 3022 2063 
z
" transform="scale(0.015625)"/>
       </defs>
       <use xlink:href="#DejaVuSans-4a"/>
       <use xlink:href="#DejaVuSans-75" transform="translate(29.492188 0)"/>
       <use xlink:href="#DejaVuSans-6e" transform="translate(92.871094 0)"/>
       <use xlink:href="#DejaVuSans-65" transform="translate(156.25 0)"/>
      </g>
     </g>
    </g>
   </g>
   <g id="matplotlib.axis_2">
    <g id="ytick_1">
     <g id="line2d_5">
      <defs>
       <path id="m1c818b9b8c" d="M 0 0 
L -3.5 0 
" style="stroke: #000000; stroke-width: 0.8"/>
      </defs>
      <g>
       <use xlink:href="#m1c818b9b8c" x="51.154531" y="278.187427" style="stroke: #000000; stroke-width: 0.8"/>
      </g>
     </g>
     <g id="text_5">
      <!-- −2.0 -->
      <g transform="translate(22.3 281.606724) scale(0.09 -0.09)">
       <defs>
        <path id="DejaVuSans-2212" d="M 678 2272 
L 4684 2272 
L 4684 1741 
L 678 1741 
L 678 2272 
z
" transform="scale(0.015625)"/>
        <path id="DejaVuSans-32" d="M 1228 531 
L 3431 531 
L 3431 0 
L 469 0 
L 469 531 
Q 828 903 1448 1529 
Q 2069 2156 2228 2338 
Q 2531 2678 2651 2914 
Q 2772 3150 2772 3378 
Q 2772 3750 2511 3984 
Q 2250 4219 1831 4219 
Q 1534 4219 1204 4116 
Q 875 4013 500 3803 
L 500 4441 
Q 881 4594 1212 4672 
Q 1544 4750 1819 4750 
Q 2544 4750 2975 4387 
Q 3406 4025 3406 3419 
Q 3406 3131 3298 2873 
Q 3191 2616 2906 2266 
Q 2828 2175 2409 1742 
Q 1991 1309 1228 531 
z
" transform="scale(0.015625)"/>
        <path id="DejaVuSans-2e" d="M 684 794 
L 1344 794 
L 1344 0 
L 684 0 
L 684 794 
z
" transform="scale(0.015625)"/>
        <path id="DejaVuSans-30" d="M 2034 4250 
Q 1547 4250 1301 3770 
Q 1056 3291 1056 2328 
Q 1056 1369 1301 889 
Q 1547 409 2034 409 
Q 2525 409 2770 889 
Q 3016 1369 3016 2328 
Q 3016 3291 2770 3770 
Q 2525 4250 2034 4250 
z
M 2034 4750 
Q 2819 4750 3233 4129 
Q 3647 3509 3647 2328 
Q 3647 1150 3233 529 
Q 2819 -91 2034 -91 
Q 1250 -91 836 529 
Q 422 1150 422 2328 
Q 422 3509 836 4129 
Q 1250 4750 2034 4750 
z
" transform="scale(0.015625)"/>
       </defs>
       <use xlink:href="#DejaVuSans-2212"/>
       <use xlink:href="#DejaVuSans-32" transform="translate(83.789062 0)"/>
       <use xlink:href="#DejaVuSans-2e" transform="translate(147.412109 0)"/>
       <use xlink:href="#DejaVuSans-30" transform="translate(179.199219 0)"/>
      </g>
     </g>
    </g>
    <g id="ytick_2">
     <g id="line2d_6">
      <g>
       <use xlink:href="#m1c818b9b8c" x="51.154531" y="244.683357" style="stroke: #000000; stroke-width: 0.8"/>
      </g>
     </g>
     <g id="text_6">
      <!-- −1.5 -->
      <g transform="translate(22.3 248.102654) scale(0.09 -0.09)">
       <defs>
        <path id="DejaVuSans-31" d="M 794 531 
L 1825 531 
L 1825 4091 
L 703 3866 
L 703 4441 
L 1819 4666 
L 2450 4666 
L 2450 531 
L 3481 531 
L 3481 0 
L 794 0 
L 794 531 
z
" transform="scale(0.015625)"/>
        <path id="DejaVuSans-35" d="M 691 4666 
L 3169 4666 
L 3169 4134 
L 1269 4134 
L 1269 2991 
Q 1406 3038 1543 3061 
Q 1681 3084 1819 3084 
Q 2600 3084 3056 2656 
Q 3513 2228 3513 1497 
Q 3513 744 3044 326 
Q 2575 -91 1722 -91 
Q 1428 -91 1123 -41 
Q 819 9 494 109 
L 494 744 
Q 775 591 1075 516 
Q 1375 441 1709 441 
Q 2250 441 2565 725 
Q 2881 1009 2881 1497 
Q 2881 1984 2565 2268 
Q 2250 2553 1709 2553 
Q 1456 2553 1204 2497 
Q 953 2441 691 2322 
L 691 4666 
z
" transform="scale(0.015625)"/>
       </defs>
       <use xlink:href="#DejaVuSans-2212"/>
       <use xlink:href="#DejaVuSans-31" transform="translate(83.789062 0)"/>
       <use xlink:href="#DejaVuSans-2e" transform="translate(147.412109 0)"/>
       <use xlink:href="#DejaVuSans-35" transform="translate(179.199219 0)"/>
      </g>
     </g>
    </g>
    <g id="ytick_3">
     <g id="line2d_7">
      <g>
       <use xlink:href="#m1c818b9b8c" x="51.154531" y="211.179286" style="stroke: #000000; stroke-width: 0.8"/>
      </g>
     </g>
     <g id="text_7">
      <!-- −1.0 -->
      <g transform="translate(22.3 214.598583) scale(0.09 -0.09)">
       <use xlink:href="#DejaVuSans-2212"/>
       <use xlink:href="#DejaVuSans-31" transform="translate(83.789062 0)"/>
       <use xlink:href="#DejaVuSans-2e" transform="translate(147.412109 0)"/>
       <use xlink:href="#DejaVuSans-30" transform="translate(179.199219 0)"/>
      </g>
     </g>
    </g>
    <g id="ytick_4">
     <g id="line2d_8">
      <g>
       <use xlink:href="#m1c818b9b8c" x="51.154531" y="177.675216" style="stroke: #000000; stroke-width: 0.8"/>
      </g>
     </g>
     <g id="text_8">
      <!-- −0.5 -->
      <g transform="translate(22.3 181.094513) scale(0.09 -0.09)">
       <use xlink:href="#DejaVuSans-2212"/>
       <use xlink:href="#DejaVuSans-30" transform="translate(83.789062 0)"/>
       <use xlink:href="#DejaVuSans-2e" transform="translate(147.412109 0)"/>
       <use xlink:href="#DejaVuSans-35" transform="translate(179.199219 0)"/>
      </g>
     </g>
    </g>
    <g id="ytick_5">
     <g id="line2d_9">
      <g>
       <use xlink:href="#m1c818b9b8c" x="51.154531" y="144.171145" style="stroke: #000000; stroke-width: 0.8"/>
      </g>
     </g>
     <g id="text_9">
      <!-- 0.0 -->
      <g transform="translate(29.841719 147.590442) scale(0.09 -0.09)">
       <use xlink:href="#DejaVuSans-30"/>
       <use xlink:href="#DejaVuSans-2e" transform="translate(63.623047 0)"/>
       <use xlink:href="#DejaVuSans-30" transform="translate(95.410156 0)"/>
      </g>
     </g>
    </g>
    <g id="ytick_6">
     <g id="line2d_10">
      <g>
       <use xlink:href="#m1c818b9b8c" x="51.154531" y="110.667075" style="stroke: #000000; stroke-width: 0.8"/>
      </g>
     </g>
     <g id="text_10">
      <!-- 0.5 -->
      <g transform="translate(29.841719 114.086372) scale(0.09 -0.09)">
       <use xlink:href="#DejaVuSans-30"/>
       <use xlink:href="#DejaVuSans-2e" transform="translate(63.623047 0)"/>
       <use xlink:href="#DejaVuSans-35" transform="translate(95.410156 0)"/>
      </g>
     </g>
    </g>
    <g id="ytick_7">
     <g id="line2d_11">
      <g>
       <use xlink:href="#m1c818b9b8c" x="51.154531" y="77.163004" style="stroke: #000000; stroke-width: 0.8"/>
      </g>
     </g>
     <g id="text_11">
      <!-- 1.0 -->
      <g transform="translate(29.841719 80.582301) scale(0.09 -0.09)">
       <use xlink:href="#DejaVuSans-31"/>
       <use xlink:href="#DejaVuSans-2e" transform="translate(63.623047 0)"/>
       <use xlink:href="#DejaVuSans-30" transform="translate(95.410156 0)"/>
      </g>
     </g>
    </g>
    <g id="ytick_8">
     <g id="line2d_12">
      <g>
       <use xlink:href="#m1c818b9b8c" x="51.154531" y="43.658934" style="stroke: #000000; stroke-width: 0.8"/>
      </g>
     </g>
     <g id="text_12">
      <!-- 1.5 -->
      <g transform="translate(29.841719 47.078231) scale(0.09 -0.09)">
       <use xlink:href="#DejaVuSans-31"/>
       <use xlink:href="#DejaVuSans-2e" transform="translate(63.623047 0)"/>
       <use xlink:href="#DejaVuSans-35" transform="translate(95.410156 0)"/>
      </g>
     </g>
    </g>
    <g id="text_13">
     <!-- Eddy heat flux anomaly v'T' (K m s$^{-1}$) -->
     <g transform="translate(16.2 248.038281) rotate(-90) scale(0.1 -0.1)">
      <defs>
       <path id="DejaVuSans-45" d="M 628 4666 
L 3578 4666 
L 3578 4134 
L 1259 4134 
L 1259 2753 
L 3481 2753 
L 3481 2222 
L 1259 2222 
L 1259 531 
L 3634 531 
L 3634 0 
L 628 0 
L 628 4666 
z
" transform="scale(0.015625)"/>
       <path id="DejaVuSans-64" d="M 2906 2969 
L 2906 4863 
L 3481 4863 
L 3481 0 
L 2906 0 
L 2906 525 
Q 2725 213 2448 61 
Q 2172 -91 1784 -91 
Q 1150 -91 751 415 
Q 353 922 353 1747 
Q 353 2572 751 3078 
Q 1150 3584 1784 3584 
Q 2172 3584 2448 3432 
Q 2725 3281 2906 2969 
z
M 947 1747 
Q 947 1113 1208 752 
Q 1469 391 1925 391 
Q 2381 391 2643 752 
Q 2906 1113 2906 1747 
Q 2906 2381 2643 2742 
Q 2381 3103 1925 3103 
Q 1469 3103 1208 2742 
Q 947 2381 947 1747 
z
" transform="scale(0.015625)"/>
       <path id="DejaVuSans-20" transform="scale(0.015625)"/>
       <path id="DejaVuSans-68" d="M 3513 2113 
L 3513 0 
L 2938 0 
L 2938 2094 
Q 2938 2591 2744 2837 
Q 2550 3084 2163 3084 
Q 1697 3084 1428 2787 
Q 1159 2491 1159 1978 
L 1159 0 
L 581 0 
L 581 4863 
L 1159 4863 
L 1159 2956 
Q 1366 3272 1645 3428 
Q 1925 3584 2291 3584 
Q 2894 3584 3203 3211 
Q 3513 2838 3513 2113 
z
" transform="scale(0.015625)"/>
       <path id="DejaVuSans-74" d="M 1172 4494 
L 1172 3500 
L 2356 3500 
L 2356 3053 
L 1172 3053 
L 1172 1153 
Q 1172 725 1289 603 
Q 1406 481 1766 481 
L 2356 481 
L 2356 0 
L 1766 0 
Q 1100 0 847 248 
Q 594 497 594 1153 
L 594 3053 
L 172 3053 
L 172 3500 
L 594 3500 
L 594 4494 
L 1172 4494 
z
" transform="scale(0.015625)"/>
       <path id="DejaVuSans-66" d="M 2375 4863 
L 2375 4384 
L 1825 4384 
Q 1516 4384 1395 4259 
Q 1275 4134 1275 3809 
L 1275 3500 
L 2222 3500 
L 2222 3053 
L 1275 3053 
L 1275 0 
L 697 0 
L 697 3053 
L 147 3053 
L 147 3500 
L 697 3500 
L 697 3744 
Q 697 4328 969 4595 
Q 1241 4863 1831 4863 
L 2375 4863 
z
" transform="scale(0.015625)"/>
       <path id="DejaVuSans-6c" d="M 603 4863 
L 1178 4863 
L 1178 0 
L 603 0 
L 603 4863 
z
" transform="scale(0.015625)"/>
       <path id="DejaVuSans-78" d="M 3513 3500 
L 2247 1797 
L 3578 0 
L 2900 0 
L 1881 1375 
L 863 0 
L 184 0 
L 1544 1831 
L 300 3500 
L 978 3500 
L 1906 2253 
L 2834 3500 
L 3513 3500 
z
" transform="scale(0.015625)"/>
       <path id="DejaVuSans-6f" d="M 1959 3097 
Q 1497 3097 1228 2736 
Q 959 2375 959 1747 
Q 959 1119 1226 758 
Q 1494 397 1959 397 
Q 2419 397 2687 759 
Q 2956 1122 2956 1747 
Q 2956 2369 2687 2733 
Q 2419 3097 1959 3097 
z
M 1959 3584 
Q 2709 3584 3137 3096 
Q 3566 2609 3566 1747 
Q 3566 888 3137 398 
Q 2709 -91 1959 -91 
Q 1206 -91 779 398 
Q 353 888 353 1747 
Q 353 2609 779 3096 
Q 1206 3584 1959 3584 
z
" transform="scale(0.015625)"/>
       <path id="DejaVuSans-6d" d="M 3328 2828 
Q 3544 3216 3844 3400 
Q 4144 3584 4550 3584 
Q 5097 3584 5394 3201 
Q 5691 2819 5691 2113 
L 5691 0 
L 5113 0 
L 5113 2094 
Q 5113 2597 4934 2840 
Q 4756 3084 4391 3084 
Q 3944 3084 3684 2787 
Q 3425 2491 3425 1978 
L 3425 0 
L 2847 0 
L 2847 2094 
Q 2847 2600 2669 2842 
Q 2491 3084 2119 3084 
Q 1678 3084 1418 2786 
Q 1159 2488 1159 1978 
L 1159 0 
L 581 0 
L 581 3500 
L 1159 3500 
L 1159 2956 
Q 1356 3278 1631 3431 
Q 1906 3584 2284 3584 
Q 2666 3584 2933 3390 
Q 3200 3197 3328 2828 
z
" transform="scale(0.015625)"/>
       <path id="DejaVuSans-76" d="M 191 3500 
L 800 3500 
L 1894 563 
L 2988 3500 
L 3597 3500 
L 2284 0 
L 1503 0 
L 191 3500 
z
" transform="scale(0.015625)"/>
       <path id="DejaVuSans-27" d="M 1147 4666 
L 1147 2931 
L 616 2931 
L 616 4666 
L 1147 4666 
z
" transform="scale(0.015625)"/>
       <path id="DejaVuSans-54" d="M -19 4666 
L 3928 4666 
L 3928 4134 
L 2272 4134 
L 2272 0 
L 1638 0 
L 1638 4134 
L -19 4134 
L -19 4666 
z
" transform="scale(0.015625)"/>
       <path id="DejaVuSans-28" d="M 1984 4856 
Q 1566 4138 1362 3434 
Q 1159 2731 1159 2009 
Q 1159 1288 1364 580 
Q 1569 -128 1984 -844 
L 1484 -844 
Q 1016 -109 783 600 
Q 550 1309 550 2009 
Q 550 2706 781 3412 
Q 1013 4119 1484 4856 
L 1984 4856 
z
" transform="scale(0.015625)"/>
       <path id="DejaVuSans-4b" d="M 628 4666 
L 1259 4666 
L 1259 2694 
L 3353 4666 
L 4166 4666 
L 1850 2491 
L 4331 0 
L 3500 0 
L 1259 2247 
L 1259 0 
L 628 0 
L 628 4666 
z
" transform="scale(0.015625)"/>
       <path id="DejaVuSans-73" d="M 2834 3397 
L 2834 2853 
Q 2591 2978 2328 3040 
Q 2066 3103 1784 3103 
Q 1356 3103 1142 2972 
Q 928 2841 928 2578 
Q 928 2378 1081 2264 
Q 1234 2150 1697 2047 
L 1894 2003 
Q 2506 1872 2764 1633 
Q 3022 1394 3022 966 
Q 3022 478 2636 193 
Q 2250 -91 1575 -91 
Q 1294 -91 989 -36 
Q 684 19 347 128 
L 347 722 
Q 666 556 975 473 
Q 1284 391 1588 391 
Q 1994 391 2212 530 
Q 2431 669 2431 922 
Q 2431 1156 2273 1281 
Q 2116 1406 1581 1522 
L 1381 1569 
Q 847 1681 609 1914 
Q 372 2147 372 2553 
Q 372 3047 722 3315 
Q 1072 3584 1716 3584 
Q 2034 3584 2315 3537 
Q 2597 3491 2834 3397 
z
" transform="scale(0.015625)"/>
       <path id="DejaVuSans-29" d="M 513 4856 
L 1013 4856 
Q 1481 4119 1714 3412 
Q 1947 2706 1947 2009 
Q 1947 1309 1714 600 
Q 1481 -109 1013 -844 
L 513 -844 
Q 928 -128 1133 580 
Q 1338 1288 1338 2009 
Q 1338 2731 1133 3434 
Q 928 4138 513 4856 
z
" transform="scale(0.015625)"/>
      </defs>
      <use xlink:href="#DejaVuSans-45" transform="translate(0 0.684375)"/>
      <use xlink:href="#DejaVuSans-64" transform="translate(63.183594 0.684375)"/>
      <use xlink:href="#DejaVuSans-64" transform="translate(126.660156 0.684375)"/>
      <use xlink:href="#DejaVuSans-79" transform="translate(190.136719 0.684375)"/>
      <use xlink:href="#DejaVuSans-20" transform="translate(249.316406 0.684375)"/>
      <use xlink:href="#DejaVuSans-68" transform="translate(281.103516 0.684375)"/>
      <use xlink:href="#DejaVuSans-65" transform="translate(344.482422 0.684375)"/>
      <use xlink:href="#DejaVuSans-61" transform="translate(406.005859 0.684375)"/>
      <use xlink:href="#DejaVuSans-74" transform="translate(467.285156 0.684375)"/>
      <use xlink:href="#DejaVuSans-20" transform="translate(506.494141 0.684375)"/>
      <use xlink:href="#DejaVuSans-66" transform="translate(538.28125 0.684375)"/>
      <use xlink:href="#DejaVuSans-6c" transform="translate(573.486328 0.684375)"/>
      <use xlink:href="#DejaVuSans-75" transform="translate(601.269531 0.684375)"/>
      <use xlink:href="#DejaVuSans-78" transform="translate(664.648438 0.684375)"/>
      <use xlink:href="#DejaVuSans-20" transform="translate(723.828125 0.684375)"/>
      <use xlink:href="#DejaVuSans-61" transform="translate(755.615234 0.684375)"/>
      <use xlink:href="#DejaVuSans-6e" transform="translate(816.894531 0.684375)"/>
      <use xlink:href="#DejaVuSans-6f" transform="translate(880.273438 0.684375)"/>
      <use xlink:href="#DejaVuSans-6d" transform="translate(941.455078 0.684375)"/>
      <use xlink:href="#DejaVuSans-61" transform="translate(1038.867188 0.684375)"/>
      <use xlink:href="#DejaVuSans-6c" transform="translate(1100.146484 0.684375)"/>
      <use xlink:href="#DejaVuSans-79" transform="translate(1127.929688 0.684375)"/>
      <use xlink:href="#DejaVuSans-20" transform="translate(1187.109375 0.684375)"/>
      <use xlink:href="#DejaVuSans-76" transform="translate(1218.896484 0.684375)"/>
      <use xlink:href="#DejaVuSans-27" transform="translate(1278.076172 0.684375)"/>
      <use xlink:href="#DejaVuSans-54" transform="translate(1305.566406 0.684375)"/>
      <use xlink:href="#DejaVuSans-27" transform="translate(1366.650391 0.684375)"/>
      <use xlink:href="#DejaVuSans-20" transform="translate(1394.140625 0.684375)"/>
      <use xlink:href="#DejaVuSans-28" transform="translate(1425.927734 0.684375)"/>
      <use xlink:href="#DejaVuSans-4b" transform="translate(1464.941406 0.684375)"/>
      <use xlink:href="#DejaVuSans-20" transform="translate(1530.517578 0.684375)"/>
      <use xlink:href="#DejaVuSans-6d" transform="translate(1562.304688 0.684375)"/>
      <use xlink:href="#DejaVuSans-20" transform="translate(1659.716797 0.684375)"/>
      <use xlink:href="#DejaVuSans-73" transform="translate(1691.503906 0.684375)"/>
      <use xlink:href="#DejaVuSans-2212" transform="translate(1744.560547 38.965625) scale(0.7)"/>
      <use xlink:href="#DejaVuSans-31" transform="translate(1803.212891 38.965625) scale(0.7)"/>
      <use xlink:href="#DejaVuSans-29" transform="translate(1850.483398 0.684375)"/>
     </g>
    </g>
   </g>
   <g id="line2d_13">
    <path d="M 75.394531 189.336921 
L 80.722004 189.118342 
L 86.049476 188.456978 
L 91.376949 189.501264 
L 96.704421 192.136752 
L 102.031894 195.261819 
L 107.359366 197.663087 
L 112.686839 199.121217 
L 118.014311 199.338134 
L 123.341784 199.259003 
L 128.669257 199.013899 
L 133.996729 197.215247 
L 139.324202 195.364624 
L 144.651674 194.584081 
L 149.979147 194.212682 
L 155.306619 192.782993 
L 160.634092 190.687555 
L 165.961564 186.215298 
L 171.289037 181.509875 
L 176.616509 177.144063 
L 181.943982 172.225567 
L 187.271454 167.551366 
L 192.598927 163.483119 
L 197.926399 160.043396 
L 203.253872 157.140522 
L 208.581344 152.700116 
L 213.908817 147.352974 
L 219.236289 141.455726 
L 224.563762 137.072256 
L 229.891235 135.951551 
L 235.218707 135.511342 
L 240.54618 133.071369 
L 245.873652 129.334684 
L 251.201125 123.10832 
L 256.528597 113.642816 
L 261.85607 102.263999 
L 267.183542 91.354758 
L 272.511015 81.885926 
L 277.838487 74.040354 
L 283.16596 67.483542 
L 288.493432 61.194867 
L 293.820905 55.429943 
L 299.148377 49.944394 
L 304.47585 44.01002 
L 309.803322 38.238748 
L 315.130795 34.461623 
L 320.458268 33.556463 
L 325.78574 34.512207 
L 331.113213 36.140372 
L 336.440685 37.978764 
L 341.768158 39.751041 
L 347.09563 40.803484 
L 352.423103 41.471767 
L 357.750575 42.554763 
L 363.078048 43.336961 
L 368.40552 44.559418 
L 373.732993 45.563553 
L 379.060465 45.275804 
L 384.387938 43.685194 
L 389.71541 41.470907 
L 395.042883 38.99276 
L 400.370355 38.329062 
L 405.697828 38.861899 
L 411.0253 40.701597 
L 416.352773 45.24336 
L 421.680246 51.310991 
L 427.007718 56.767259 
L 432.335191 61.675987 
L 437.662663 66.63463 
L 442.990136 70.51081 
L 448.317608 74.047348 
L 453.645081 78.565078 
L 458.972553 82.561529 
L 464.300026 85.168338 
L 469.627498 87.14225 
L 474.954971 88.330429 
L 480.282443 88.316885 
L 485.609916 87.253671 
L 490.937388 86.894278 
L 496.264861 86.380079 
L 501.592333 86.163869 
L 506.919806 86.599218 
L 512.247279 88.060641 
L 517.574751 89.94872 
L 522.902224 90.954528 
L 528.229696 90.546067 
L 533.557169 89.311529 
L 538.884641 88.126659 
L 544.212114 87.642044 
L 549.539586 88.093865 
L 554.867059 88.868404 
L 560.194531 88.627083 
" clip-path="url(#pb2461beb72)" style="fill: none; stroke: #000080; stroke-width: 2; stroke-linecap: square"/>
   </g>
   <g id="line2d_14">
    <path d="M 75.394531 93.543975 
L 80.722004 96.076461 
L 86.049476 96.30329 
L 91.376949 95.098237 
L 96.704421 91.387692 
L 102.031894 85.340678 
L 107.359366 80.621979 
L 112.686839 78.966503 
L 118.014311 79.179295 
L 123.341784 79.873693 
L 128.669257 81.088546 
L 133.996729 84.459866 
L 139.324202 88.542003 
L 144.651674 92.065737 
L 149.979147 95.995495 
L 155.306619 99.256101 
L 160.634092 102.256238 
L 165.961564 106.792528 
L 171.289037 113.062768 
L 176.616509 119.666761 
L 181.943982 126.253069 
L 187.271454 132.040322 
L 192.598927 137.436527 
L 197.926399 142.206735 
L 203.253872 146.680537 
L 208.581344 152.166226 
L 213.908817 158.613009 
L 219.236289 164.929038 
L 224.563762 170.06698 
L 229.891235 173.018576 
L 235.218707 175.572919 
L 240.54618 180.770694 
L 245.873652 188.6086 
L 251.201125 197.683819 
L 256.528597 208.209161 
L 261.85607 219.770391 
L 267.183542 230.137241 
L 272.511015 239.125937 
L 277.838487 246.748506 
L 283.16596 252.531176 
L 288.493432 257.304239 
L 293.820905 260.254929 
L 299.148377 262.294217 
L 304.47585 264.256299 
L 309.803322 265.338906 
L 315.130795 266.617148 
L 320.458268 268.165559 
L 325.78574 269.606435 
L 331.113213 271.830489 
L 336.440685 273.520099 
L 341.768158 273.420777 
L 347.09563 272.200564 
L 352.423103 269.767819 
L 357.750575 266.71207 
L 363.078048 263.082421 
L 368.40552 258.546236 
L 373.732993 253.355911 
L 379.060465 247.526445 
L 384.387938 242.208706 
L 389.71541 237.703131 
L 395.042883 233.830819 
L 400.370355 229.168225 
L 405.697828 223.82854 
L 411.0253 218.63194 
L 416.352773 213.418084 
L 421.680246 208.653882 
L 427.007718 204.662028 
L 432.335191 200.204412 
L 437.662663 195.310187 
L 442.990136 191.700801 
L 448.317608 188.633697 
L 453.645081 185.344989 
L 458.972553 182.12731 
L 464.300026 179.499856 
L 469.627498 177.082543 
L 474.954971 174.916154 
L 480.282443 172.502226 
L 485.609916 169.439084 
L 490.937388 165.804179 
L 496.264861 162.655049 
L 501.592333 160.631 
L 506.919806 159.313805 
L 512.247279 158.257405 
L 517.574751 157.904186 
L 522.902224 159.021629 
L 528.229696 160.777412 
L 533.557169 162.493434 
L 538.884641 164.095858 
L 544.212114 165.738172 
L 549.539586 167.619211 
L 554.867059 169.203593 
L 560.194531 170.396367 
" clip-path="url(#pb2461beb72)" style="fill: none; stroke: #b22222; stroke-width: 2; stroke-linecap: square"/>
   </g>
   <g id="line2d_15">
    <path d="M 75.394531 256.174227 
L 80.722004 260.152789 
L 86.049476 262.178389 
L 91.376949 262.318205 
L 96.704421 257.729768 
L 102.031894 250.806533 
L 107.359366 244.903775 
L 112.686839 239.151131 
L 118.014311 231.68323 
L 123.341784 223.156565 
L 128.669257 216.608808 
L 133.996729 213.536314 
L 139.324202 211.777654 
L 144.651674 210.418046 
L 149.979147 208.70857 
L 155.306619 206.524409 
L 160.634092 204.315288 
L 165.961564 203.935676 
L 171.289037 203.795275 
L 176.616509 202.402379 
L 181.943982 199.031512 
L 187.271454 195.211226 
L 192.598927 193.911429 
L 197.926399 193.229055 
L 203.253872 190.4375 
L 208.581344 185.043174 
L 213.908817 177.238765 
L 219.236289 169.696435 
L 224.563762 163.685312 
L 229.891235 159.048574 
L 235.218707 154.843206 
L 240.54618 150.96184 
L 245.873652 147.001746 
L 251.201125 142.832852 
L 256.528597 140.445175 
L 261.85607 139.046387 
L 267.183542 137.807626 
L 272.511015 138.250541 
L 277.838487 141.261561 
L 283.16596 145.303862 
L 288.493432 147.360677 
L 293.820905 145.087134 
L 299.148377 140.49891 
L 304.47585 136.639004 
L 309.803322 134.964532 
L 315.130795 134.299847 
L 320.458268 131.508689 
L 325.78574 127.257335 
L 331.113213 122.687622 
L 336.440685 118.715972 
L 341.768158 115.281866 
L 347.09563 109.321732 
L 352.423103 100.41367 
L 357.750575 92.046356 
L 363.078048 85.921365 
L 368.40552 82.717405 
L 373.732993 82.679709 
L 379.060465 83.97628 
L 384.387938 84.677254 
L 389.71541 83.958637 
L 395.042883 81.477498 
L 400.370355 77.522348 
L 405.697828 74.507627 
L 411.0253 72.864221 
L 416.352773 72.189042 
L 421.680246 71.856596 
L 427.007718 71.540816 
L 432.335191 70.658829 
L 437.662663 69.438718 
L 442.990136 68.699504 
L 448.317608 69.33325 
L 453.645081 72.012179 
L 458.972553 76.333607 
L 464.300026 79.557854 
L 469.627498 80.514439 
L 474.954971 81.163713 
L 480.282443 83.25776 
L 485.609916 86.718289 
L 490.937388 88.860151 
L 496.264861 91.530188 
L 501.592333 95.195932 
L 506.919806 100.670019 
L 512.247279 107.705859 
L 517.574751 114.114266 
L 522.902224 118.36332 
L 528.229696 120.372606 
L 533.557169 120.561237 
L 538.884641 119.818077 
L 544.212114 118.828325 
L 549.539586 118.70059 
L 554.867059 119.743797 
L 560.194531 121.9318 
" clip-path="url(#pb2461beb72)" style="fill: none; stroke-dasharray: 2,3.3; stroke-dashoffset: 0; stroke: #000080; stroke-width: 2"/>
   </g>
   <g id="line2d_16">
    <path d="M 75.394531 156.564581 
L 80.722004 153.670726 
L 86.049476 154.119689 
L 91.376949 156.402211 
L 96.704421 159.999036 
L 102.031894 162.350585 
L 107.359366 162.993729 
L 112.686839 162.89507 
L 118.014311 164.51611 
L 123.341784 167.730371 
L 128.669257 169.973247 
L 133.996729 172.62601 
L 139.324202 176.529128 
L 144.651674 179.742986 
L 149.979147 182.74178 
L 155.306619 184.936898 
L 160.634092 189.884852 
L 165.961564 192.109995 
L 171.289037 192.966156 
L 176.616509 193.667643 
L 181.943982 196.55447 
L 187.271454 199.996084 
L 192.598927 203.149042 
L 197.926399 206.027675 
L 203.253872 206.897184 
L 208.581344 207.336021 
L 213.908817 208.440236 
L 219.236289 208.645774 
L 224.563762 207.628495 
L 229.891235 206.902233 
L 235.218707 207.585447 
L 240.54618 208.045892 
L 245.873652 207.954011 
L 251.201125 207.880696 
L 256.528597 206.957974 
L 261.85607 207.070789 
L 267.183542 207.510391 
L 272.511015 207.122505 
L 277.838487 204.184036 
L 283.16596 199.236014 
L 288.493432 194.932224 
L 293.820905 190.57617 
L 299.148377 185.288577 
L 304.47585 180.336343 
L 309.803322 174.910603 
L 315.130795 169.247114 
L 320.458268 164.948344 
L 325.78574 162.234551 
L 331.113213 158.773169 
L 336.440685 154.092816 
L 341.768158 148.145051 
L 347.09563 142.693835 
L 352.423103 138.941257 
L 357.750575 136.009194 
L 363.078048 133.840162 
L 368.40552 132.076861 
L 373.732993 129.839253 
L 379.060465 127.783018 
L 384.387938 127.114217 
L 389.71541 127.353853 
L 395.042883 127.722018 
L 400.370355 127.53107 
L 405.697828 126.011127 
L 411.0253 123.213067 
L 416.352773 120.023576 
L 421.680246 116.948799 
L 427.007718 114.962716 
L 432.335191 114.029857 
L 437.662663 114.376658 
L 442.990136 116.005189 
L 448.317608 117.71839 
L 453.645081 118.975866 
L 458.972553 119.584089 
L 464.300026 120.007634 
L 469.627498 120.956081 
L 474.954971 122.58964 
L 480.282443 124.151116 
L 485.609916 125.264997 
L 490.937388 125.774786 
L 496.264861 125.789741 
L 501.592333 125.872259 
L 506.919806 125.438394 
L 512.247279 124.141095 
L 517.574751 123.20116 
L 522.902224 122.869616 
L 528.229696 123.030169 
L 533.557169 123.351782 
L 538.884641 123.697019 
L 544.212114 124.031409 
L 549.539586 124.450343 
L 554.867059 124.962932 
L 560.194531 125.376379 
" clip-path="url(#pb2461beb72)" style="fill: none; stroke-dasharray: 2,3.3; stroke-dashoffset: 0; stroke: #b22222; stroke-width: 2"/>
   </g>
   <g id="line2d_17">
    <path d="M 75.394531 181.785409 
L 80.722004 180.890204 
L 86.049476 183.660485 
L 91.376949 187.805464 
L 96.704421 192.729355 
L 102.031894 196.988911 
L 107.359366 201.776303 
L 112.686839 208.336896 
L 118.014311 216.517863 
L 123.341784 225.210791 
L 128.669257 232.434303 
L 133.996729 235.883062 
L 139.324202 236.38609 
L 144.651674 236.639297 
L 149.979147 236.707169 
L 155.306619 235.433264 
L 160.634092 234.600593 
L 165.961564 233.633108 
L 171.289037 233.433273 
L 176.616509 234.999746 
L 181.943982 236.381082 
L 187.271454 233.823867 
L 192.598927 229.31989 
L 197.926399 225.086304 
L 203.253872 222.827971 
L 208.581344 224.429562 
L 213.908817 226.585938 
L 219.236289 227.646803 
L 224.563762 226.281574 
L 229.891235 223.173364 
L 235.218707 220.874209 
L 240.54618 217.880006 
L 245.873652 211.072982 
L 251.201125 202.388592 
L 256.528597 193.193729 
L 261.85607 184.013562 
L 267.183542 174.894573 
L 272.511015 164.333884 
L 277.838487 151.927995 
L 283.16596 139.004037 
L 288.493432 127.986044 
L 293.820905 120.733316 
L 299.148377 116.450329 
L 304.47585 112.720719 
L 309.803322 109.424539 
L 315.130795 108.040994 
L 320.458268 107.787027 
L 325.78574 107.63965 
L 331.113213 106.894461 
L 336.440685 103.49296 
L 341.768158 99.841037 
L 347.09563 98.705295 
L 352.423103 99.040899 
L 357.750575 99.618632 
L 363.078048 99.703581 
L 368.40552 98.263716 
L 373.732993 96.8734 
L 379.060465 96.086779 
L 384.387938 95.973488 
L 389.71541 97.356984 
L 395.042883 98.94189 
L 400.370355 101.484523 
L 405.697828 106.514112 
L 411.0253 112.414839 
L 416.352773 117.822839 
L 421.680246 122.861897 
L 427.007718 127.136625 
L 432.335191 131.746984 
L 437.662663 136.840477 
L 442.990136 141.256179 
L 448.317608 143.986026 
L 453.645081 144.79681 
L 458.972553 144.429904 
L 464.300026 143.859936 
L 469.627498 143.605801 
L 474.954971 143.1339 
L 480.282443 142.121938 
L 485.609916 140.608777 
L 490.937388 139.332716 
L 496.264861 139.252637 
L 501.592333 139.735719 
L 506.919806 140.755672 
L 512.247279 142.130743 
L 517.574751 143.475976 
L 522.902224 144.738465 
L 528.229696 145.862551 
L 533.557169 146.591655 
L 538.884641 147.941473 
L 544.212114 149.522813 
L 549.539586 150.699573 
L 554.867059 151.584391 
L 560.194531 151.438725 
" clip-path="url(#pb2461beb72)" style="fill: none; stroke-dasharray: 7.4,3.2; stroke-dashoffset: 0; stroke: #000080; stroke-width: 2"/>
   </g>
   <g id="line2d_18">
    <path d="M 75.394531 113.748132 
L 80.722004 115.297165 
L 86.049476 116.515388 
L 91.376949 117.736418 
L 96.704421 116.423228 
L 102.031894 114.441504 
L 107.359366 112.431481 
L 112.686839 109.173561 
L 118.014311 105.211426 
L 123.341784 102.918183 
L 128.669257 102.695244 
L 133.996729 103.16109 
L 139.324202 103.919913 
L 144.651674 104.433912 
L 149.979147 105.818347 
L 155.306619 108.782475 
L 160.634092 114.716873 
L 165.961564 120.369071 
L 171.289037 125.545655 
L 176.616509 129.673423 
L 181.943982 131.738784 
L 187.271454 133.284861 
L 192.598927 132.468236 
L 197.926399 128.681028 
L 203.253872 125.1938 
L 208.581344 123.490124 
L 213.908817 122.963805 
L 219.236289 123.363369 
L 224.563762 124.485632 
L 229.891235 126.026361 
L 235.218707 126.995432 
L 240.54618 128.035554 
L 245.873652 129.840874 
L 251.201125 132.204897 
L 256.528597 136.128899 
L 261.85607 141.422741 
L 267.183542 147.773973 
L 272.511015 154.388639 
L 277.838487 159.87569 
L 283.16596 163.647484 
L 288.493432 165.752212 
L 293.820905 166.756697 
L 299.148377 167.267352 
L 304.47585 168.312131 
L 309.803322 168.781761 
L 315.130795 168.327901 
L 320.458268 168.599326 
L 325.78574 169.608841 
L 331.113213 171.207953 
L 336.440685 173.00081 
L 341.768158 174.931321 
L 347.09563 176.698693 
L 352.423103 179.366876 
L 357.750575 182.976564 
L 363.078048 186.139637 
L 368.40552 187.256993 
L 373.732993 185.904294 
L 379.060465 184.348201 
L 384.387938 182.932406 
L 389.71541 181.377958 
L 395.042883 180.098573 
L 400.370355 178.748375 
L 405.697828 176.35125 
L 411.0253 173.881608 
L 416.352773 171.634571 
L 421.680246 168.354005 
L 427.007718 163.958545 
L 432.335191 159.977732 
L 437.662663 157.485885 
L 442.990136 155.443647 
L 448.317608 153.652461 
L 453.645081 152.818615 
L 458.972553 152.706441 
L 464.300026 152.424629 
L 469.627498 151.698655 
L 474.954971 150.056769 
L 480.282443 147.691121 
L 485.609916 145.652623 
L 490.937388 143.693546 
L 496.264861 141.214917 
L 501.592333 138.922327 
L 506.919806 137.143821 
L 512.247279 135.666931 
L 517.574751 134.311866 
L 522.902224 132.963333 
L 528.229696 132.203813 
L 533.557169 132.080301 
L 538.884641 131.060452 
L 544.212114 129.57605 
L 549.539586 128.063924 
L 554.867059 127.316231 
L 560.194531 127.196597 
" clip-path="url(#pb2461beb72)" style="fill: none; stroke-dasharray: 7.4,3.2; stroke-dashoffset: 0; stroke: #b22222; stroke-width: 2"/>
   </g>
   <g id="line2d_19">
    <path d="M 51.154531 144.171145 
L 584.434531 144.171145 
" clip-path="url(#pb2461beb72)" style="fill: none; stroke: #8c8c8c; stroke-width: 0.9; stroke-linecap: square"/>
   </g>
   <g id="patch_3">
    <path d="M 51.154531 285.518281 
L 51.154531 21.558281 
" style="fill: none; stroke: #000000; stroke-linejoin: miter; stroke-linecap: square"/>
   </g>
   <g id="patch_4">
    <path d="M 584.434531 285.518281 
L 584.434531 21.558281 
" style="fill: none; stroke: #000000; stroke-linejoin: miter; stroke-linecap: square"/>
   </g>
   <g id="patch_5">
    <path d="M 51.154531 285.518281 
L 584.434531 285.518281 
" style="fill: none; stroke: #000000; stroke-linejoin: miter; stroke-linecap: square"/>
   </g>
   <g id="patch_6">
    <path d="M 51.154531 21.558281 
L 584.434531 21.558281 
" style="fill: none; stroke: #000000; stroke-linejoin: miter; stroke-linecap: square"/>
   </g>
   <g id="text_14">
    <!-- Figure A5-style 100 hPa eddy heat flux anomalies, 45-75N, 30 d running mean -->
    <g transform="translate(101.787187 15.558281) scale(0.11 -0.11)">
     <defs>
      <path id="DejaVuSans-46" d="M 628 4666 
L 3309 4666 
L 3309 4134 
L 1259 4134 
L 1259 2759 
L 3109 2759 
L 3109 2228 
L 1259 2228 
L 1259 0 
L 628 0 
L 628 4666 
z
" transform="scale(0.015625)"/>
      <path id="DejaVuSans-69" d="M 603 3500 
L 1178 3500 
L 1178 0 
L 603 0 
L 603 3500 
z
M 603 4863 
L 1178 4863 
L 1178 4134 
L 603 4134 
L 603 4863 
z
" transform="scale(0.015625)"/>
      <path id="DejaVuSans-67" d="M 2906 1791 
Q 2906 2416 2648 2759 
Q 2391 3103 1925 3103 
Q 1463 3103 1205 2759 
Q 947 2416 947 1791 
Q 947 1169 1205 825 
Q 1463 481 1925 481 
Q 2391 481 2648 825 
Q 2906 1169 2906 1791 
z
M 3481 434 
Q 3481 -459 3084 -895 
Q 2688 -1331 1869 -1331 
Q 1566 -1331 1297 -1286 
Q 1028 -1241 775 -1147 
L 775 -588 
Q 1028 -725 1275 -790 
Q 1522 -856 1778 -856 
Q 2344 -856 2625 -561 
Q 2906 -266 2906 331 
L 2906 616 
Q 2728 306 2450 153 
Q 2172 0 1784 0 
Q 1141 0 747 490 
Q 353 981 353 1791 
Q 353 2603 747 3093 
Q 1141 3584 1784 3584 
Q 2172 3584 2450 3431 
Q 2728 3278 2906 2969 
L 2906 3500 
L 3481 3500 
L 3481 434 
z
" transform="scale(0.015625)"/>
      <path id="DejaVuSans-2d" d="M 313 2009 
L 1997 2009 
L 1997 1497 
L 313 1497 
L 313 2009 
z
" transform="scale(0.015625)"/>
      <path id="DejaVuSans-50" d="M 1259 4147 
L 1259 2394 
L 2053 2394 
Q 2494 2394 2734 2622 
Q 2975 2850 2975 3272 
Q 2975 3691 2734 3919 
Q 2494 4147 2053 4147 
L 1259 4147 
z
M 628 4666 
L 2053 4666 
Q 2838 4666 3239 4311 
Q 3641 3956 3641 3272 
Q 3641 2581 3239 2228 
Q 2838 1875 2053 1875 
L 1259 1875 
L 1259 0 
L 628 0 
L 628 4666 
z
" transform="scale(0.015625)"/>
      <path id="DejaVuSans-2c" d="M 750 794 
L 1409 794 
L 1409 256 
L 897 -744 
L 494 -744 
L 750 256 
L 750 794 
z
" transform="scale(0.015625)"/>
      <path id="DejaVuSans-34" d="M 2419 4116 
L 825 1625 
L 2419 1625 
L 2419 4116 
z
M 2253 4666 
L 3047 4666 
L 3047 1625 
L 3713 1625 
L 3713 1100 
L 3047 1100 
L 3047 0 
L 2419 0 
L 2419 1100 
L 313 1100 
L 313 1709 
L 2253 4666 
z
" transform="scale(0.015625)"/>
      <path id="DejaVuSans-37" d="M 525 4666 
L 3525 4666 
L 3525 4397 
L 1831 0 
L 1172 0 
L 2766 4134 
L 525 4134 
L 525 4666 
z
" transform="scale(0.015625)"/>
      <path id="DejaVuSans-4e" d="M 628 4666 
L 1478 4666 
L 3547 763 
L 3547 4666 
L 4159 4666 
L 4159 0 
L 3309 0 
L 1241 3903 
L 1241 0 
L 628 0 
L 628 4666 
z
" transform="scale(0.015625)"/>
      <path id="DejaVuSans-33" d="M 2597 2516 
Q 3050 2419 3304 2112 
Q 3559 1806 3559 1356 
Q 3559 666 3084 287 
Q 2609 -91 1734 -91 
Q 1441 -91 1130 -33 
Q 819 25 488 141 
L 488 750 
Q 750 597 1062 519 
Q 1375 441 1716 441 
Q 2309 441 2620 675 
Q 2931 909 2931 1356 
Q 2931 1769 2642 2001 
Q 2353 2234 1838 2234 
L 1294 2234 
L 1294 2753 
L 1863 2753 
Q 2328 2753 2575 2939 
Q 2822 3125 2822 3475 
Q 2822 3834 2567 4026 
Q 2313 4219 1838 4219 
Q 1578 4219 1281 4162 
Q 984 4106 628 3988 
L 628 4550 
Q 988 4650 1302 4700 
Q 1616 4750 1894 4750 
Q 2613 4750 3031 4423 
Q 3450 4097 3450 3541 
Q 3450 3153 3228 2886 
Q 3006 2619 2597 2516 
z
" transform="scale(0.015625)"/>
     </defs>
     <use xlink:href="#DejaVuSans-46"/>
     <use xlink:href="#DejaVuSans-69" transform="translate(50.269531 0)"/>
     <use xlink:href="#DejaVuSans-67" transform="translate(78.052734 0)"/>
     <use xlink:href="#DejaVuSans-75" transform="translate(141.529297 0)"/>
     <use xlink:href="#DejaVuSans-72" transform="translate(204.908203 0)"/>
     <use xlink:href="#DejaVuSans-65" transform="translate(243.771484 0)"/>
     <use xlink:href="#DejaVuSans-20" transform="translate(305.294922 0)"/>
     <use xlink:href="#DejaVuSans-41" transform="translate(337.082031 0)"/>
     <use xlink:href="#DejaVuSans-35" transform="translate(405.490234 0)"/>
     <use xlink:href="#DejaVuSans-2d" transform="translate(469.113281 0)"/>
     <use xlink:href="#DejaVuSans-73" transform="translate(505.197266 0)"/>
     <use xlink:href="#DejaVuSans-74" transform="translate(557.296875 0)"/>
     <use xlink:href="#DejaVuSans-79" transform="translate(596.505859 0)"/>
     <use xlink:href="#DejaVuSans-6c" transform="translate(655.685547 0)"/>
     <use xlink:href="#DejaVuSans-65" transform="translate(683.46875 0)"/>
     <use xlink:href="#DejaVuSans-20" transform="translate(744.992188 0)"/>
     <use xlink:href="#DejaVuSans-31" transform="translate(776.779297 0)"/>
     <use xlink:href="#DejaVuSans-30" transform="translate(840.402344 0)"/>
     <use xlink:href="#DejaVuSans-30" transform="translate(904.025391 0)"/>
     <use xlink:href="#DejaVuSans-20" transform="translate(967.648438 0)"/>
     <use xlink:href="#DejaVuSans-68" transform="translate(999.435547 0)"/>
     <use xlink:href="#DejaVuSans-50" transform="translate(1062.814453 0)"/>
     <use xlink:href="#DejaVuSans-61" transform="translate(1118.617188 0)"/>
     <use xlink:href="#DejaVuSans-20" transform="translate(1179.896484 0)"/>
     <use xlink:href="#DejaVuSans-65" transform="translate(1211.683594 0)"/>
     <use xlink:href="#DejaVuSans-64" transform="translate(1273.207031 0)"/>
     <use xlink:href="#DejaVuSans-64" transform="translate(1336.683594 0)"/>
     <use xlink:href="#DejaVuSans-79" transform="translate(1400.160156 0)"/>
     <use xlink:href="#DejaVuSans-20" transform="translate(1459.339844 0)"/>
     <use xlink:href="#DejaVuSans-68" transform="translate(1491.126953 0)"/>
     <use xlink:href="#DejaVuSans-65" transform="translate(1554.505859 0)"/>
     <use xlink:href="#DejaVuSans-61" transform="translate(1616.029297 0)"/>
     <use xlink:href="#DejaVuSans-74" transform="translate(1677.308594 0)"/>
     <use xlink:href="#DejaVuSans-20" transform="translate(1716.517578 0)"/>
     <use xlink:href="#DejaVuSans-66" transform="translate(1748.304688 0)"/>
     <use xlink:href="#DejaVuSans-6c" transform="translate(1783.509766 0)"/>
     <use xlink:href="#DejaVuSans-75" transform="translate(1811.292969 0)"/>
     <use xlink:href="#DejaVuSans-78" transform="translate(1874.671875 0)"/>
     <use xlink:href="#DejaVuSans-20" transform="translate(1933.851562 0)"/>
     <use xlink:href="#DejaVuSans-61" transform="translate(1965.638672 0)"/>
     <use xlink:href="#DejaVuSans-6e" transform="translate(2026.917969 0)"/>
     <use xlink:href="#DejaVuSans-6f" transform="translate(2090.296875 0)"/>
     <use xlink:href="#DejaVuSans-6d" transform="translate(2151.478516 0)"/>
     <use xlink:href="#DejaVuSans-61" transform="translate(2248.890625 0)"/>
     <use xlink:href="#DejaVuSans-6c" transform="translate(2310.169922 0)"/>
     <use xlink:href="#DejaVuSans-69" transform="translate(2337.953125 0)"/>
     <use xlink:href="#DejaVuSans-65" transform="translate(2365.736328 0)"/>
     <use xlink:href="#DejaVuSans-73" transform="translate(2427.259766 0)"/>
     <use xlink:href="#DejaVuSans-2c" transform="translate(2479.359375 0)"/>
     <use xlink:href="#DejaVuSans-20" transform="translate(2511.146484 0)"/>
     <use xlink:href="#DejaVuSans-34" transform="translate(2542.933594 0)"/>
     <use xlink:href="#DejaVuSans-35" transform="translate(2606.556641 0)"/>
     <use xlink:href="#DejaVuSans-2d" transform="translate(2670.179688 0)"/>
     <use xlink:href="#DejaVuSans-37" transform="translate(2706.263672 0)"/>
     <use xlink:href="#DejaVuSans-35" transform="translate(2769.886719 0)"/>
     <use xlink:href="#DejaVuSans-4e" transform="translate(2833.509766 0)"/>
     <use xlink:href="#DejaVuSans-2c" transform="translate(2908.314453 0)"/>
     <use xlink:href="#DejaVuSans-20" transform="translate(2940.101562 0)"/>
     <use xlink:href="#DejaVuSans-33" transform="translate(2971.888672 0)"/>
     <use xlink:href="#DejaVuSans-30" transform="translate(3035.511719 0)"/>
     <use xlink:href="#DejaVuSans-20" transform="translate(3099.134766 0)"/>
     <use xlink:href="#DejaVuSans-64" transform="translate(3130.921875 0)"/>
     <use xlink:href="#DejaVuSans-20" transform="translate(3194.398438 0)"/>
     <use xlink:href="#DejaVuSans-72" transform="translate(3226.185547 0)"/>
     <use xlink:href="#DejaVuSans-75" transform="translate(3267.298828 0)"/>
     <use xlink:href="#DejaVuSans-6e" transform="translate(3330.677734 0)"/>
     <use xlink:href="#DejaVuSans-6e" transform="translate(3394.056641 0)"/>
     <use xlink:href="#DejaVuSans-69" transform="translate(3457.435547 0)"/>
     <use xlink:href="#DejaVuSans-6e" transform="translate(3485.21875 0)"/>
     <use xlink:href="#DejaVuSans-67" transform="translate(3548.597656 0)"/>
     <use xlink:href="#DejaVuSans-20" transform="translate(3612.074219 0)"/>
     <use xlink:href="#DejaVuSans-6d" transform="translate(3643.861328 0)"/>
     <use xlink:href="#DejaVuSans-65" transform="translate(3741.273438 0)"/>
     <use xlink:href="#DejaVuSans-61" transform="translate(3802.796875 0)"/>
     <use xlink:href="#DejaVuSans-6e" transform="translate(3864.076172 0)"/>
    </g>
   </g>
   <g id="legend_1">
    <g id="line2d_20">
     <path d="M 58.354531 32.037031 
L 66.354531 32.037031 
L 74.354531 32.037031 
" style="fill: none; stroke: #000080; stroke-width: 2; stroke-linecap: square"/>
    </g>
    <g id="text_15">
     <!-- INT-3D low O3 -->
     <g transform="translate(80.754531 34.837031) scale(0.08 -0.08)">
      <defs>
       <path id="DejaVuSans-49" d="M 628 4666 
L 1259 4666 
L 1259 0 
L 628 0 
L 628 4666 
z
" transform="scale(0.015625)"/>
       <path id="DejaVuSans-44" d="M 1259 4147 
L 1259 519 
L 2022 519 
Q 2988 519 3436 956 
Q 3884 1394 3884 2338 
Q 3884 3275 3436 3711 
Q 2988 4147 2022 4147 
L 1259 4147 
z
M 628 4666 
L 1925 4666 
Q 3281 4666 3915 4102 
Q 4550 3538 4550 2338 
Q 4550 1131 3912 565 
Q 3275 0 1925 0 
L 628 0 
L 628 4666 
z
" transform="scale(0.015625)"/>
       <path id="DejaVuSans-77" d="M 269 3500 
L 844 3500 
L 1563 769 
L 2278 3500 
L 2956 3500 
L 3675 769 
L 4391 3500 
L 4966 3500 
L 4050 0 
L 3372 0 
L 2619 2869 
L 1863 0 
L 1184 0 
L 269 3500 
z
" transform="scale(0.015625)"/>
       <path id="DejaVuSans-4f" d="M 2522 4238 
Q 1834 4238 1429 3725 
Q 1025 3213 1025 2328 
Q 1025 1447 1429 934 
Q 1834 422 2522 422 
Q 3209 422 3611 934 
Q 4013 1447 4013 2328 
Q 4013 3213 3611 3725 
Q 3209 4238 2522 4238 
z
M 2522 4750 
Q 3503 4750 4090 4092 
Q 4678 3434 4678 2328 
Q 4678 1225 4090 567 
Q 3503 -91 2522 -91 
Q 1538 -91 948 565 
Q 359 1222 359 2328 
Q 359 3434 948 4092 
Q 1538 4750 2522 4750 
z
" transform="scale(0.015625)"/>
      </defs>
      <use xlink:href="#DejaVuSans-49"/>
      <use xlink:href="#DejaVuSans-4e" transform="translate(29.492188 0)"/>
      <use xlink:href="#DejaVuSans-54" transform="translate(104.296875 0)"/>
      <use xlink:href="#DejaVuSans-2d" transform="translate(156.255859 0)"/>
      <use xlink:href="#DejaVuSans-33" transform="translate(192.339844 0)"/>
      <use xlink:href="#DejaVuSans-44" transform="translate(255.962891 0)"/>
      <use xlink:href="#DejaVuSans-20" transform="translate(332.964844 0)"/>
      <use xlink:href="#DejaVuSans-6c" transform="translate(364.751953 0)"/>
      <use xlink:href="#DejaVuSans-6f" transform="translate(392.535156 0)"/>
      <use xlink:href="#DejaVuSans-77" transform="translate(453.716797 0)"/>
      <use xlink:href="#DejaVuSans-20" transform="translate(535.503906 0)"/>
      <use xlink:href="#DejaVuSans-4f" transform="translate(567.291016 0)"/>
      <use xlink:href="#DejaVuSans-33" transform="translate(646.001953 0)"/>
     </g>
    </g>
    <g id="line2d_21">
     <path d="M 58.354531 43.779531 
L 66.354531 43.779531 
L 74.354531 43.779531 
" style="fill: none; stroke: #b22222; stroke-width: 2; stroke-linecap: square"/>
    </g>
    <g id="text_16">
     <!-- INT-3D high O3 -->
     <g transform="translate(80.754531 46.579531) scale(0.08 -0.08)">
      <use xlink:href="#DejaVuSans-49"/>
      <use xlink:href="#DejaVuSans-4e" transform="translate(29.492188 0)"/>
      <use xlink:href="#DejaVuSans-54" transform="translate(104.296875 0)"/>
      <use xlink:href="#DejaVuSans-2d" transform="translate(156.255859 0)"/>
      <use xlink:href="#DejaVuSans-33" transform="translate(192.339844 0)"/>
      <use xlink:href="#DejaVuSans-44" transform="translate(255.962891 0)"/>
      <use xlink:href="#DejaVuSans-20" transform="translate(332.964844 0)"/>
      <use xlink:href="#DejaVuSans-68" transform="translate(364.751953 0)"/>
      <use xlink:href="#DejaVuSans-69" transform="translate(428.130859 0)"/>
      <use xlink:href="#DejaVuSans-67" transform="translate(455.914062 0)"/>
      <use xlink:href="#DejaVuSans-68" transform="translate(519.390625 0)"/>
      <use xlink:href="#DejaVuSans-20" transform="translate(582.769531 0)"/>
      <use xlink:href="#DejaVuSans-4f" transform="translate(614.556641 0)"/>
      <use xlink:href="#DejaVuSans-33" transform="translate(693.267578 0)"/>
     </g>
    </g>
    <g id="line2d_22">
     <path d="M 58.354531 55.522031 
L 66.354531 55.522031 
L 74.354531 55.522031 
" style="fill: none; stroke-dasharray: 2,3.3; stroke-dashoffset: 0; stroke: #000080; stroke-width: 2"/>
    </g>
    <g id="text_17">
     <!-- CLIM-3D low O3 -->
     <g transform="translate(80.754531 58.322031) scale(0.08 -0.08)">
      <defs>
       <path id="DejaVuSans-43" d="M 4122 4306 
L 4122 3641 
Q 3803 3938 3442 4084 
Q 3081 4231 2675 4231 
Q 1875 4231 1450 3742 
Q 1025 3253 1025 2328 
Q 1025 1406 1450 917 
Q 1875 428 2675 428 
Q 3081 428 3442 575 
Q 3803 722 4122 1019 
L 4122 359 
Q 3791 134 3420 21 
Q 3050 -91 2638 -91 
Q 1578 -91 968 557 
Q 359 1206 359 2328 
Q 359 3453 968 4101 
Q 1578 4750 2638 4750 
Q 3056 4750 3426 4639 
Q 3797 4528 4122 4306 
z
" transform="scale(0.015625)"/>
       <path id="DejaVuSans-4c" d="M 628 4666 
L 1259 4666 
L 1259 531 
L 3531 531 
L 3531 0 
L 628 0 
L 628 4666 
z
" transform="scale(0.015625)"/>
      </defs>
      <use xlink:href="#DejaVuSans-43"/>
      <use xlink:href="#DejaVuSans-4c" transform="translate(69.824219 0)"/>
      <use xlink:href="#DejaVuSans-49" transform="translate(125.537109 0)"/>
      <use xlink:href="#DejaVuSans-4d" transform="translate(155.029297 0)"/>
      <use xlink:href="#DejaVuSans-2d" transform="translate(241.308594 0)"/>
      <use xlink:href="#DejaVuSans-33" transform="translate(277.392578 0)"/>
      <use xlink:href="#DejaVuSans-44" transform="translate(341.015625 0)"/>
      <use xlink:href="#DejaVuSans-20" transform="translate(418.017578 0)"/>
      <use xlink:href="#DejaVuSans-6c" transform="translate(449.804688 0)"/>
      <use xlink:href="#DejaVuSans-6f" transform="translate(477.587891 0)"/>
      <use xlink:href="#DejaVuSans-77" transform="translate(538.769531 0)"/>
      <use xlink:href="#DejaVuSans-20" transform="translate(620.556641 0)"/>
      <use xlink:href="#DejaVuSans-4f" transform="translate(652.34375 0)"/>
      <use xlink:href="#DejaVuSans-33" transform="translate(731.054688 0)"/>
     </g>
    </g>
    <g id="line2d_23">
     <path d="M 160.329531 32.037031 
L 168.329531 32.037031 
L 176.329531 32.037031 
" style="fill: none; stroke-dasharray: 2,3.3; stroke-dashoffset: 0; stroke: #b22222; stroke-width: 2"/>
    </g>
    <g id="text_18">
     <!-- CLIM-3D high O3 -->
     <g transform="translate(182.729531 34.837031) scale(0.08 -0.08)">
      <use xlink:href="#DejaVuSans-43"/>
      <use xlink:href="#DejaVuSans-4c" transform="translate(69.824219 0)"/>
      <use xlink:href="#DejaVuSans-49" transform="translate(125.537109 0)"/>
      <use xlink:href="#DejaVuSans-4d" transform="translate(155.029297 0)"/>
      <use xlink:href="#DejaVuSans-2d" transform="translate(241.308594 0)"/>
      <use xlink:href="#DejaVuSans-33" transform="translate(277.392578 0)"/>
      <use xlink:href="#DejaVuSans-44" transform="translate(341.015625 0)"/>
      <use xlink:href="#DejaVuSans-20" transform="translate(418.017578 0)"/>
      <use xlink:href="#DejaVuSans-68" transform="translate(449.804688 0)"/>
      <use xlink:href="#DejaVuSans-69" transform="translate(513.183594 0)"/>
      <use xlink:href="#DejaVuSans-67" transform="translate(540.966797 0)"/>
      <use xlink:href="#DejaVuSans-68" transform="translate(604.443359 0)"/>
      <use xlink:href="#DejaVuSans-20" transform="translate(667.822266 0)"/>
      <use xlink:href="#DejaVuSans-4f" transform="translate(699.609375 0)"/>
      <use xlink:href="#DejaVuSans-33" transform="translate(778.320312 0)"/>
     </g>
    </g>
    <g id="line2d_24">
     <path d="M 160.329531 43.779531 
L 168.329531 43.779531 
L 176.329531 43.779531 
" style="fill: none; stroke-dasharray: 7.4,3.2; stroke-dashoffset: 0; stroke: #000080; stroke-width: 2"/>
    </g>
    <g id="text_19">
     <!-- CLIM-2D low O3 -->
     <g transform="translate(182.729531 46.579531) scale(0.08 -0.08)">
      <use xlink:href="#DejaVuSans-43"/>
      <use xlink:href="#DejaVuSans-4c" transform="translate(69.824219 0)"/>
      <use xlink:href="#DejaVuSans-49" transform="translate(125.537109 0)"/>
      <use xlink:href="#DejaVuSans-4d" transform="translate(155.029297 0)"/>
      <use xlink:href="#DejaVuSans-2d" transform="translate(241.308594 0)"/>
      <use xlink:href="#DejaVuSans-32" transform="translate(277.392578 0)"/>
      <use xlink:href="#DejaVuSans-44" transform="translate(341.015625 0)"/>
      <use xlink:href="#DejaVuSans-20" transform="translate(418.017578 0)"/>
      <use xlink:href="#DejaVuSans-6c" transform="translate(449.804688 0)"/>
      <use xlink:href="#DejaVuSans-6f" transform="translate(477.587891 0)"/>
      <use xlink:href="#DejaVuSans-77" transform="translate(538.769531 0)"/>
      <use xlink:href="#DejaVuSans-20" transform="translate(620.556641 0)"/>
      <use xlink:href="#DejaVuSans-4f" transform="translate(652.34375 0)"/>
      <use xlink:href="#DejaVuSans-33" transform="translate(731.054688 0)"/>
     </g>
    </g>
    <g id="line2d_25">
     <path d="M 160.329531 55.522031 
L 168.329531 55.522031 
L 176.329531 55.522031 
" style="fill: none; stroke-dasharray: 7.4,3.2; stroke-dashoffset: 0; stroke: #b22222; stroke-width: 2"/>
    </g>
    <g id="text_20">
     <!-- CLIM-2D high O3 -->
     <g transform="translate(182.729531 58.322031) scale(0.08 -0.08)">
      <use xlink:href="#DejaVuSans-43"/>
      <use xlink:href="#DejaVuSans-4c" transform="translate(69.824219 0)"/>
      <use xlink:href="#DejaVuSans-49" transform="translate(125.537109 0)"/>
      <use xlink:href="#DejaVuSans-4d" transform="translate(155.029297 0)"/>
      <use xlink:href="#DejaVuSans-2d" transform="translate(241.308594 0)"/>
      <use xlink:href="#DejaVuSans-32" transform="translate(277.392578 0)"/>
      <use xlink:href="#DejaVuSans-44" transform="translate(341.015625 0)"/>
      <use xlink:href="#DejaVuSans-20" transform="translate(418.017578 0)"/>
      <use xlink:href="#DejaVuSans-68" transform="translate(449.804688 0)"/>
      <use xlink:href="#DejaVuSans-69" transform="translate(513.183594 0)"/>
      <use xlink:href="#DejaVuSans-67" transform="translate(540.966797 0)"/>
      <use xlink:href="#DejaVuSans-68" transform="translate(604.443359 0)"/>
      <use xlink:href="#DejaVuSans-20" transform="translate(667.822266 0)"/>
      <use xlink:href="#DejaVuSans-4f" transform="translate(699.609375 0)"/>
      <use xlink:href="#DejaVuSans-33" transform="translate(778.320312 0)"/>
     </g>
    </g>
   </g>
  </g>
 </g>
 <defs>
  <clipPath id="pb2461beb72">
   <rect x="51.154531" y="21.558281" width="533.28" height="263.96"/>
  </clipPath>
 </defs>
</svg>
