<?xml version="1.0" encoding="utf-8" standalone="no"?>
<!DOCTYPE svg PUBLIC "-//W3C//DTD SVG 1.1//EN"
  "http://www.w3.org/Graphics/SVG/1.1/DTD/svg11.dtd">
<svg xmlns:xlink="http://www.w3.org/1999/xlink" width="660.330938pt" height="576pt" viewBox="0 0 660.330938 576" xmlns="http://www.w3.org/2000/svg" version="1.1">
 <metadata>
  <rdf:RDF xmlns:dc="http://purl.org/dc/elements/1.1/" xmlns:cc="http://creativecommons.org/ns#" xmlns:rdf="http://www.w3.org/1999/02/22-rdf-syntax-ns#">
   <cc:Work>
    <dc:type rdf:resource="http://purl.org/dc/dcmitype/StillImage"/>
    <dc:date>2026-05-20T14:41:34.805484</dc:date>
    <dc:format>image/svg+xml</dc:format>
    <dc:creator>
     <cc:Agent>
      <dc:title>Matplotlib v3.10.0, https://matplotlib.org/</dc:title>
     </cc:Agent>
    </dc:creator>
   </cc:Work>
  </rdf:RDF>
 </metadata>
 <defs>
  <style type="text/css">*{stroke-linejoin: round; stroke-linecap: butt}</style>
 </defs>
 <g id="figure_1">
  <g id="patch_1">
   <path d="M 0 576 
L 660.330938 576 
L 660.330938 0 
L 0 0 
z
" style="fill: #ffffff"/>
  </g>
  <g id="axes_1">
   <g id="patch_2">
    <path d="M 43.070938 272.57 
L 338.040937 272.57 
L 338.040937 86.72 
L 43.070938 86.72 
z
" style="fill: #ffffff"/>
   </g>
   <g id="FillBetweenPolyCollection_1">
    <defs>
     <path id="me183d84100" d="M 298.979077 -479.477032 
L 82.132798 -479.477032 
L 83.146301 -449.026231 
L 81.867183 -431.213655 
L 86.564967 -408.772462 
L 92.166462 -378.321662 
L 91.921222 -347.870861 
L 92.441992 -330.058285 
L 85.033751 -307.617092 
L 296.078124 -307.617092 
L 296.078124 -307.617092 
L 288.669883 -330.058285 
L 289.190653 -347.870861 
L 288.945413 -378.321662 
L 294.546908 -408.772462 
L 299.244692 -431.213655 
L 297.965574 -449.026231 
L 298.979077 -479.477032 
z
"/>
    </defs>
    <g clip-path="url(#pbae500a074)">
     <use xlink:href="#me183d84100" x="0" y="576" style="fill: #d9d9d9; fill-opacity: 0.4"/>
    </g>
   </g>
   <g id="matplotlib.axis_1">
    <g id="xtick_1">
     <g id="line2d_1">
      <defs>
       <path id="m11dc8ad775" d="M 0 0 
L 0 5 
" style="stroke: #000000; stroke-width: 1.1"/>
      </defs>
      <g>
       <use xlink:href="#m11dc8ad775" x="72.567938" y="272.57" style="stroke: #000000; stroke-width: 1.1"/>
      </g>
     </g>
    </g>
    <g id="xtick_2">
     <g id="line2d_2">
      <g>
       <use xlink:href="#m11dc8ad775" x="131.561937" y="272.57" style="stroke: #000000; stroke-width: 1.1"/>
      </g>
     </g>
    </g>
    <g id="xtick_3">
     <g id="line2d_3">
      <g>
       <use xlink:href="#m11dc8ad775" x="190.555937" y="272.57" style="stroke: #000000; stroke-width: 1.1"/>
      </g>
     </g>
    </g>
    <g id="xtick_4">
     <g id="line2d_4">
      <g>
       <use xlink:href="#m11dc8ad775" x="249.549937" y="272.57" style="stroke: #000000; stroke-width: 1.1"/>
      </g>
     </g>
    </g>
    <g id="xtick_5">
     <g id="line2d_5">
      <g>
       <use xlink:href="#m11dc8ad775" x="308.543937" y="272.57" style="stroke: #000000; stroke-width: 1.1"/>
      </g>
     </g>
    </g>
   </g>
   <g id="matplotlib.axis_2">
    <g id="ytick_1">
     <g id="line2d_6">
      <defs>
       <path id="me7e4586fe1" d="M 0 0 
L -5 0 
" style="stroke: #000000; stroke-width: 1.1"/>
      </defs>
      <g>
       <use xlink:href="#me7e4586fe1" x="43.070938" y="96.522968" style="stroke: #000000; stroke-width: 1.1"/>
      </g>
     </g>
     <g id="text_1">
      <!-- 1 -->
      <g transform="translate(28.208438 100.322187) scale(0.1 -0.1)">
       <defs>
        <path id="DejaVuSans-31" d="M 794 531 
L 1825 531 
L 1825 4091 
L 703 3866 
L 703 4441 
L 1819 4666 
L 2450 4666 
L 2450 531 
L 3481 531 
L 3481 0 
L 794 0 
L 794 531 
z
" transform="scale(0.015625)"/>
       </defs>
       <use xlink:href="#DejaVuSans-31"/>
      </g>
     </g>
    </g>
    <g id="ytick_2">
     <g id="line2d_7">
      <g>
       <use xlink:href="#me7e4586fe1" x="43.070938" y="167.227538" style="stroke: #000000; stroke-width: 1.1"/>
      </g>
     </g>
     <g id="text_2">
      <!-- 5 -->
      <g transform="translate(28.208438 171.026756) scale(0.1 -0.1)">
       <defs>
        <path id="DejaVuSans-35" d="M 691 4666 
L 3169 4666 
L 3169 4134 
L 1269 4134 
L 1269 2991 
Q 1406 3038 1543 3061 
Q 1681 3084 1819 3084 
Q 2600 3084 3056 2656 
Q 3513 2228 3513 1497 
Q 3513 744 3044 326 
Q 2575 -91 1722 -91 
Q 1428 -91 1123 -41 
Q 819 9 494 109 
L 494 744 
Q 775 591 1075 516 
Q 1375 441 1709 441 
Q 2250 441 2565 725 
Q 2881 1009 2881 1497 
Q 2881 1984 2565 2268 
Q 2250 2553 1709 2553 
Q 1456 2553 1204 2497 
Q 953 2441 691 2322 
L 691 4666 
z
" transform="scale(0.015625)"/>
       </defs>
       <use xlink:href="#DejaVuSans-35"/>
      </g>
     </g>
    </g>
    <g id="ytick_3">
     <g id="line2d_8">
      <g>
       <use xlink:href="#me7e4586fe1" x="43.070938" y="197.678338" style="stroke: #000000; stroke-width: 1.1"/>
      </g>
     </g>
     <g id="text_3">
      <!-- 10 -->
      <g transform="translate(21.845938 201.477557) scale(0.1 -0.1)">
       <defs>
        <path id="DejaVuSans-30" d="M 2034 4250 
Q 1547 4250 1301 3770 
Q 1056 3291 1056 2328 
Q 1056 1369 1301 889 
Q 1547 409 2034 409 
Q 2525 409 2770 889 
Q 3016 1369 3016 2328 
Q 3016 3291 2770 3770 
Q 2525 4250 2034 4250 
z
M 2034 4750 
Q 2819 4750 3233 4129 
Q 3647 3509 3647 2328 
Q 3647 1150 3233 529 
Q 2819 -91 2034 -91 
Q 1250 -91 836 529 
Q 422 1150 422 2328 
Q 422 3509 836 4129 
Q 1250 4750 2034 4750 
z
" transform="scale(0.015625)"/>
       </defs>
       <use xlink:href="#DejaVuSans-31"/>
       <use xlink:href="#DejaVuSans-30" transform="translate(63.623047 0)"/>
      </g>
     </g>
    </g>
    <g id="ytick_4">
     <g id="line2d_9">
      <g>
       <use xlink:href="#me7e4586fe1" x="43.070938" y="268.382908" style="stroke: #000000; stroke-width: 1.1"/>
      </g>
     </g>
     <g id="text_4">
      <!-- 50 -->
      <g transform="translate(21.845938 272.182126) scale(0.1 -0.1)">
       <use xlink:href="#DejaVuSans-35"/>
       <use xlink:href="#DejaVuSans-30" transform="translate(63.623047 0)"/>
      </g>
     </g>
    </g>
    <g id="ytick_5">
     <g id="line2d_10">
      <defs>
       <path id="mad6b166323" d="M 0 0 
L -2 0 
" style="stroke: #000000; stroke-width: 0.6"/>
      </defs>
      <g>
       <use xlink:href="#mad6b166323" x="43.070938" y="86.72" style="stroke: #000000; stroke-width: 0.6"/>
      </g>
     </g>
    </g>
    <g id="ytick_6">
     <g id="line2d_11">
      <g>
       <use xlink:href="#mad6b166323" x="43.070938" y="91.894352" style="stroke: #000000; stroke-width: 0.6"/>
      </g>
     </g>
    </g>
    <g id="ytick_7">
     <g id="line2d_12">
      <g>
       <use xlink:href="#mad6b166323" x="43.070938" y="126.973769" style="stroke: #000000; stroke-width: 0.6"/>
      </g>
     </g>
    </g>
    <g id="ytick_8">
     <g id="line2d_13">
      <g>
       <use xlink:href="#mad6b166323" x="43.070938" y="144.786345" style="stroke: #000000; stroke-width: 0.6"/>
      </g>
     </g>
    </g>
    <g id="ytick_9">
     <g id="line2d_14">
      <g>
       <use xlink:href="#mad6b166323" x="43.070938" y="157.424569" style="stroke: #000000; stroke-width: 0.6"/>
      </g>
     </g>
    </g>
    <g id="ytick_10">
     <g id="line2d_15">
      <g>
       <use xlink:href="#mad6b166323" x="43.070938" y="175.237146" style="stroke: #000000; stroke-width: 0.6"/>
      </g>
     </g>
    </g>
    <g id="ytick_11">
     <g id="line2d_16">
      <g>
       <use xlink:href="#mad6b166323" x="43.070938" y="182.009173" style="stroke: #000000; stroke-width: 0.6"/>
      </g>
     </g>
    </g>
    <g id="ytick_12">
     <g id="line2d_17">
      <g>
       <use xlink:href="#mad6b166323" x="43.070938" y="187.87537" style="stroke: #000000; stroke-width: 0.6"/>
      </g>
     </g>
    </g>
    <g id="ytick_13">
     <g id="line2d_18">
      <g>
       <use xlink:href="#mad6b166323" x="43.070938" y="193.049722" style="stroke: #000000; stroke-width: 0.6"/>
      </g>
     </g>
    </g>
    <g id="ytick_14">
     <g id="line2d_19">
      <g>
       <use xlink:href="#mad6b166323" x="43.070938" y="228.129139" style="stroke: #000000; stroke-width: 0.6"/>
      </g>
     </g>
    </g>
    <g id="ytick_15">
     <g id="line2d_20">
      <g>
       <use xlink:href="#mad6b166323" x="43.070938" y="245.941715" style="stroke: #000000; stroke-width: 0.6"/>
      </g>
     </g>
    </g>
    <g id="ytick_16">
     <g id="line2d_21">
      <g>
       <use xlink:href="#mad6b166323" x="43.070938" y="258.579939" style="stroke: #000000; stroke-width: 0.6"/>
      </g>
     </g>
    </g>
    <g id="text_5">
     <!-- altitude (hPa) -->
     <g transform="translate(15.558281 216.709844) rotate(-90) scale(0.11 -0.11)">
      <defs>
       <path id="DejaVuSans-61" d="M 2194 1759 
Q 1497 1759 1228 1600 
Q 959 1441 959 1056 
Q 959 750 1161 570 
Q 1363 391 1709 391 
Q 2188 391 2477 730 
Q 2766 1069 2766 1631 
L 2766 1759 
L 2194 1759 
z
M 3341 1997 
L 3341 0 
L 2766 0 
L 2766 531 
Q 2569 213 2275 61 
Q 1981 -91 1556 -91 
Q 1019 -91 701 211 
Q 384 513 384 1019 
Q 384 1609 779 1909 
Q 1175 2209 1959 2209 
L 2766 2209 
L 2766 2266 
Q 2766 2663 2505 2880 
Q 2244 3097 1772 3097 
Q 1472 3097 1187 3025 
Q 903 2953 641 2809 
L 641 3341 
Q 956 3463 1253 3523 
Q 1550 3584 1831 3584 
Q 2591 3584 2966 3190 
Q 3341 2797 3341 1997 
z
" transform="scale(0.015625)"/>
       <path id="DejaVuSans-6c" d="M 603 4863 
L 1178 4863 
L 1178 0 
L 603 0 
L 603 4863 
z
" transform="scale(0.015625)"/>
       <path id="DejaVuSans-74" d="M 1172 4494 
L 1172 3500 
L 2356 3500 
L 2356 3053 
L 1172 3053 
L 1172 1153 
Q 1172 725 1289 603 
Q 1406 481 1766 481 
L 2356 481 
L 2356 0 
L 1766 0 
Q 1100 0 847 248 
Q 594 497 594 1153 
L 594 3053 
L 172 3053 
L 172 3500 
L 594 3500 
L 594 4494 
L 1172 4494 
z
" transform="scale(0.015625)"/>
       <path id="DejaVuSans-69" d="M 603 3500 
L 1178 3500 
L 1178 0 
L 603 0 
L 603 3500 
z
M 603 4863 
L 1178 4863 
L 1178 4134 
L 603 4134 
L 603 4863 
z
" transform="scale(0.015625)"/>
       <path id="DejaVuSans-75" d="M 544 1381 
L 544 3500 
L 1119 3500 
L 1119 1403 
Q 1119 906 1312 657 
Q 1506 409 1894 409 
Q 2359 409 2629 706 
Q 2900 1003 2900 1516 
L 2900 3500 
L 3475 3500 
L 3475 0 
L 2900 0 
L 2900 538 
Q 2691 219 2414 64 
Q 2138 -91 1772 -91 
Q 1169 -91 856 284 
Q 544 659 544 1381 
z
M 1991 3584 
L 1991 3584 
z
" transform="scale(0.015625)"/>
       <path id="DejaVuSans-64" d="M 2906 2969 
L 2906 4863 
L 3481 4863 
L 3481 0 
L 2906 0 
L 2906 525 
Q 2725 213 2448 61 
Q 2172 -91 1784 -91 
Q 1150 -91 751 415 
Q 353 922 353 1747 
Q 353 2572 751 3078 
Q 1150 3584 1784 3584 
Q 2172 3584 2448 3432 
Q 2725 3281 2906 2969 
z
M 947 1747 
Q 947 1113 1208 752 
Q 1469 391 1925 391 
Q 2381 391 2643 752 
Q 2906 1113 2906 1747 
Q 2906 2381 2643 2742 
Q 2381 3103 1925 3103 
Q 1469 3103 1208 2742 
Q 947 2381 947 1747 
z
" transform="scale(0.015625)"/>
       <path id="DejaVuSans-65" d="M 3597 1894 
L 3597 1613 
L 953 1613 
Q 991 1019 1311 708 
Q 1631 397 2203 397 
Q 2534 397 2845 478 
Q 3156 559 3463 722 
L 3463 178 
Q 3153 47 2828 -22 
Q 2503 -91 2169 -91 
Q 1331 -91 842 396 
Q 353 884 353 1716 
Q 353 2575 817 3079 
Q 1281 3584 2069 3584 
Q 2775 3584 3186 3129 
Q 3597 2675 3597 1894 
z
M 3022 2063 
Q 3016 2534 2758 2815 
Q 2500 3097 2075 3097 
Q 1594 3097 1305 2825 
Q 1016 2553 972 2059 
L 3022 2063 
z
" transform="scale(0.015625)"/>
       <path id="DejaVuSans-20" transform="scale(0.015625)"/>
       <path id="DejaVuSans-28" d="M 1984 4856 
Q 1566 4138 1362 3434 
Q 1159 2731 1159 2009 
Q 1159 1288 1364 580 
Q 1569 -128 1984 -844 
L 1484 -844 
Q 1016 -109 783 600 
Q 550 1309 550 2009 
Q 550 2706 781 3412 
Q 1013 4119 1484 4856 
L 1984 4856 
z
" transform="scale(0.015625)"/>
       <path id="DejaVuSans-68" d="M 3513 2113 
L 3513 0 
L 2938 0 
L 2938 2094 
Q 2938 2591 2744 2837 
Q 2550 3084 2163 3084 
Q 1697 3084 1428 2787 
Q 1159 2491 1159 1978 
L 1159 0 
L 581 0 
L 581 4863 
L 1159 4863 
L 1159 2956 
Q 1366 3272 1645 3428 
Q 1925 3584 2291 3584 
Q 2894 3584 3203 3211 
Q 3513 2838 3513 2113 
z
" transform="scale(0.015625)"/>
       <path id="DejaVuSans-50" d="M 1259 4147 
L 1259 2394 
L 2053 2394 
Q 2494 2394 2734 2622 
Q 2975 2850 2975 3272 
Q 2975 3691 2734 3919 
Q 2494 4147 2053 4147 
L 1259 4147 
z
M 628 4666 
L 2053 4666 
Q 2838 4666 3239 4311 
Q 3641 3956 3641 3272 
Q 3641 2581 3239 2228 
Q 2838 1875 2053 1875 
L 1259 1875 
L 1259 0 
L 628 0 
L 628 4666 
z
" transform="scale(0.015625)"/>
       <path id="DejaVuSans-29" d="M 513 4856 
L 1013 4856 
Q 1481 4119 1714 3412 
Q 1947 2706 1947 2009 
Q 1947 1309 1714 600 
Q 1481 -109 1013 -844 
L 513 -844 
Q 928 -128 1133 580 
Q 1338 1288 1338 2009 
Q 1338 2731 1133 3434 
Q 928 4138 513 4856 
z
" transform="scale(0.015625)"/>
      </defs>
      <use xlink:href="#DejaVuSans-61"/>
      <use xlink:href="#DejaVuSans-6c" transform="translate(61.279297 0)"/>
      <use xlink:href="#DejaVuSans-74" transform="translate(89.0625 0)"/>
      <use xlink:href="#DejaVuSans-69" transform="translate(128.271484 0)"/>
      <use xlink:href="#DejaVuSans-74" transform="translate(156.054688 0)"/>
      <use xlink:href="#DejaVuSans-75" transform="translate(195.263672 0)"/>
      <use xlink:href="#DejaVuSans-64" transform="translate(258.642578 0)"/>
      <use xlink:href="#DejaVuSans-65" transform="translate(322.119141 0)"/>
      <use xlink:href="#DejaVuSans-20" transform="translate(383.642578 0)"/>
      <use xlink:href="#DejaVuSans-28" transform="translate(415.429688 0)"/>
      <use xlink:href="#DejaVuSans-68" transform="translate(454.443359 0)"/>
      <use xlink:href="#DejaVuSans-50" transform="translate(517.822266 0)"/>
      <use xlink:href="#DejaVuSans-61" transform="translate(573.625 0)"/>
      <use xlink:href="#DejaVuSans-29" transform="translate(634.904297 0)"/>
     </g>
    </g>
   </g>
   <g id="line2d_22">
    <path d="M 155.60818 96.522968 
L 168.891505 126.973769 
L 175.750288 144.786345 
L 200.488619 167.227538 
L 214.063089 197.678338 
L 248.23956 228.129139 
L 253.381623 245.941715 
L 255.068644 268.382908 
" clip-path="url(#pbae500a074)" style="fill: none; stroke: #000080; stroke-width: 2; stroke-linecap: square"/>
   </g>
   <g id="line2d_23">
    <path d="M 233.438861 96.522968 
L 233.163915 126.973769 
L 234.537292 144.786345 
L 215.806359 167.227538 
L 196.364889 197.678338 
L 141.325872 228.129139 
L 140.361538 245.941715 
L 150.328419 268.382908 
" clip-path="url(#pbae500a074)" style="fill: none; stroke: #b22222; stroke-width: 2; stroke-linecap: square"/>
   </g>
   <g id="line2d_24">
    <path d="M 154.978878 96.522968 
L 165.581345 126.973769 
L 170.441414 144.786345 
L 183.017696 167.227538 
L 204.66944 197.678338 
L 240.362638 228.129139 
L 244.96731 245.941715 
L 238.935104 268.382908 
" clip-path="url(#pbae500a074)" style="fill: none; stroke-dasharray: 2,3.3; stroke-dashoffset: 0; stroke: #000080; stroke-width: 2"/>
   </g>
   <g id="line2d_25">
    <path d="M 203.762378 96.522968 
L 214.818645 126.973769 
L 211.737214 144.786345 
L 212.514696 167.227538 
L 201.94664 197.678338 
L 184.091438 228.129139 
L 174.51486 245.941715 
L 181.642854 268.382908 
" clip-path="url(#pbae500a074)" style="fill: none; stroke-dasharray: 2,3.3; stroke-dashoffset: 0; stroke: #b22222; stroke-width: 2"/>
   </g>
   <g id="line2d_26">
    <path d="M 190.555937 272.57 
L 190.555937 86.72 
" clip-path="url(#pbae500a074)" style="fill: none; stroke: #000000; stroke-linecap: square"/>
   </g>
   <g id="patch_3">
    <path d="M 43.070938 272.57 
L 43.070938 86.72 
" style="fill: none; stroke: #000000; stroke-width: 1.1; stroke-linejoin: miter; stroke-linecap: square"/>
   </g>
   <g id="patch_4">
    <path d="M 338.040937 272.57 
L 338.040937 86.72 
" style="fill: none; stroke: #000000; stroke-width: 1.1; stroke-linejoin: miter; stroke-linecap: square"/>
   </g>
   <g id="patch_5">
    <path d="M 43.070938 272.57 
L 338.040937 272.57 
" style="fill: none; stroke: #000000; stroke-width: 1.1; stroke-linejoin: miter; stroke-linecap: square"/>
   </g>
   <g id="patch_6">
    <path d="M 43.070938 86.72 
L 338.040937 86.72 
" style="fill: none; stroke: #000000; stroke-width: 1.1; stroke-linejoin: miter; stroke-linecap: square"/>
   </g>
   <g id="text_6">
    <!-- (a) -->
    <g transform="translate(54.869738 105.130625) scale(0.12 -0.12)">
     <use xlink:href="#DejaVuSans-28"/>
     <use xlink:href="#DejaVuSans-61" transform="translate(39.013672 0)"/>
     <use xlink:href="#DejaVuSans-29" transform="translate(100.292969 0)"/>
    </g>
   </g>
   <g id="text_7">
    <!-- INT-3D vs CLIM-3D | MA -->
    <g transform="translate(119.889063 78.72) scale(0.12 -0.12)">
     <defs>
      <path id="DejaVuSans-49" d="M 628 4666 
L 1259 4666 
L 1259 0 
L 628 0 
L 628 4666 
z
" transform="scale(0.015625)"/>
      <path id="DejaVuSans-4e" d="M 628 4666 
L 1478 4666 
L 3547 763 
L 3547 4666 
L 4159 4666 
L 4159 0 
L 3309 0 
L 1241 3903 
L 1241 0 
L 628 0 
L 628 4666 
z
" transform="scale(0.015625)"/>
      <path id="DejaVuSans-54" d="M -19 4666 
L 3928 4666 
L 3928 4134 
L 2272 4134 
L 2272 0 
L 1638 0 
L 1638 4134 
L -19 4134 
L -19 4666 
z
" transform="scale(0.015625)"/>
      <path id="DejaVuSans-2d" d="M 313 2009 
L 1997 2009 
L 1997 1497 
L 313 1497 
L 313 2009 
z
" transform="scale(0.015625)"/>
      <path id="DejaVuSans-33" d="M 2597 2516 
Q 3050 2419 3304 2112 
Q 3559 1806 3559 1356 
Q 3559 666 3084 287 
Q 2609 -91 1734 -91 
Q 1441 -91 1130 -33 
Q 819 25 488 141 
L 488 750 
Q 750 597 1062 519 
Q 1375 441 1716 441 
Q 2309 441 2620 675 
Q 2931 909 2931 1356 
Q 2931 1769 2642 2001 
Q 2353 2234 1838 2234 
L 1294 2234 
L 1294 2753 
L 1863 2753 
Q 2328 2753 2575 2939 
Q 2822 3125 2822 3475 
Q 2822 3834 2567 4026 
Q 2313 4219 1838 4219 
Q 1578 4219 1281 4162 
Q 984 4106 628 3988 
L 628 4550 
Q 988 4650 1302 4700 
Q 1616 4750 1894 4750 
Q 2613 4750 3031 4423 
Q 3450 4097 3450 3541 
Q 3450 3153 3228 2886 
Q 3006 2619 2597 2516 
z
" transform="scale(0.015625)"/>
      <path id="DejaVuSans-44" d="M 1259 4147 
L 1259 519 
L 2022 519 
Q 2988 519 3436 956 
Q 3884 1394 3884 2338 
Q 3884 3275 3436 3711 
Q 2988 4147 2022 4147 
L 1259 4147 
z
M 628 4666 
L 1925 4666 
Q 3281 4666 3915 4102 
Q 4550 3538 4550 2338 
Q 4550 1131 3912 565 
Q 3275 0 1925 0 
L 628 0 
L 628 4666 
z
" transform="scale(0.015625)"/>
      <path id="DejaVuSans-76" d="M 191 3500 
L 800 3500 
L 1894 563 
L 2988 3500 
L 3597 3500 
L 2284 0 
L 1503 0 
L 191 3500 
z
" transform="scale(0.015625)"/>
      <path id="DejaVuSans-73" d="M 2834 3397 
L 2834 2853 
Q 2591 2978 2328 3040 
Q 2066 3103 1784 3103 
Q 1356 3103 1142 2972 
Q 928 2841 928 2578 
Q 928 2378 1081 2264 
Q 1234 2150 1697 2047 
L 1894 2003 
Q 2506 1872 2764 1633 
Q 3022 1394 3022 966 
Q 3022 478 2636 193 
Q 2250 -91 1575 -91 
Q 1294 -91 989 -36 
Q 684 19 347 128 
L 347 722 
Q 666 556 975 473 
Q 1284 391 1588 391 
Q 1994 391 2212 530 
Q 2431 669 2431 922 
Q 2431 1156 2273 1281 
Q 2116 1406 1581 1522 
L 1381 1569 
Q 847 1681 609 1914 
Q 372 2147 372 2553 
Q 372 3047 722 3315 
Q 1072 3584 1716 3584 
Q 2034 3584 2315 3537 
Q 2597 3491 2834 3397 
z
" transform="scale(0.015625)"/>
      <path id="DejaVuSans-43" d="M 4122 4306 
L 4122 3641 
Q 3803 3938 3442 4084 
Q 3081 4231 2675 4231 
Q 1875 4231 1450 3742 
Q 1025 3253 1025 2328 
Q 1025 1406 1450 917 
Q 1875 428 2675 428 
Q 3081 428 3442 575 
Q 3803 722 4122 1019 
L 4122 359 
Q 3791 134 3420 21 
Q 3050 -91 2638 -91 
Q 1578 -91 968 557 
Q 359 1206 359 2328 
Q 359 3453 968 4101 
Q 1578 4750 2638 4750 
Q 3056 4750 3426 4639 
Q 3797 4528 4122 4306 
z
" transform="scale(0.015625)"/>
      <path id="DejaVuSans-4c" d="M 628 4666 
L 1259 4666 
L 1259 531 
L 3531 531 
L 3531 0 
L 628 0 
L 628 4666 
z
" transform="scale(0.015625)"/>
      <path id="DejaVuSans-4d" d="M 628 4666 
L 1569 4666 
L 2759 1491 
L 3956 4666 
L 4897 4666 
L 4897 0 
L 4281 0 
L 4281 4097 
L 3078 897 
L 2444 897 
L 1241 4097 
L 1241 0 
L 628 0 
L 628 4666 
z
" transform="scale(0.015625)"/>
      <path id="DejaVuSans-7c" d="M 1344 4891 
L 1344 -1509 
L 813 -1509 
L 813 4891 
L 1344 4891 
z
" transform="scale(0.015625)"/>
      <path id="DejaVuSans-41" d="M 2188 4044 
L 1331 1722 
L 3047 1722 
L 2188 4044 
z
M 1831 4666 
L 2547 4666 
L 4325 0 
L 3669 0 
L 3244 1197 
L 1141 1197 
L 716 0 
L 50 0 
L 1831 4666 
z
" transform="scale(0.015625)"/>
     </defs>
     <use xlink:href="#DejaVuSans-49"/>
     <use xlink:href="#DejaVuSans-4e" transform="translate(29.492188 0)"/>
     <use xlink:href="#DejaVuSans-54" transform="translate(104.296875 0)"/>
     <use xlink:href="#DejaVuSans-2d" transform="translate(156.255859 0)"/>
     <use xlink:href="#DejaVuSans-33" transform="translate(192.339844 0)"/>
     <use xlink:href="#DejaVuSans-44" transform="translate(255.962891 0)"/>
     <use xlink:href="#DejaVuSans-20" transform="translate(332.964844 0)"/>
     <use xlink:href="#DejaVuSans-76" transform="translate(364.751953 0)"/>
     <use xlink:href="#DejaVuSans-73" transform="translate(423.931641 0)"/>
     <use xlink:href="#DejaVuSans-20" transform="translate(476.03125 0)"/>
     <use xlink:href="#DejaVuSans-43" transform="translate(507.818359 0)"/>
     <use xlink:href="#DejaVuSans-4c" transform="translate(577.642578 0)"/>
     <use xlink:href="#DejaVuSans-49" transform="translate(633.355469 0)"/>
     <use xlink:href="#DejaVuSans-4d" transform="translate(662.847656 0)"/>
     <use xlink:href="#DejaVuSans-2d" transform="translate(749.126953 0)"/>
     <use xlink:href="#DejaVuSans-33" transform="translate(785.210938 0)"/>
     <use xlink:href="#DejaVuSans-44" transform="translate(848.833984 0)"/>
     <use xlink:href="#DejaVuSans-20" transform="translate(925.835938 0)"/>
     <use xlink:href="#DejaVuSans-7c" transform="translate(957.623047 0)"/>
     <use xlink:href="#DejaVuSans-20" transform="translate(991.314453 0)"/>
     <use xlink:href="#DejaVuSans-4d" transform="translate(1023.101562 0)"/>
     <use xlink:href="#DejaVuSans-41" transform="translate(1109.380859 0)"/>
    </g>
   </g>
   <g id="legend_1">
    <g id="patch_7">
     <path d="M 48.530938 203.712875 
L 143.843281 203.712875 
Q 145.403281 203.712875 145.403281 202.152875 
L 145.403281 157.137125 
Q 145.403281 155.577125 143.843281 155.577125 
L 48.530938 155.577125 
Q 46.970938 155.577125 46.970938 157.137125 
L 46.970938 202.152875 
Q 46.970938 203.712875 48.530938 203.712875 
z
" style="fill: #ffffff; opacity: 0.8; stroke: #cccccc; stroke-linejoin: miter"/>
    </g>
    <g id="line2d_27">
     <path d="M 50.090938 161.893906 
L 60.230938 161.893906 
L 70.370937 161.893906 
" style="fill: none; stroke: #000080; stroke-width: 2; stroke-linecap: square"/>
    </g>
    <g id="text_8">
     <!-- INT-3D low O3 -->
     <g transform="translate(76.610938 164.623906) scale(0.078 -0.078)">
      <defs>
       <path id="DejaVuSans-6f" d="M 1959 3097 
Q 1497 3097 1228 2736 
Q 959 2375 959 1747 
Q 959 1119 1226 758 
Q 1494 397 1959 397 
Q 2419 397 2687 759 
Q 2956 1122 2956 1747 
Q 2956 2369 2687 2733 
Q 2419 3097 1959 3097 
z
M 1959 3584 
Q 2709 3584 3137 3096 
Q 3566 2609 3566 1747 
Q 3566 888 3137 398 
Q 2709 -91 1959 -91 
Q 1206 -91 779 398 
Q 353 888 353 1747 
Q 353 2609 779 3096 
Q 1206 3584 1959 3584 
z
" transform="scale(0.015625)"/>
       <path id="DejaVuSans-77" d="M 269 3500 
L 844 3500 
L 1563 769 
L 2278 3500 
L 2956 3500 
L 3675 769 
L 4391 3500 
L 4966 3500 
L 4050 0 
L 3372 0 
L 2619 2869 
L 1863 0 
L 1184 0 
L 269 3500 
z
" transform="scale(0.015625)"/>
       <path id="DejaVuSans-4f" d="M 2522 4238 
Q 1834 4238 1429 3725 
Q 1025 3213 1025 2328 
Q 1025 1447 1429 934 
Q 1834 422 2522 422 
Q 3209 422 3611 934 
Q 4013 1447 4013 2328 
Q 4013 3213 3611 3725 
Q 3209 4238 2522 4238 
z
M 2522 4750 
Q 3503 4750 4090 4092 
Q 4678 3434 4678 2328 
Q 4678 1225 4090 567 
Q 3503 -91 2522 -91 
Q 1538 -91 948 565 
Q 359 1222 359 2328 
Q 359 3434 948 4092 
Q 1538 4750 2522 4750 
z
" transform="scale(0.015625)"/>
      </defs>
      <use xlink:href="#DejaVuSans-49"/>
      <use xlink:href="#DejaVuSans-4e" transform="translate(29.492188 0)"/>
      <use xlink:href="#DejaVuSans-54" transform="translate(104.296875 0)"/>
      <use xlink:href="#DejaVuSans-2d" transform="translate(156.255859 0)"/>
      <use xlink:href="#DejaVuSans-33" transform="translate(192.339844 0)"/>
      <use xlink:href="#DejaVuSans-44" transform="translate(255.962891 0)"/>
      <use xlink:href="#DejaVuSans-20" transform="translate(332.964844 0)"/>
      <use xlink:href="#DejaVuSans-6c" transform="translate(364.751953 0)"/>
      <use xlink:href="#DejaVuSans-6f" transform="translate(392.535156 0)"/>
      <use xlink:href="#DejaVuSans-77" transform="translate(453.716797 0)"/>
      <use xlink:href="#DejaVuSans-20" transform="translate(535.503906 0)"/>
      <use xlink:href="#DejaVuSans-4f" transform="translate(567.291016 0)"/>
      <use xlink:href="#DejaVuSans-33" transform="translate(646.001953 0)"/>
     </g>
    </g>
    <g id="line2d_28">
     <path d="M 50.090938 173.342844 
L 60.230938 173.342844 
L 70.370937 173.342844 
" style="fill: none; stroke: #b22222; stroke-width: 2; stroke-linecap: square"/>
    </g>
    <g id="text_9">
     <!-- INT-3D high O3 -->
     <g transform="translate(76.610938 176.072844) scale(0.078 -0.078)">
      <defs>
       <path id="DejaVuSans-67" d="M 2906 1791 
Q 2906 2416 2648 2759 
Q 2391 3103 1925 3103 
Q 1463 3103 1205 2759 
Q 947 2416 947 1791 
Q 947 1169 1205 825 
Q 1463 481 1925 481 
Q 2391 481 2648 825 
Q 2906 1169 2906 1791 
z
M 3481 434 
Q 3481 -459 3084 -895 
Q 2688 -1331 1869 -1331 
Q 1566 -1331 1297 -1286 
Q 1028 -1241 775 -1147 
L 775 -588 
Q 1028 -725 1275 -790 
Q 1522 -856 1778 -856 
Q 2344 -856 2625 -561 
Q 2906 -266 2906 331 
L 2906 616 
Q 2728 306 2450 153 
Q 2172 0 1784 0 
Q 1141 0 747 490 
Q 353 981 353 1791 
Q 353 2603 747 3093 
Q 1141 3584 1784 3584 
Q 2172 3584 2450 3431 
Q 2728 3278 2906 2969 
L 2906 3500 
L 3481 3500 
L 3481 434 
z
" transform="scale(0.015625)"/>
      </defs>
      <use xlink:href="#DejaVuSans-49"/>
      <use xlink:href="#DejaVuSans-4e" transform="translate(29.492188 0)"/>
      <use xlink:href="#DejaVuSans-54" transform="translate(104.296875 0)"/>
      <use xlink:href="#DejaVuSans-2d" transform="translate(156.255859 0)"/>
      <use xlink:href="#DejaVuSans-33" transform="translate(192.339844 0)"/>
      <use xlink:href="#DejaVuSans-44" transform="translate(255.962891 0)"/>
      <use xlink:href="#DejaVuSans-20" transform="translate(332.964844 0)"/>
      <use xlink:href="#DejaVuSans-68" transform="translate(364.751953 0)"/>
      <use xlink:href="#DejaVuSans-69" transform="translate(428.130859 0)"/>
      <use xlink:href="#DejaVuSans-67" transform="translate(455.914062 0)"/>
      <use xlink:href="#DejaVuSans-68" transform="translate(519.390625 0)"/>
      <use xlink:href="#DejaVuSans-20" transform="translate(582.769531 0)"/>
      <use xlink:href="#DejaVuSans-4f" transform="translate(614.556641 0)"/>
      <use xlink:href="#DejaVuSans-33" transform="translate(693.267578 0)"/>
     </g>
    </g>
    <g id="line2d_29">
     <path d="M 50.090938 184.791781 
L 60.230938 184.791781 
L 70.370937 184.791781 
" style="fill: none; stroke-dasharray: 2,3.3; stroke-dashoffset: 0; stroke: #000080; stroke-width: 2"/>
    </g>
    <g id="text_10">
     <!-- CLIM-3D low O3 -->
     <g transform="translate(76.610938 187.521781) scale(0.078 -0.078)">
      <use xlink:href="#DejaVuSans-43"/>
      <use xlink:href="#DejaVuSans-4c" transform="translate(69.824219 0)"/>
      <use xlink:href="#DejaVuSans-49" transform="translate(125.537109 0)"/>
      <use xlink:href="#DejaVuSans-4d" transform="translate(155.029297 0)"/>
      <use xlink:href="#DejaVuSans-2d" transform="translate(241.308594 0)"/>
      <use xlink:href="#DejaVuSans-33" transform="translate(277.392578 0)"/>
      <use xlink:href="#DejaVuSans-44" transform="translate(341.015625 0)"/>
      <use xlink:href="#DejaVuSans-20" transform="translate(418.017578 0)"/>
      <use xlink:href="#DejaVuSans-6c" transform="translate(449.804688 0)"/>
      <use xlink:href="#DejaVuSans-6f" transform="translate(477.587891 0)"/>
      <use xlink:href="#DejaVuSans-77" transform="translate(538.769531 0)"/>
      <use xlink:href="#DejaVuSans-20" transform="translate(620.556641 0)"/>
      <use xlink:href="#DejaVuSans-4f" transform="translate(652.34375 0)"/>
      <use xlink:href="#DejaVuSans-33" transform="translate(731.054688 0)"/>
     </g>
    </g>
    <g id="line2d_30">
     <path d="M 50.090938 196.240719 
L 60.230938 196.240719 
L 70.370937 196.240719 
" style="fill: none; stroke-dasharray: 2,3.3; stroke-dashoffset: 0; stroke: #b22222; stroke-width: 2"/>
    </g>
    <g id="text_11">
     <!-- CLIM-3D high O3 -->
     <g transform="translate(76.610938 198.970719) scale(0.078 -0.078)">
      <use xlink:href="#DejaVuSans-43"/>
      <use xlink:href="#DejaVuSans-4c" transform="translate(69.824219 0)"/>
      <use xlink:href="#DejaVuSans-49" transform="translate(125.537109 0)"/>
      <use xlink:href="#DejaVuSans-4d" transform="translate(155.029297 0)"/>
      <use xlink:href="#DejaVuSans-2d" transform="translate(241.308594 0)"/>
      <use xlink:href="#DejaVuSans-33" transform="translate(277.392578 0)"/>
      <use xlink:href="#DejaVuSans-44" transform="translate(341.015625 0)"/>
      <use xlink:href="#DejaVuSans-20" transform="translate(418.017578 0)"/>
      <use xlink:href="#DejaVuSans-68" transform="translate(449.804688 0)"/>
      <use xlink:href="#DejaVuSans-69" transform="translate(513.183594 0)"/>
      <use xlink:href="#DejaVuSans-67" transform="translate(540.966797 0)"/>
      <use xlink:href="#DejaVuSans-68" transform="translate(604.443359 0)"/>
      <use xlink:href="#DejaVuSans-20" transform="translate(667.822266 0)"/>
      <use xlink:href="#DejaVuSans-4f" transform="translate(699.609375 0)"/>
      <use xlink:href="#DejaVuSans-33" transform="translate(778.320312 0)"/>
     </g>
    </g>
   </g>
   <g id="PathCollection_1">
    <path d="M 0 579.464102 
C 0.91869 579.464102 1.799877 579.099102 2.44949 578.44949 
C 3.099102 577.799877 3.464102 576.91869 3.464102 576 
C 3.464102 575.08131 3.099102 574.200123 2.44949 573.55051 
C 1.799877 572.900898 0.91869 572.535898 0 572.535898 
C -0.91869 572.535898 -1.799877 572.900898 -2.44949 573.55051 
C -3.099102 574.200123 -3.464102 575.08131 -3.464102 576 
C -3.464102 576.91869 -3.099102 577.799877 -2.44949 578.44949 
C -1.799877 579.099102 -0.91869 579.464102 0 579.464102 
" clip-path="url(#pbae500a074)" style="fill: none; stroke: #000080; stroke-width: 1.1"/>
   </g>
   <g id="PathCollection_2">
    <path d="M 184.091438 231.59324 
C 185.010129 231.59324 185.891316 231.228241 186.540928 230.578629 
C 187.19054 229.929016 187.55554 229.047829 187.55554 228.129139 
C 187.55554 227.210448 187.19054 226.329261 186.540928 225.679649 
C 185.891316 225.030037 185.010129 224.665037 184.091438 224.665037 
C 183.172748 224.665037 182.291561 225.030037 181.641948 225.679649 
C 180.992336 226.329261 180.627337 227.210448 180.627337 228.129139 
C 180.627337 229.047829 180.992336 229.929016 181.641948 230.578629 
C 182.291561 231.228241 183.172748 231.59324 184.091438 231.59324 
L 184.091438 231.59324 
z
" clip-path="url(#pbae500a074)" style="fill: none; stroke: #b22222; stroke-width: 1.1"/>
   </g>
  </g>
  <g id="axes_2">
   <g id="patch_8">
    <path d="M 358.160937 272.57 
L 653.130938 272.57 
L 653.130938 86.72 
L 358.160937 86.72 
z
" style="fill: #ffffff"/>
   </g>
   <g id="FillBetweenPolyCollection_2">
    <defs>
     <path id="m8db8843126" d="M 613.389066 -479.477032 
L 397.902809 -479.477032 
L 399.324041 -449.026231 
L 398.36311 -431.213655 
L 403.297539 -408.772462 
L 408.438574 -378.321662 
L 409.25478 -347.870861 
L 409.60125 -330.058285 
L 409.145821 -307.617092 
L 602.146054 -307.617092 
L 602.146054 -307.617092 
L 601.690625 -330.058285 
L 602.037095 -347.870861 
L 602.853301 -378.321662 
L 607.994336 -408.772462 
L 612.928765 -431.213655 
L 611.967834 -449.026231 
L 613.389066 -479.477032 
z
"/>
    </defs>
    <g clip-path="url(#p3d4fb2fba4)">
     <use xlink:href="#m8db8843126" x="0" y="576" style="fill: #d9d9d9; fill-opacity: 0.4"/>
    </g>
   </g>
   <g id="matplotlib.axis_3">
    <g id="xtick_6">
     <g id="line2d_31">
      <g>
       <use xlink:href="#m11dc8ad775" x="387.657938" y="272.57" style="stroke: #000000; stroke-width: 1.1"/>
      </g>
     </g>
    </g>
    <g id="xtick_7">
     <g id="line2d_32">
      <g>
       <use xlink:href="#m11dc8ad775" x="446.651938" y="272.57" style="stroke: #000000; stroke-width: 1.1"/>
      </g>
     </g>
    </g>
    <g id="xtick_8">
     <g id="line2d_33">
      <g>
       <use xlink:href="#m11dc8ad775" x="505.645938" y="272.57" style="stroke: #000000; stroke-width: 1.1"/>
      </g>
     </g>
    </g>
    <g id="xtick_9">
     <g id="line2d_34">
      <g>
       <use xlink:href="#m11dc8ad775" x="564.639938" y="272.57" style="stroke: #000000; stroke-width: 1.1"/>
      </g>
     </g>
    </g>
    <g id="xtick_10">
     <g id="line2d_35">
      <g>
       <use xlink:href="#m11dc8ad775" x="623.633938" y="272.57" style="stroke: #000000; stroke-width: 1.1"/>
      </g>
     </g>
    </g>
   </g>
   <g id="matplotlib.axis_4">
    <g id="ytick_17">
     <g id="line2d_36">
      <g>
       <use xlink:href="#me7e4586fe1" x="358.160937" y="96.522968" style="stroke: #000000; stroke-width: 1.1"/>
      </g>
     </g>
    </g>
    <g id="ytick_18">
     <g id="line2d_37">
      <g>
       <use xlink:href="#me7e4586fe1" x="358.160937" y="167.227538" style="stroke: #000000; stroke-width: 1.1"/>
      </g>
     </g>
    </g>
    <g id="ytick_19">
     <g id="line2d_38">
      <g>
       <use xlink:href="#me7e4586fe1" x="358.160937" y="197.678338" style="stroke: #000000; stroke-width: 1.1"/>
      </g>
     </g>
    </g>
    <g id="ytick_20">
     <g id="line2d_39">
      <g>
       <use xlink:href="#me7e4586fe1" x="358.160937" y="268.382908" style="stroke: #000000; stroke-width: 1.1"/>
      </g>
     </g>
    </g>
    <g id="ytick_21">
     <g id="line2d_40">
      <g>
       <use xlink:href="#mad6b166323" x="358.160937" y="86.72" style="stroke: #000000; stroke-width: 0.6"/>
      </g>
     </g>
    </g>
    <g id="ytick_22">
     <g id="line2d_41">
      <g>
       <use xlink:href="#mad6b166323" x="358.160937" y="91.894352" style="stroke: #000000; stroke-width: 0.6"/>
      </g>
     </g>
    </g>
    <g id="ytick_23">
     <g id="line2d_42">
      <g>
       <use xlink:href="#mad6b166323" x="358.160937" y="126.973769" style="stroke: #000000; stroke-width: 0.6"/>
      </g>
     </g>
    </g>
    <g id="ytick_24">
     <g id="line2d_43">
      <g>
       <use xlink:href="#mad6b166323" x="358.160937" y="144.786345" style="stroke: #000000; stroke-width: 0.6"/>
      </g>
     </g>
    </g>
    <g id="ytick_25">
     <g id="line2d_44">
      <g>
       <use xlink:href="#mad6b166323" x="358.160937" y="157.424569" style="stroke: #000000; stroke-width: 0.6"/>
      </g>
     </g>
    </g>
    <g id="ytick_26">
     <g id="line2d_45">
      <g>
       <use xlink:href="#mad6b166323" x="358.160937" y="175.237146" style="stroke: #000000; stroke-width: 0.6"/>
      </g>
     </g>
    </g>
    <g id="ytick_27">
     <g id="line2d_46">
      <g>
       <use xlink:href="#mad6b166323" x="358.160937" y="182.009173" style="stroke: #000000; stroke-width: 0.6"/>
      </g>
     </g>
    </g>
    <g id="ytick_28">
     <g id="line2d_47">
      <g>
       <use xlink:href="#mad6b166323" x="358.160937" y="187.87537" style="stroke: #000000; stroke-width: 0.6"/>
      </g>
     </g>
    </g>
    <g id="ytick_29">
     <g id="line2d_48">
      <g>
       <use xlink:href="#mad6b166323" x="358.160937" y="193.049722" style="stroke: #000000; stroke-width: 0.6"/>
      </g>
     </g>
    </g>
    <g id="ytick_30">
     <g id="line2d_49">
      <g>
       <use xlink:href="#mad6b166323" x="358.160937" y="228.129139" style="stroke: #000000; stroke-width: 0.6"/>
      </g>
     </g>
    </g>
    <g id="ytick_31">
     <g id="line2d_50">
      <g>
       <use xlink:href="#mad6b166323" x="358.160937" y="245.941715" style="stroke: #000000; stroke-width: 0.6"/>
      </g>
     </g>
    </g>
    <g id="ytick_32">
     <g id="line2d_51">
      <g>
       <use xlink:href="#mad6b166323" x="358.160937" y="258.579939" style="stroke: #000000; stroke-width: 0.6"/>
      </g>
     </g>
    </g>
   </g>
   <g id="line2d_52">
    <path d="M 476.663139 96.522968 
L 490.896045 126.973769 
L 508.555262 144.786345 
L 535.935124 167.227538 
L 550.607515 197.678338 
L 578.60414 228.129139 
L 583.12986 245.941715 
L 579.717471 268.382908 
" clip-path="url(#p3d4fb2fba4)" style="fill: none; stroke: #000080; stroke-width: 2; stroke-linecap: square"/>
   </g>
   <g id="line2d_53">
    <path d="M 543.452775 96.522968 
L 543.042527 126.973769 
L 549.851062 144.786345 
L 532.458692 167.227538 
L 520.899822 197.678338 
L 466.094155 228.129139 
L 465.247206 245.941715 
L 472.053421 268.382908 
" clip-path="url(#p3d4fb2fba4)" style="fill: none; stroke: #b22222; stroke-width: 2; stroke-linecap: square"/>
   </g>
   <g id="line2d_54">
    <path d="M 469.502613 96.522968 
L 481.516371 126.973769 
L 492.013482 144.786345 
L 521.882858 167.227538 
L 540.332868 197.678338 
L 567.245488 228.129139 
L 573.789219 245.941715 
L 569.47269 268.382908 
" clip-path="url(#p3d4fb2fba4)" style="fill: none; stroke-dasharray: 2,3.3; stroke-dashoffset: 0; stroke: #000080; stroke-width: 2"/>
   </g>
   <g id="line2d_55">
    <path d="M 509.663913 96.522968 
L 521.791121 126.973769 
L 519.128032 144.786345 
L 519.613858 167.227538 
L 509.587918 197.678338 
L 497.360288 228.129139 
L 491.878319 245.941715 
L 500.83544 268.382908 
" clip-path="url(#p3d4fb2fba4)" style="fill: none; stroke-dasharray: 2,3.3; stroke-dashoffset: 0; stroke: #b22222; stroke-width: 2"/>
   </g>
   <g id="line2d_56">
    <path d="M 505.645938 272.57 
L 505.645938 86.72 
" clip-path="url(#p3d4fb2fba4)" style="fill: none; stroke: #000000; stroke-linecap: square"/>
   </g>
   <g id="patch_9">
    <path d="M 358.160937 272.57 
L 358.160937 86.72 
" style="fill: none; stroke: #000000; stroke-width: 1.1; stroke-linejoin: miter; stroke-linecap: square"/>
   </g>
   <g id="patch_10">
    <path d="M 653.130938 272.57 
L 653.130938 86.72 
" style="fill: none; stroke: #000000; stroke-width: 1.1; stroke-linejoin: miter; stroke-linecap: square"/>
   </g>
   <g id="patch_11">
    <path d="M 358.160938 272.57 
L 653.130938 272.57 
" style="fill: none; stroke: #000000; stroke-width: 1.1; stroke-linejoin: miter; stroke-linecap: square"/>
   </g>
   <g id="patch_12">
    <path d="M 358.160938 86.72 
L 653.130938 86.72 
" style="fill: none; stroke: #000000; stroke-width: 1.1; stroke-linejoin: miter; stroke-linecap: square"/>
   </g>
   <g id="text_12">
    <!-- (b) -->
    <g transform="translate(369.959738 105.130625) scale(0.12 -0.12)">
     <defs>
      <path id="DejaVuSans-62" d="M 3116 1747 
Q 3116 2381 2855 2742 
Q 2594 3103 2138 3103 
Q 1681 3103 1420 2742 
Q 1159 2381 1159 1747 
Q 1159 1113 1420 752 
Q 1681 391 2138 391 
Q 2594 391 2855 752 
Q 3116 1113 3116 1747 
z
M 1159 2969 
Q 1341 3281 1617 3432 
Q 1894 3584 2278 3584 
Q 2916 3584 3314 3078 
Q 3713 2572 3713 1747 
Q 3713 922 3314 415 
Q 2916 -91 2278 -91 
Q 1894 -91 1617 61 
Q 1341 213 1159 525 
L 1159 0 
L 581 0 
L 581 4863 
L 1159 4863 
L 1159 2969 
z
" transform="scale(0.015625)"/>
     </defs>
     <use xlink:href="#DejaVuSans-28"/>
     <use xlink:href="#DejaVuSans-62" transform="translate(39.013672 0)"/>
     <use xlink:href="#DejaVuSans-29" transform="translate(102.490234 0)"/>
    </g>
   </g>
   <g id="text_13">
    <!-- INT-3D vs CLIM-3D | M-FWD -->
    <g transform="translate(422.915313 78.72) scale(0.12 -0.12)">
     <defs>
      <path id="DejaVuSans-46" d="M 628 4666 
L 3309 4666 
L 3309 4134 
L 1259 4134 
L 1259 2759 
L 3109 2759 
L 3109 2228 
L 1259 2228 
L 1259 0 
L 628 0 
L 628 4666 
z
" transform="scale(0.015625)"/>
      <path id="DejaVuSans-57" d="M 213 4666 
L 850 4666 
L 1831 722 
L 2809 4666 
L 3519 4666 
L 4500 722 
L 5478 4666 
L 6119 4666 
L 4947 0 
L 4153 0 
L 3169 4050 
L 2175 0 
L 1381 0 
L 213 4666 
z
" transform="scale(0.015625)"/>
     </defs>
     <use xlink:href="#DejaVuSans-49"/>
     <use xlink:href="#DejaVuSans-4e" transform="translate(29.492188 0)"/>
     <use xlink:href="#DejaVuSans-54" transform="translate(104.296875 0)"/>
     <use xlink:href="#DejaVuSans-2d" transform="translate(156.255859 0)"/>
     <use xlink:href="#DejaVuSans-33" transform="translate(192.339844 0)"/>
     <use xlink:href="#DejaVuSans-44" transform="translate(255.962891 0)"/>
     <use xlink:href="#DejaVuSans-20" transform="translate(332.964844 0)"/>
     <use xlink:href="#DejaVuSans-76" transform="translate(364.751953 0)"/>
     <use xlink:href="#DejaVuSans-73" transform="translate(423.931641 0)"/>
     <use xlink:href="#DejaVuSans-20" transform="translate(476.03125 0)"/>
     <use xlink:href="#DejaVuSans-43" transform="translate(507.818359 0)"/>
     <use xlink:href="#DejaVuSans-4c" transform="translate(577.642578 0)"/>
     <use xlink:href="#DejaVuSans-49" transform="translate(633.355469 0)"/>
     <use xlink:href="#DejaVuSans-4d" transform="translate(662.847656 0)"/>
     <use xlink:href="#DejaVuSans-2d" transform="translate(749.126953 0)"/>
     <use xlink:href="#DejaVuSans-33" transform="translate(785.210938 0)"/>
     <use xlink:href="#DejaVuSans-44" transform="translate(848.833984 0)"/>
     <use xlink:href="#DejaVuSans-20" transform="translate(925.835938 0)"/>
     <use xlink:href="#DejaVuSans-7c" transform="translate(957.623047 0)"/>
     <use xlink:href="#DejaVuSans-20" transform="translate(991.314453 0)"/>
     <use xlink:href="#DejaVuSans-4d" transform="translate(1023.101562 0)"/>
     <use xlink:href="#DejaVuSans-2d" transform="translate(1109.380859 0)"/>
     <use xlink:href="#DejaVuSans-46" transform="translate(1145.464844 0)"/>
     <use xlink:href="#DejaVuSans-57" transform="translate(1202.984375 0)"/>
     <use xlink:href="#DejaVuSans-44" transform="translate(1301.861328 0)"/>
    </g>
   </g>
   <g id="PathCollection_3">
    <path d="M 0 579.464102 
C 0.91869 579.464102 1.799877 579.099102 2.44949 578.44949 
C 3.099102 577.799877 3.464102 576.91869 3.464102 576 
C 3.464102 575.08131 3.099102 574.200123 2.44949 573.55051 
C 1.799877 572.900898 0.91869 572.535898 0 572.535898 
C -0.91869 572.535898 -1.799877 572.900898 -2.44949 573.55051 
C -3.099102 574.200123 -3.464102 575.08131 -3.464102 576 
C -3.464102 576.91869 -3.099102 577.799877 -2.44949 578.44949 
C -1.799877 579.099102 -0.91869 579.464102 0 579.464102 
" clip-path="url(#p3d4fb2fba4)" style="fill: none; stroke: #000080; stroke-width: 1.1"/>
   </g>
   <g id="PathCollection_4">
    <path d="M 0 579.464102 
C 0.91869 579.464102 1.799877 579.099102 2.44949 578.44949 
C 3.099102 577.799877 3.464102 576.91869 3.464102 576 
C 3.464102 575.08131 3.099102 574.200123 2.44949 573.55051 
C 1.799877 572.900898 0.91869 572.535898 0 572.535898 
C -0.91869 572.535898 -1.799877 572.900898 -2.44949 573.55051 
C -3.099102 574.200123 -3.464102 575.08131 -3.464102 576 
C -3.464102 576.91869 -3.099102 577.799877 -2.44949 578.44949 
C -1.799877 579.099102 -0.91869 579.464102 0 579.464102 
" clip-path="url(#p3d4fb2fba4)" style="fill: none; stroke: #b22222; stroke-width: 1.1"/>
   </g>
  </g>
  <g id="axes_3">
   <g id="patch_13">
    <path d="M 43.070938 496.14 
L 338.040937 496.14 
L 338.040937 310.29 
L 43.070938 310.29 
z
" style="fill: #ffffff"/>
   </g>
   <g id="FillBetweenPolyCollection_3">
    <defs>
     <path id="me295e53576" d="M 298.979077 -255.907032 
L 82.132798 -255.907032 
L 83.146301 -225.456231 
L 81.867183 -207.643655 
L 86.564967 -185.202462 
L 92.166462 -154.751662 
L 91.921222 -124.300861 
L 92.441992 -106.488285 
L 85.033751 -84.047092 
L 296.078124 -84.047092 
L 296.078124 -84.047092 
L 288.669883 -106.488285 
L 289.190653 -124.300861 
L 288.945413 -154.751662 
L 294.546908 -185.202462 
L 299.244692 -207.643655 
L 297.965574 -225.456231 
L 298.979077 -255.907032 
z
"/>
    </defs>
    <g clip-path="url(#p57263f38a3)">
     <use xlink:href="#me295e53576" x="0" y="576" style="fill: #d9d9d9; fill-opacity: 0.4"/>
    </g>
   </g>
   <g id="matplotlib.axis_5">
    <g id="xtick_11">
     <g id="line2d_57">
      <g>
       <use xlink:href="#m11dc8ad775" x="72.567938" y="496.14" style="stroke: #000000; stroke-width: 1.1"/>
      </g>
     </g>
     <g id="text_14">
      <!-- −20 -->
      <g transform="translate(62.015594 512.238438) scale(0.1 -0.1)">
       <defs>
        <path id="DejaVuSans-2212" d="M 678 2272 
L 4684 2272 
L 4684 1741 
L 678 1741 
L 678 2272 
z
" transform="scale(0.015625)"/>
        <path id="DejaVuSans-32" d="M 1228 531 
L 3431 531 
L 3431 0 
L 469 0 
L 469 531 
Q 828 903 1448 1529 
Q 2069 2156 2228 2338 
Q 2531 2678 2651 2914 
Q 2772 3150 2772 3378 
Q 2772 3750 2511 3984 
Q 2250 4219 1831 4219 
Q 1534 4219 1204 4116 
Q 875 4013 500 3803 
L 500 4441 
Q 881 4594 1212 4672 
Q 1544 4750 1819 4750 
Q 2544 4750 2975 4387 
Q 3406 4025 3406 3419 
Q 3406 3131 3298 2873 
Q 3191 2616 2906 2266 
Q 2828 2175 2409 1742 
Q 1991 1309 1228 531 
z
" transform="scale(0.015625)"/>
       </defs>
       <use xlink:href="#DejaVuSans-2212"/>
       <use xlink:href="#DejaVuSans-32" transform="translate(83.789062 0)"/>
       <use xlink:href="#DejaVuSans-30" transform="translate(147.412109 0)"/>
      </g>
     </g>
    </g>
    <g id="xtick_12">
     <g id="line2d_58">
      <g>
       <use xlink:href="#m11dc8ad775" x="131.561937" y="496.14" style="stroke: #000000; stroke-width: 1.1"/>
      </g>
     </g>
     <g id="text_15">
      <!-- −10 -->
      <g transform="translate(121.009594 512.238438) scale(0.1 -0.1)">
       <use xlink:href="#DejaVuSans-2212"/>
       <use xlink:href="#DejaVuSans-31" transform="translate(83.789062 0)"/>
       <use xlink:href="#DejaVuSans-30" transform="translate(147.412109 0)"/>
      </g>
     </g>
    </g>
    <g id="xtick_13">
     <g id="line2d_59">
      <g>
       <use xlink:href="#m11dc8ad775" x="190.555937" y="496.14" style="stroke: #000000; stroke-width: 1.1"/>
      </g>
     </g>
     <g id="text_16">
      <!-- 0 -->
      <g transform="translate(187.374687 512.238438) scale(0.1 -0.1)">
       <use xlink:href="#DejaVuSans-30"/>
      </g>
     </g>
    </g>
    <g id="xtick_14">
     <g id="line2d_60">
      <g>
       <use xlink:href="#m11dc8ad775" x="249.549937" y="496.14" style="stroke: #000000; stroke-width: 1.1"/>
      </g>
     </g>
     <g id="text_17">
      <!-- 10 -->
      <g transform="translate(243.187437 512.238438) scale(0.1 -0.1)">
       <use xlink:href="#DejaVuSans-31"/>
       <use xlink:href="#DejaVuSans-30" transform="translate(63.623047 0)"/>
      </g>
     </g>
    </g>
    <g id="xtick_15">
     <g id="line2d_61">
      <g>
       <use xlink:href="#m11dc8ad775" x="308.543937" y="496.14" style="stroke: #000000; stroke-width: 1.1"/>
      </g>
     </g>
     <g id="text_18">
      <!-- 20 -->
      <g transform="translate(302.181437 512.238438) scale(0.1 -0.1)">
       <use xlink:href="#DejaVuSans-32"/>
       <use xlink:href="#DejaVuSans-30" transform="translate(63.623047 0)"/>
      </g>
     </g>
    </g>
   </g>
   <g id="matplotlib.axis_6">
    <g id="ytick_33">
     <g id="line2d_62">
      <g>
       <use xlink:href="#me7e4586fe1" x="43.070938" y="320.092968" style="stroke: #000000; stroke-width: 1.1"/>
      </g>
     </g>
     <g id="text_19">
      <!-- 1 -->
      <g transform="translate(28.208438 323.892187) scale(0.1 -0.1)">
       <use xlink:href="#DejaVuSans-31"/>
      </g>
     </g>
    </g>
    <g id="ytick_34">
     <g id="line2d_63">
      <g>
       <use xlink:href="#me7e4586fe1" x="43.070938" y="390.797538" style="stroke: #000000; stroke-width: 1.1"/>
      </g>
     </g>
     <g id="text_20">
      <!-- 5 -->
      <g transform="translate(28.208438 394.596756) scale(0.1 -0.1)">
       <use xlink:href="#DejaVuSans-35"/>
      </g>
     </g>
    </g>
    <g id="ytick_35">
     <g id="line2d_64">
      <g>
       <use xlink:href="#me7e4586fe1" x="43.070938" y="421.248338" style="stroke: #000000; stroke-width: 1.1"/>
      </g>
     </g>
     <g id="text_21">
      <!-- 10 -->
      <g transform="translate(21.845938 425.047557) scale(0.1 -0.1)">
       <use xlink:href="#DejaVuSans-31"/>
       <use xlink:href="#DejaVuSans-30" transform="translate(63.623047 0)"/>
      </g>
     </g>
    </g>
    <g id="ytick_36">
     <g id="line2d_65">
      <g>
       <use xlink:href="#me7e4586fe1" x="43.070938" y="491.952908" style="stroke: #000000; stroke-width: 1.1"/>
      </g>
     </g>
     <g id="text_22">
      <!-- 50 -->
      <g transform="translate(21.845938 495.752126) scale(0.1 -0.1)">
       <use xlink:href="#DejaVuSans-35"/>
       <use xlink:href="#DejaVuSans-30" transform="translate(63.623047 0)"/>
      </g>
     </g>
    </g>
    <g id="ytick_37">
     <g id="line2d_66">
      <g>
       <use xlink:href="#mad6b166323" x="43.070938" y="310.29" style="stroke: #000000; stroke-width: 0.6"/>
      </g>
     </g>
    </g>
    <g id="ytick_38">
     <g id="line2d_67">
      <g>
       <use xlink:href="#mad6b166323" x="43.070938" y="315.464352" style="stroke: #000000; stroke-width: 0.6"/>
      </g>
     </g>
    </g>
    <g id="ytick_39">
     <g id="line2d_68">
      <g>
       <use xlink:href="#mad6b166323" x="43.070938" y="350.543769" style="stroke: #000000; stroke-width: 0.6"/>
      </g>
     </g>
    </g>
    <g id="ytick_40">
     <g id="line2d_69">
      <g>
       <use xlink:href="#mad6b166323" x="43.070938" y="368.356345" style="stroke: #000000; stroke-width: 0.6"/>
      </g>
     </g>
    </g>
    <g id="ytick_41">
     <g id="line2d_70">
      <g>
       <use xlink:href="#mad6b166323" x="43.070938" y="380.994569" style="stroke: #000000; stroke-width: 0.6"/>
      </g>
     </g>
    </g>
    <g id="ytick_42">
     <g id="line2d_71">
      <g>
       <use xlink:href="#mad6b166323" x="43.070938" y="398.807146" style="stroke: #000000; stroke-width: 0.6"/>
      </g>
     </g>
    </g>
    <g id="ytick_43">
     <g id="line2d_72">
      <g>
       <use xlink:href="#mad6b166323" x="43.070938" y="405.579173" style="stroke: #000000; stroke-width: 0.6"/>
      </g>
     </g>
    </g>
    <g id="ytick_44">
     <g id="line2d_73">
      <g>
       <use xlink:href="#mad6b166323" x="43.070938" y="411.44537" style="stroke: #000000; stroke-width: 0.6"/>
      </g>
     </g>
    </g>
    <g id="ytick_45">
     <g id="line2d_74">
      <g>
       <use xlink:href="#mad6b166323" x="43.070938" y="416.619722" style="stroke: #000000; stroke-width: 0.6"/>
      </g>
     </g>
    </g>
    <g id="ytick_46">
     <g id="line2d_75">
      <g>
       <use xlink:href="#mad6b166323" x="43.070938" y="451.699139" style="stroke: #000000; stroke-width: 0.6"/>
      </g>
     </g>
    </g>
    <g id="ytick_47">
     <g id="line2d_76">
      <g>
       <use xlink:href="#mad6b166323" x="43.070938" y="469.511715" style="stroke: #000000; stroke-width: 0.6"/>
      </g>
     </g>
    </g>
    <g id="ytick_48">
     <g id="line2d_77">
      <g>
       <use xlink:href="#mad6b166323" x="43.070938" y="482.149939" style="stroke: #000000; stroke-width: 0.6"/>
      </g>
     </g>
    </g>
    <g id="text_23">
     <!-- altitude (hPa) -->
     <g transform="translate(15.558281 440.279844) rotate(-90) scale(0.11 -0.11)">
      <use xlink:href="#DejaVuSans-61"/>
      <use xlink:href="#DejaVuSans-6c" transform="translate(61.279297 0)"/>
      <use xlink:href="#DejaVuSans-74" transform="translate(89.0625 0)"/>
      <use xlink:href="#DejaVuSans-69" transform="translate(128.271484 0)"/>
      <use xlink:href="#DejaVuSans-74" transform="translate(156.054688 0)"/>
      <use xlink:href="#DejaVuSans-75" transform="translate(195.263672 0)"/>
      <use xlink:href="#DejaVuSans-64" transform="translate(258.642578 0)"/>
      <use xlink:href="#DejaVuSans-65" transform="translate(322.119141 0)"/>
      <use xlink:href="#DejaVuSans-20" transform="translate(383.642578 0)"/>
      <use xlink:href="#DejaVuSans-28" transform="translate(415.429688 0)"/>
      <use xlink:href="#DejaVuSans-68" transform="translate(454.443359 0)"/>
      <use xlink:href="#DejaVuSans-50" transform="translate(517.822266 0)"/>
      <use xlink:href="#DejaVuSans-61" transform="translate(573.625 0)"/>
      <use xlink:href="#DejaVuSans-29" transform="translate(634.904297 0)"/>
     </g>
    </g>
   </g>
   <g id="line2d_78">
    <path d="M 155.60818 320.092968 
L 168.891505 350.543769 
L 175.750288 368.356345 
L 200.488619 390.797538 
L 214.063089 421.248338 
L 248.23956 451.699139 
L 253.381623 469.511715 
L 255.068644 491.952908 
" clip-path="url(#p57263f38a3)" style="fill: none; stroke: #000080; stroke-width: 2; stroke-linecap: square"/>
   </g>
   <g id="line2d_79">
    <path d="M 233.438861 320.092968 
L 233.163915 350.543769 
L 234.537292 368.356345 
L 215.806359 390.797538 
L 196.364889 421.248338 
L 141.325872 451.699139 
L 140.361538 469.511715 
L 150.328419 491.952908 
" clip-path="url(#p57263f38a3)" style="fill: none; stroke: #b22222; stroke-width: 2; stroke-linecap: square"/>
   </g>
   <g id="line2d_80">
    <path d="M 158.745447 320.092968 
L 173.551785 350.543769 
L 185.928957 368.356345 
L 205.188763 390.797538 
L 209.960337 421.248338 
L 212.013559 451.699139 
L 207.386579 469.511715 
L 214.645154 491.952908 
" clip-path="url(#p57263f38a3)" style="fill: none; stroke-dasharray: 2,3.3; stroke-dashoffset: 0; stroke: #000080; stroke-width: 2"/>
   </g>
   <g id="line2d_81">
    <path d="M 209.873581 320.092968 
L 206.056322 350.543769 
L 196.108314 368.356345 
L 180.318743 390.797538 
L 175.836356 421.248338 
L 172.452877 451.699139 
L 175.576088 469.511715 
L 177.397962 491.952908 
" clip-path="url(#p57263f38a3)" style="fill: none; stroke-dasharray: 2,3.3; stroke-dashoffset: 0; stroke: #b22222; stroke-width: 2"/>
   </g>
   <g id="line2d_82">
    <path d="M 190.555937 496.14 
L 190.555937 310.29 
" clip-path="url(#p57263f38a3)" style="fill: none; stroke: #000000; stroke-linecap: square"/>
   </g>
   <g id="patch_14">
    <path d="M 43.070938 496.14 
L 43.070938 310.29 
" style="fill: none; stroke: #000000; stroke-width: 1.1; stroke-linejoin: miter; stroke-linecap: square"/>
   </g>
   <g id="patch_15">
    <path d="M 338.040937 496.14 
L 338.040937 310.29 
" style="fill: none; stroke: #000000; stroke-width: 1.1; stroke-linejoin: miter; stroke-linecap: square"/>
   </g>
   <g id="patch_16">
    <path d="M 43.070938 496.14 
L 338.040937 496.14 
" style="fill: none; stroke: #000000; stroke-width: 1.1; stroke-linejoin: miter; stroke-linecap: square"/>
   </g>
   <g id="patch_17">
    <path d="M 43.070938 310.29 
L 338.040937 310.29 
" style="fill: none; stroke: #000000; stroke-width: 1.1; stroke-linejoin: miter; stroke-linecap: square"/>
   </g>
   <g id="text_24">
    <!-- (c) -->
    <g transform="translate(54.869738 328.700625) scale(0.12 -0.12)">
     <defs>
      <path id="DejaVuSans-63" d="M 3122 3366 
L 3122 2828 
Q 2878 2963 2633 3030 
Q 2388 3097 2138 3097 
Q 1578 3097 1268 2742 
Q 959 2388 959 1747 
Q 959 1106 1268 751 
Q 1578 397 2138 397 
Q 2388 397 2633 464 
Q 2878 531 3122 666 
L 3122 134 
Q 2881 22 2623 -34 
Q 2366 -91 2075 -91 
Q 1284 -91 818 406 
Q 353 903 353 1747 
Q 353 2603 823 3093 
Q 1294 3584 2113 3584 
Q 2378 3584 2631 3529 
Q 2884 3475 3122 3366 
z
" transform="scale(0.015625)"/>
     </defs>
     <use xlink:href="#DejaVuSans-28"/>
     <use xlink:href="#DejaVuSans-63" transform="translate(39.013672 0)"/>
     <use xlink:href="#DejaVuSans-29" transform="translate(93.994141 0)"/>
    </g>
   </g>
   <g id="text_25">
    <!-- INT-3D vs CLIM-2D | MA -->
    <g transform="translate(119.889063 302.29) scale(0.12 -0.12)">
     <use xlink:href="#DejaVuSans-49"/>
     <use xlink:href="#DejaVuSans-4e" transform="translate(29.492188 0)"/>
     <use xlink:href="#DejaVuSans-54" transform="translate(104.296875 0)"/>
     <use xlink:href="#DejaVuSans-2d" transform="translate(156.255859 0)"/>
     <use xlink:href="#DejaVuSans-33" transform="translate(192.339844 0)"/>
     <use xlink:href="#DejaVuSans-44" transform="translate(255.962891 0)"/>
     <use xlink:href="#DejaVuSans-20" transform="translate(332.964844 0)"/>
     <use xlink:href="#DejaVuSans-76" transform="translate(364.751953 0)"/>
     <use xlink:href="#DejaVuSans-73" transform="translate(423.931641 0)"/>
     <use xlink:href="#DejaVuSans-20" transform="translate(476.03125 0)"/>
     <use xlink:href="#DejaVuSans-43" transform="translate(507.818359 0)"/>
     <use xlink:href="#DejaVuSans-4c" transform="translate(577.642578 0)"/>
     <use xlink:href="#DejaVuSans-49" transform="translate(633.355469 0)"/>
     <use xlink:href="#DejaVuSans-4d" transform="translate(662.847656 0)"/>
     <use xlink:href="#DejaVuSans-2d" transform="translate(749.126953 0)"/>
     <use xlink:href="#DejaVuSans-32" transform="translate(785.210938 0)"/>
     <use xlink:href="#DejaVuSans-44" transform="translate(848.833984 0)"/>
     <use xlink:href="#DejaVuSans-20" transform="translate(925.835938 0)"/>
     <use xlink:href="#DejaVuSans-7c" transform="translate(957.623047 0)"/>
     <use xlink:href="#DejaVuSans-20" transform="translate(991.314453 0)"/>
     <use xlink:href="#DejaVuSans-4d" transform="translate(1023.101562 0)"/>
     <use xlink:href="#DejaVuSans-41" transform="translate(1109.380859 0)"/>
    </g>
   </g>
   <g id="PathCollection_5">
    <defs>
     <path id="C0_0_e984e5d600" d="M 0 3.464102 
C 0.91869 3.464102 1.799877 3.099102 2.44949 2.44949 
C 3.099102 1.799877 3.464102 0.91869 3.464102 -0 
C 3.464102 -0.91869 3.099102 -1.799877 2.44949 -2.44949 
C 1.799877 -3.099102 0.91869 -3.464102 0 -3.464102 
C -0.91869 -3.464102 -1.799877 -3.099102 -2.44949 -2.44949 
C -3.099102 -1.799877 -3.464102 -0.91869 -3.464102 0 
C -3.464102 0.91869 -3.099102 1.799877 -2.44949 2.44949 
C -1.799877 3.099102 -0.91869 3.464102 0 3.464102 
z
"/>
    </defs>
    <g clip-path="url(#p57263f38a3)">
     <use xlink:href="#C0_0_e984e5d600" x="212.013559" y="451.699139" style="fill: none; stroke: #000080; stroke-width: 1.1"/>
    </g>
    <g clip-path="url(#p57263f38a3)">
     <use xlink:href="#C0_0_e984e5d600" x="207.386579" y="469.511715" style="fill: none; stroke: #000080; stroke-width: 1.1"/>
    </g>
    <g clip-path="url(#p57263f38a3)">
     <use xlink:href="#C0_0_e984e5d600" x="214.645154" y="491.952908" style="fill: none; stroke: #000080; stroke-width: 1.1"/>
    </g>
   </g>
   <g id="PathCollection_6">
    <path d="M 0 579.464102 
C 0.91869 579.464102 1.799877 579.099102 2.44949 578.44949 
C 3.099102 577.799877 3.464102 576.91869 3.464102 576 
C 3.464102 575.08131 3.099102 574.200123 2.44949 573.55051 
C 1.799877 572.900898 0.91869 572.535898 0 572.535898 
C -0.91869 572.535898 -1.799877 572.900898 -2.44949 573.55051 
C -3.099102 574.200123 -3.464102 575.08131 -3.464102 576 
C -3.464102 576.91869 -3.099102 577.799877 -2.44949 578.44949 
C -1.799877 579.099102 -0.91869 579.464102 0 579.464102 
" clip-path="url(#p57263f38a3)" style="fill: none; stroke: #b22222; stroke-width: 1.1"/>
   </g>
  </g>
  <g id="axes_4">
   <g id="patch_18">
    <path d="M 358.160937 496.14 
L 653.130938 496.14 
L 653.130938 310.29 
L 358.160937 310.29 
z
" style="fill: #ffffff"/>
   </g>
   <g id="FillBetweenPolyCollection_4">
    <defs>
     <path id="m4c33352dec" d="M 613.389066 -255.907032 
L 397.902809 -255.907032 
L 399.324041 -225.456231 
L 398.36311 -207.643655 
L 403.297539 -185.202462 
L 408.438574 -154.751662 
L 409.25478 -124.300861 
L 409.60125 -106.488285 
L 409.145821 -84.047092 
L 602.146054 -84.047092 
L 602.146054 -84.047092 
L 601.690625 -106.488285 
L 602.037095 -124.300861 
L 602.853301 -154.751662 
L 607.994336 -185.202462 
L 612.928765 -207.643655 
L 611.967834 -225.456231 
L 613.389066 -255.907032 
z
"/>
    </defs>
    <g clip-path="url(#p4f7a3ab344)">
     <use xlink:href="#m4c33352dec" x="0" y="576" style="fill: #d9d9d9; fill-opacity: 0.4"/>
    </g>
   </g>
   <g id="matplotlib.axis_7">
    <g id="xtick_16">
     <g id="line2d_83">
      <g>
       <use xlink:href="#m11dc8ad775" x="387.657938" y="496.14" style="stroke: #000000; stroke-width: 1.1"/>
      </g>
     </g>
     <g id="text_26">
      <!-- −20 -->
      <g transform="translate(377.105594 512.238438) scale(0.1 -0.1)">
       <use xlink:href="#DejaVuSans-2212"/>
       <use xlink:href="#DejaVuSans-32" transform="translate(83.789062 0)"/>
       <use xlink:href="#DejaVuSans-30" transform="translate(147.412109 0)"/>
      </g>
     </g>
    </g>
    <g id="xtick_17">
     <g id="line2d_84">
      <g>
       <use xlink:href="#m11dc8ad775" x="446.651938" y="496.14" style="stroke: #000000; stroke-width: 1.1"/>
      </g>
     </g>
     <g id="text_27">
      <!-- −10 -->
      <g transform="translate(436.099594 512.238438) scale(0.1 -0.1)">
       <use xlink:href="#DejaVuSans-2212"/>
       <use xlink:href="#DejaVuSans-31" transform="translate(83.789062 0)"/>
       <use xlink:href="#DejaVuSans-30" transform="translate(147.412109 0)"/>
      </g>
     </g>
    </g>
    <g id="xtick_18">
     <g id="line2d_85">
      <g>
       <use xlink:href="#m11dc8ad775" x="505.645938" y="496.14" style="stroke: #000000; stroke-width: 1.1"/>
      </g>
     </g>
     <g id="text_28">
      <!-- 0 -->
      <g transform="translate(502.464688 512.238438) scale(0.1 -0.1)">
       <use xlink:href="#DejaVuSans-30"/>
      </g>
     </g>
    </g>
    <g id="xtick_19">
     <g id="line2d_86">
      <g>
       <use xlink:href="#m11dc8ad775" x="564.639938" y="496.14" style="stroke: #000000; stroke-width: 1.1"/>
      </g>
     </g>
     <g id="text_29">
      <!-- 10 -->
      <g transform="translate(558.277438 512.238438) scale(0.1 -0.1)">
       <use xlink:href="#DejaVuSans-31"/>
       <use xlink:href="#DejaVuSans-30" transform="translate(63.623047 0)"/>
      </g>
     </g>
    </g>
    <g id="xtick_20">
     <g id="line2d_87">
      <g>
       <use xlink:href="#m11dc8ad775" x="623.633938" y="496.14" style="stroke: #000000; stroke-width: 1.1"/>
      </g>
     </g>
     <g id="text_30">
      <!-- 20 -->
      <g transform="translate(617.271438 512.238438) scale(0.1 -0.1)">
       <use xlink:href="#DejaVuSans-32"/>
       <use xlink:href="#DejaVuSans-30" transform="translate(63.623047 0)"/>
      </g>
     </g>
    </g>
   </g>
   <g id="matplotlib.axis_8">
    <g id="ytick_49">
     <g id="line2d_88">
      <g>
       <use xlink:href="#me7e4586fe1" x="358.160937" y="320.092968" style="stroke: #000000; stroke-width: 1.1"/>
      </g>
     </g>
    </g>
    <g id="ytick_50">
     <g id="line2d_89">
      <g>
       <use xlink:href="#me7e4586fe1" x="358.160937" y="390.797538" style="stroke: #000000; stroke-width: 1.1"/>
      </g>
     </g>
    </g>
    <g id="ytick_51">
     <g id="line2d_90">
      <g>
       <use xlink:href="#me7e4586fe1" x="358.160937" y="421.248338" style="stroke: #000000; stroke-width: 1.1"/>
      </g>
     </g>
    </g>
    <g id="ytick_52">
     <g id="line2d_91">
      <g>
       <use xlink:href="#me7e4586fe1" x="358.160937" y="491.952908" style="stroke: #000000; stroke-width: 1.1"/>
      </g>
     </g>
    </g>
    <g id="ytick_53">
     <g id="line2d_92">
      <g>
       <use xlink:href="#mad6b166323" x="358.160937" y="310.29" style="stroke: #000000; stroke-width: 0.6"/>
      </g>
     </g>
    </g>
    <g id="ytick_54">
     <g id="line2d_93">
      <g>
       <use xlink:href="#mad6b166323" x="358.160937" y="315.464352" style="stroke: #000000; stroke-width: 0.6"/>
      </g>
     </g>
    </g>
    <g id="ytick_55">
     <g id="line2d_94">
      <g>
       <use xlink:href="#mad6b166323" x="358.160937" y="350.543769" style="stroke: #000000; stroke-width: 0.6"/>
      </g>
     </g>
    </g>
    <g id="ytick_56">
     <g id="line2d_95">
      <g>
       <use xlink:href="#mad6b166323" x="358.160937" y="368.356345" style="stroke: #000000; stroke-width: 0.6"/>
      </g>
     </g>
    </g>
    <g id="ytick_57">
     <g id="line2d_96">
      <g>
       <use xlink:href="#mad6b166323" x="358.160937" y="380.994569" style="stroke: #000000; stroke-width: 0.6"/>
      </g>
     </g>
    </g>
    <g id="ytick_58">
     <g id="line2d_97">
      <g>
       <use xlink:href="#mad6b166323" x="358.160937" y="398.807146" style="stroke: #000000; stroke-width: 0.6"/>
      </g>
     </g>
    </g>
    <g id="ytick_59">
     <g id="line2d_98">
      <g>
       <use xlink:href="#mad6b166323" x="358.160937" y="405.579173" style="stroke: #000000; stroke-width: 0.6"/>
      </g>
     </g>
    </g>
    <g id="ytick_60">
     <g id="line2d_99">
      <g>
       <use xlink:href="#mad6b166323" x="358.160937" y="411.44537" style="stroke: #000000; stroke-width: 0.6"/>
      </g>
     </g>
    </g>
    <g id="ytick_61">
     <g id="line2d_100">
      <g>
       <use xlink:href="#mad6b166323" x="358.160937" y="416.619722" style="stroke: #000000; stroke-width: 0.6"/>
      </g>
     </g>
    </g>
    <g id="ytick_62">
     <g id="line2d_101">
      <g>
       <use xlink:href="#mad6b166323" x="358.160937" y="451.699139" style="stroke: #000000; stroke-width: 0.6"/>
      </g>
     </g>
    </g>
    <g id="ytick_63">
     <g id="line2d_102">
      <g>
       <use xlink:href="#mad6b166323" x="358.160937" y="469.511715" style="stroke: #000000; stroke-width: 0.6"/>
      </g>
     </g>
    </g>
    <g id="ytick_64">
     <g id="line2d_103">
      <g>
       <use xlink:href="#mad6b166323" x="358.160937" y="482.149939" style="stroke: #000000; stroke-width: 0.6"/>
      </g>
     </g>
    </g>
   </g>
   <g id="line2d_104">
    <path d="M 476.663139 320.092968 
L 490.896045 350.543769 
L 508.555262 368.356345 
L 535.935124 390.797538 
L 550.607515 421.248338 
L 578.60414 451.699139 
L 583.12986 469.511715 
L 579.717471 491.952908 
" clip-path="url(#p4f7a3ab344)" style="fill: none; stroke: #000080; stroke-width: 2; stroke-linecap: square"/>
   </g>
   <g id="line2d_105">
    <path d="M 543.452775 320.092968 
L 543.042527 350.543769 
L 549.851062 368.356345 
L 532.458692 390.797538 
L 520.899822 421.248338 
L 466.094155 451.699139 
L 465.247206 469.511715 
L 472.053421 491.952908 
" clip-path="url(#p4f7a3ab344)" style="fill: none; stroke: #b22222; stroke-width: 2; stroke-linecap: square"/>
   </g>
   <g id="line2d_106">
    <path d="M 459.750954 320.092968 
L 471.906066 350.543769 
L 486.914022 368.356345 
L 511.584667 390.797538 
L 525.222553 421.248338 
L 558.448209 451.699139 
L 553.708731 469.511715 
L 558.208711 491.952908 
" clip-path="url(#p4f7a3ab344)" style="fill: none; stroke-dasharray: 2,3.3; stroke-dashoffset: 0; stroke: #000080; stroke-width: 2"/>
   </g>
   <g id="line2d_107">
    <path d="M 524.88033 320.092968 
L 522.286942 350.543769 
L 519.006758 368.356345 
L 509.578871 390.797538 
L 504.338677 421.248338 
L 491.902977 451.699139 
L 493.298875 469.511715 
L 494.731167 491.952908 
" clip-path="url(#p4f7a3ab344)" style="fill: none; stroke-dasharray: 2,3.3; stroke-dashoffset: 0; stroke: #b22222; stroke-width: 2"/>
   </g>
   <g id="line2d_108">
    <path d="M 505.645938 496.14 
L 505.645938 310.29 
" clip-path="url(#p4f7a3ab344)" style="fill: none; stroke: #000000; stroke-linecap: square"/>
   </g>
   <g id="patch_19">
    <path d="M 358.160937 496.14 
L 358.160937 310.29 
" style="fill: none; stroke: #000000; stroke-width: 1.1; stroke-linejoin: miter; stroke-linecap: square"/>
   </g>
   <g id="patch_20">
    <path d="M 653.130938 496.14 
L 653.130938 310.29 
" style="fill: none; stroke: #000000; stroke-width: 1.1; stroke-linejoin: miter; stroke-linecap: square"/>
   </g>
   <g id="patch_21">
    <path d="M 358.160938 496.14 
L 653.130938 496.14 
" style="fill: none; stroke: #000000; stroke-width: 1.1; stroke-linejoin: miter; stroke-linecap: square"/>
   </g>
   <g id="patch_22">
    <path d="M 358.160938 310.29 
L 653.130938 310.29 
" style="fill: none; stroke: #000000; stroke-width: 1.1; stroke-linejoin: miter; stroke-linecap: square"/>
   </g>
   <g id="text_31">
    <!-- (d) -->
    <g transform="translate(369.959738 328.700625) scale(0.12 -0.12)">
     <use xlink:href="#DejaVuSans-28"/>
     <use xlink:href="#DejaVuSans-64" transform="translate(39.013672 0)"/>
     <use xlink:href="#DejaVuSans-29" transform="translate(102.490234 0)"/>
    </g>
   </g>
   <g id="text_32">
    <!-- INT-3D vs CLIM-2D | M-FWD -->
    <g transform="translate(422.915313 302.29) scale(0.12 -0.12)">
     <use xlink:href="#DejaVuSans-49"/>
     <use xlink:href="#DejaVuSans-4e" transform="translate(29.492188 0)"/>
     <use xlink:href="#DejaVuSans-54" transform="translate(104.296875 0)"/>
     <use xlink:href="#DejaVuSans-2d" transform="translate(156.255859 0)"/>
     <use xlink:href="#DejaVuSans-33" transform="translate(192.339844 0)"/>
     <use xlink:href="#DejaVuSans-44" transform="translate(255.962891 0)"/>
     <use xlink:href="#DejaVuSans-20" transform="translate(332.964844 0)"/>
     <use xlink:href="#DejaVuSans-76" transform="translate(364.751953 0)"/>
     <use xlink:href="#DejaVuSans-73" transform="translate(423.931641 0)"/>
     <use xlink:href="#DejaVuSans-20" transform="translate(476.03125 0)"/>
     <use xlink:href="#DejaVuSans-43" transform="translate(507.818359 0)"/>
     <use xlink:href="#DejaVuSans-4c" transform="translate(577.642578 0)"/>
     <use xlink:href="#DejaVuSans-49" transform="translate(633.355469 0)"/>
     <use xlink:href="#DejaVuSans-4d" transform="translate(662.847656 0)"/>
     <use xlink:href="#DejaVuSans-2d" transform="translate(749.126953 0)"/>
     <use xlink:href="#DejaVuSans-32" transform="translate(785.210938 0)"/>
     <use xlink:href="#DejaVuSans-44" transform="translate(848.833984 0)"/>
     <use xlink:href="#DejaVuSans-20" transform="translate(925.835938 0)"/>
     <use xlink:href="#DejaVuSans-7c" transform="translate(957.623047 0)"/>
     <use xlink:href="#DejaVuSans-20" transform="translate(991.314453 0)"/>
     <use xlink:href="#DejaVuSans-4d" transform="translate(1023.101562 0)"/>
     <use xlink:href="#DejaVuSans-2d" transform="translate(1109.380859 0)"/>
     <use xlink:href="#DejaVuSans-46" transform="translate(1145.464844 0)"/>
     <use xlink:href="#DejaVuSans-57" transform="translate(1202.984375 0)"/>
     <use xlink:href="#DejaVuSans-44" transform="translate(1301.861328 0)"/>
    </g>
   </g>
   <g id="PathCollection_7">
    <path d="M 0 579.464102 
C 0.91869 579.464102 1.799877 579.099102 2.44949 578.44949 
C 3.099102 577.799877 3.464102 576.91869 3.464102 576 
C 3.464102 575.08131 3.099102 574.200123 2.44949 573.55051 
C 1.799877 572.900898 0.91869 572.535898 0 572.535898 
C -0.91869 572.535898 -1.799877 572.900898 -2.44949 573.55051 
C -3.099102 574.200123 -3.464102 575.08131 -3.464102 576 
C -3.464102 576.91869 -3.099102 577.799877 -2.44949 578.44949 
C -1.799877 579.099102 -0.91869 579.464102 0 579.464102 
" clip-path="url(#p4f7a3ab344)" style="fill: none; stroke: #000080; stroke-width: 1.1"/>
   </g>
   <g id="PathCollection_8">
    <path d="M 0 579.464102 
C 0.91869 579.464102 1.799877 579.099102 2.44949 578.44949 
C 3.099102 577.799877 3.464102 576.91869 3.464102 576 
C 3.464102 575.08131 3.099102 574.200123 2.44949 573.55051 
C 1.799877 572.900898 0.91869 572.535898 0 572.535898 
C -0.91869 572.535898 -1.799877 572.900898 -2.44949 573.55051 
C -3.099102 574.200123 -3.464102 575.08131 -3.464102 576 
C -3.464102 576.91869 -3.099102 577.799877 -2.44949 578.44949 
C -1.799877 579.099102 -0.91869 579.464102 0 579.464102 
" clip-path="url(#p4f7a3ab344)" style="fill: none; stroke: #b22222; stroke-width: 1.1"/>
   </g>
  </g>
  <g id="text_33">
   <!-- WACCM FWD response | raw O3-year selection -->
   <g transform="translate(166.659063 17.899063) scale(0.14 -0.14)">
    <defs>
     <path id="DejaVuSans-72" d="M 2631 2963 
Q 2534 3019 2420 3045 
Q 2306 3072 2169 3072 
Q 1681 3072 1420 2755 
Q 1159 2438 1159 1844 
L 1159 0 
L 581 0 
L 581 3500 
L 1159 3500 
L 1159 2956 
Q 1341 3275 1631 3429 
Q 1922 3584 2338 3584 
Q 2397 3584 2469 3576 
Q 2541 3569 2628 3553 
L 2631 2963 
z
" transform="scale(0.015625)"/>
     <path id="DejaVuSans-70" d="M 1159 525 
L 1159 -1331 
L 581 -1331 
L 581 3500 
L 1159 3500 
L 1159 2969 
Q 1341 3281 1617 3432 
Q 1894 3584 2278 3584 
Q 2916 3584 3314 3078 
Q 3713 2572 3713 1747 
Q 3713 922 3314 415 
Q 2916 -91 2278 -91 
Q 1894 -91 1617 61 
Q 1341 213 1159 525 
z
M 3116 1747 
Q 3116 2381 2855 2742 
Q 2594 3103 2138 3103 
Q 1681 3103 1420 2742 
Q 1159 2381 1159 1747 
Q 1159 1113 1420 752 
Q 1681 391 2138 391 
Q 2594 391 2855 752 
Q 3116 1113 3116 1747 
z
" transform="scale(0.015625)"/>
     <path id="DejaVuSans-6e" d="M 3513 2113 
L 3513 0 
L 2938 0 
L 2938 2094 
Q 2938 2591 2744 2837 
Q 2550 3084 2163 3084 
Q 1697 3084 1428 2787 
Q 1159 2491 1159 1978 
L 1159 0 
L 581 0 
L 581 3500 
L 1159 3500 
L 1159 2956 
Q 1366 3272 1645 3428 
Q 1925 3584 2291 3584 
Q 2894 3584 3203 3211 
Q 3513 2838 3513 2113 
z
" transform="scale(0.015625)"/>
     <path id="DejaVuSans-79" d="M 2059 -325 
Q 1816 -950 1584 -1140 
Q 1353 -1331 966 -1331 
L 506 -1331 
L 506 -850 
L 844 -850 
Q 1081 -850 1212 -737 
Q 1344 -625 1503 -206 
L 1606 56 
L 191 3500 
L 800 3500 
L 1894 763 
L 2988 3500 
L 3597 3500 
L 2059 -325 
z
" transform="scale(0.015625)"/>
    </defs>
    <use xlink:href="#DejaVuSans-57"/>
    <use xlink:href="#DejaVuSans-41" transform="translate(93.376953 0)"/>
    <use xlink:href="#DejaVuSans-43" transform="translate(160.035156 0)"/>
    <use xlink:href="#DejaVuSans-43" transform="translate(229.859375 0)"/>
    <use xlink:href="#DejaVuSans-4d" transform="translate(299.683594 0)"/>
    <use xlink:href="#DejaVuSans-20" transform="translate(385.962891 0)"/>
    <use xlink:href="#DejaVuSans-46" transform="translate(417.75 0)"/>
    <use xlink:href="#DejaVuSans-57" transform="translate(475.269531 0)"/>
    <use xlink:href="#DejaVuSans-44" transform="translate(574.146484 0)"/>
    <use xlink:href="#DejaVuSans-20" transform="translate(651.148438 0)"/>
    <use xlink:href="#DejaVuSans-72" transform="translate(682.935547 0)"/>
    <use xlink:href="#DejaVuSans-65" transform="translate(721.798828 0)"/>
    <use xlink:href="#DejaVuSans-73" transform="translate(783.322266 0)"/>
    <use xlink:href="#DejaVuSans-70" transform="translate(835.421875 0)"/>
    <use xlink:href="#DejaVuSans-6f" transform="translate(898.898438 0)"/>
    <use xlink:href="#DejaVuSans-6e" transform="translate(960.080078 0)"/>
    <use xlink:href="#DejaVuSans-73" transform="translate(1023.458984 0)"/>
    <use xlink:href="#DejaVuSans-65" transform="translate(1075.558594 0)"/>
    <use xlink:href="#DejaVuSans-20" transform="translate(1137.082031 0)"/>
    <use xlink:href="#DejaVuSans-7c" transform="translate(1168.869141 0)"/>
    <use xlink:href="#DejaVuSans-20" transform="translate(1202.560547 0)"/>
    <use xlink:href="#DejaVuSans-72" transform="translate(1234.347656 0)"/>
    <use xlink:href="#DejaVuSans-61" transform="translate(1275.460938 0)"/>
    <use xlink:href="#DejaVuSans-77" transform="translate(1336.740234 0)"/>
    <use xlink:href="#DejaVuSans-20" transform="translate(1418.527344 0)"/>
    <use xlink:href="#DejaVuSans-4f" transform="translate(1450.314453 0)"/>
    <use xlink:href="#DejaVuSans-33" transform="translate(1529.025391 0)"/>
    <use xlink:href="#DejaVuSans-2d" transform="translate(1592.648438 0)"/>
    <use xlink:href="#DejaVuSans-79" transform="translate(1626.982422 0)"/>
    <use xlink:href="#DejaVuSans-65" transform="translate(1686.162109 0)"/>
    <use xlink:href="#DejaVuSans-61" transform="translate(1747.685547 0)"/>
    <use xlink:href="#DejaVuSans-72" transform="translate(1808.964844 0)"/>
    <use xlink:href="#DejaVuSans-20" transform="translate(1850.078125 0)"/>
    <use xlink:href="#DejaVuSans-73" transform="translate(1881.865234 0)"/>
    <use xlink:href="#DejaVuSans-65" transform="translate(1933.964844 0)"/>
    <use xlink:href="#DejaVuSans-6c" transform="translate(1995.488281 0)"/>
    <use xlink:href="#DejaVuSans-65" transform="translate(2023.271484 0)"/>
    <use xlink:href="#DejaVuSans-63" transform="translate(2084.794922 0)"/>
    <use xlink:href="#DejaVuSans-74" transform="translate(2139.775391 0)"/>
    <use xlink:href="#DejaVuSans-69" transform="translate(2178.984375 0)"/>
    <use xlink:href="#DejaVuSans-6f" transform="translate(2206.767578 0)"/>
    <use xlink:href="#DejaVuSans-6e" transform="translate(2267.949219 0)"/>
   </g>
  </g>
  <g id="text_34">
   <!-- Deviation from mean FSW date (days) -->
   <g transform="translate(215.179688 566.304375) scale(0.12 -0.12)">
    <defs>
     <path id="DejaVuSans-66" d="M 2375 4863 
L 2375 4384 
L 1825 4384 
Q 1516 4384 1395 4259 
Q 1275 4134 1275 3809 
L 1275 3500 
L 2222 3500 
L 2222 3053 
L 1275 3053 
L 1275 0 
L 697 0 
L 697 3053 
L 147 3053 
L 147 3500 
L 697 3500 
L 697 3744 
Q 697 4328 969 4595 
Q 1241 4863 1831 4863 
L 2375 4863 
z
" transform="scale(0.015625)"/>
     <path id="DejaVuSans-6d" d="M 3328 2828 
Q 3544 3216 3844 3400 
Q 4144 3584 4550 3584 
Q 5097 3584 5394 3201 
Q 5691 2819 5691 2113 
L 5691 0 
L 5113 0 
L 5113 2094 
Q 5113 2597 4934 2840 
Q 4756 3084 4391 3084 
Q 3944 3084 3684 2787 
Q 3425 2491 3425 1978 
L 3425 0 
L 2847 0 
L 2847 2094 
Q 2847 2600 2669 2842 
Q 2491 3084 2119 3084 
Q 1678 3084 1418 2786 
Q 1159 2488 1159 1978 
L 1159 0 
L 581 0 
L 581 3500 
L 1159 3500 
L 1159 2956 
Q 1356 3278 1631 3431 
Q 1906 3584 2284 3584 
Q 2666 3584 2933 3390 
Q 3200 3197 3328 2828 
z
" transform="scale(0.015625)"/>
     <path id="DejaVuSans-53" d="M 3425 4513 
L 3425 3897 
Q 3066 4069 2747 4153 
Q 2428 4238 2131 4238 
Q 1616 4238 1336 4038 
Q 1056 3838 1056 3469 
Q 1056 3159 1242 3001 
Q 1428 2844 1947 2747 
L 2328 2669 
Q 3034 2534 3370 2195 
Q 3706 1856 3706 1288 
Q 3706 609 3251 259 
Q 2797 -91 1919 -91 
Q 1588 -91 1214 -16 
Q 841 59 441 206 
L 441 856 
Q 825 641 1194 531 
Q 1563 422 1919 422 
Q 2459 422 2753 634 
Q 3047 847 3047 1241 
Q 3047 1584 2836 1778 
Q 2625 1972 2144 2069 
L 1759 2144 
Q 1053 2284 737 2584 
Q 422 2884 422 3419 
Q 422 4038 858 4394 
Q 1294 4750 2059 4750 
Q 2388 4750 2728 4690 
Q 3069 4631 3425 4513 
z
" transform="scale(0.015625)"/>
    </defs>
    <use xlink:href="#DejaVuSans-44"/>
    <use xlink:href="#DejaVuSans-65" transform="translate(77.001953 0)"/>
    <use xlink:href="#DejaVuSans-76" transform="translate(138.525391 0)"/>
    <use xlink:href="#DejaVuSans-69" transform="translate(197.705078 0)"/>
    <use xlink:href="#DejaVuSans-61" transform="translate(225.488281 0)"/>
    <use xlink:href="#DejaVuSans-74" transform="translate(286.767578 0)"/>
    <use xlink:href="#DejaVuSans-69" transform="translate(325.976562 0)"/>
    <use xlink:href="#DejaVuSans-6f" transform="translate(353.759766 0)"/>
    <use xlink:href="#DejaVuSans-6e" transform="translate(414.941406 0)"/>
    <use xlink:href="#DejaVuSans-20" transform="translate(478.320312 0)"/>
    <use xlink:href="#DejaVuSans-66" transform="translate(510.107422 0)"/>
    <use xlink:href="#DejaVuSans-72" transform="translate(545.3125 0)"/>
    <use xlink:href="#DejaVuSans-6f" transform="translate(584.175781 0)"/>
    <use xlink:href="#DejaVuSans-6d" transform="translate(645.357422 0)"/>
    <use xlink:href="#DejaVuSans-20" transform="translate(742.769531 0)"/>
    <use xlink:href="#DejaVuSans-6d" transform="translate(774.556641 0)"/>
    <use xlink:href="#DejaVuSans-65" transform="translate(871.96875 0)"/>
    <use xlink:href="#DejaVuSans-61" transform="translate(933.492188 0)"/>
    <use xlink:href="#DejaVuSans-6e" transform="translate(994.771484 0)"/>
    <use xlink:href="#DejaVuSans-20" transform="translate(1058.150391 0)"/>
    <use xlink:href="#DejaVuSans-46" transform="translate(1089.9375 0)"/>
    <use xlink:href="#DejaVuSans-53" transform="translate(1145.707031 0)"/>
    <use xlink:href="#DejaVuSans-57" transform="translate(1209.183594 0)"/>
    <use xlink:href="#DejaVuSans-20" transform="translate(1308.060547 0)"/>
    <use xlink:href="#DejaVuSans-64" transform="translate(1339.847656 0)"/>
    <use xlink:href="#DejaVuSans-61" transform="translate(1403.324219 0)"/>
    <use xlink:href="#DejaVuSans-74" transform="translate(1464.603516 0)"/>
    <use xlink:href="#DejaVuSans-65" transform="translate(1503.8125 0)"/>
    <use xlink:href="#DejaVuSans-20" transform="translate(1565.335938 0)"/>
    <use xlink:href="#DejaVuSans-28" transform="translate(1597.123047 0)"/>
    <use xlink:href="#DejaVuSans-64" transform="translate(1636.136719 0)"/>
    <use xlink:href="#DejaVuSans-61" transform="translate(1699.613281 0)"/>
    <use xlink:href="#DejaVuSans-79" transform="translate(1760.892578 0)"/>
    <use xlink:href="#DejaVuSans-73" transform="translate(1820.072266 0)"/>
    <use xlink:href="#DejaVuSans-29" transform="translate(1872.171875 0)"/>
   </g>
  </g>
 </g>
 <defs>
  <clipPath id="pbae500a074">
   <rect x="43.070938" y="86.72" width="294.97" height="185.85"/>
  </clipPath>
  <clipPath id="p3d4fb2fba4">
   <rect x="358.160937" y="86.72" width="294.97" height="185.85"/>
  </clipPath>
  <clipPath id="p57263f38a3">
   <rect x="43.070938" y="310.29" width="294.97" height="185.85"/>
  </clipPath>
  <clipPath id="p4f7a3ab344">
   <rect x="358.160937" y="310.29" width="294.97" height="185.85"/>
  </clipPath>
 </defs>
</svg>
