<?xml version="1.0" encoding="utf-8" standalone="no"?>
<!DOCTYPE svg PUBLIC "-//W3C//DTD SVG 1.1//EN"
  "http://www.w3.org/Graphics/SVG/1.1/DTD/svg11.dtd">
<svg xmlns:xlink="http://www.w3.org/1999/xlink" width="591.598125pt" height="294.028594pt" viewBox="0 0 591.598125 294.028594" xmlns="http://www.w3.org/2000/svg" version="1.1">
 <metadata>
  <rdf:RDF xmlns:dc="http://purl.org/dc/elements/1.1/" xmlns:cc="http://creativecommons.org/ns#" xmlns:rdf="http://www.w3.org/1999/02/22-rdf-syntax-ns#">
   <cc:Work>
    <dc:type rdf:resource="http://purl.org/dc/dcmitype/StillImage"/>
    <dc:date>2026-05-19T15:20:43.948490</dc:date>
    <dc:format>image/svg+xml</dc:format>
    <dc:creator>
     <cc:Agent>
      <dc:title>Matplotlib v3.10.0, https://matplotlib.org/</dc:title>
     </cc:Agent>
    </dc:creator>
   </cc:Work>
  </rdf:RDF>
 </metadata>
 <defs>
  <style type="text/css">*{stroke-linejoin: round; stroke-linecap: butt}</style>
 </defs>
 <g id="figure_1">
  <g id="patch_1">
   <path d="M 0 294.028594 
L 591.598125 294.028594 
L 591.598125 0 
L 0 0 
z
" style="fill: #ffffff"/>
  </g>
  <g id="axes_1">
   <g id="patch_2">
    <path d="M 42.567969 271.118281 
L 574.597969 271.118281 
L 574.597969 21.558281 
L 42.567969 21.558281 
z
" style="fill: #ffffff"/>
   </g>
   <g id="matplotlib.axis_1">
    <g id="xtick_1">
     <g id="line2d_1">
      <defs>
       <path id="ma5c35d3958" d="M 0 0 
L 0 3.5 
" style="stroke: #000000; stroke-width: 0.8"/>
      </defs>
      <g>
       <use xlink:href="#ma5c35d3958" x="42.567969" y="271.118281" style="stroke: #000000; stroke-width: 0.8"/>
      </g>
     </g>
     <g id="text_1">
      <!-- Jan -->
      <g transform="translate(35.630938 284.956875) scale(0.09 -0.09)">
       <defs>
        <path id="DejaVuSans-4a" d="M 628 4666 
L 1259 4666 
L 1259 325 
Q 1259 -519 939 -900 
Q 619 -1281 -91 -1281 
L -331 -1281 
L -331 -750 
L -134 -750 
Q 284 -750 456 -515 
Q 628 -281 628 325 
L 628 4666 
z
" transform="scale(0.015625)"/>
        <path id="DejaVuSans-61" d="M 2194 1759 
Q 1497 1759 1228 1600 
Q 959 1441 959 1056 
Q 959 750 1161 570 
Q 1363 391 1709 391 
Q 2188 391 2477 730 
Q 2766 1069 2766 1631 
L 2766 1759 
L 2194 1759 
z
M 3341 1997 
L 3341 0 
L 2766 0 
L 2766 531 
Q 2569 213 2275 61 
Q 1981 -91 1556 -91 
Q 1019 -91 701 211 
Q 384 513 384 1019 
Q 384 1609 779 1909 
Q 1175 2209 1959 2209 
L 2766 2209 
L 2766 2266 
Q 2766 2663 2505 2880 
Q 2244 3097 1772 3097 
Q 1472 3097 1187 3025 
Q 903 2953 641 2809 
L 641 3341 
Q 956 3463 1253 3523 
Q 1550 3584 1831 3584 
Q 2591 3584 2966 3190 
Q 3341 2797 3341 1997 
z
" transform="scale(0.015625)"/>
        <path id="DejaVuSans-6e" d="M 3513 2113 
L 3513 0 
L 2938 0 
L 2938 2094 
Q 2938 2591 2744 2837 
Q 2550 3084 2163 3084 
Q 1697 3084 1428 2787 
Q 1159 2491 1159 1978 
L 1159 0 
L 581 0 
L 581 3500 
L 1159 3500 
L 1159 2956 
Q 1366 3272 1645 3428 
Q 1925 3584 2291 3584 
Q 2894 3584 3203 3211 
Q 3513 2838 3513 2113 
z
" transform="scale(0.015625)"/>
       </defs>
       <use xlink:href="#DejaVuSans-4a"/>
       <use xlink:href="#DejaVuSans-61" transform="translate(29.492188 0)"/>
       <use xlink:href="#DejaVuSans-6e" transform="translate(90.771484 0)"/>
      </g>
     </g>
    </g>
    <g id="xtick_2">
     <g id="line2d_2">
      <g>
       <use xlink:href="#ma5c35d3958" x="151.792671" y="271.118281" style="stroke: #000000; stroke-width: 0.8"/>
      </g>
     </g>
     <g id="text_2">
      <!-- Feb -->
      <g transform="translate(143.826264 284.956875) scale(0.09 -0.09)">
       <defs>
        <path id="DejaVuSans-46" d="M 628 4666 
L 3309 4666 
L 3309 4134 
L 1259 4134 
L 1259 2759 
L 3109 2759 
L 3109 2228 
L 1259 2228 
L 1259 0 
L 628 0 
L 628 4666 
z
" transform="scale(0.015625)"/>
        <path id="DejaVuSans-65" d="M 3597 1894 
L 3597 1613 
L 953 1613 
Q 991 1019 1311 708 
Q 1631 397 2203 397 
Q 2534 397 2845 478 
Q 3156 559 3463 722 
L 3463 178 
Q 3153 47 2828 -22 
Q 2503 -91 2169 -91 
Q 1331 -91 842 396 
Q 353 884 353 1716 
Q 353 2575 817 3079 
Q 1281 3584 2069 3584 
Q 2775 3584 3186 3129 
Q 3597 2675 3597 1894 
z
M 3022 2063 
Q 3016 2534 2758 2815 
Q 2500 3097 2075 3097 
Q 1594 3097 1305 2825 
Q 1016 2553 972 2059 
L 3022 2063 
z
" transform="scale(0.015625)"/>
        <path id="DejaVuSans-62" d="M 3116 1747 
Q 3116 2381 2855 2742 
Q 2594 3103 2138 3103 
Q 1681 3103 1420 2742 
Q 1159 2381 1159 1747 
Q 1159 1113 1420 752 
Q 1681 391 2138 391 
Q 2594 391 2855 752 
Q 3116 1113 3116 1747 
z
M 1159 2969 
Q 1341 3281 1617 3432 
Q 1894 3584 2278 3584 
Q 2916 3584 3314 3078 
Q 3713 2572 3713 1747 
Q 3713 922 3314 415 
Q 2916 -91 2278 -91 
Q 1894 -91 1617 61 
Q 1341 213 1159 525 
L 1159 0 
L 581 0 
L 581 4863 
L 1159 4863 
L 1159 2969 
z
" transform="scale(0.015625)"/>
       </defs>
       <use xlink:href="#DejaVuSans-46"/>
       <use xlink:href="#DejaVuSans-65" transform="translate(52.019531 0)"/>
       <use xlink:href="#DejaVuSans-62" transform="translate(113.542969 0)"/>
      </g>
     </g>
    </g>
    <g id="xtick_3">
     <g id="line2d_3">
      <g>
       <use xlink:href="#ma5c35d3958" x="250.44724" y="271.118281" style="stroke: #000000; stroke-width: 0.8"/>
      </g>
     </g>
     <g id="text_3">
      <!-- Mar -->
      <g transform="translate(241.957006 284.956875) scale(0.09 -0.09)">
       <defs>
        <path id="DejaVuSans-4d" d="M 628 4666 
L 1569 4666 
L 2759 1491 
L 3956 4666 
L 4897 4666 
L 4897 0 
L 4281 0 
L 4281 4097 
L 3078 897 
L 2444 897 
L 1241 4097 
L 1241 0 
L 628 0 
L 628 4666 
z
" transform="scale(0.015625)"/>
        <path id="DejaVuSans-72" d="M 2631 2963 
Q 2534 3019 2420 3045 
Q 2306 3072 2169 3072 
Q 1681 3072 1420 2755 
Q 1159 2438 1159 1844 
L 1159 0 
L 581 0 
L 581 3500 
L 1159 3500 
L 1159 2956 
Q 1341 3275 1631 3429 
Q 1922 3584 2338 3584 
Q 2397 3584 2469 3576 
Q 2541 3569 2628 3553 
L 2631 2963 
z
" transform="scale(0.015625)"/>
       </defs>
       <use xlink:href="#DejaVuSans-4d"/>
       <use xlink:href="#DejaVuSans-61" transform="translate(86.279297 0)"/>
       <use xlink:href="#DejaVuSans-72" transform="translate(147.558594 0)"/>
      </g>
     </g>
    </g>
    <g id="xtick_4">
     <g id="line2d_4">
      <g>
       <use xlink:href="#ma5c35d3958" x="359.671942" y="271.118281" style="stroke: #000000; stroke-width: 0.8"/>
      </g>
     </g>
     <g id="text_4">
      <!-- Apr -->
      <g transform="translate(351.886942 284.956875) scale(0.09 -0.09)">
       <defs>
        <path id="DejaVuSans-41" d="M 2188 4044 
L 1331 1722 
L 3047 1722 
L 2188 4044 
z
M 1831 4666 
L 2547 4666 
L 4325 0 
L 3669 0 
L 3244 1197 
L 1141 1197 
L 716 0 
L 50 0 
L 1831 4666 
z
" transform="scale(0.015625)"/>
        <path id="DejaVuSans-70" d="M 1159 525 
L 1159 -1331 
L 581 -1331 
L 581 3500 
L 1159 3500 
L 1159 2969 
Q 1341 3281 1617 3432 
Q 1894 3584 2278 3584 
Q 2916 3584 3314 3078 
Q 3713 2572 3713 1747 
Q 3713 922 3314 415 
Q 2916 -91 2278 -91 
Q 1894 -91 1617 61 
Q 1341 213 1159 525 
z
M 3116 1747 
Q 3116 2381 2855 2742 
Q 2594 3103 2138 3103 
Q 1681 3103 1420 2742 
Q 1159 2381 1159 1747 
Q 1159 1113 1420 752 
Q 1681 391 2138 391 
Q 2594 391 2855 752 
Q 3116 1113 3116 1747 
z
" transform="scale(0.015625)"/>
       </defs>
       <use xlink:href="#DejaVuSans-41"/>
       <use xlink:href="#DejaVuSans-70" transform="translate(68.408203 0)"/>
       <use xlink:href="#DejaVuSans-72" transform="translate(131.884766 0)"/>
      </g>
     </g>
    </g>
    <g id="xtick_5">
     <g id="line2d_5">
      <g>
       <use xlink:href="#ma5c35d3958" x="465.373267" y="271.118281" style="stroke: #000000; stroke-width: 0.8"/>
      </g>
     </g>
     <g id="text_5">
      <!-- May -->
      <g transform="translate(456.069517 284.956875) scale(0.09 -0.09)">
       <defs>
        <path id="DejaVuSans-79" d="M 2059 -325 
Q 1816 -950 1584 -1140 
Q 1353 -1331 966 -1331 
L 506 -1331 
L 506 -850 
L 844 -850 
Q 1081 -850 1212 -737 
Q 1344 -625 1503 -206 
L 1606 56 
L 191 3500 
L 800 3500 
L 1894 763 
L 2988 3500 
L 3597 3500 
L 2059 -325 
z
" transform="scale(0.015625)"/>
       </defs>
       <use xlink:href="#DejaVuSans-4d"/>
       <use xlink:href="#DejaVuSans-61" transform="translate(86.279297 0)"/>
       <use xlink:href="#DejaVuSans-79" transform="translate(147.558594 0)"/>
      </g>
     </g>
    </g>
    <g id="xtick_6">
     <g id="line2d_6">
      <g>
       <use xlink:href="#ma5c35d3958" x="574.597969" y="271.118281" style="stroke: #000000; stroke-width: 0.8"/>
      </g>
     </g>
     <g id="text_6">
      <!-- June -->
      <g transform="translate(564.797813 284.956875) scale(0.09 -0.09)">
       <defs>
        <path id="DejaVuSans-75" d="M 544 1381 
L 544 3500 
L 1119 3500 
L 1119 1403 
Q 1119 906 1312 657 
Q 1506 409 1894 409 
Q 2359 409 2629 706 
Q 2900 1003 2900 1516 
L 2900 3500 
L 3475 3500 
L 3475 0 
L 2900 0 
L 2900 538 
Q 2691 219 2414 64 
Q 2138 -91 1772 -91 
Q 1169 -91 856 284 
Q 544 659 544 1381 
z
M 1991 3584 
L 1991 3584 
z
" transform="scale(0.015625)"/>
       </defs>
       <use xlink:href="#DejaVuSans-4a"/>
       <use xlink:href="#DejaVuSans-75" transform="translate(29.492188 0)"/>
       <use xlink:href="#DejaVuSans-6e" transform="translate(92.871094 0)"/>
       <use xlink:href="#DejaVuSans-65" transform="translate(156.25 0)"/>
      </g>
     </g>
    </g>
   </g>
   <g id="matplotlib.axis_2">
    <g id="ytick_1">
     <g id="line2d_7">
      <defs>
       <path id="m6042672124" d="M 0 0 
L -3.5 0 
" style="stroke: #000000; stroke-width: 0.8"/>
      </defs>
      <g>
       <use xlink:href="#m6042672124" x="42.567969" y="271.118281" style="stroke: #000000; stroke-width: 0.8"/>
      </g>
     </g>
     <g id="text_7">
      <!-- −4 -->
      <g transform="translate(22.3 274.537578) scale(0.09 -0.09)">
       <defs>
        <path id="DejaVuSans-2212" d="M 678 2272 
L 4684 2272 
L 4684 1741 
L 678 1741 
L 678 2272 
z
" transform="scale(0.015625)"/>
        <path id="DejaVuSans-34" d="M 2419 4116 
L 825 1625 
L 2419 1625 
L 2419 4116 
z
M 2253 4666 
L 3047 4666 
L 3047 1625 
L 3713 1625 
L 3713 1100 
L 3047 1100 
L 3047 0 
L 2419 0 
L 2419 1100 
L 313 1100 
L 313 1709 
L 2253 4666 
z
" transform="scale(0.015625)"/>
       </defs>
       <use xlink:href="#DejaVuSans-2212"/>
       <use xlink:href="#DejaVuSans-34" transform="translate(83.789062 0)"/>
      </g>
     </g>
    </g>
    <g id="ytick_2">
     <g id="line2d_8">
      <g>
       <use xlink:href="#m6042672124" x="42.567969" y="208.728281" style="stroke: #000000; stroke-width: 0.8"/>
      </g>
     </g>
     <g id="text_8">
      <!-- −2 -->
      <g transform="translate(22.3 212.147578) scale(0.09 -0.09)">
       <defs>
        <path id="DejaVuSans-32" d="M 1228 531 
L 3431 531 
L 3431 0 
L 469 0 
L 469 531 
Q 828 903 1448 1529 
Q 2069 2156 2228 2338 
Q 2531 2678 2651 2914 
Q 2772 3150 2772 3378 
Q 2772 3750 2511 3984 
Q 2250 4219 1831 4219 
Q 1534 4219 1204 4116 
Q 875 4013 500 3803 
L 500 4441 
Q 881 4594 1212 4672 
Q 1544 4750 1819 4750 
Q 2544 4750 2975 4387 
Q 3406 4025 3406 3419 
Q 3406 3131 3298 2873 
Q 3191 2616 2906 2266 
Q 2828 2175 2409 1742 
Q 1991 1309 1228 531 
z
" transform="scale(0.015625)"/>
       </defs>
       <use xlink:href="#DejaVuSans-2212"/>
       <use xlink:href="#DejaVuSans-32" transform="translate(83.789062 0)"/>
      </g>
     </g>
    </g>
    <g id="ytick_3">
     <g id="line2d_9">
      <g>
       <use xlink:href="#m6042672124" x="42.567969" y="146.338281" style="stroke: #000000; stroke-width: 0.8"/>
      </g>
     </g>
     <g id="text_9">
      <!-- 0 -->
      <g transform="translate(29.841719 149.757578) scale(0.09 -0.09)">
       <defs>
        <path id="DejaVuSans-30" d="M 2034 4250 
Q 1547 4250 1301 3770 
Q 1056 3291 1056 2328 
Q 1056 1369 1301 889 
Q 1547 409 2034 409 
Q 2525 409 2770 889 
Q 3016 1369 3016 2328 
Q 3016 3291 2770 3770 
Q 2525 4250 2034 4250 
z
M 2034 4750 
Q 2819 4750 3233 4129 
Q 3647 3509 3647 2328 
Q 3647 1150 3233 529 
Q 2819 -91 2034 -91 
Q 1250 -91 836 529 
Q 422 1150 422 2328 
Q 422 3509 836 4129 
Q 1250 4750 2034 4750 
z
" transform="scale(0.015625)"/>
       </defs>
       <use xlink:href="#DejaVuSans-30"/>
      </g>
     </g>
    </g>
    <g id="ytick_4">
     <g id="line2d_10">
      <g>
       <use xlink:href="#m6042672124" x="42.567969" y="83.948281" style="stroke: #000000; stroke-width: 0.8"/>
      </g>
     </g>
     <g id="text_10">
      <!-- 2 -->
      <g transform="translate(29.841719 87.367578) scale(0.09 -0.09)">
       <use xlink:href="#DejaVuSans-32"/>
      </g>
     </g>
    </g>
    <g id="ytick_5">
     <g id="line2d_11">
      <g>
       <use xlink:href="#m6042672124" x="42.567969" y="21.558281" style="stroke: #000000; stroke-width: 0.8"/>
      </g>
     </g>
     <g id="text_11">
      <!-- 4 -->
      <g transform="translate(29.841719 24.977578) scale(0.09 -0.09)">
       <use xlink:href="#DejaVuSans-34"/>
      </g>
     </g>
    </g>
    <g id="text_12">
     <!-- Eddy heat flux anomaly v'θ' (K m s$^{-1}$) -->
     <g transform="translate(16.2 240.838281) rotate(-90) scale(0.1 -0.1)">
      <defs>
       <path id="DejaVuSans-45" d="M 628 4666 
L 3578 4666 
L 3578 4134 
L 1259 4134 
L 1259 2753 
L 3481 2753 
L 3481 2222 
L 1259 2222 
L 1259 531 
L 3634 531 
L 3634 0 
L 628 0 
L 628 4666 
z
" transform="scale(0.015625)"/>
       <path id="DejaVuSans-64" d="M 2906 2969 
L 2906 4863 
L 3481 4863 
L 3481 0 
L 2906 0 
L 2906 525 
Q 2725 213 2448 61 
Q 2172 -91 1784 -91 
Q 1150 -91 751 415 
Q 353 922 353 1747 
Q 353 2572 751 3078 
Q 1150 3584 1784 3584 
Q 2172 3584 2448 3432 
Q 2725 3281 2906 2969 
z
M 947 1747 
Q 947 1113 1208 752 
Q 1469 391 1925 391 
Q 2381 391 2643 752 
Q 2906 1113 2906 1747 
Q 2906 2381 2643 2742 
Q 2381 3103 1925 3103 
Q 1469 3103 1208 2742 
Q 947 2381 947 1747 
z
" transform="scale(0.015625)"/>
       <path id="DejaVuSans-20" transform="scale(0.015625)"/>
       <path id="DejaVuSans-68" d="M 3513 2113 
L 3513 0 
L 2938 0 
L 2938 2094 
Q 2938 2591 2744 2837 
Q 2550 3084 2163 3084 
Q 1697 3084 1428 2787 
Q 1159 2491 1159 1978 
L 1159 0 
L 581 0 
L 581 4863 
L 1159 4863 
L 1159 2956 
Q 1366 3272 1645 3428 
Q 1925 3584 2291 3584 
Q 2894 3584 3203 3211 
Q 3513 2838 3513 2113 
z
" transform="scale(0.015625)"/>
       <path id="DejaVuSans-74" d="M 1172 4494 
L 1172 3500 
L 2356 3500 
L 2356 3053 
L 1172 3053 
L 1172 1153 
Q 1172 725 1289 603 
Q 1406 481 1766 481 
L 2356 481 
L 2356 0 
L 1766 0 
Q 1100 0 847 248 
Q 594 497 594 1153 
L 594 3053 
L 172 3053 
L 172 3500 
L 594 3500 
L 594 4494 
L 1172 4494 
z
" transform="scale(0.015625)"/>
       <path id="DejaVuSans-66" d="M 2375 4863 
L 2375 4384 
L 1825 4384 
Q 1516 4384 1395 4259 
Q 1275 4134 1275 3809 
L 1275 3500 
L 2222 3500 
L 2222 3053 
L 1275 3053 
L 1275 0 
L 697 0 
L 697 3053 
L 147 3053 
L 147 3500 
L 697 3500 
L 697 3744 
Q 697 4328 969 4595 
Q 1241 4863 1831 4863 
L 2375 4863 
z
" transform="scale(0.015625)"/>
       <path id="DejaVuSans-6c" d="M 603 4863 
L 1178 4863 
L 1178 0 
L 603 0 
L 603 4863 
z
" transform="scale(0.015625)"/>
       <path id="DejaVuSans-78" d="M 3513 3500 
L 2247 1797 
L 3578 0 
L 2900 0 
L 1881 1375 
L 863 0 
L 184 0 
L 1544 1831 
L 300 3500 
L 978 3500 
L 1906 2253 
L 2834 3500 
L 3513 3500 
z
" transform="scale(0.015625)"/>
       <path id="DejaVuSans-6f" d="M 1959 3097 
Q 1497 3097 1228 2736 
Q 959 2375 959 1747 
Q 959 1119 1226 758 
Q 1494 397 1959 397 
Q 2419 397 2687 759 
Q 2956 1122 2956 1747 
Q 2956 2369 2687 2733 
Q 2419 3097 1959 3097 
z
M 1959 3584 
Q 2709 3584 3137 3096 
Q 3566 2609 3566 1747 
Q 3566 888 3137 398 
Q 2709 -91 1959 -91 
Q 1206 -91 779 398 
Q 353 888 353 1747 
Q 353 2609 779 3096 
Q 1206 3584 1959 3584 
z
" transform="scale(0.015625)"/>
       <path id="DejaVuSans-6d" d="M 3328 2828 
Q 3544 3216 3844 3400 
Q 4144 3584 4550 3584 
Q 5097 3584 5394 3201 
Q 5691 2819 5691 2113 
L 5691 0 
L 5113 0 
L 5113 2094 
Q 5113 2597 4934 2840 
Q 4756 3084 4391 3084 
Q 3944 3084 3684 2787 
Q 3425 2491 3425 1978 
L 3425 0 
L 2847 0 
L 2847 2094 
Q 2847 2600 2669 2842 
Q 2491 3084 2119 3084 
Q 1678 3084 1418 2786 
Q 1159 2488 1159 1978 
L 1159 0 
L 581 0 
L 581 3500 
L 1159 3500 
L 1159 2956 
Q 1356 3278 1631 3431 
Q 1906 3584 2284 3584 
Q 2666 3584 2933 3390 
Q 3200 3197 3328 2828 
z
" transform="scale(0.015625)"/>
       <path id="DejaVuSans-76" d="M 191 3500 
L 800 3500 
L 1894 563 
L 2988 3500 
L 3597 3500 
L 2284 0 
L 1503 0 
L 191 3500 
z
" transform="scale(0.015625)"/>
       <path id="DejaVuSans-27" d="M 1147 4666 
L 1147 2931 
L 616 2931 
L 616 4666 
L 1147 4666 
z
" transform="scale(0.015625)"/>
       <path id="DejaVuSans-3b8" d="M 2953 2219 
L 963 2219 
Q 1009 1284 1225 888 
Q 1494 400 1959 400 
Q 2428 400 2688 891 
Q 2916 1322 2953 2219 
z
M 2944 2750 
Q 2856 3638 2688 3950 
Q 2419 4444 1959 4444 
Q 1481 4444 1228 3956 
Q 1028 3563 969 2750 
L 2944 2750 
z
M 1959 4913 
Q 2709 4913 3138 4250 
Q 3566 3591 3566 2422 
Q 3566 1256 3138 594 
Q 2709 -72 1959 -72 
Q 1206 -72 781 594 
Q 353 1256 353 2422 
Q 353 3591 781 4250 
Q 1206 4913 1959 4913 
z
" transform="scale(0.015625)"/>
       <path id="DejaVuSans-28" d="M 1984 4856 
Q 1566 4138 1362 3434 
Q 1159 2731 1159 2009 
Q 1159 1288 1364 580 
Q 1569 -128 1984 -844 
L 1484 -844 
Q 1016 -109 783 600 
Q 550 1309 550 2009 
Q 550 2706 781 3412 
Q 1013 4119 1484 4856 
L 1984 4856 
z
" transform="scale(0.015625)"/>
       <path id="DejaVuSans-4b" d="M 628 4666 
L 1259 4666 
L 1259 2694 
L 3353 4666 
L 4166 4666 
L 1850 2491 
L 4331 0 
L 3500 0 
L 1259 2247 
L 1259 0 
L 628 0 
L 628 4666 
z
" transform="scale(0.015625)"/>
       <path id="DejaVuSans-73" d="M 2834 3397 
L 2834 2853 
Q 2591 2978 2328 3040 
Q 2066 3103 1784 3103 
Q 1356 3103 1142 2972 
Q 928 2841 928 2578 
Q 928 2378 1081 2264 
Q 1234 2150 1697 2047 
L 1894 2003 
Q 2506 1872 2764 1633 
Q 3022 1394 3022 966 
Q 3022 478 2636 193 
Q 2250 -91 1575 -91 
Q 1294 -91 989 -36 
Q 684 19 347 128 
L 347 722 
Q 666 556 975 473 
Q 1284 391 1588 391 
Q 1994 391 2212 530 
Q 2431 669 2431 922 
Q 2431 1156 2273 1281 
Q 2116 1406 1581 1522 
L 1381 1569 
Q 847 1681 609 1914 
Q 372 2147 372 2553 
Q 372 3047 722 3315 
Q 1072 3584 1716 3584 
Q 2034 3584 2315 3537 
Q 2597 3491 2834 3397 
z
" transform="scale(0.015625)"/>
       <path id="DejaVuSans-31" d="M 794 531 
L 1825 531 
L 1825 4091 
L 703 3866 
L 703 4441 
L 1819 4666 
L 2450 4666 
L 2450 531 
L 3481 531 
L 3481 0 
L 794 0 
L 794 531 
z
" transform="scale(0.015625)"/>
       <path id="DejaVuSans-29" d="M 513 4856 
L 1013 4856 
Q 1481 4119 1714 3412 
Q 1947 2706 1947 2009 
Q 1947 1309 1714 600 
Q 1481 -109 1013 -844 
L 513 -844 
Q 928 -128 1133 580 
Q 1338 1288 1338 2009 
Q 1338 2731 1133 3434 
Q 928 4138 513 4856 
z
" transform="scale(0.015625)"/>
      </defs>
      <use xlink:href="#DejaVuSans-45" transform="translate(0 0.684375)"/>
      <use xlink:href="#DejaVuSans-64" transform="translate(63.183594 0.684375)"/>
      <use xlink:href="#DejaVuSans-64" transform="translate(126.660156 0.684375)"/>
      <use xlink:href="#DejaVuSans-79" transform="translate(190.136719 0.684375)"/>
      <use xlink:href="#DejaVuSans-20" transform="translate(249.316406 0.684375)"/>
      <use xlink:href="#DejaVuSans-68" transform="translate(281.103516 0.684375)"/>
      <use xlink:href="#DejaVuSans-65" transform="translate(344.482422 0.684375)"/>
      <use xlink:href="#DejaVuSans-61" transform="translate(406.005859 0.684375)"/>
      <use xlink:href="#DejaVuSans-74" transform="translate(467.285156 0.684375)"/>
      <use xlink:href="#DejaVuSans-20" transform="translate(506.494141 0.684375)"/>
      <use xlink:href="#DejaVuSans-66" transform="translate(538.28125 0.684375)"/>
      <use xlink:href="#DejaVuSans-6c" transform="translate(573.486328 0.684375)"/>
      <use xlink:href="#DejaVuSans-75" transform="translate(601.269531 0.684375)"/>
      <use xlink:href="#DejaVuSans-78" transform="translate(664.648438 0.684375)"/>
      <use xlink:href="#DejaVuSans-20" transform="translate(723.828125 0.684375)"/>
      <use xlink:href="#DejaVuSans-61" transform="translate(755.615234 0.684375)"/>
      <use xlink:href="#DejaVuSans-6e" transform="translate(816.894531 0.684375)"/>
      <use xlink:href="#DejaVuSans-6f" transform="translate(880.273438 0.684375)"/>
      <use xlink:href="#DejaVuSans-6d" transform="translate(941.455078 0.684375)"/>
      <use xlink:href="#DejaVuSans-61" transform="translate(1038.867188 0.684375)"/>
      <use xlink:href="#DejaVuSans-6c" transform="translate(1100.146484 0.684375)"/>
      <use xlink:href="#DejaVuSans-79" transform="translate(1127.929688 0.684375)"/>
      <use xlink:href="#DejaVuSans-20" transform="translate(1187.109375 0.684375)"/>
      <use xlink:href="#DejaVuSans-76" transform="translate(1218.896484 0.684375)"/>
      <use xlink:href="#DejaVuSans-27" transform="translate(1278.076172 0.684375)"/>
      <use xlink:href="#DejaVuSans-3b8" transform="translate(1305.566406 0.684375)"/>
      <use xlink:href="#DejaVuSans-27" transform="translate(1366.748047 0.684375)"/>
      <use xlink:href="#DejaVuSans-20" transform="translate(1394.238281 0.684375)"/>
      <use xlink:href="#DejaVuSans-28" transform="translate(1426.025391 0.684375)"/>
      <use xlink:href="#DejaVuSans-4b" transform="translate(1465.039062 0.684375)"/>
      <use xlink:href="#DejaVuSans-20" transform="translate(1530.615234 0.684375)"/>
      <use xlink:href="#DejaVuSans-6d" transform="translate(1562.402344 0.684375)"/>
      <use xlink:href="#DejaVuSans-20" transform="translate(1659.814453 0.684375)"/>
      <use xlink:href="#DejaVuSans-73" transform="translate(1691.601562 0.684375)"/>
      <use xlink:href="#DejaVuSans-2212" transform="translate(1744.658203 38.965625) scale(0.7)"/>
      <use xlink:href="#DejaVuSans-31" transform="translate(1803.310547 38.965625) scale(0.7)"/>
      <use xlink:href="#DejaVuSans-29" transform="translate(1850.581055 0.684375)"/>
     </g>
    </g>
   </g>
   <g id="line2d_12">
    <path d="M 42.567969 263.495244 
L 46.091346 262.950184 
L 49.614724 261.986065 
L 53.138101 259.813962 
L 56.661479 258.63368 
L 63.708234 257.933906 
L 67.231611 256.790091 
L 70.754989 253.85377 
L 74.278366 251.719627 
L 81.325121 248.508375 
L 84.848499 248.512794 
L 88.371876 247.808673 
L 95.418631 244.238895 
L 98.942008 242.596138 
L 102.465386 242.0081 
L 105.988763 242.883376 
L 109.512141 244.285734 
L 113.035518 242.640098 
L 120.082273 234.768607 
L 123.605651 232.036015 
L 127.129028 228.703534 
L 130.652406 225.589633 
L 134.175783 225.434947 
L 137.699161 228.222491 
L 141.222538 230.788781 
L 144.745916 232.273005 
L 148.269293 232.637311 
L 151.792671 234.114071 
L 155.316048 234.019078 
L 158.839426 232.568206 
L 162.362803 230.469895 
L 165.886181 227.887043 
L 169.409558 225.655459 
L 172.932936 223.692312 
L 176.456313 221.479437 
L 179.979691 218.618983 
L 190.549823 205.707694 
L 194.073201 203.157349 
L 197.596578 201.172451 
L 201.119956 198.491186 
L 204.643333 197.650136 
L 208.16671 198.091174 
L 211.690088 197.217481 
L 215.213465 195.256944 
L 222.26022 193.246868 
L 225.783598 191.50584 
L 229.306975 189.476619 
L 232.830353 188.432836 
L 236.35373 189.127995 
L 239.877108 190.981946 
L 243.400485 190.610995 
L 246.923863 186.988295 
L 250.44724 184.029287 
L 253.970618 182.022525 
L 257.493995 178.553531 
L 261.017373 177.686744 
L 264.54075 179.306146 
L 268.064128 181.814146 
L 271.587505 183.642701 
L 275.110883 184.694654 
L 278.63426 185.127715 
L 282.157638 185.801585 
L 285.681015 186.613795 
L 289.204393 188.056837 
L 292.72777 188.81373 
L 296.251148 189.437143 
L 299.774525 190.17587 
L 303.297903 190.045798 
L 306.82128 188.161764 
L 310.344657 184.140703 
L 313.868035 179.909998 
L 317.391412 175.984642 
L 320.91479 171.562361 
L 324.438167 167.359729 
L 327.961545 163.701918 
L 331.484922 160.60922 
L 335.0083 157.99921 
L 338.531677 154.006785 
L 342.055055 149.199104 
L 345.578432 143.896814 
L 349.10181 139.955581 
L 352.625187 138.947942 
L 356.148565 138.552144 
L 359.671942 136.358335 
L 363.19532 132.998634 
L 366.718697 127.400433 
L 370.242075 118.88988 
L 373.765452 108.659045 
L 377.28883 98.850411 
L 380.812207 90.336866 
L 384.335585 83.282815 
L 387.858962 77.387504 
L 391.38234 71.733277 
L 394.905717 66.549963 
L 398.429095 61.617837 
L 405.47585 51.093145 
L 408.999227 47.697085 
L 412.522605 46.883245 
L 416.045982 47.742566 
L 419.569359 49.206469 
L 426.616114 52.452867 
L 430.139492 53.399131 
L 433.662869 53.999993 
L 437.186247 54.973728 
L 440.709624 55.677012 
L 444.233002 56.776138 
L 447.756379 57.678968 
L 451.279757 57.42025 
L 454.803134 55.990113 
L 458.326512 53.99922 
L 461.849889 51.771087 
L 465.373267 51.174347 
L 468.896644 51.653428 
L 472.420022 53.307524 
L 475.943399 57.391079 
L 479.466777 62.846561 
L 482.990154 67.75236 
L 490.036909 76.624236 
L 493.560287 80.109358 
L 497.083664 83.289103 
L 500.607042 87.35105 
L 504.130419 90.944309 
L 507.653797 93.288123 
L 511.177174 95.062892 
L 514.700552 96.131199 
L 518.223929 96.119021 
L 521.747306 95.163072 
L 525.270684 93.896198 
L 528.794061 93.005953 
L 532.317439 92.507951 
L 535.840816 92.50198 
L 539.364194 93.351014 
L 542.887571 94.885912 
L 546.410949 96.217845 
L 549.934326 96.580636 
L 553.457704 96.100564 
L 556.981081 95.476134 
L 560.504459 95.319681 
L 567.551214 96.127314 
L 571.074591 96.125852 
L 571.074591 96.125852 
" clip-path="url(#pdadcc29c8c)" style="fill: none; stroke: #000080; stroke-width: 1.7; stroke-linecap: square"/>
   </g>
   <g id="line2d_13">
    <path d="M 42.567969 83.148199 
L 46.091346 81.457882 
L 49.614724 78.704234 
L 53.138101 76.130229 
L 56.661479 71.193256 
L 60.184856 63.355999 
L 63.708234 54.246484 
L 67.231611 47.252324 
L 70.754989 43.422549 
L 74.278366 44.224716 
L 77.801744 47.618812 
L 81.325121 52.241655 
L 84.848499 57.458399 
L 88.371876 61.692165 
L 91.895254 62.882281 
L 95.418631 60.311992 
L 98.942008 55.688543 
L 102.465386 52.822512 
L 105.988763 52.604285 
L 109.512141 52.497483 
L 113.035518 52.580538 
L 116.558896 54.078111 
L 120.082273 58.613447 
L 123.605651 67.27892 
L 127.129028 77.406011 
L 130.652406 85.232916 
L 134.175783 89.250183 
L 137.699161 89.270127 
L 141.222538 88.302192 
L 144.745916 88.299714 
L 148.269293 89.017675 
L 151.792671 91.321752 
L 158.839426 99.583691 
L 162.362803 104.298742 
L 169.409558 115.246835 
L 176.456313 126.909866 
L 179.979691 130.028763 
L 183.503068 131.216498 
L 187.026446 130.789276 
L 190.549823 129.397821 
L 194.073201 126.500875 
L 197.596578 124.302304 
L 201.119956 125.65878 
L 204.643333 127.860365 
L 208.16671 126.984891 
L 211.690088 123.765141 
L 215.213465 121.356132 
L 218.736843 120.943651 
L 222.26022 120.778865 
L 225.783598 118.846063 
L 229.306975 113.966237 
L 232.830353 108.527382 
L 236.35373 104.677489 
L 239.877108 103.452115 
L 243.400485 105.751587 
L 250.44724 115.9407 
L 253.970618 119.383114 
L 257.493995 121.691474 
L 261.017373 122.495524 
L 264.54075 121.38934 
L 268.064128 117.425074 
L 271.587505 112.971221 
L 278.63426 107.068286 
L 282.157638 103.224295 
L 285.681015 99.727525 
L 289.204393 97.869385 
L 292.72777 97.754435 
L 296.251148 98.668867 
L 299.774525 102.051054 
L 303.297903 105.954606 
L 306.82128 108.652067 
L 310.344657 112.730701 
L 313.868035 118.368352 
L 320.91479 130.227916 
L 324.438167 135.431308 
L 327.961545 140.283103 
L 331.484922 144.572056 
L 335.0083 148.594507 
L 338.531677 153.526758 
L 345.578432 165.001961 
L 349.10181 169.621548 
L 352.625187 172.275365 
L 356.148565 174.572006 
L 359.671942 179.245391 
L 363.19532 186.292549 
L 366.718697 194.452192 
L 370.242075 203.915658 
L 373.765452 214.310503 
L 377.28883 223.631467 
L 380.812207 231.713316 
L 384.335585 238.566862 
L 387.858962 243.766133 
L 391.38234 248.057653 
L 394.905717 250.710656 
L 401.952472 254.308337 
L 405.47585 255.281723 
L 408.999227 256.431006 
L 416.045982 259.118711 
L 419.569359 261.118385 
L 423.092737 262.637535 
L 426.616114 262.548233 
L 430.139492 261.451124 
L 433.662869 259.263813 
L 437.186247 256.516351 
L 440.709624 253.252889 
L 444.233002 249.174348 
L 447.756379 244.507662 
L 451.279757 239.266317 
L 454.803134 234.485072 
L 458.326512 230.434053 
L 461.849889 226.952409 
L 465.373267 222.760213 
L 472.420022 213.286909 
L 475.943399 208.599065 
L 479.466777 204.315512 
L 482.990154 200.726387 
L 486.513532 196.718489 
L 490.036909 192.31803 
L 493.560287 189.072786 
L 497.083664 186.315115 
L 504.130419 180.465141 
L 507.653797 178.102765 
L 511.177174 175.929328 
L 514.700552 173.981501 
L 518.223929 171.811108 
L 521.747306 169.056999 
L 525.270684 166.03771 
L 528.794061 163.893147 
L 532.317439 163.155799 
L 539.364194 162.990811 
L 542.887571 162.814594 
L 549.934326 163.735926 
L 553.457704 164.211438 
L 556.981081 164.882093 
L 564.027836 166.607279 
L 567.551214 167.04585 
L 571.074591 167.094491 
L 571.074591 167.094491 
" clip-path="url(#pdadcc29c8c)" style="fill: none; stroke: #b22222; stroke-width: 1.7; stroke-linecap: square"/>
   </g>
   <g id="line2d_14">
    <path d="M 42.567969 230.244063 
L 46.091346 231.364525 
L 49.614724 233.605629 
L 53.138101 236.246194 
L 56.661479 237.106873 
L 60.184856 236.511768 
L 63.708234 236.959662 
L 67.231611 240.570427 
L 70.754989 245.694509 
L 74.278366 252.438195 
L 77.801744 260.489882 
L 81.325121 267.819518 
L 84.848499 272.816542 
L 88.371876 274.908846 
L 91.895254 276.704795 
L 95.418631 280.832105 
L 98.942008 283.190244 
L 102.465386 283.533379 
L 109.512141 285.375185 
L 113.035518 285.1395 
L 116.558896 283.900308 
L 123.605651 282.609813 
L 127.129028 284.896833 
L 130.652406 289.646916 
L 134.117616 295.028594 
M 149.103443 295.028594 
L 151.792671 288.054022 
L 155.316048 280.061561 
L 158.839426 274.494133 
L 162.362803 273.307383 
L 165.886181 274.138791 
L 169.409558 272.89361 
L 172.932936 269.235547 
L 176.456313 266.142088 
L 179.979691 263.818654 
L 183.503068 262.601937 
L 187.026446 262.422874 
L 190.549823 263.408882 
L 194.073201 266.714267 
L 197.596578 269.261419 
L 201.119956 267.421623 
L 204.643333 262.805338 
L 208.16671 257.458889 
L 211.690088 251.410379 
L 215.213465 245.796704 
L 218.736843 242.05632 
L 222.26022 238.936716 
L 225.783598 237.301264 
L 229.306975 238.509404 
L 232.830353 238.634993 
L 236.35373 237.649275 
L 239.877108 235.986097 
L 243.400485 235.218921 
L 246.923863 235.63203 
L 250.44724 238.828173 
L 253.970618 245.607891 
L 257.493995 252.866991 
L 261.017373 257.542741 
L 264.54075 256.742079 
L 268.064128 251.019243 
L 271.587505 244.860365 
L 275.110883 240.50228 
L 278.63426 235.461707 
L 285.681015 220.807279 
L 289.204393 216.019301 
L 292.72777 212.21167 
L 296.251148 209.375995 
L 299.774525 206.238659 
L 303.297903 202.400877 
L 306.82128 200.414629 
L 310.344657 200.073314 
L 313.868035 199.947078 
L 317.391412 198.694708 
L 320.91479 195.66392 
L 324.438167 192.229053 
L 327.961545 191.060389 
L 331.484922 190.446858 
L 335.0083 187.936937 
L 338.531677 183.086831 
L 345.578432 169.288387 
L 349.10181 163.883711 
L 352.625187 159.714763 
L 356.148565 155.933664 
L 363.19532 148.883309 
L 366.718697 145.135005 
L 370.242075 142.988215 
L 373.765452 141.730547 
L 377.28883 140.616762 
L 380.812207 141.014992 
L 384.335585 143.722238 
L 387.858962 147.356721 
L 391.38234 149.206029 
L 394.905717 147.161858 
L 398.429095 143.036529 
L 401.952472 139.56604 
L 405.47585 138.060501 
L 408.999227 137.462875 
L 412.522605 134.953309 
L 416.045982 131.130864 
L 419.569359 127.022179 
L 423.092737 123.451218 
L 426.616114 120.363571 
L 430.139492 115.00474 
L 433.662869 106.995391 
L 437.186247 99.472235 
L 440.709624 93.965179 
L 444.233002 91.084459 
L 447.756379 91.050566 
L 451.279757 92.216329 
L 454.803134 92.846584 
L 458.326512 92.200466 
L 461.849889 89.969643 
L 465.373267 86.413518 
L 468.896644 83.702946 
L 472.420022 82.225339 
L 475.943399 81.618277 
L 482.990154 81.035449 
L 486.513532 80.242443 
L 490.036909 79.145426 
L 493.560287 78.48079 
L 497.083664 79.050599 
L 500.607042 81.459257 
L 504.130419 85.344707 
L 507.653797 88.243667 
L 511.177174 89.103744 
L 514.700552 89.687516 
L 518.223929 91.570298 
L 521.747306 94.681703 
L 525.270684 98.841345 
L 528.794061 103.460587 
L 532.317439 108.832459 
L 535.840816 115.284738 
L 539.364194 122.434348 
L 542.887571 128.684261 
L 546.410949 133.14121 
L 549.934326 135.989283 
L 553.457704 137.546484 
L 556.981081 138.206265 
L 560.504459 138.384402 
L 564.027836 138.750758 
L 567.551214 139.635797 
L 571.074591 140.947793 
L 571.074591 140.947793 
" clip-path="url(#pdadcc29c8c)" style="fill: none; stroke-dasharray: 1.6,2.64; stroke-dashoffset: 0; stroke: #000080; stroke-width: 1.6"/>
   </g>
   <g id="line2d_15">
    <path d="M 42.567969 44.055794 
L 46.091346 42.189422 
L 49.614724 38.701518 
L 53.138101 36.27337 
L 56.661479 32.778598 
L 60.184856 26.851294 
L 63.708234 20.204027 
L 67.231611 15.964329 
L 70.754989 15.29294 
L 74.278366 15.128974 
L 77.801744 13.386089 
L 81.325121 12.497524 
L 84.848499 14.080685 
L 88.371876 16.561514 
L 91.895254 19.707185 
L 98.942008 26.367681 
L 102.465386 31.575885 
L 105.988763 37.85264 
L 109.512141 42.413961 
L 113.035518 42.631079 
L 116.558896 40.485352 
L 120.082273 39.548686 
L 123.605651 42.514043 
L 130.652406 56.56356 
L 134.175783 62.296239 
L 137.699161 66.492897 
L 141.222538 69.377508 
L 144.745916 71.790795 
L 151.792671 78.291374 
L 155.316048 79.74886 
L 158.839426 79.334899 
L 162.362803 79.641399 
L 165.886181 83.447409 
L 169.409558 89.639892 
L 172.932936 94.184425 
L 176.456313 95.474117 
L 179.979691 95.198176 
L 183.503068 95.546382 
L 187.026446 95.779323 
L 190.549823 94.208928 
L 194.073201 91.04251 
L 197.596578 87.683426 
L 201.119956 85.567309 
L 204.643333 85.967492 
L 208.16671 88.42717 
L 211.690088 91.634807 
L 215.213465 93.175791 
L 218.736843 95.520461 
L 222.26022 98.474278 
L 225.783598 100.199787 
L 229.306975 101.320291 
L 236.35373 99.951347 
L 239.877108 100.696072 
L 243.400485 101.813216 
L 246.923863 103.686836 
L 253.970618 106.493111 
L 257.493995 109.982569 
L 261.017373 116.008804 
L 264.54075 123.688336 
L 268.064128 130.816208 
L 271.587505 136.393795 
L 278.63426 143.828221 
L 282.157638 148.452339 
L 285.681015 152.64294 
L 289.204393 157.163658 
L 296.251148 169.602513 
L 303.297903 182.991277 
L 306.82128 187.440044 
L 310.344657 189.440697 
L 313.868035 190.210483 
L 317.391412 190.841199 
L 320.91479 193.43678 
L 324.438167 196.531178 
L 327.961545 199.366042 
L 331.484922 201.954257 
L 335.0083 202.736044 
L 338.531677 203.130607 
L 342.055055 204.123421 
L 345.578432 204.308223 
L 349.10181 203.393574 
L 352.625187 202.740583 
L 356.148565 203.354869 
L 359.671942 203.76886 
L 366.718697 203.620331 
L 370.242075 202.7907 
L 373.765452 202.892133 
L 377.28883 203.287386 
L 380.812207 202.938632 
L 384.335585 200.296618 
L 387.858962 195.84779 
L 394.905717 188.061616 
L 398.429095 183.307476 
L 401.952472 178.85486 
L 405.47585 173.97651 
L 408.999227 168.884396 
L 412.522605 165.019319 
L 416.045982 162.579314 
L 419.569359 159.467143 
L 423.092737 155.258979 
L 426.616114 149.911269 
L 430.139492 145.010013 
L 433.662869 141.636024 
L 437.186247 138.999769 
L 440.709624 137.049566 
L 444.233002 135.46416 
L 447.756379 133.452299 
L 451.279757 131.603513 
L 454.803134 131.002185 
L 458.326512 131.217645 
L 461.849889 131.548667 
L 465.373267 131.376983 
L 468.896644 130.010383 
L 472.420022 127.494612 
L 479.466777 121.862331 
L 482.990154 120.07662 
L 486.513532 119.237874 
L 490.036909 119.549687 
L 497.083664 122.55428 
L 500.607042 123.684892 
L 504.130419 124.231753 
L 507.653797 124.612568 
L 511.177174 125.465328 
L 518.223929 128.338024 
L 521.747306 129.339528 
L 525.270684 129.654831 
L 532.317439 129.190217 
L 535.840816 128.364335 
L 539.364194 126.989307 
L 542.887571 126.077889 
L 546.410949 125.791844 
L 549.934326 126.017854 
L 553.457704 126.565255 
L 560.504459 128.531495 
L 567.551214 130.752305 
L 571.074591 131.967322 
L 571.074591 131.967322 
" clip-path="url(#pdadcc29c8c)" style="fill: none; stroke-dasharray: 1.6,2.64; stroke-dashoffset: 0; stroke: #b22222; stroke-width: 1.6"/>
   </g>
   <g id="line2d_16">
    <path d="M 42.567969 229.58745 
L 46.091346 237.44672 
L 49.614724 244.875559 
L 53.138101 250.520516 
L 56.661479 254.904287 
L 63.708234 264.111874 
L 67.231611 266.421593 
L 70.754989 266.730576 
L 74.278366 266.595892 
L 77.801744 267.05098 
L 81.325121 264.842953 
L 84.848499 261.786807 
L 88.371876 260.724536 
L 91.895254 260.338818 
L 95.418631 260.372937 
L 98.942008 259.860617 
L 102.465386 257.887295 
L 105.988763 257.034364 
L 109.512141 258.570524 
L 116.558896 266.862059 
L 120.082273 268.512323 
L 123.605651 267.439176 
L 127.129028 266.238505 
L 130.652406 264.182197 
L 134.175783 259.301309 
L 137.699161 251.457513 
L 141.222538 243.26138 
L 148.269293 228.652802 
L 151.792671 220.297574 
L 155.316048 212.336962 
L 158.839426 206.247229 
L 162.362803 201.447231 
L 165.886181 194.70445 
L 169.409558 188.463198 
L 172.932936 183.119327 
L 176.456313 177.5581 
L 179.979691 172.99628 
L 183.503068 169.063081 
L 187.026446 165.694205 
L 190.549823 163.849495 
L 194.073201 163.720031 
L 197.596578 164.810909 
L 201.119956 166.993959 
L 204.643333 171.603392 
L 208.16671 176.715994 
L 211.690088 179.747395 
L 215.213465 181.302975 
L 218.736843 181.773986 
L 222.26022 180.326757 
L 225.783598 178.343384 
L 229.306975 175.772707 
L 232.830353 171.87352 
L 236.35373 169.535505 
L 239.877108 169.01591 
L 243.400485 170.68057 
L 246.923863 171.323589 
L 253.970618 168.994525 
L 257.493995 170.859838 
L 261.017373 173.853133 
L 264.54075 176.376068 
L 268.064128 177.710967 
L 271.587505 181.509023 
L 275.110883 187.734652 
L 278.63426 197.382409 
L 282.157638 209.069125 
L 285.681015 218.194969 
L 289.204393 222.93353 
L 292.72777 225.788911 
L 296.251148 227.78689 
L 299.774525 228.795759 
L 303.297903 228.393188 
L 306.82128 227.644523 
L 310.344657 226.774645 
L 313.868035 226.594971 
L 317.391412 228.003407 
L 320.91479 229.245383 
L 324.438167 226.946159 
L 327.961545 222.896577 
L 331.484922 219.090107 
L 335.0083 217.059611 
L 338.531677 218.499622 
L 342.055055 220.438446 
L 345.578432 221.392284 
L 349.10181 220.164789 
L 352.625187 217.370159 
L 356.148565 215.30296 
L 359.671942 212.610835 
L 363.19532 206.490555 
L 366.718697 198.682312 
L 377.28883 173.962097 
L 380.812207 164.46685 
L 384.335585 153.312561 
L 387.858962 141.69247 
L 391.38234 131.786055 
L 394.905717 125.265037 
L 398.429095 121.414151 
L 401.952472 118.060812 
L 405.47585 115.097175 
L 408.999227 113.853213 
L 416.045982 113.492359 
L 419.569359 112.822351 
L 423.092737 109.764019 
L 426.616114 106.48053 
L 430.139492 105.459369 
L 433.662869 105.761115 
L 437.186247 106.280563 
L 440.709624 106.356941 
L 447.756379 103.81229 
L 451.279757 103.105029 
L 454.803134 103.003168 
L 458.326512 104.247087 
L 461.849889 105.672095 
L 465.373267 107.958208 
L 468.896644 112.480374 
L 472.420022 117.785791 
L 475.943399 122.648192 
L 479.466777 127.178871 
L 482.990154 131.022332 
L 486.513532 135.167563 
L 490.036909 139.747186 
L 493.560287 143.717399 
L 497.083664 146.171838 
L 500.607042 146.900824 
L 504.130419 146.570934 
L 507.653797 146.058469 
L 511.177174 145.829973 
L 514.700552 145.405681 
L 518.223929 144.495814 
L 521.747306 143.135312 
L 525.270684 142.054304 
L 528.794061 141.814453 
L 532.317439 142.016221 
L 535.840816 142.721146 
L 542.887571 144.809901 
L 546.410949 145.557401 
L 549.934326 145.988674 
L 553.457704 146.086013 
L 556.981081 146.66485 
L 560.504459 147.528455 
L 564.027836 148.031916 
L 567.551214 148.046095 
L 571.074591 147.346643 
L 571.074591 147.346643 
" clip-path="url(#pdadcc29c8c)" style="fill: none; stroke-dasharray: 5.92,2.56; stroke-dashoffset: 0; stroke: #000080; stroke-width: 1.6"/>
   </g>
   <g id="line2d_17">
    <path d="M 42.567969 71.367047 
L 46.091346 79.113895 
L 49.614724 88.130011 
L 53.138101 95.657579 
L 56.661479 102.248724 
L 63.708234 114.351675 
L 67.231611 121.2658 
L 74.278366 135.740649 
L 77.801744 143.522574 
L 81.325121 152.268988 
L 84.848499 159.46239 
L 88.371876 166.120351 
L 91.895254 171.944323 
L 95.418631 174.632315 
L 98.942008 173.407021 
L 102.465386 169.427264 
L 105.988763 164.275535 
L 109.512141 158.799224 
L 113.035518 154.606929 
L 116.558896 151.40373 
L 120.082273 149.338339 
L 123.605651 147.413966 
L 127.129028 142.870343 
L 130.652406 137.431809 
L 134.175783 133.833351 
L 137.699161 131.934346 
L 141.222538 128.704902 
L 144.745916 126.042569 
L 148.269293 122.904592 
L 151.792671 118.23648 
L 155.316048 115.465059 
L 158.839426 113.377127 
L 162.362803 110.402463 
L 165.886181 106.966807 
L 169.409558 104.042394 
L 172.932936 101.528186 
L 187.026446 92.546555 
L 190.549823 91.707643 
L 194.073201 91.104083 
L 197.596578 88.530783 
L 201.119956 84.895352 
L 204.643333 81.579706 
L 208.16671 77.85834 
L 211.690088 74.838161 
L 215.213465 74.161195 
L 218.736843 74.496052 
L 222.26022 76.716232 
L 225.783598 80.173358 
L 229.306975 83.231686 
L 232.830353 87.283713 
L 236.35373 92.267955 
L 239.877108 96.197299 
L 243.400485 98.206611 
L 246.923863 99.985165 
L 250.44724 101.320121 
L 253.970618 103.152034 
L 257.493995 105.578355 
L 261.017373 107.173897 
L 264.54075 107.953998 
L 268.064128 108.945587 
L 271.587505 109.581255 
L 275.110883 108.845526 
L 278.63426 107.22041 
L 282.157638 106.49333 
L 285.681015 107.116726 
L 289.204393 108.068174 
L 292.72777 109.244874 
L 296.251148 109.714822 
L 299.774525 110.843601 
L 303.297903 114.519888 
L 306.82128 119.855578 
L 310.344657 124.93754 
L 313.868035 129.591871 
L 317.391412 133.303198 
L 320.91479 135.16019 
L 324.438167 136.550288 
L 327.961545 135.81605 
L 331.484922 132.410924 
L 335.0083 129.275514 
L 338.531677 127.743718 
L 342.055055 127.270498 
L 345.578432 127.629751 
L 349.10181 128.638792 
L 352.625187 130.02408 
L 359.671942 131.83057 
L 363.19532 133.453756 
L 366.718697 135.579279 
L 370.242075 139.107398 
L 373.765452 143.867157 
L 377.28883 149.577629 
L 380.812207 155.524957 
L 384.335585 160.458433 
L 387.858962 163.8497 
L 391.38234 165.742087 
L 394.905717 166.645232 
L 398.429095 167.104368 
L 401.952472 168.043741 
L 405.47585 168.465992 
L 408.999227 168.057921 
L 412.522605 168.301963 
L 416.045982 169.20963 
L 419.569359 170.647412 
L 423.092737 172.259392 
L 426.616114 173.995138 
L 430.139492 175.584204 
L 433.662869 177.983201 
L 437.186247 181.228716 
L 440.709624 184.072674 
L 444.233002 185.077303 
L 447.756379 183.861074 
L 451.279757 182.461972 
L 454.803134 181.189013 
L 458.326512 179.791389 
L 465.373267 177.427098 
L 475.943399 171.030989 
L 479.466777 168.081392 
L 482.990154 164.129379 
L 486.513532 160.55018 
L 490.036909 158.309729 
L 493.560287 156.473528 
L 497.083664 154.86305 
L 500.607042 154.113329 
L 504.130419 154.012472 
L 507.653797 153.759091 
L 511.177174 153.106359 
L 514.700552 151.630119 
L 518.223929 149.503136 
L 525.270684 145.798179 
L 532.317439 140.903031 
L 535.840816 139.171768 
L 539.364194 138.225769 
L 546.410949 137.077421 
L 549.934326 136.898509 
L 553.457704 137.478903 
L 556.981081 137.654589 
L 564.027836 137.102638 
L 567.551214 137.154205 
L 571.074591 137.416699 
L 571.074591 137.416699 
" clip-path="url(#pdadcc29c8c)" style="fill: none; stroke-dasharray: 5.92,2.56; stroke-dashoffset: 0; stroke: #b22222; stroke-width: 1.6"/>
   </g>
   <g id="line2d_18">
    <path d="M 42.567969 146.338281 
L 574.597969 146.338281 
" clip-path="url(#pdadcc29c8c)" style="fill: none; stroke: #404040; stroke-width: 0.8; stroke-linecap: square"/>
   </g>
   <g id="patch_3">
    <path d="M 42.567969 271.118281 
L 42.567969 21.558281 
" style="fill: none; stroke: #000000; stroke-linejoin: miter; stroke-linecap: square"/>
   </g>
   <g id="patch_4">
    <path d="M 574.597969 271.118281 
L 574.597969 21.558281 
" style="fill: none; stroke: #000000; stroke-linejoin: miter; stroke-linecap: square"/>
   </g>
   <g id="patch_5">
    <path d="M 42.567969 271.118281 
L 574.597969 271.118281 
" style="fill: none; stroke: #000000; stroke-linejoin: miter; stroke-linecap: square"/>
   </g>
   <g id="patch_6">
    <path d="M 42.567969 21.558281 
L 574.597969 21.558281 
" style="fill: none; stroke: #000000; stroke-linejoin: miter; stroke-linecap: square"/>
   </g>
   <g id="text_13">
    <!-- Figure A5-style 100 hPa eddy heat flux anomalies: INT-3D, CLIM-3D, CLIM-2D -->
    <g transform="translate(97.329688 15.558281) scale(0.11 -0.11)">
     <defs>
      <path id="DejaVuSans-69" d="M 603 3500 
L 1178 3500 
L 1178 0 
L 603 0 
L 603 3500 
z
M 603 4863 
L 1178 4863 
L 1178 4134 
L 603 4134 
L 603 4863 
z
" transform="scale(0.015625)"/>
      <path id="DejaVuSans-67" d="M 2906 1791 
Q 2906 2416 2648 2759 
Q 2391 3103 1925 3103 
Q 1463 3103 1205 2759 
Q 947 2416 947 1791 
Q 947 1169 1205 825 
Q 1463 481 1925 481 
Q 2391 481 2648 825 
Q 2906 1169 2906 1791 
z
M 3481 434 
Q 3481 -459 3084 -895 
Q 2688 -1331 1869 -1331 
Q 1566 -1331 1297 -1286 
Q 1028 -1241 775 -1147 
L 775 -588 
Q 1028 -725 1275 -790 
Q 1522 -856 1778 -856 
Q 2344 -856 2625 -561 
Q 2906 -266 2906 331 
L 2906 616 
Q 2728 306 2450 153 
Q 2172 0 1784 0 
Q 1141 0 747 490 
Q 353 981 353 1791 
Q 353 2603 747 3093 
Q 1141 3584 1784 3584 
Q 2172 3584 2450 3431 
Q 2728 3278 2906 2969 
L 2906 3500 
L 3481 3500 
L 3481 434 
z
" transform="scale(0.015625)"/>
      <path id="DejaVuSans-35" d="M 691 4666 
L 3169 4666 
L 3169 4134 
L 1269 4134 
L 1269 2991 
Q 1406 3038 1543 3061 
Q 1681 3084 1819 3084 
Q 2600 3084 3056 2656 
Q 3513 2228 3513 1497 
Q 3513 744 3044 326 
Q 2575 -91 1722 -91 
Q 1428 -91 1123 -41 
Q 819 9 494 109 
L 494 744 
Q 775 591 1075 516 
Q 1375 441 1709 441 
Q 2250 441 2565 725 
Q 2881 1009 2881 1497 
Q 2881 1984 2565 2268 
Q 2250 2553 1709 2553 
Q 1456 2553 1204 2497 
Q 953 2441 691 2322 
L 691 4666 
z
" transform="scale(0.015625)"/>
      <path id="DejaVuSans-2d" d="M 313 2009 
L 1997 2009 
L 1997 1497 
L 313 1497 
L 313 2009 
z
" transform="scale(0.015625)"/>
      <path id="DejaVuSans-50" d="M 1259 4147 
L 1259 2394 
L 2053 2394 
Q 2494 2394 2734 2622 
Q 2975 2850 2975 3272 
Q 2975 3691 2734 3919 
Q 2494 4147 2053 4147 
L 1259 4147 
z
M 628 4666 
L 2053 4666 
Q 2838 4666 3239 4311 
Q 3641 3956 3641 3272 
Q 3641 2581 3239 2228 
Q 2838 1875 2053 1875 
L 1259 1875 
L 1259 0 
L 628 0 
L 628 4666 
z
" transform="scale(0.015625)"/>
      <path id="DejaVuSans-3a" d="M 750 794 
L 1409 794 
L 1409 0 
L 750 0 
L 750 794 
z
M 750 3309 
L 1409 3309 
L 1409 2516 
L 750 2516 
L 750 3309 
z
" transform="scale(0.015625)"/>
      <path id="DejaVuSans-49" d="M 628 4666 
L 1259 4666 
L 1259 0 
L 628 0 
L 628 4666 
z
" transform="scale(0.015625)"/>
      <path id="DejaVuSans-4e" d="M 628 4666 
L 1478 4666 
L 3547 763 
L 3547 4666 
L 4159 4666 
L 4159 0 
L 3309 0 
L 1241 3903 
L 1241 0 
L 628 0 
L 628 4666 
z
" transform="scale(0.015625)"/>
      <path id="DejaVuSans-54" d="M -19 4666 
L 3928 4666 
L 3928 4134 
L 2272 4134 
L 2272 0 
L 1638 0 
L 1638 4134 
L -19 4134 
L -19 4666 
z
" transform="scale(0.015625)"/>
      <path id="DejaVuSans-33" d="M 2597 2516 
Q 3050 2419 3304 2112 
Q 3559 1806 3559 1356 
Q 3559 666 3084 287 
Q 2609 -91 1734 -91 
Q 1441 -91 1130 -33 
Q 819 25 488 141 
L 488 750 
Q 750 597 1062 519 
Q 1375 441 1716 441 
Q 2309 441 2620 675 
Q 2931 909 2931 1356 
Q 2931 1769 2642 2001 
Q 2353 2234 1838 2234 
L 1294 2234 
L 1294 2753 
L 1863 2753 
Q 2328 2753 2575 2939 
Q 2822 3125 2822 3475 
Q 2822 3834 2567 4026 
Q 2313 4219 1838 4219 
Q 1578 4219 1281 4162 
Q 984 4106 628 3988 
L 628 4550 
Q 988 4650 1302 4700 
Q 1616 4750 1894 4750 
Q 2613 4750 3031 4423 
Q 3450 4097 3450 3541 
Q 3450 3153 3228 2886 
Q 3006 2619 2597 2516 
z
" transform="scale(0.015625)"/>
      <path id="DejaVuSans-44" d="M 1259 4147 
L 1259 519 
L 2022 519 
Q 2988 519 3436 956 
Q 3884 1394 3884 2338 
Q 3884 3275 3436 3711 
Q 2988 4147 2022 4147 
L 1259 4147 
z
M 628 4666 
L 1925 4666 
Q 3281 4666 3915 4102 
Q 4550 3538 4550 2338 
Q 4550 1131 3912 565 
Q 3275 0 1925 0 
L 628 0 
L 628 4666 
z
" transform="scale(0.015625)"/>
      <path id="DejaVuSans-2c" d="M 750 794 
L 1409 794 
L 1409 256 
L 897 -744 
L 494 -744 
L 750 256 
L 750 794 
z
" transform="scale(0.015625)"/>
      <path id="DejaVuSans-43" d="M 4122 4306 
L 4122 3641 
Q 3803 3938 3442 4084 
Q 3081 4231 2675 4231 
Q 1875 4231 1450 3742 
Q 1025 3253 1025 2328 
Q 1025 1406 1450 917 
Q 1875 428 2675 428 
Q 3081 428 3442 575 
Q 3803 722 4122 1019 
L 4122 359 
Q 3791 134 3420 21 
Q 3050 -91 2638 -91 
Q 1578 -91 968 557 
Q 359 1206 359 2328 
Q 359 3453 968 4101 
Q 1578 4750 2638 4750 
Q 3056 4750 3426 4639 
Q 3797 4528 4122 4306 
z
" transform="scale(0.015625)"/>
      <path id="DejaVuSans-4c" d="M 628 4666 
L 1259 4666 
L 1259 531 
L 3531 531 
L 3531 0 
L 628 0 
L 628 4666 
z
" transform="scale(0.015625)"/>
     </defs>
     <use xlink:href="#DejaVuSans-46"/>
     <use xlink:href="#DejaVuSans-69" transform="translate(50.269531 0)"/>
     <use xlink:href="#DejaVuSans-67" transform="translate(78.052734 0)"/>
     <use xlink:href="#DejaVuSans-75" transform="translate(141.529297 0)"/>
     <use xlink:href="#DejaVuSans-72" transform="translate(204.908203 0)"/>
     <use xlink:href="#DejaVuSans-65" transform="translate(243.771484 0)"/>
     <use xlink:href="#DejaVuSans-20" transform="translate(305.294922 0)"/>
     <use xlink:href="#DejaVuSans-41" transform="translate(337.082031 0)"/>
     <use xlink:href="#DejaVuSans-35" transform="translate(405.490234 0)"/>
     <use xlink:href="#DejaVuSans-2d" transform="translate(469.113281 0)"/>
     <use xlink:href="#DejaVuSans-73" transform="translate(505.197266 0)"/>
     <use xlink:href="#DejaVuSans-74" transform="translate(557.296875 0)"/>
     <use xlink:href="#DejaVuSans-79" transform="translate(596.505859 0)"/>
     <use xlink:href="#DejaVuSans-6c" transform="translate(655.685547 0)"/>
     <use xlink:href="#DejaVuSans-65" transform="translate(683.46875 0)"/>
     <use xlink:href="#DejaVuSans-20" transform="translate(744.992188 0)"/>
     <use xlink:href="#DejaVuSans-31" transform="translate(776.779297 0)"/>
     <use xlink:href="#DejaVuSans-30" transform="translate(840.402344 0)"/>
     <use xlink:href="#DejaVuSans-30" transform="translate(904.025391 0)"/>
     <use xlink:href="#DejaVuSans-20" transform="translate(967.648438 0)"/>
     <use xlink:href="#DejaVuSans-68" transform="translate(999.435547 0)"/>
     <use xlink:href="#DejaVuSans-50" transform="translate(1062.814453 0)"/>
     <use xlink:href="#DejaVuSans-61" transform="translate(1118.617188 0)"/>
     <use xlink:href="#DejaVuSans-20" transform="translate(1179.896484 0)"/>
     <use xlink:href="#DejaVuSans-65" transform="translate(1211.683594 0)"/>
     <use xlink:href="#DejaVuSans-64" transform="translate(1273.207031 0)"/>
     <use xlink:href="#DejaVuSans-64" transform="translate(1336.683594 0)"/>
     <use xlink:href="#DejaVuSans-79" transform="translate(1400.160156 0)"/>
     <use xlink:href="#DejaVuSans-20" transform="translate(1459.339844 0)"/>
     <use xlink:href="#DejaVuSans-68" transform="translate(1491.126953 0)"/>
     <use xlink:href="#DejaVuSans-65" transform="translate(1554.505859 0)"/>
     <use xlink:href="#DejaVuSans-61" transform="translate(1616.029297 0)"/>
     <use xlink:href="#DejaVuSans-74" transform="translate(1677.308594 0)"/>
     <use xlink:href="#DejaVuSans-20" transform="translate(1716.517578 0)"/>
     <use xlink:href="#DejaVuSans-66" transform="translate(1748.304688 0)"/>
     <use xlink:href="#DejaVuSans-6c" transform="translate(1783.509766 0)"/>
     <use xlink:href="#DejaVuSans-75" transform="translate(1811.292969 0)"/>
     <use xlink:href="#DejaVuSans-78" transform="translate(1874.671875 0)"/>
     <use xlink:href="#DejaVuSans-20" transform="translate(1933.851562 0)"/>
     <use xlink:href="#DejaVuSans-61" transform="translate(1965.638672 0)"/>
     <use xlink:href="#DejaVuSans-6e" transform="translate(2026.917969 0)"/>
     <use xlink:href="#DejaVuSans-6f" transform="translate(2090.296875 0)"/>
     <use xlink:href="#DejaVuSans-6d" transform="translate(2151.478516 0)"/>
     <use xlink:href="#DejaVuSans-61" transform="translate(2248.890625 0)"/>
     <use xlink:href="#DejaVuSans-6c" transform="translate(2310.169922 0)"/>
     <use xlink:href="#DejaVuSans-69" transform="translate(2337.953125 0)"/>
     <use xlink:href="#DejaVuSans-65" transform="translate(2365.736328 0)"/>
     <use xlink:href="#DejaVuSans-73" transform="translate(2427.259766 0)"/>
     <use xlink:href="#DejaVuSans-3a" transform="translate(2479.359375 0)"/>
     <use xlink:href="#DejaVuSans-20" transform="translate(2513.050781 0)"/>
     <use xlink:href="#DejaVuSans-49" transform="translate(2544.837891 0)"/>
     <use xlink:href="#DejaVuSans-4e" transform="translate(2574.330078 0)"/>
     <use xlink:href="#DejaVuSans-54" transform="translate(2649.134766 0)"/>
     <use xlink:href="#DejaVuSans-2d" transform="translate(2701.09375 0)"/>
     <use xlink:href="#DejaVuSans-33" transform="translate(2737.177734 0)"/>
     <use xlink:href="#DejaVuSans-44" transform="translate(2800.800781 0)"/>
     <use xlink:href="#DejaVuSans-2c" transform="translate(2877.802734 0)"/>
     <use xlink:href="#DejaVuSans-20" transform="translate(2909.589844 0)"/>
     <use xlink:href="#DejaVuSans-43" transform="translate(2941.376953 0)"/>
     <use xlink:href="#DejaVuSans-4c" transform="translate(3011.201172 0)"/>
     <use xlink:href="#DejaVuSans-49" transform="translate(3066.914062 0)"/>
     <use xlink:href="#DejaVuSans-4d" transform="translate(3096.40625 0)"/>
     <use xlink:href="#DejaVuSans-2d" transform="translate(3182.685547 0)"/>
     <use xlink:href="#DejaVuSans-33" transform="translate(3218.769531 0)"/>
     <use xlink:href="#DejaVuSans-44" transform="translate(3282.392578 0)"/>
     <use xlink:href="#DejaVuSans-2c" transform="translate(3359.394531 0)"/>
     <use xlink:href="#DejaVuSans-20" transform="translate(3391.181641 0)"/>
     <use xlink:href="#DejaVuSans-43" transform="translate(3422.96875 0)"/>
     <use xlink:href="#DejaVuSans-4c" transform="translate(3492.792969 0)"/>
     <use xlink:href="#DejaVuSans-49" transform="translate(3548.505859 0)"/>
     <use xlink:href="#DejaVuSans-4d" transform="translate(3577.998047 0)"/>
     <use xlink:href="#DejaVuSans-2d" transform="translate(3664.277344 0)"/>
     <use xlink:href="#DejaVuSans-32" transform="translate(3700.361328 0)"/>
     <use xlink:href="#DejaVuSans-44" transform="translate(3763.984375 0)"/>
    </g>
   </g>
   <g id="legend_1">
    <g id="line2d_19">
     <path d="M 212.717344 32.037031 
L 220.717344 32.037031 
L 228.717344 32.037031 
" style="fill: none; stroke: #000080; stroke-width: 1.7; stroke-linecap: square"/>
    </g>
    <g id="text_14">
     <!-- INT-3D low O3 -->
     <g transform="translate(235.117344 34.837031) scale(0.08 -0.08)">
      <defs>
       <path id="DejaVuSans-77" d="M 269 3500 
L 844 3500 
L 1563 769 
L 2278 3500 
L 2956 3500 
L 3675 769 
L 4391 3500 
L 4966 3500 
L 4050 0 
L 3372 0 
L 2619 2869 
L 1863 0 
L 1184 0 
L 269 3500 
z
" transform="scale(0.015625)"/>
       <path id="DejaVuSans-4f" d="M 2522 4238 
Q 1834 4238 1429 3725 
Q 1025 3213 1025 2328 
Q 1025 1447 1429 934 
Q 1834 422 2522 422 
Q 3209 422 3611 934 
Q 4013 1447 4013 2328 
Q 4013 3213 3611 3725 
Q 3209 4238 2522 4238 
z
M 2522 4750 
Q 3503 4750 4090 4092 
Q 4678 3434 4678 2328 
Q 4678 1225 4090 567 
Q 3503 -91 2522 -91 
Q 1538 -91 948 565 
Q 359 1222 359 2328 
Q 359 3434 948 4092 
Q 1538 4750 2522 4750 
z
" transform="scale(0.015625)"/>
      </defs>
      <use xlink:href="#DejaVuSans-49"/>
      <use xlink:href="#DejaVuSans-4e" transform="translate(29.492188 0)"/>
      <use xlink:href="#DejaVuSans-54" transform="translate(104.296875 0)"/>
      <use xlink:href="#DejaVuSans-2d" transform="translate(156.255859 0)"/>
      <use xlink:href="#DejaVuSans-33" transform="translate(192.339844 0)"/>
      <use xlink:href="#DejaVuSans-44" transform="translate(255.962891 0)"/>
      <use xlink:href="#DejaVuSans-20" transform="translate(332.964844 0)"/>
      <use xlink:href="#DejaVuSans-6c" transform="translate(364.751953 0)"/>
      <use xlink:href="#DejaVuSans-6f" transform="translate(392.535156 0)"/>
      <use xlink:href="#DejaVuSans-77" transform="translate(453.716797 0)"/>
      <use xlink:href="#DejaVuSans-20" transform="translate(535.503906 0)"/>
      <use xlink:href="#DejaVuSans-4f" transform="translate(567.291016 0)"/>
      <use xlink:href="#DejaVuSans-33" transform="translate(646.001953 0)"/>
     </g>
    </g>
    <g id="line2d_20">
     <path d="M 212.717344 43.779531 
L 220.717344 43.779531 
L 228.717344 43.779531 
" style="fill: none; stroke: #b22222; stroke-width: 1.7; stroke-linecap: square"/>
    </g>
    <g id="text_15">
     <!-- INT-3D high O3 -->
     <g transform="translate(235.117344 46.579531) scale(0.08 -0.08)">
      <use xlink:href="#DejaVuSans-49"/>
      <use xlink:href="#DejaVuSans-4e" transform="translate(29.492188 0)"/>
      <use xlink:href="#DejaVuSans-54" transform="translate(104.296875 0)"/>
      <use xlink:href="#DejaVuSans-2d" transform="translate(156.255859 0)"/>
      <use xlink:href="#DejaVuSans-33" transform="translate(192.339844 0)"/>
      <use xlink:href="#DejaVuSans-44" transform="translate(255.962891 0)"/>
      <use xlink:href="#DejaVuSans-20" transform="translate(332.964844 0)"/>
      <use xlink:href="#DejaVuSans-68" transform="translate(364.751953 0)"/>
      <use xlink:href="#DejaVuSans-69" transform="translate(428.130859 0)"/>
      <use xlink:href="#DejaVuSans-67" transform="translate(455.914062 0)"/>
      <use xlink:href="#DejaVuSans-68" transform="translate(519.390625 0)"/>
      <use xlink:href="#DejaVuSans-20" transform="translate(582.769531 0)"/>
      <use xlink:href="#DejaVuSans-4f" transform="translate(614.556641 0)"/>
      <use xlink:href="#DejaVuSans-33" transform="translate(693.267578 0)"/>
     </g>
    </g>
    <g id="line2d_21">
     <path d="M 212.717344 55.522031 
L 220.717344 55.522031 
L 228.717344 55.522031 
" style="fill: none; stroke-dasharray: 1.6,2.64; stroke-dashoffset: 0; stroke: #000080; stroke-width: 1.6"/>
    </g>
    <g id="text_16">
     <!-- CLIM-3D low O3 -->
     <g transform="translate(235.117344 58.322031) scale(0.08 -0.08)">
      <use xlink:href="#DejaVuSans-43"/>
      <use xlink:href="#DejaVuSans-4c" transform="translate(69.824219 0)"/>
      <use xlink:href="#DejaVuSans-49" transform="translate(125.537109 0)"/>
      <use xlink:href="#DejaVuSans-4d" transform="translate(155.029297 0)"/>
      <use xlink:href="#DejaVuSans-2d" transform="translate(241.308594 0)"/>
      <use xlink:href="#DejaVuSans-33" transform="translate(277.392578 0)"/>
      <use xlink:href="#DejaVuSans-44" transform="translate(341.015625 0)"/>
      <use xlink:href="#DejaVuSans-20" transform="translate(418.017578 0)"/>
      <use xlink:href="#DejaVuSans-6c" transform="translate(449.804688 0)"/>
      <use xlink:href="#DejaVuSans-6f" transform="translate(477.587891 0)"/>
      <use xlink:href="#DejaVuSans-77" transform="translate(538.769531 0)"/>
      <use xlink:href="#DejaVuSans-20" transform="translate(620.556641 0)"/>
      <use xlink:href="#DejaVuSans-4f" transform="translate(652.34375 0)"/>
      <use xlink:href="#DejaVuSans-33" transform="translate(731.054688 0)"/>
     </g>
    </g>
    <g id="line2d_22">
     <path d="M 314.692344 32.037031 
L 322.692344 32.037031 
L 330.692344 32.037031 
" style="fill: none; stroke-dasharray: 1.6,2.64; stroke-dashoffset: 0; stroke: #b22222; stroke-width: 1.6"/>
    </g>
    <g id="text_17">
     <!-- CLIM-3D high O3 -->
     <g transform="translate(337.092344 34.837031) scale(0.08 -0.08)">
      <use xlink:href="#DejaVuSans-43"/>
      <use xlink:href="#DejaVuSans-4c" transform="translate(69.824219 0)"/>
      <use xlink:href="#DejaVuSans-49" transform="translate(125.537109 0)"/>
      <use xlink:href="#DejaVuSans-4d" transform="translate(155.029297 0)"/>
      <use xlink:href="#DejaVuSans-2d" transform="translate(241.308594 0)"/>
      <use xlink:href="#DejaVuSans-33" transform="translate(277.392578 0)"/>
      <use xlink:href="#DejaVuSans-44" transform="translate(341.015625 0)"/>
      <use xlink:href="#DejaVuSans-20" transform="translate(418.017578 0)"/>
      <use xlink:href="#DejaVuSans-68" transform="translate(449.804688 0)"/>
      <use xlink:href="#DejaVuSans-69" transform="translate(513.183594 0)"/>
      <use xlink:href="#DejaVuSans-67" transform="translate(540.966797 0)"/>
      <use xlink:href="#DejaVuSans-68" transform="translate(604.443359 0)"/>
      <use xlink:href="#DejaVuSans-20" transform="translate(667.822266 0)"/>
      <use xlink:href="#DejaVuSans-4f" transform="translate(699.609375 0)"/>
      <use xlink:href="#DejaVuSans-33" transform="translate(778.320312 0)"/>
     </g>
    </g>
    <g id="line2d_23">
     <path d="M 314.692344 43.779531 
L 322.692344 43.779531 
L 330.692344 43.779531 
" style="fill: none; stroke-dasharray: 5.92,2.56; stroke-dashoffset: 0; stroke: #000080; stroke-width: 1.6"/>
    </g>
    <g id="text_18">
     <!-- CLIM-2D low O3 -->
     <g transform="translate(337.092344 46.579531) scale(0.08 -0.08)">
      <use xlink:href="#DejaVuSans-43"/>
      <use xlink:href="#DejaVuSans-4c" transform="translate(69.824219 0)"/>
      <use xlink:href="#DejaVuSans-49" transform="translate(125.537109 0)"/>
      <use xlink:href="#DejaVuSans-4d" transform="translate(155.029297 0)"/>
      <use xlink:href="#DejaVuSans-2d" transform="translate(241.308594 0)"/>
      <use xlink:href="#DejaVuSans-32" transform="translate(277.392578 0)"/>
      <use xlink:href="#DejaVuSans-44" transform="translate(341.015625 0)"/>
      <use xlink:href="#DejaVuSans-20" transform="translate(418.017578 0)"/>
      <use xlink:href="#DejaVuSans-6c" transform="translate(449.804688 0)"/>
      <use xlink:href="#DejaVuSans-6f" transform="translate(477.587891 0)"/>
      <use xlink:href="#DejaVuSans-77" transform="translate(538.769531 0)"/>
      <use xlink:href="#DejaVuSans-20" transform="translate(620.556641 0)"/>
      <use xlink:href="#DejaVuSans-4f" transform="translate(652.34375 0)"/>
      <use xlink:href="#DejaVuSans-33" transform="translate(731.054688 0)"/>
     </g>
    </g>
    <g id="line2d_24">
     <path d="M 314.692344 55.522031 
L 322.692344 55.522031 
L 330.692344 55.522031 
" style="fill: none; stroke-dasharray: 5.92,2.56; stroke-dashoffset: 0; stroke: #b22222; stroke-width: 1.6"/>
    </g>
    <g id="text_19">
     <!-- CLIM-2D high O3 -->
     <g transform="translate(337.092344 58.322031) scale(0.08 -0.08)">
      <use xlink:href="#DejaVuSans-43"/>
      <use xlink:href="#DejaVuSans-4c" transform="translate(69.824219 0)"/>
      <use xlink:href="#DejaVuSans-49" transform="translate(125.537109 0)"/>
      <use xlink:href="#DejaVuSans-4d" transform="translate(155.029297 0)"/>
      <use xlink:href="#DejaVuSans-2d" transform="translate(241.308594 0)"/>
      <use xlink:href="#DejaVuSans-32" transform="translate(277.392578 0)"/>
      <use xlink:href="#DejaVuSans-44" transform="translate(341.015625 0)"/>
      <use xlink:href="#DejaVuSans-20" transform="translate(418.017578 0)"/>
      <use xlink:href="#DejaVuSans-68" transform="translate(449.804688 0)"/>
      <use xlink:href="#DejaVuSans-69" transform="translate(513.183594 0)"/>
      <use xlink:href="#DejaVuSans-67" transform="translate(540.966797 0)"/>
      <use xlink:href="#DejaVuSans-68" transform="translate(604.443359 0)"/>
      <use xlink:href="#DejaVuSans-20" transform="translate(667.822266 0)"/>
      <use xlink:href="#DejaVuSans-4f" transform="translate(699.609375 0)"/>
      <use xlink:href="#DejaVuSans-33" transform="translate(778.320312 0)"/>
     </g>
    </g>
   </g>
  </g>
 </g>
 <defs>
  <clipPath id="pdadcc29c8c">
   <rect x="42.567969" y="21.558281" width="532.03" height="249.56"/>
  </clipPath>
 </defs>
</svg>
